<svg width="129" height="129" viewBox="0 0 129 129" fill="none" xmlns="http://www.w3.org/2000/svg">
<path d="M64.041 128.039C28.7194 128.039 0.0410159 99.3607 0.0410159 64.0391C0.0410159 28.7175 28.7194 0.0390627 64.041 0.0390627C99.3626 0.0390627 128.041 28.7175 128.041 64.0391C128.041 99.3607 99.3626 128.039 64.041 128.039Z" fill="#16A34A"/>
<path d="M64.041 126.479C29.5812 126.479 1.6014 98.4989 1.6014 64.0391C1.6014 29.5792 29.5812 1.59944 64.041 1.59944C98.5008 1.59944 126.481 29.5792 126.481 64.0391C126.481 98.4989 98.5008 126.479 64.041 126.479Z" fill="#16A34A" stroke="#16A34A" stroke-width="3.12089" stroke-linecap="round" stroke-linejoin="round"/>
<path d="M43.163 64.6784L56.644 78.1773L84.8975 49.9614" stroke="white" stroke-width="10.9802" stroke-linecap="round" stroke-linejoin="round"/>
</svg>