<svg width="166" height="48" viewBox="0 0 166 48" fill="none" xmlns="http://www.w3.org/2000/svg">
<path d="M21.2853 5.82497C19.3665 3.91344 16.2503 3.9339 14.3383 5.8522L1.9682 18.2656C0.0559666 20.1842 0.0802965 23.2456 1.9986 25.1574L22.2805 45.4393C24.1993 47.3506 27.3093 47.3347 29.2213 45.4164L35.2498 39.3879C33.4916 41.1461 32.0448 39.8819 30.3302 38.1746L26.9678 34.8122C24.415 35.8226 21.4316 35.3206 19.3635 33.2564L16.8011 30.694C16.7149 30.6086 16.6483 30.5193 16.6016 30.4073C16.5549 30.2953 16.5307 30.1751 16.5306 30.0537C16.5305 29.9323 16.5544 29.8121 16.601 29.7C16.6475 29.5879 16.7205 29.493 16.8066 29.4074L18.2566 27.9573L15.1 24.8007C14.6059 24.3076 14.5252 23.5113 14.9671 22.9734C15.4722 22.3557 16.388 22.323 16.9421 22.8759L20.1414 26.0726L22.3082 23.9057L19.1442 20.7494C18.6499 20.2561 18.5694 19.46 19.015 18.9183C19.1332 18.7744 19.2802 18.6569 19.4466 18.5731C19.6129 18.4894 19.7949 18.4414 19.9809 18.4323C20.1669 18.4231 20.3528 18.4529 20.5266 18.5198C20.7003 18.5867 20.8582 18.6892 20.99 18.8208L24.2023 22.0116L25.5636 20.6503C25.6491 20.5642 25.7333 20.4866 25.8453 20.4399C25.9573 20.3932 26.0775 20.369 26.1989 20.3689C26.3202 20.3688 26.4405 20.3927 26.5526 20.4392C26.6647 20.4857 26.7665 20.5539 26.8522 20.6399L29.4186 23.2013C31.461 25.2396 31.9949 28.2062 31.0402 30.7398L34.4033 34.103C36.1179 35.8102 37.5525 37.0852 39.3107 35.327L46.9179 27.7198C45.0894 29.5483 43.5872 28.1396 41.7801 26.3341L21.2853 5.82497Z" fill="url(#paint0_linear_234_1354)"/>
<path d="M35.6671 2.44261L29.2007 8.90387L43.5685 23.2717C44.9437 24.6411 46.1389 25.7324 47.4655 25.2033C48.2321 24.8975 48.7584 24.0658 48.4645 23.2945C41.5895 5.25474 41.5867 5.25446 40.6747 3.28256C39.7626 1.31065 37.1977 0.892529 35.6671 2.44261Z" fill="#897FFF"/>
<path d="M35.6671 2.44261L29.2007 8.90387L43.5685 23.2717C44.9437 24.6411 46.1389 25.7324 47.4655 25.2033C48.2321 24.8975 48.7584 24.0658 48.4645 23.2945C41.5895 5.25474 41.5867 5.25446 40.6747 3.28256C39.7626 1.31065 37.1977 0.892529 35.6671 2.44261Z" fill="#897FFF"/>
<path d="M35.6671 2.44261L29.2007 8.90387L43.5685 23.2717C44.9437 24.6411 46.1389 25.7324 47.4655 25.2033C48.2321 24.8975 48.7584 24.0658 48.4645 23.2945C41.5895 5.25474 41.5867 5.25446 40.6747 3.28256C39.7626 1.31065 37.1977 0.892529 35.6671 2.44261Z" fill="#897FFF"/>
<path d="M35.6671 2.44261L29.2007 8.90387L43.5685 23.2717C44.9437 24.6411 46.1389 25.7324 47.4655 25.2033C48.2321 24.8975 48.7584 24.0658 48.4645 23.2945C41.5895 5.25474 41.5867 5.25446 40.6747 3.28256C39.7626 1.31065 37.1977 0.892529 35.6671 2.44261Z" fill="#897FFF"/>
<path d="M35.6671 2.44261L29.2007 8.90387L43.5685 23.2717C44.9437 24.6411 46.1389 25.7324 47.4655 25.2033C48.2321 24.8975 48.7584 24.0658 48.4645 23.2945C41.5895 5.25474 41.5867 5.25446 40.6747 3.28256C39.7626 1.31065 37.1977 0.892529 35.6671 2.44261Z" fill="#897FFF"/>
<path d="M64.9531 40.5C64.1765 40.5 63.5469 39.8704 63.5469 39.0938V11.9062C63.5469 11.1296 64.1765 10.5 64.9531 10.5H69.4177C70.1672 10.5 70.785 11.0878 70.8222 11.8363L71.1693 18.8021C71.1893 19.2039 70.7093 19.4251 70.4169 19.1488V19.1488C70.3002 19.0386 70.2513 18.874 70.2917 18.7188C70.763 16.9098 71.4842 15.4055 72.4553 14.2059C73.4712 12.951 74.702 12.0294 76.1477 11.4412C77.6324 10.8137 79.2539 10.5 81.0121 10.5C83.0439 10.5 84.8412 10.8922 86.4041 11.6765C88.006 12.4608 89.2564 13.6569 90.155 15.2647C91.0927 16.8333 91.5616 18.8137 91.5616 21.2059V39.0938C91.5616 39.8704 90.932 40.5 90.1554 40.5H84.9385C84.1619 40.5 83.5323 39.8704 83.5323 39.0937V23.5C83.5323 20.9902 83.0439 19.2647 82.0671 18.3235C81.0903 17.3431 79.8204 16.8529 78.2576 16.8529C77.1635 16.8529 76.089 17.1275 75.0341 17.6765C74.0182 18.1863 73.1782 19.0294 72.5139 20.2059C71.8888 21.3824 71.5762 22.951 71.5762 24.9118V39.0937C71.5762 39.8704 70.9466 40.5 70.1699 40.5H64.9531Z" fill="black"/>
<path d="M129.686 11.5561C129.846 10.9345 130.407 10.5 131.048 10.5H136.603C137.555 10.5 138.232 11.4262 137.943 12.3332L133.823 25.261L129.425 39.4996C129.243 40.0889 128.698 40.4908 128.081 40.4908H120.893C120.278 40.4908 119.734 40.0908 119.551 39.5035L113.926 21.4826C113.789 21.0414 113.163 21.0447 113.03 21.4873L107.618 39.4894C107.439 40.0839 106.892 40.4908 106.271 40.4908H99.0895C98.4748 40.4908 97.9314 40.0916 97.7476 39.505L89.2317 12.3267C88.9479 11.421 89.6245 10.5 90.5736 10.5H96.1403C96.781 10.5 97.3408 10.9331 97.5016 11.5534L102.666 31.4795C102.786 31.9413 103.439 31.9499 103.571 31.4914L109.314 11.5177C109.487 10.9151 110.038 10.5 110.665 10.5H116.524C117.15 10.5 117.7 10.9138 117.874 11.5151L123.66 31.4922C123.793 31.9505 124.445 31.9406 124.564 31.4786L129.686 11.5561Z" fill="black"/>
<path d="M149.175 10.5C151.742 10.5 153.908 10.8846 155.67 11.6538C157.471 12.3846 158.908 13.4038 159.981 14.7115C160.793 15.6381 161.43 16.6467 161.894 17.7372C162.185 18.4205 161.794 19.1771 161.095 19.429L156.485 21.092C155.687 21.3797 154.831 20.8942 154.53 20.1015C154.152 19.1094 153.651 18.3128 153.026 17.7115C152.107 16.8269 150.861 16.3846 149.29 16.3846C147.834 16.3846 146.588 16.7308 145.554 17.4231C144.519 18.0769 143.733 19.0962 143.197 20.4808C142.66 21.8269 142.392 23.5192 142.392 25.5577C142.392 27.5962 142.66 29.2885 143.197 30.6346C143.772 31.9808 144.576 32.9808 145.611 33.6346C146.684 34.2885 147.93 34.6154 149.347 34.6154C150.497 34.6154 151.474 34.4231 152.279 34.0385C153.084 33.6154 153.735 33.0192 154.233 32.25C154.492 31.8794 154.71 31.4731 154.889 31.0311C155.208 30.24 156.049 29.715 156.86 29.9778L161.211 31.3863C161.911 31.6131 162.328 32.3462 162.073 33.0366C161.62 34.2594 160.961 35.3626 160.096 36.3462C158.947 37.6538 157.471 38.6731 155.67 39.4038C153.869 40.1346 151.781 40.5 149.405 40.5C146.454 40.5 143.848 39.9038 141.587 38.7115C139.327 37.5192 137.583 35.8077 136.357 33.5769C135.13 31.3462 134.517 28.6538 134.517 25.5C134.517 22.3462 135.13 19.6538 136.357 17.4231C137.583 15.1923 139.307 13.4808 141.53 12.2885C143.753 11.0962 146.301 10.5 149.175 10.5Z" fill="black"/>
<defs>
<linearGradient id="paint0_linear_234_1354" x1="23.7324" y1="1.95768" x2="23.7324" y2="46.864" gradientUnits="userSpaceOnUse">
<stop stop-color="#FFCA4A"/>
<stop offset="1" stop-color="#F7931A"/>
</linearGradient>
</defs>
</svg>
