<svg width="1547" height="700" fill="none" xmlns="http://www.w3.org/2000/svg"><g clip-path="url(#a)"><path d="M1151.05 136.302c6.82-4.361 13.47-8.968 20.39-13.156-4.79 10.742-9.56 21.508-14.35 32.251-1.32 2.981 3.05 5.592 4.4 2.587 5.91-13.28 11.83-26.585 17.77-39.889.71-1.577-.08-4.065-2.2-3.844-15.03 1.429-30.06 2.883-45.07 4.312-3.23.32-3.28 5.445 0 5.125 11.39-1.084 22.8-2.193 34.22-3.277-9.19 5.691-18.04 11.925-27.3 17.468-11.98 7.17-25.15 14.192-39.18 15.744-12.64 1.379-24.86-3.819-31.65-14.906-5.26-8.55-7.14-19.242-9.41-28.901-4.23-18.01-8.85-45.284-29.87-50.729-12.32-3.203-25.95 2.414-35.951 9.412-12.049 8.475-21.458 20.967-27.153 34.567-5.157 12.368-7.405 26.141-4.179 39.297.782 3.203 5.694 1.848 4.888-1.355-7.088-28.703 13.027-61.767 38.665-73.741 9.82-4.583 22.51-6.258 31.23 1.429 7.63 6.726 10.95 17.567 13.59 27.052 5.67 20.277 6.8 45.851 26.35 58.121 11 6.899 24.61 5.79 36.49 2.07 13.71-4.287 26.27-11.925 38.3-19.637h.02Z" fill="#374151"/></g><g clip-path="url(#b)"><path d="m1222.73 281.706-28.39-20.52c-2.91-2.104-6.81 1.953-3.86 4.094 7.29 5.278 14.57 10.537 21.86 15.815-16.79 2.347-34.15-2.305-50.17-6.994-20.56-6.038-40.91-12.428-59.84-22.69-.55-.291-1.05-.584-1.6-.875 1.67-.43 3.33-.917 4.94-1.518 6.08-2.221 11.64-5.979 13.86-12.289 2.29-6.504-1.77-13.751-6.06-18.385-9.02-9.733-26.49-16.567-39.43-11.97-5.24 1.871-9.89 6.332-10.25 12.092-.33 5.453 2.69 10.524 5.92 14.689 4.29 5.496 9.52 10.123 15.2 14.181-4.64.417-9.31.662-13.9.944-17.37 1.06-34.67 2.232-51.17 8.232-7.93 2.905-15.62 7.068-21.563 13.137-3.622 3.724-7.662 9.395-5.634 14.839 1.275 3.395 6.67 1.826 5.395-1.569-1.193-3.244 1.827-6.606 3.842-8.867 3.6-4.01 8.22-6.899 13-9.313 9.85-5.028 21.19-7.492 32.09-8.927 10.56-1.387 21.25-1.647 31.86-2.423 4.42-.334 8.95-.633 13.42-1.256 4.03 2.456 8.16 4.679 12.29 6.787 18.54 9.526 38.55 15.484 58.49 21.271 14.06 4.073 28.82 7.61 43.5 6.989-6.97 3.204-13.95 6.446-20.64 10.102-3.2 1.738-.23 6.542 2.93 4.805 10.8-5.879 22.29-10.742 33.43-15.959 1.53-.714 1.87-3.445.48-4.46v.038Zm-151.37-56.11c-2.8-4.829-2.68-9.547 2.21-12.75 6.01-3.963 14.54-2.093 20.83.089 5.66 1.95 11.04 5.27 15.19 9.523 3.86 3.937 6.81 10.544 3.09 15.477-3.46 4.582-9.92 6.449-15.27 7.614-1.35.287-2.68.516-4.02.745-8.68-5.393-16.99-11.965-22.03-20.66v-.038Z" fill="#374151"/></g><g clip-path="url(#c)"><path d="M1187.39 464.748c-18.62-4.874-37.23-9.773-55.84-14.647-3.93-1.045-2.29-6.366 1.65-5.347 15.7 4.117 31.38 8.225 47.09 12.342-10.14-11.353-19.67-23.137-29.27-34.827-6.89-8.407-15.57-13.593-26.55-9.38-8.18 3.137-13.29 10.567-19.31 16.06-5.62 5.162-13.81 9.812-22.56 8.014-10.65-2.191-17.91-11.385-22.7-19.707-10.25-17.778-9.98-38.192-16.26-56.912-2.89-8.634-7.97-17.579-18.01-20.82-9.78-3.161-20.09 1.937-25.722 8.475-2.375 2.759-7.77-.427-5.359-3.202 11.581-13.46 34.191-16.786 47.281-.608 5.88 7.277 8.54 16.261 10.61 24.757 2.32 9.557 3.79 19.189 6.27 28.713 2.7 10.379 7.17 20.795 15.59 28.773 9.02 8.527 19.03 4.862 26.5-1.758 6.03-5.321 10.78-11.68 18.14-15.686 8.44-4.604 18.91-4.385 27.55 1.015 4.34 2.718 7.35 6.632 10.45 10.376 3.32 4.038 6.67 8.086 10.03 12.133 5.13 6.176 10.27 12.352 15.6 18.444-3.22-14.254-6.44-28.483-9.66-42.738-.82-3.604 5.23-4.693 6.02-1.098 4.11 18.161 8.22 36.297 12.32 54.458.5 2.181-1.46 3.826-3.84 3.205l-.02-.035Z" fill="#374151"/></g><g clip-path="url(#d)"><path d="M1032.45 528.368c.42-.183.39-.34 0 0Z" fill="#1F2A37"/><path d="M1011.38 555.143c3.24-4.301 6.51-8.56 9.8-12.838 2.49-3.225 4.99-6.412 7.56-9.593.89-1.104 1.81-2.225 2.74-3.286.23-.276.46-.512.71-.766.13-.108.21-.18.29-.252-.28.135-.78.275-1.5.282 3.66-.01 4.09-5.699.4-5.692-2.38.024-3.86 2.369-5.24 4.001-2.62 3.081-5.1 6.288-7.58 9.495 4.11-10.561 7.02-21.637 7.4-32.894.24-7.123-.46-16.784-6.09-21.936-5-4.542-11.78-2.441-16.89.654-16.787 10.099-25.68 29.364-41.14 41.154-6.365 4.873-18.382 11.015-25.429 4.03-6.336-6.292-4.918-18.117-4.619-26.131.696-18.589 3.551-37.159.215-55.668-2.005-11-7.136-20.669-18.284-24.31-16.82-5.449-41.757 4.706-49.598-16.733-1.278-3.477-6.41-.986-5.168 2.45 3.944 10.809 12.641 16.142 23.696 17.461 10.034 1.187 20.616-.796 30.322 2.605 14.305 4.977 14.837 24.646 14.99 37.109.115 10.204-.917 20.383-1.559 30.551-.573 9.162-1.581 19.285 1.169 28.218 1.843 6.008 5.915 10.989 12.122 12.661 7.582 2.042 15.899-1.505 22.219-5.428 15.565-9.661 24.436-26.613 37.921-38.544 3.273-2.917 10.253-9.05 15.163-6.616 5.92 2.936 5.46 14.732 5.17 20.158-.71 13.316-5.3 26.625-11.04 38.782-2.48-8.331-4.98-16.643-7.44-24.952-1.05-3.499-6.66-2.482-5.599 1.038 3.382 11.332 6.749 22.645 10.149 33.96.73 2.425 3.59 3.176 5.18 1.072l-.04-.042Z" fill="#374151"/></g><path d="M794 542.276c0 125.381-186.484-4.999-294.307 0C391.871 547.275 350.5 647 283 456" stroke="#1F2A37" stroke-width="14.234"/><path d="M289.631 492.087c-4.026-17.391-4.004-33.208-50.162-44.216l81.019-10.394c-33.242 21.398-30.833 37.214-30.857 54.61Z" fill="#1F2A37"/><path d="m345.758 201.484-34.156 147.341 86.303 19.425 29.01-149.34-81.157-17.426Z" fill="url(#e)"/><path d="M129.288 337.195c-3.541 1.797-6.114 5.14-7.643 8.798-1.529 3.659-2.104 7.638-2.453 11.585-.666 7.517-.554 15.101.542 22.83.076.536.176 1.064.3 1.581l16.037-15.039-6.783-29.755Z" fill="#6F63FC"/><path d="M129.288 337.195c-3.541 1.797-6.114 5.14-7.643 8.798-1.529 3.659-2.104 7.638-2.453 11.585-.666 7.517-.554 15.101.542 22.83.076.536.176 1.064.3 1.581l16.037-15.039-6.783-29.755Z" fill="#000" fill-opacity=".2"/><path d="M129.29 337.195c-3.541 1.797-6.115 5.14-7.643 8.798-1.067 2.553-1.654 5.264-2.04 8.009a8.187 8.187 0 0 0 1.632 1.716c3.305 2.575 7.798 2.953 11.99 2.855.31-.008.616-.033.925-.046l-4.864-21.332Z" fill="#897FFF"/><path d="M136.41 312.989a474.128 474.128 0 0 1-6.277-40.96c-1.035-9.508 5.235-18.268 14.591-20.377 60.647-13.664 123.837-15.98 186.541-18.228 7.31-.263 14.86-.489 21.679 2.155 5.205 2.017 9.905 6.162 11.774 11.254 0 0 4.69 16.159 6.51 26.298 1.821 10.139-110.788 38.362-110.788 38.362l-124.03 1.496Z" fill="#F2BF53"/><path d="M136.41 312.989a474.128 474.128 0 0 1-6.277-40.96c-1.035-9.508 5.235-18.268 14.591-20.377 60.647-13.664 123.837-15.98 186.541-18.228 7.31-.263 14.86-.489 21.679 2.155 5.205 2.017 9.905 6.162 11.774 11.254 0 0 4.69 16.159 6.51 26.298 1.821 10.139-110.788 38.362-110.788 38.362l-124.03 1.496Z" fill="#000" fill-opacity=".1"/><path d="M364.721 246.833c-1.871-5.092-6.569-9.237-11.774-11.254-6.819-2.644-14.369-2.418-21.679-2.155-62.704 2.248-125.894 4.564-186.541 18.228a18.817 18.817 0 0 0-13.885 12.917 1200.078 1200.078 0 0 1 207.162-20.555c3.521-.043 7.196-.038 10.184 2.119 1.254.904 2.222 2.203 2.579 3.666 2.023 8.292 1.27 12.979 1.27 12.979s-7.214 20.647 5.802 17.363c6.293-1.588 8.877-12.166 9.77-22.759-1.535-5.885-2.888-10.549-2.888-10.549Z" fill="#FFDF6F"/><path d="M364.721 246.833c-1.871-5.092-6.569-9.237-11.774-11.254-6.819-2.644-14.369-2.418-21.679-2.155-62.704 2.248-125.894 4.564-186.541 18.228a18.817 18.817 0 0 0-13.885 12.917 1200.078 1200.078 0 0 1 207.162-20.555c3.521-.043 7.196-.038 10.184 2.119 1.254.904 2.222 2.203 2.579 3.666 2.023 8.292 1.27 12.979 1.27 12.979s-7.214 20.647 5.802 17.363c6.293-1.588 8.877-12.166 9.77-22.759-1.535-5.885-2.888-10.549-2.888-10.549Z" fill="#fff" fill-opacity=".2"/><path d="M220.242 131.272c-13.36-11.02-33.891-12.377-48.593-3.209-14.705 9.166-22.478 28.165-18.397 44.974 4.079 16.809 19.702 30.16 36.983 31.605 17.28 1.446 34.915-9.125 41.744-25.018 6.83-15.899 2.753-36.402-11.737-48.352Z" fill="#F7A145"/><path d="M211.258 137.254c-10.839-7.294-26.331-6.833-36.714 1.092-10.383 7.922-14.878 22.717-10.654 35.056 4.226 12.339 16.854 21.302 29.929 21.237 13.071-.068 25.615-9.154 29.714-21.533 4.1-12.383-.149-27.691-12.275-35.852Z" fill="#FF8330"/><path opacity=".15" d="M231.978 179.62c3.782-8.801 4.204-19.01 1.385-28.401 1.037 16.892-5.11 37.166-24.613 45.361-20.034 8.419-35.324 1.405-44.074-3.931 6.881 6.702 15.961 11.186 25.558 11.989 17.28 1.446 34.916-9.125 41.744-25.018Z" fill="#2E2854"/><path d="M171.65 128.065c-10.292 6.417-17.168 17.649-18.982 29.575 2.515-8.665 8.311-22.266 25.698-29.404 12.052-4.947 25.559-4.077 38.124.35-13.24-8.463-31.45-8.871-44.84-.521Z" fill="#F5B878"/><path d="M211.258 137.254c-10.839-7.294-26.331-6.833-36.714 1.092-10.383 7.922-14.878 22.717-10.654 35.056 4.226 12.339 16.854 21.302 29.929 21.237 13.071-.068 25.615-9.154 29.714-21.533 4.1-12.383-.149-27.691-12.275-35.852Z" stroke="#F7732E" stroke-width="2.372" stroke-miterlimit="10" stroke-linecap="round" stroke-linejoin="round"/><path fill-rule="evenodd" clip-rule="evenodd" d="M194.909 146.093a2.713 2.713 0 0 1 1.915 3.322l-.267.998 1.162.312.267-.998a2.707 2.707 0 1 1 5.231 1.404l-.315 1.177a8.399 8.399 0 0 1 4.272 9.643 8.352 8.352 0 0 1-2.706 4.258 8.442 8.442 0 0 1 1.356 7.196l-.063.235c-1.17 4.376-5.66 6.973-10.029 5.8l-.081-.022-.267.998a2.707 2.707 0 1 1-5.231-1.404l.267-.998-1.162-.312-.267.998a2.707 2.707 0 1 1-5.231-1.404l.267-.998-3.777-1.014a2.712 2.712 0 0 1-1.915-3.321 2.708 2.708 0 0 1 3.316-1.919l.769.207 4.497-16.81-.77-.207a2.712 2.712 0 0 1 1.402-5.239l3.777 1.014.267-.998a2.707 2.707 0 0 1 3.316-1.918Zm-2.762 8.752-1.533 5.733 7.702 2.068a2.968 2.968 0 0 0 1.533-5.734l-7.702-2.067Zm-2.935 10.973-1.561 5.837 9.483 2.545c1.48.397 3-.482 3.397-1.964l.062-.235a3.021 3.021 0 0 0-2.132-3.7l-9.249-2.483Z" fill="#fff"/><path d="M404.275 171.492c-17.095-2.882-35.556 6.181-43.692 21.452-8.139 15.272-5.346 35.602 6.616 48.123 11.959 12.523 32.182 16.295 47.872 8.929 15.69-7.365 25.663-25.314 23.609-42.482-2.056-17.175-15.866-32.898-34.405-36.022Z" fill="#F7A145"/><path d="M399.491 181.154c-13.044-.912-26.229 7.212-31.249 19.253-5.019 12.038-1.495 27.093 8.35 35.672 9.846 8.579 25.275 10.044 36.566 3.467 11.286-6.577 17.594-20.7 14.938-33.465-2.658-12.768-14.012-23.907-28.605-24.927Z" fill="#FF8330"/><path opacity=".15" d="M438.681 207.512c-1.137-9.508-5.89-18.56-13.04-25.287 9.367 14.112 14.208 34.735 1.426 51.558-13.129 17.281-29.887 18.831-40.14 18.573 9.319 2.373 19.431 1.728 28.145-2.362 15.69-7.365 25.663-25.314 23.609-42.482Z" fill="#2E2854"/><path d="M360.581 192.946c-5.696 10.688-6.02 23.844-1.612 35.078-2.166-8.759-3.965-23.428 7.514-38.279 7.957-10.295 20.091-16.277 33.191-18.709-15.708-.727-31.683 8-39.093 21.91Z" fill="#F5B878"/><path d="M399.491 181.154c-13.044-.912-26.229 7.212-31.249 19.253-5.019 12.038-1.495 27.093 8.35 35.672 9.846 8.579 25.275 10.044 36.566 3.467 11.286-6.577 17.594-20.7 14.938-33.465-2.658-12.768-14.012-23.907-28.605-24.927Z" stroke="#F7732E" stroke-width="2.372" stroke-miterlimit="10" stroke-linecap="round" stroke-linejoin="round"/><path fill-rule="evenodd" clip-rule="evenodd" d="M389.766 196.957a2.72 2.72 0 0 1 3.323 1.922l.269.997 1.164-.309-.27-.997a2.7 2.7 0 0 1 1.911-3.315 2.722 2.722 0 0 1 3.323 1.922l.317 1.176a8.429 8.429 0 0 1 8.535 6.221 8.338 8.338 0 0 1-.209 5.037 8.468 8.468 0 0 1 4.782 5.556l.063.235c1.181 4.373-1.406 8.861-5.777 10.024l-.082.022.27.997a2.698 2.698 0 0 1-1.911 3.314 2.72 2.72 0 0 1-3.323-1.922l-.269-.997-1.163.309.269.998a2.698 2.698 0 0 1-1.91 3.314 2.721 2.721 0 0 1-3.324-1.922l-.269-.997-3.78 1.005a2.72 2.72 0 0 1-3.323-1.922 2.698 2.698 0 0 1 1.91-3.314l.77-.205-4.534-16.8-.77.205a2.722 2.722 0 0 1-3.323-1.922 2.698 2.698 0 0 1 1.91-3.315l3.78-1.006-.269-.997a2.698 2.698 0 0 1 1.91-3.314Zm1.996 8.957 1.546 5.729 7.707-2.05a2.953 2.953 0 0 0 2.09-3.627 2.979 2.979 0 0 0-3.637-2.103l-7.706 2.051Zm2.959 10.966 1.574 5.833 9.489-2.524a2.765 2.765 0 0 0 1.957-3.395l-.064-.234a3.032 3.032 0 0 0-3.702-2.142l-9.254 2.462Z" fill="#fff"/><path d="M334.817 233.584c-8.361-15.147-26.954-23.938-44.006-20.803-17.054 3.132-31.288 17.949-33.689 35.077-2.404 17.127 7.203 35.272 22.74 42.953 15.536 7.681 35.834 4.318 48.043-7.958 12.213-12.281 15.981-32.843 6.912-49.269Z" fill="#F7A145"/><path d="M324.257 235.848c-7.391-10.758-21.967-16.01-34.545-12.448-12.575 3.56-22.211 15.67-22.831 28.694-.62 13.024 7.819 25.99 20.002 30.724 12.181 4.73 27.196.88 35.571-9.128 8.378-10.013 10.071-25.806 1.803-37.842Z" fill="#FF8330"/><path opacity=".15" d="M327.906 282.85c6.762-6.798 10.918-16.137 11.758-25.904-5.263 16.089-18.454 32.689-39.612 33.158-21.734.482-33.367-11.647-39.537-19.818 3.927 8.756 10.719 16.255 19.347 20.522 15.537 7.681 35.835 4.317 48.044-7.958Z" fill="#2E2854"/><path d="M290.812 212.782c-11.936 2.193-22.471 10.117-28.555 20.542 5.533-7.136 15.938-17.659 34.738-17.921 13.031-.181 25.272 5.582 35.324 14.306-9.192-12.725-25.976-19.782-41.507-16.927Z" fill="#F5B878"/><path d="M324.257 235.848c-7.391-10.758-21.967-16.01-34.545-12.448-12.575 3.56-22.211 15.67-22.831 28.694-.62 13.024 7.819 25.99 20.002 30.724 12.181 4.73 27.196.88 35.571-9.128 8.378-10.013 10.071-25.806 1.803-37.842Z" stroke="#F7732E" stroke-width="2.372" stroke-miterlimit="10" stroke-linecap="round" stroke-linejoin="round"/><path fill-rule="evenodd" clip-rule="evenodd" d="M305.793 238.073a2.71 2.71 0 0 1 .556 3.792l-.616.83.966.716.616-.83a2.711 2.711 0 0 1 3.791-.567c1.2.89 1.449 2.587.555 3.791l-.726.979a8.39 8.39 0 0 1 .418 10.534 8.375 8.375 0 0 1-4.087 2.967 8.44 8.44 0 0 1-1.392 7.19l-.145.195c-2.702 3.64-7.835 4.409-11.465 1.717l-.067-.051-.616.83a2.711 2.711 0 0 1-3.791.568 2.71 2.71 0 0 1-.556-3.792l.616-.83-.966-.716-.616.83a2.71 2.71 0 0 1-3.791.567 2.708 2.708 0 0 1-.555-3.791l.616-.83-3.139-2.328a2.707 2.707 0 0 1-.556-3.791 2.711 2.711 0 0 1 3.791-.568l.639.474 10.379-13.983-.64-.474a2.71 2.71 0 0 1-.555-3.792 2.71 2.71 0 0 1 3.79-.567l3.14 2.328.616-.83a2.71 2.71 0 0 1 3.79-.568Zm-5.795 7.126-3.54 4.77 6.401 4.747a2.967 2.967 0 0 0 4.148-.621 2.965 2.965 0 0 0-.609-4.149l-6.4-4.747Zm-6.775 9.129-3.604 4.855 7.881 5.845a2.778 2.778 0 0 0 3.883-.582l.144-.195a3.016 3.016 0 0 0-.618-4.223l-7.686-5.7Z" fill="#fff"/><path d="M154.738 425.107c-17.26 1.629-32.74 15.148-36.636 31.999-3.898 16.852 4.075 35.768 18.879 44.775 14.801 9.009 35.315 7.433 48.559-3.732 13.244-11.164 18.219-31.075 11.779-47.129-6.443-16.059-23.863-27.681-42.581-25.913Z" fill="#F7A145"/><path d="M152.623 435.675c-12.835 2.486-23.463 13.736-25.187 26.663-1.724 12.923 5.587 26.555 17.322 32.301 11.737 5.745 27.021 3.177 36.22-6.089 9.195-9.267 11.623-24.537 5.745-36.181-5.882-11.647-19.739-19.476-34.1-16.694Z" fill="#FF8330"/><path opacity=".15" d="M197.316 451.019c-3.565-8.891-10.505-16.407-19.157-21.059 12.71 11.213 22.738 29.883 14.757 49.433-8.196 20.08-23.981 25.903-33.952 28.301 9.618-.113 19.217-3.346 26.573-9.546 13.244-11.164 18.219-31.076 11.779-47.129Z" fill="#2E2854"/><path d="M118.102 457.102c-2.728 11.795.373 24.587 7.547 34.299-4.366-7.901-9.911-21.606-2.677-38.914 5.014-11.997 15.183-20.908 27.205-26.638-15.362 3.353-28.527 15.906-32.075 31.253Z" fill="#F5B878"/><path d="M152.623 435.675c-12.835 2.486-23.463 13.736-25.187 26.663-1.724 12.923 5.587 26.555 17.322 32.301 11.737 5.745 27.021 3.177 36.22-6.089 9.195-9.267 11.623-24.537 5.745-36.181-5.882-11.647-19.739-19.476-34.1-16.694Z" stroke="#F7732E" stroke-width="2.372" stroke-miterlimit="10" stroke-linecap="round" stroke-linejoin="round"/><path fill-rule="evenodd" clip-rule="evenodd" d="M147.332 453.453a2.724 2.724 0 0 1 3.709.999l.519.893 1.043-.599-.519-.894a2.695 2.695 0 0 1 .985-3.694 2.724 2.724 0 0 1 3.709.998l.612 1.054a8.442 8.442 0 0 1 9.858 3.806 8.337 8.337 0 0 1 1.105 4.92 8.48 8.48 0 0 1 6.061 4.132l.122.21c2.275 3.92.941 8.923-2.979 11.174l-.073.042.519.894a2.696 2.696 0 0 1-.985 3.695 2.727 2.727 0 0 1-3.71-.999l-.518-.894-1.043.599.519.894a2.695 2.695 0 0 1-.985 3.694 2.725 2.725 0 0 1-3.71-.998l-.518-.894-3.39 1.947a2.724 2.724 0 0 1-3.709-.999 2.695 2.695 0 0 1 .985-3.695l.69-.396-8.739-15.057-.69.396a2.725 2.725 0 0 1-3.71-.998 2.696 2.696 0 0 1 .985-3.695l3.391-1.947-.519-.894a2.695 2.695 0 0 1 .985-3.694Zm4.252 8.136 2.98 5.135 6.912-3.969a2.949 2.949 0 0 0 1.078-4.043 2.982 2.982 0 0 0-4.058-1.093l-6.912 3.97Zm5.705 9.829 3.034 5.228 8.51-4.887a2.76 2.76 0 0 0 1.009-3.785l-.122-.21a3.035 3.035 0 0 0-4.131-1.113l-8.3 4.767Z" fill="#fff"/><path d="M151.786 249.247c-16.016-6.619-36.041-1.901-47.394 11.17-11.356 13.07-13.19 33.509-4.337 48.38 8.849 14.872 27.716 23.057 44.66 19.375 16.943-3.681 30.687-18.952 32.532-36.144 1.846-17.199-8.091-35.603-25.461-42.781Z" fill="#F7A145"/><path d="M144.959 257.6c-12.509-3.797-27.182 1.182-34.773 11.8-7.591 10.614-7.53 26.074.143 36.631 7.674 10.556 22.385 15.424 34.863 11.531 12.475-3.895 21.789-16.255 22.061-29.288.271-13.038-8.299-26.426-22.294-30.674Z" fill="#FF8330"/><path opacity=".15" d="M177.245 292.024c1.023-9.521-1.581-19.403-7.042-27.554 5.967 15.843 6.064 37.023-10.165 50.571-16.67 13.917-33.352 11.692-43.288 9.155 8.552 4.391 18.552 6.016 27.962 3.972 16.944-3.681 30.688-18.952 32.533-36.144Z" fill="#2E2854"/><path d="M104.391 260.417c-7.948 9.148-11.212 21.899-9.433 33.831-.148-9.02 1.386-23.719 15.903-35.636 10.063-8.259 23.231-11.385 36.545-10.835-15.149-4.211-32.675.734-43.015 12.64Z" fill="#F5B878"/><path d="M144.959 257.6c-12.509-3.797-27.182 1.182-34.773 11.8-7.591 10.614-7.53 26.074.143 36.631 7.674 10.556 22.385 15.424 34.863 11.531 12.475-3.895 21.789-16.255 22.061-29.288.271-13.038-8.299-26.426-22.294-30.674Z" stroke="#F7732E" stroke-width="2.372" stroke-miterlimit="10" stroke-linecap="round" stroke-linejoin="round"/><path fill-rule="evenodd" clip-rule="evenodd" d="M131.936 270.839a2.717 2.717 0 0 1 2.808 2.614l.039 1.032 1.203-.042-.039-1.032a2.702 2.702 0 0 1 2.605-2.805 2.718 2.718 0 0 1 2.809 2.614l.045 1.217a8.416 8.416 0 0 1 6.925 7.967 8.341 8.341 0 0 1-1.333 4.862 8.457 8.457 0 0 1 3.416 6.482l.009.243c.17 4.525-3.357 8.323-7.878 8.482l-.084.003.039 1.032a2.703 2.703 0 0 1-2.605 2.805 2.719 2.719 0 0 1-2.809-2.615l-.039-1.031-1.203.042.039 1.032a2.703 2.703 0 0 1-2.605 2.805 2.718 2.718 0 0 1-2.808-2.615l-.039-1.032-3.91.138a2.717 2.717 0 0 1-2.808-2.614 2.703 2.703 0 0 1 2.605-2.806l.796-.028-.654-17.385-.796.028a2.718 2.718 0 0 1-2.809-2.614 2.702 2.702 0 0 1 2.605-2.805l3.91-.138-.039-1.032a2.701 2.701 0 0 1 2.605-2.804Zm-.063 9.175.223 5.929 7.972-.28a2.958 2.958 0 0 0 2.85-3.069 2.975 2.975 0 0 0-3.073-2.861l-7.972.281Zm.427 11.348.227 6.037 9.814-.345a2.767 2.767 0 0 0 2.668-2.873l-.009-.243a3.026 3.026 0 0 0-3.128-2.912l-9.572.336Z" fill="#fff"/><path d="m153.488 169.17 13.816 131.584 87.941-9.655-19.334-131.802-82.423 9.873Z" fill="url(#f)"/><path d="m125.797 322.682-2.097-16.461c-1.324-9.676 4.51-18.935 13.849-21.877 65.958-20.78 137.297-11.779 204.092-25.925 4.134-.874 9.112-2.728 9.279-7.121a5.356 5.356 0 0 0-.157-1.493s4.093 5.007 7.857 25.494c0 0-62.107 26.432-118.881 33.628-56.776 7.196-113.942 13.755-113.942 13.755Z" fill="#FFDF6F"/><path d="m125.797 322.682-2.097-16.461c-1.324-9.676 4.51-18.935 13.849-21.877 65.958-20.78 137.297-11.779 204.092-25.925 4.134-.874 9.112-2.728 9.279-7.121a5.356 5.356 0 0 0-.157-1.493s4.093 5.007 7.857 25.494c0 0-62.107 26.432-118.881 33.628-56.776 7.196-113.942 13.755-113.942 13.755Z" fill="#fff" fill-opacity=".2"/><path d="M125.797 322.679c7.445 54.643 8.647 73.299 20.528 123.393 2.217 9.347 10.885 15.722 20.493 15.075 74.541-5.024 148.087-15.129 220.744-29.516 9.796-1.941 16.583-10.842 15.903-20.78-3.987-58.273-19.118-110.904-38.747-164.015.58 1.581.888 3.253.854 4.982-.103 5.315-3.42 10.183-7.718 13.331-4.296 3.145-9.487 4.812-14.652 6.128-15.654 3.989-31.865 5.197-47.977 6.391l-117.311 8.687c-11.948.886-24.287 1.879-34.88 7.461-10.593 5.582-19.042 17.049-17.237 28.863Z" fill="url(#g)"/><path opacity=".03" d="M308.633 410.987c42.519-9.837 72.641-21.498 81.26-84.339 6.768 27.163 11.575 54.972 13.574 84.203.681 9.939-6.106 18.839-15.902 20.78-72.657 14.387-146.203 24.492-220.744 29.516-9.609.647-18.277-5.728-20.494-15.075a1037.026 1037.026 0 0 1-3.544-15.439c22.696.501 81.454.266 135.888-12.842 1.72-.414 3.424-.815 5.117-1.207l24.845-5.597Z" fill="#000"/><path opacity=".15" d="M137.355 403.817c7.352-.068 16.621-.642 26.164-2.499 21.435-4.171 27.708-9.594 30.427-20.96 2.718-11.367-4.182-18.561-4.182-18.561l-58.321 3.441c1.841 13.744 3.564 25.609 5.912 38.579Z" fill="#2E2854"/><path d="M120.037 381.996a17.077 17.077 0 0 0 15.858 13.076c12.726.567 26.191-.231 38.882-2.298 11.63-1.894 19.489-12.862 17.705-24.479-.074-.493-.154-.985-.231-1.478-1.746-10.834-11.313-18.667-22.303-18.144-13.585.65-27.846 1.297-40.433 1.947l-9.478 31.376Z" fill="#6F63FC"/><path d="M169.949 348.673c-13.586.65-27.847 1.297-40.433 1.947l-2.291 7.585c1.964.351 4.018.422 6.007.375 10.402-.242 20.612-2.764 30.97-3.751 8.27-.788 16.974-.473 24.132 2.638-4.15-5.658-10.937-9.15-18.385-8.794Z" fill="#897FFF"/><path d="M174.737 367.258c3.162 3.23 3.16 9.003-.004 12.232-3.163 3.23-8.95 3.364-12.261.288-3.311-3.078-3.585-8.844-.579-12.219 3.007-3.373 9.101-4.125 12.844-.301Z" fill="#2E2854"/><path d="m94.901 363.164-.254 13.122M88.002 369.536l13.1-.302M366.071 456.117c-.085 4.373-.17 8.749-.253 13.122M359.17 462.491l13.1-.303M113.056 224.492c-.086 4.373-.169 8.749-.253 13.122M106.158 230.865l13.1-.303M126.159 188.43l-.255 13.122M119.256 194.802l13.102-.302M230.095 84c-.086 4.373-.169 8.75-.253 13.122M223.193 90.374l13.101-.304M187.286 534.75l-.253 13.122M180.385 541.115l13.1-.303M320.392 190.867c-.086 4.373-.171 8.749-.253 13.122M313.49 197.24l13.1-.302" stroke="#FFDF6F" stroke-width="2.372" stroke-miterlimit="10" stroke-linecap="round" stroke-linejoin="round"/><path d="M205.881 356.782c-1.489.18-2.26-.654-1.939-2.118l6.881-31.977c.252-1.181.936-1.779 2.12-1.922l5.957-.721c1.184-.143 1.99.275 2.517 1.362l14.288 29.417c.663 1.362.111 2.339-1.378 2.519l-3.638.44c-1.185.143-1.995-.308-2.504-1.397l-2.784-5.982-12.505 1.513-1.278 6.473c-.235 1.178-.914 1.81-2.099 1.953l-3.638.44Zm8.184-14.811 8.8-1.064-5.85-12.599-.271.033-2.679 13.63Zm22.942-22.056c-.16-1.32.465-2.116 1.785-2.276l3.266-.395c1.32-.16 2.116.465 2.276 1.785l3.215 26.585 12.827-1.551c1.32-.16 2.116.465 2.276 1.785l.239 1.98c.16 1.32-.465 2.116-1.785 2.276l-18.123 2.192c-1.32.159-2.117-.466-2.277-1.786l-3.699-30.595Zm27.037-3.269c-.16-1.32.465-2.117 1.785-2.277l11.846-1.432c7.649-.925 11.953 2.297 12.581 7.493.493 4.078-1.855 6.954-5.361 8.202l.041.339c3.966-.291 8.012 2.362 8.632 7.489.667 5.517-2.987 10.08-10.772 11.021l-12.776 1.545c-1.32.16-2.117-.465-2.276-1.785l-3.7-30.595Zm10.548 25.749 5.974-.722c4.095-.496 5.665-2.42 5.35-5.026-.346-2.859-2.774-4.626-6.294-4.2l-6.143.742 1.113 9.206Zm-1.712-14.164 5.432-.657c2.995-.362 5.028-2.29 4.696-5.032-.302-2.504-2.35-3.957-5.599-3.564l-5.567.674 1.038 8.579Zm26.958-17.974c1.117-.135 1.932.213 2.577 1.148l8.772 12.623.339-.041 5.51-14.351c.404-1.061 1.112-1.593 2.229-1.728l3.774-.457c1.607-.194 2.339.747 1.714 2.248l-8.854 21.348 1.236 10.221c.16 1.32-.465 2.117-1.785 2.276l-3.215.389c-1.32.16-2.116-.465-2.276-1.785l-1.236-10.221-13.687-18.622c-.965-1.309-.479-2.398 1.129-2.592l3.773-.456Zm-76.985 78.858c-.16-1.32.465-2.117 1.785-2.276l3.266-.395c1.32-.16 2.116.465 2.276 1.785l1.483 12.268 14.875-1.798-1.484-12.269c-.159-1.32.466-2.117 1.785-2.276l3.25-.393c1.319-.16 2.116.465 2.276 1.785l3.7 30.595c.159 1.32-.466 2.117-1.786 2.277l-3.249.392c-1.32.16-2.116-.465-2.276-1.785l-1.485-12.285-14.875 1.799 1.486 12.285c.159 1.32-.466 2.117-1.785 2.276l-3.266.395c-1.32.16-2.117-.465-2.277-1.785l-3.699-30.595Zm62.011-9.559c1.32-.16 2.116.465 2.276 1.785l2.476 20.476c.917 7.581-4.225 13.336-12.838 14.378-8.648 1.046-14.979-3.323-15.896-10.904l-2.476-20.476c-.16-1.319.465-2.116 1.785-2.276l3.266-.395c1.32-.159 2.117.465 2.276 1.785l2.401 19.85c.479 3.96 3.616 6.482 7.864 5.968 4.264-.515 6.694-3.711 6.215-7.67l-2.4-19.85c-.16-1.32.465-2.117 1.785-2.276l3.266-.395Zm8.304 1.056c-.159-1.32.466-2.117 1.785-2.276l11.846-1.433c7.649-.925 11.953 2.298 12.581 7.493.494 4.078-1.854 6.955-5.36 8.203l.041.338c3.965-.291 8.011 2.362 8.632 7.49.667 5.516-2.988 10.079-10.772 11.02l-12.777 1.545c-1.32.16-2.116-.465-2.276-1.785l-3.7-30.595Zm10.549 25.749 5.973-.722c4.095-.495 5.665-2.419 5.35-5.025-.346-2.86-2.774-4.627-6.294-4.201l-6.143.743 1.114 9.205Zm-1.713-14.164 5.432-.657c2.995-.362 5.028-2.29 4.697-5.032-.303-2.504-2.35-3.956-5.599-3.563l-5.568.673 1.038 8.579Z" fill="#1F2937"/><path d="M1273.09 1.758h-53.59c-6.58 0-11.91 5.336-11.91 11.917v125.646c0 6.582 5.33 11.918 11.91 11.918h53.59c6.58 0 11.92-5.336 11.92-11.918V13.675c0-6.581-5.34-11.917-11.92-11.917Z" fill="#666"/><path d="M1252.18 134.609h-11.76c-1.1 0-2 .897-2 2.004v2.353c0 1.106.9 2.003 2 2.003h11.76c1.11 0 2-.897 2-2.003v-2.353c0-1.107-.89-2.004-2-2.004Z" fill="#292E40"/><path d="M1273.1 3.517c5.61 0 10.16 4.549 10.16 10.16v125.646c0 5.611-4.55 10.16-10.16 10.16h-53.59c-5.61 0-10.16-4.549-10.16-10.16V13.677c0-5.611 4.55-10.16 10.16-10.16h53.59Zm0-3.517h-53.59c-7.54 0-13.67 6.137-13.67 13.677v125.646c0 7.542 6.13 13.677 13.67 13.677h53.59c7.54 0 13.67-6.137 13.67-13.677V13.677c0-7.542-6.13-13.677-13.67-13.677Z" fill="#292E40"/><path d="m1284.3 131.08.43-.121-.55-121.762-3.77-5.338s-.88 16.147-6.94 15.844l3.15 107.337.96.581-.03.04-5.01 1.35s-8.79 20.001-60.78 15.929l3.67 3.945 3.39.769h59.35l3.35-3.983 2.8-2.785s-.03-5.512-.02-11.804v-.002Z" fill="#292E40" opacity=".2"/><path d="M1218.56 127.77a2.955 2.955 0 0 1-2.95-2.957V23.52c0-1.63 1.32-2.957 2.95-2.957h55.48c1.63 0 2.96 1.327 2.96 2.957v101.295c0 1.63-1.33 2.957-2.96 2.957h-55.48v-.002Z" fill="#581C86"/><path d="M1274.04 21.611a1.9 1.9 0 0 1 1.9 1.902v101.293a1.9 1.9 0 0 1-1.9 1.902h-55.48a1.9 1.9 0 0 1-1.9-1.902V23.513a1.9 1.9 0 0 1 1.9-1.902h55.48Zm0-2.111h-55.48a4.014 4.014 0 0 0-4.01 4.013v101.293c0 2.215 1.8 4.013 4.01 4.013h55.48c2.21 0 4.01-1.795 4.01-4.013V23.513a4.009 4.009 0 0 0-4.01-4.013Z" fill="#292E40"/><path d="M1218.9 127.134V27.596a3.946 3.946 0 0 1 3.94-3.943h54.52c.02 0 .05.005.07.005a3.939 3.939 0 0 0-3.87-3.22h-54.52a3.946 3.946 0 0 0-3.94 3.942v99.536a3.942 3.942 0 0 0 3.87 3.939 3.457 3.457 0 0 1-.07-.723v.002Z" fill="#292E40" opacity=".2"/><path d="M1236.36 14.143a1.096 1.096 0 1 1-2.192 0 1.096 1.096 0 0 1 2.192 0ZM1241.42 13.986c1.79-.702 3.59-.863 5.38-.892 1.79.025 3.59.186 5.38.892-1.79.706-3.59.867-5.38.893-1.79-.03-3.59-.191-5.38-.893ZM1246.62 9.562c.77 0 1.41-.632 1.41-1.41a1.409 1.409 0 1 0-1.41 1.41Z" fill="#292E40"/><path fill-rule="evenodd" clip-rule="evenodd" d="M1248.5 57.297c-8.87 0-16.2 7.036-16.2 15.892 0 3.569 1.2 6.858 3.21 9.502.35.454.48.855.46 1.173-.08 1.291-.52 2.564-1.61 3.704-.31.322-.42.802-.27 1.234.14.432.51.738.94.786 3.29.367 6.18-.254 7.9-.952.45-.183.89-.222 1.27-.122 1.37.37 2.81.567 4.3.567 8.87 0 16.2-7.036 16.2-15.892s-7.33-15.892-16.2-15.892Z" fill="#BF83FB" fill-opacity=".3"/><path d="M1242.52 70.063c-.69 0-1.25.588-1.25 1.3 0 .714.56 1.302 1.25 1.302h11.96c.7 0 1.25-.588 1.25-1.301s-.55-1.302-1.25-1.302h-11.96ZM1242.52 74.767c-.69 0-1.25.589-1.25 1.301 0 .713.56 1.302 1.25 1.302h7.48c.69 0 1.24-.589 1.24-1.302 0-.712-.55-1.3-1.24-1.3h-7.48Z" fill="#BF83FB"/><path d="M1299.13 457.148h-79.64c-4.86 0-8.8 3.964-8.8 8.853v120.188c0 4.889 3.94 8.853 8.8 8.853h79.64c4.87 0 8.81-3.964 8.81-8.853V466.001c0-4.889-3.94-8.853-8.81-8.853Z" fill="#666"/><path d="M1299.14 596.623h-79.65c-5.72 0-10.38-4.683-10.38-10.441V465.994c0-5.757 4.66-10.439 10.38-10.439h79.65c5.72 0 10.38 4.682 10.38 10.439v120.188c0 5.756-4.66 10.441-10.38 10.441Zm-79.65-137.894c-3.98 0-7.22 3.259-7.22 7.265v120.188c0 4.006 3.24 7.266 7.22 7.266h79.65c3.98 0 7.22-3.259 7.22-7.266V465.994c0-4.006-3.24-7.265-7.22-7.265h-79.65Z" fill="#292E40"/><path d="M1221.73 459.583h79.65c.47 0 .93.05 1.38.138a7.161 7.161 0 0 0-3.62-.987h-79.64c-3.99 0-7.23 3.259-7.23 7.265v120.188a7.282 7.282 0 0 0 4.46 6.71c-1.52-1.379-2.5-3.364-2.5-5.585V467.124c0-4.158 3.37-7.541 7.5-7.541Z" fill="#555"/><path d="M1294.92 458.039s-1.86 114.735-83.53 126.733l4.29 10.686h92.48V464.227l-5.41-6.123-7.83-.063v-.002Z" fill="#292E40" opacity=".2"/><path d="M1295.89 467.875h-73.13c-2.23 0-4.04 1.817-4.04 4.059v108.303c0 2.242 1.81 4.059 4.04 4.059h73.13c2.22 0 4.03-1.817 4.03-4.059V471.934c0-2.242-1.81-4.059-4.03-4.059Z" fill="#7F1D1D"/><path d="M1295.88 585.489h-73.13c-2.88 0-5.22-2.354-5.22-5.249V471.937c0-2.894 2.34-5.249 5.22-5.249h73.13c2.88 0 5.22 2.355 5.22 5.249v108.304c0 2.894-2.34 5.249-5.22 5.249v-.001Zm-73.13-116.419a2.863 2.863 0 0 0-2.85 2.867v108.304a2.863 2.863 0 0 0 2.85 2.867h73.13c1.57 0 2.85-1.286 2.85-2.867V471.937a2.863 2.863 0 0 0-2.85-2.867h-73.13Z" fill="#292E40"/><path d="M1222.07 583.606V475.302c0-2.242 1.81-4.059 4.04-4.059h73.13c.22 0 .42.022.63.053-.3-1.941-1.97-3.429-3.98-3.429h-73.13c-2.23 0-4.04 1.817-4.04 4.059v108.305a4.05 4.05 0 0 0 3.41 4.004 4.365 4.365 0 0 1-.05-.63l-.01.001Z" fill="#292E40" opacity=".2"/><path d="M1268.26 463.705h-11.19a.787.787 0 0 1-.78-.794c0-.439.35-.794.78-.794h11.19c.44 0 .79.355.79.794a.79.79 0 0 1-.79.794ZM1251.75 464.01c.6-.143.97-.749.83-1.354a1.117 1.117 0 0 0-1.35-.836 1.126 1.126 0 0 0 .52 2.19Z" fill="#292E40"/><path d="M1299.37 546.469s3.54 37.947-41.83 37.947h39.96l2.47-1.637-.6-36.31Z" fill="#E1E1E1" opacity=".2"/><path fill-rule="evenodd" clip-rule="evenodd" d="M1253.47 517.328c-5.78 0-10.47 4.605-10.47 10.286 0 5.68 4.69 10.286 10.47 10.286h15.06c5.78 0 10.47-4.606 10.47-10.286 0-5.681-4.69-10.286-10.47-10.286h-15.06Z" fill="#F77171" fill-opacity=".3"/><path d="M1268.01 530.231c0 .994-.82 1.8-1.83 1.8-1.01 0-1.83-.806-1.83-1.8s.82-1.8 1.83-1.8c1.01 0 1.83.806 1.83 1.8ZM1271.36 525.294c0 .994-.82 1.8-1.83 1.8-1.01 0-1.83-.806-1.83-1.8s.82-1.8 1.83-1.8c1.01 0 1.83.806 1.83 1.8ZM1254.72 525.139c0-.681-.56-1.234-1.26-1.234-.69 0-1.25.553-1.25 1.234v1.235h-1.26c-.69 0-1.25.552-1.25 1.234 0 .682.56 1.234 1.25 1.234h1.26v1.235c0 .681.56 1.234 1.25 1.234.7 0 1.26-.553 1.26-1.234v-1.235h1.25c.7 0 1.26-.552 1.26-1.234 0-.682-.56-1.234-1.26-1.234h-1.25v-1.235Z" fill="#F77171"/><path fill-rule="evenodd" clip-rule="evenodd" d="M1257.65 509.094c.69 0 1.25.552 1.25 1.234 0 .846.01 1.401.04 1.8.01.097.02.171.03.228.24.027.59.029 1.19.029.94 0 1.75.327 2.3.999.5.608.67 1.353.73 1.964.06.627.03 1.283-.01 1.831l-.01.143h-2.52c.01-.11.02-.217.02-.319.04-.532.06-1.008.02-1.409-.04-.418-.14-.598-.19-.659-.01-.019-.02-.029-.05-.04a.733.733 0 0 0-.29-.041h-.08c-.56 0-1.11 0-1.56-.065-.5-.073-1.12-.261-1.56-.84-.39-.504-.48-1.121-.52-1.616-.05-.514-.05-1.174-.05-1.951v-.054c0-.682.57-1.234 1.26-1.234Z" fill="#F77171"/><g clip-path="url(#h)"><path d="M939.154 575.688h123.726c6.1 0 11.05 4.953 11.05 11.053v83.258H928.102v-83.258c0-6.1 4.953-11.053 11.053-11.053h-.001Z" fill="#6C7A89"/><path d="M1073.93 671.502H928.099a1.505 1.505 0 0 1-1.505-1.505v-83.258c0-6.925 5.634-12.559 12.559-12.559h123.727c6.92 0 12.56 5.634 12.56 12.559v83.258a1.51 1.51 0 0 1-1.51 1.505Zm-144.326-3.011h142.816v-81.752c0-5.265-4.28-9.549-9.54-9.549H939.153c-5.265 0-9.549 4.284-9.549 9.549v81.752Z" fill="#292E40"/><path d="M932.241 588.248c0-5.265 4.283-9.547 9.549-9.547h123.72c1.18 0 2.31.215 3.35.606a9.514 9.514 0 0 0-5.98-2.112H939.154c-5.265 0-9.549 4.284-9.549 9.547v81.753h2.634v-80.247h.002Z" fill="#555" opacity=".5"/><g opacity=".5" fill="#555"><path d="M1008.41 580.977a34.98 34.98 0 0 0-3.81-.2c-1.27 0-2.53.065-3.8.203-1.271.146-2.539.348-3.808.738 1.269.39 2.537.591 3.808.737 1.27.138 2.53.201 3.8.203 1.27.001 2.54-.063 3.81-.2 1.27-.144 2.53-.347 3.8-.74-1.27-.392-2.53-.595-3.8-.741ZM993.089 583.207a1.52 1.52 0 1 0-.489-3.002 1.52 1.52 0 0 0 .489 3.002Z"/></g><path d="M943.287 586.461h118.763c2.71 0 4.91 2.203 4.91 4.915v67.239c0 2.712-2.2 4.914-4.91 4.914H943.286a4.917 4.917 0 0 1-4.915-4.914v-67.239a4.918 4.918 0 0 1 4.915-4.915h.001Z" fill="#555" opacity=".5"/><path d="m929.197 666.569.009 3.43h144.724v-83.258c0-6.105-4.95-11.053-11.06-11.053h-30.26s15.16 84.82-103.415 90.881h.002Z" fill="#4B4B4B" opacity=".2"/><path d="M917.638 668.852h166.752c1.26 0 2.29 1.028 2.29 2.294 0 5.379-4.37 9.747-9.75 9.747H925.091c-5.38 0-9.747-4.368-9.747-9.747a2.295 2.295 0 0 1 2.294-2.294Z" fill="#6F6F6F"/><path d="M1076.94 682.397H925.092c-6.205 0-11.252-5.048-11.252-11.252a3.805 3.805 0 0 1 3.801-3.801h166.749c2.1 0 3.8 1.705 3.8 3.801 0 6.205-5.05 11.252-11.25 11.252Zm-159.301-12.043a.79.79 0 0 0-.79.789c0 4.544 3.698 8.242 8.243 8.242h151.848c4.54 0 8.24-3.698 8.24-8.242a.794.794 0 0 0-.79-.789H917.639Z" fill="#292E40"/><path d="M920.239 673.015a.79.79 0 0 1 .789-.789H1085.1c.05-.358.08-.723.08-1.094a.787.787 0 0 0-.79-.788H917.64a.789.789 0 0 0-.788.788c0 3.788 2.567 6.984 6.053 7.945a8.222 8.222 0 0 1-2.666-6.062Z" fill="#555" opacity=".7"/><path d="m1084.39 668.844-69.06.109s-14.53 10.497-94.201 10.753h160.461a9.75 9.75 0 0 0 5.09-8.568 2.289 2.289 0 0 0-2.29-2.294Z" fill="#6C7A89" opacity=".2"/><path d="M1060.39 586.258H941.635a3.885 3.885 0 0 0-3.885 3.885v67.237a3.885 3.885 0 0 0 3.885 3.885h118.755c2.15 0 3.89-1.74 3.89-3.885v-67.237a3.886 3.886 0 0 0-3.89-3.885Z" fill="#14532D"/><path d="M1060.39 662.58H941.635a5.208 5.208 0 0 1-5.201-5.202v-67.239a5.206 5.206 0 0 1 5.201-5.201h118.755c2.87 0 5.21 2.333 5.21 5.201v67.239c0 2.868-2.34 5.202-5.21 5.202Zm-118.755-75.007a2.57 2.57 0 0 0-2.567 2.566v67.239a2.569 2.569 0 0 0 2.567 2.566h118.755c1.42 0 2.57-1.15 2.57-2.566v-67.239a2.569 2.569 0 0 0-2.57-2.566H941.635Z" fill="#292E40"/><path d="M942.646 594.114a3.884 3.884 0 0 1 3.884-3.885h117.75v-.094a3.886 3.886 0 0 0-3.89-3.885H941.635a3.885 3.885 0 0 0-3.885 3.885v67.239a3.884 3.884 0 0 0 3.885 3.884h1.011v-67.144Z" fill="#292E40" opacity=".2"/><path d="M979.568 668.852h42.892v1.105a4.354 4.354 0 0 1-4.35 4.352h-34.191a4.355 4.355 0 0 1-4.353-4.352v-1.105h.002Z" fill="#B1B1B1"/><path d="M1018.11 675.434h-34.191a5.487 5.487 0 0 1-5.481-5.482v-1.105c0-.624.506-1.128 1.13-1.128h42.892c.62 0 1.13.506 1.13 1.128v1.105a5.488 5.488 0 0 1-5.48 5.482Zm-37.414-5.456a3.228 3.228 0 0 0 3.223 3.199h34.191c1.77 0 3.21-1.432 3.22-3.199h-40.634ZM996.238 580.956c2.537-.742 5.072-.909 7.612-.94 2.53.028 5.07.194 7.61.94-2.54.746-5.08.912-7.61.94-2.54-.032-5.076-.198-7.612-.94ZM992.09 582.478a1.52 1.52 0 1 0 0-3.04 1.52 1.52 0 0 0 0 3.04Z" fill="#292E40"/><path d="M1063.46 634.283s6.91 28.394-54.71 26.36h53.09l2.41-2.601-.79-23.761v.002Z" fill="#CDCDCF" opacity=".2"/><path d="M1012.92 668.844s-1.71 4.735-31.256 3.977l1.295 1.506 35.071.01 2.27-1.136 2.28-4.167-9.66-.19Z" fill="#C28CFF" opacity=".2"/><path d="M986.23 610.701c.736 0 1.17.002 1.483.041.143.017.215.038.248.051.015.005.022.01.023.01a1.09 1.09 0 0 1 .092.252c.076.296.128.712.211 1.418l1.278 10.77c.152 1.283.28 2.359.497 3.21.23.901.594 1.702 1.324 2.331.103.089.208.17.316.244.943.873 2.348.873 5.118.873h10.85c1.28 0 2.35 0 3.21-.104.92-.111 1.75-.352 2.47-.939.71-.587 1.1-1.341 1.36-2.194.25-.806.43-1.826.64-3.04l.3-1.764c.28-1.653.52-3.02.55-4.111.03-1.145-.16-2.207-.94-3.092-.78-.886-1.83-1.242-3-1.403-1.12-.153-2.56-.153-4.29-.153h-17.107l-.114-.967c-.074-.618-.141-1.189-.26-1.653-.13-.513-.357-1.044-.851-1.47-.495-.426-1.067-.583-1.609-.65-.491-.06-1.087-.06-1.731-.06h-1.255c-.686 0-1.242.537-1.242 1.2 0 .663.556 1.2 1.242 1.2h1.187Z" fill="#4ADD80" fill-opacity=".4"/><path d="M998.2 637.1a3.6 3.6 0 1 1-7.2 0 3.6 3.6 0 0 1 7.2 0ZM1012.6 637.1c0 1.988-1.61 3.6-3.6 3.6s-3.6-1.612-3.6-3.6 1.61-3.6 3.6-3.6 3.6 1.612 3.6 3.6Z" fill="#4ADD80"/></g><path d="M1376.95 372.46c-21.58 0-19.96-25.169-19.96-25.732l-19.41-.533-20.5.243c0 .564 1.62 25.732-19.96 25.732l79.83.29Z" fill="#666"/><path d="M1376.95 374h-.21l-79.62-.291a1.53 1.53 0 0 1-1.53-1.543c0-.848.69-1.535 1.54-1.535 5.25 0 9.46-1.606 12.51-4.772 5.92-6.142 6.02-16.283 5.91-19.245-.01-.091-.01-.15-.01-.176 0-.843.68-1.529 1.52-1.539l20.5-.243h.06l19.41.534c.84.023 1.5.705 1.5 1.539v.176c-.11 2.961-.02 13.102 5.9 19.244 3.01 3.129 7.16 4.734 12.33 4.772h.19a1.539 1.539 0 1 1 0 3.079Zm-68.36-3.328 56.76.207a17.743 17.743 0 0 1-3.14-2.595c-5.98-6.203-6.77-15.687-6.78-20.06l-17.87-.49-18.92.224c-.02 4.383-.81 13.842-6.78 20.035a17.491 17.491 0 0 1-3.27 2.679Z" fill="#292E40"/><path d="m1308.99 370.407 55.96.204s-.01-.005-.01-.008l-54.23-.198a17.373 17.373 0 0 0 3.6-2.883c5.86-6.083 6.64-15.309 6.66-19.584l-2.33.027c-.02 4.383-.82 13.842-6.78 20.035a17.81 17.81 0 0 1-2.87 2.408v-.001Z" fill="#555" opacity=".8"/><path d="M1412.12 234.688h-150.17c-5.3 0-9.59 4.291-9.59 9.586V338.9a9.586 9.586 0 0 0 9.59 9.587h150.17c5.3 0 9.59-4.292 9.59-9.587v-94.626c0-5.295-4.29-9.586-9.59-9.586Z" fill="#515355"/><path d="M1412.12 350.026h-150.17c-6.14 0-11.13-4.991-11.13-11.126v-94.626c0-6.134 4.99-11.126 11.13-11.126h150.17c6.14 0 11.13 4.992 11.13 11.126V338.9c0 6.135-4.99 11.126-11.13 11.126Zm-150.17-113.799c-4.44 0-8.05 3.609-8.05 8.047V338.9c0 4.438 3.61 8.047 8.05 8.047h150.17c4.44 0 8.05-3.609 8.05-8.047v-94.626c0-4.438-3.61-8.047-8.05-8.047h-150.17Z" fill="#292E40"/><path d="M1409.65 242.984h-142.69a5.781 5.781 0 0 0-5.78 5.779v73.654a5.78 5.78 0 0 0 5.78 5.779h142.69a5.78 5.78 0 0 0 5.78-5.779v-73.654a5.781 5.781 0 0 0-5.78-5.779Z" fill="#555" opacity=".5"/><path d="M1263.58 236.937h150.17c.82 0 1.61.133 2.36.361a8.019 8.019 0 0 0-3.99-1.064h-150.17c-4.44 0-8.05 3.61-8.05 8.047v94.627c0 3.299 2 6.138 4.84 7.378a8.152 8.152 0 0 1-3.32-6.563v-94.627c0-4.499 3.66-8.159 8.16-8.159Z" fill="#555" opacity=".5"/><path d="M1417.13 236.242s-27.04 94.162-164.19 93.182v4.932h167.34l.56-91.566-3.7-6.548h-.01Z" fill="#292E40" opacity=".3"/><path d="M1253.79 333.125v5.785c0 4.498 3.66 8.159 8.15 8.159h150.18c4.5 0 8.16-3.661 8.16-8.159v-5.785h-166.49Z" fill="#666"/><path d="M1254.4 336.59h165.88v-3.465h-166.49v5.785c0 1.093.21 2.135.61 3.089v-5.409Z" fill="#555" opacity=".8"/><path d="M1366.9 333.346s-22.42 13.86-107.62 11.822l2.65 1.834 151.67 1.802 5.68-3.358 1.81-4.649-.51-8.524-53.68 1.072v.001Z" fill="#292E40" opacity=".2"/><path d="M1408.11 242.789h-142.69a4.429 4.429 0 0 0-4.43 4.432v73.654a4.43 4.43 0 0 0 4.43 4.432h142.69a4.43 4.43 0 0 0 4.43-4.432v-73.654a4.429 4.429 0 0 0-4.43-4.432Z" fill="#1E3A89"/><path d="M1408.11 326.65h-142.69a5.784 5.784 0 0 1-5.78-5.779v-73.653c0-3.187 2.59-5.78 5.78-5.78h142.69a5.79 5.79 0 0 1 5.78 5.78v73.652c0 3.187-2.6 5.779-5.78 5.779v.001Zm-142.69-82.517c-1.7 0-3.09 1.384-3.09 3.086v73.652a3.094 3.094 0 0 0 3.09 3.085h142.69c1.7 0 3.08-1.384 3.08-3.085v-73.653a3.086 3.086 0 0 0-3.08-3.087h-142.69v.002ZM1421.52 334.278h-168.8c-.64 0-1.16-.517-1.16-1.155s.52-1.154 1.16-1.154h168.8c.64 0 1.16.516 1.16 1.154 0 .638-.52 1.155-1.16 1.155Z" fill="#292E40"/><path d="m1317.52 352.065 15.76 1.361c7.24.626 8.45 10.73 1.56 13.028-6.12 2.04-14.94 3.458-27.64 3.238l-2.21 2.596h65.45l-1.93-1.944-7.31-5.388s-4.23-10.39-4.23-10.775c0-.385.17-5.259.17-5.259l-39.43.641-.19 2.502Z" fill="#292E40" opacity=".2"/><path d="M1412 302.234s-4.24 22.705-32.71 22.705h31.14l1.96-2.928-.39-19.777Z" fill="#C28CFF" opacity=".2"/><path d="M1265.94 251.948a4.438 4.438 0 0 1 4.43-4.44l142.11-.233v-.185c0-2.449-1.99-4.43-4.44-4.426l-142.68.234a4.437 4.437 0 0 0-4.43 4.44l.12 73.652a4.43 4.43 0 0 0 4.44 4.426h.57l-.12-73.469v.001Z" fill="#292E40" opacity=".2"/><path d="M1340.02 338.594h-5.97c-.77 0-1.39.62-1.39 1.386v2.69c0 .765.62 1.386 1.39 1.386h5.97c.76 0 1.38-.621 1.38-1.386v-2.69c0-.766-.62-1.386-1.38-1.386Z" fill="#292E40"/><path fill-rule="evenodd" clip-rule="evenodd" d="M1349.21 279.842v12.896h2.49v-18.746c0-3.018-2.73-5.252-5.59-4.573l-14.96 3.544a4.61 4.61 0 0 0-.75.248c-1.67.722-2.79 2.413-2.79 4.325v18.615h2.49v-11.78l19.11-4.529Z" fill="#60A4F9" fill-opacity=".3"/><path fill-rule="evenodd" clip-rule="evenodd" d="M1346.3 287.195c-2.98 0-5.4 2.483-5.4 5.546s2.42 5.546 5.4 5.546c2.98 0 5.4-2.483 5.4-5.546s-2.42-5.546-5.4-5.546Zm-21.6 3.413c-2.98 0-5.4 2.483-5.4 5.546s2.42 5.546 5.4 5.546c2.98 0 5.4-2.483 5.4-5.546s-2.42-5.546-5.4-5.546Z" fill="#60A4F9"/><path d="M779.318 367.004v46.834H757.26v-46.834c0-6.09 4.938-11.029 11.029-11.029s11.029 4.939 11.029 11.029ZM819.125 355.972c3.044 0 5.8 1.234 7.794 3.228a10.971 10.971 0 0 1 3.235 7.801v46.837h-22.058v-46.837c0-4.207 2.353-7.858 5.804-9.719a10.983 10.983 0 0 1 5.225-1.31Z" fill="#BCBCBC"/><path d="M813.902 357.31a10.973 10.973 0 0 1 2.577 1.918 10.994 10.994 0 0 1 3.229 7.802v46.836h-11.611V367.03a11.026 11.026 0 0 1 5.805-9.72ZM763.078 357.302a11.005 11.005 0 0 1 2.577 1.919 10.997 10.997 0 0 1 3.229 7.801v46.836h-11.612v-46.836c0-4.208 2.354-7.859 5.806-9.72ZM807.617 537.076v-51.613l-27.813-.001.001 51.613a5.93 5.93 0 0 0 5.93 5.93h15.954a5.93 5.93 0 0 0 5.928-5.929Z" fill="#D8D8D8"/><path d="M807.6 537.073V485.46h-13.906v57.543h7.976a5.931 5.931 0 0 0 5.93-5.93Z" fill="#BCBCBC"/><path d="m746.576 424.808 94.273 11.733v44.86c0 14.948-12.124 27.072-27.072 27.072h-40.129c-14.956 0-27.072-12.124-27.072-27.072v-56.593Z" fill="#6F63FC"/><path d="m747.771 410.652 91.882-.001c7.149 0 12.942 5.793 12.942 12.948 0 7.148-5.793 12.941-12.942 12.941l-91.881.001c-7.148 0-12.947-5.793-12.947-12.942 0-3.574 1.451-6.816 3.791-9.156a12.899 12.899 0 0 1 9.155-3.791Z" fill="#6F63FC"/><path d="M747.77 410.661h67.686c7.148 0 12.948 5.792 12.948 12.948 0 7.148-5.799 12.941-12.947 12.941H747.77c-7.148 0-12.947-5.792-12.947-12.941 0-3.574 1.451-6.816 3.791-9.156a12.898 12.898 0 0 1 9.156-3.792ZM746.573 446.419c.393.041.791.059 1.198.059h55.547c6.423 0 11.629 5.206 11.629 11.629v23.302c.005 14.952-12.116 27.074-27.073 27.073h-14.232c-14.952-.004-27.069-12.121-27.069-27.068v-34.995Z" fill="#897FFF"/><g filter="url(#i)"><rect x="558" y="104" width="468" height="311" rx="64" fill="#262626"/><g clip-path="url(#j)"><path d="M791.998 263.992c26.51 0 48-21.49 48-48 0-26.509-21.49-48-48-48s-48 21.491-48 48c0 26.51 21.49 48 48 48Z" fill="#FFDF6F"/><path d="M791.998 263.992c26.51 0 48-21.49 48-48 0-26.509-21.49-48-48-48s-48 21.491-48 48c0 26.51 21.49 48 48 48Z" fill="url(#k)" fill-opacity=".3"/><path d="M806.061 199.133c0-7.754-6.309-14.063-14.063-14.063-7.754 0-14.062 6.309-14.062 14.063 0 7.754 6.308 14.062 14.062 14.062s14.063-6.308 14.063-14.062Zm-14.063 14.062c-13.957 0-25.312 11.355-25.312 25.313v2.636c0 .799.34 1.561.935 2.094 6.851 6.139 15.508 9.52 24.377 9.52s17.526-3.381 24.377-9.52a2.813 2.813 0 0 0 .936-2.094v-2.636c0-13.958-11.356-25.313-25.313-25.313Z" fill="#262626"/><path d="M806.061 199.133c0-7.754-6.309-14.063-14.063-14.063-7.754 0-14.062 6.309-14.062 14.063 0 7.754 6.308 14.062 14.062 14.062s14.063-6.308 14.063-14.062Zm-14.063 14.062c-13.957 0-25.312 11.355-25.312 25.313v2.636c0 .799.34 1.561.935 2.094 6.851 6.139 15.508 9.52 24.377 9.52s17.526-3.381 24.377-9.52a2.813 2.813 0 0 0 .936-2.094v-2.636c0-13.958-11.356-25.313-25.313-25.313Z" fill="url(#l)" fill-opacity=".3"/></g><path opacity=".9" d="M609.912 308.455c.91 0 1.522.357 1.954 1.148l6.831 12.364h.298l6.831-12.364c.433-.791 1.044-1.148 1.954-1.148h2.67c1.298 0 1.79.835 1.133 1.968l-9.978 17.182v9.754c0 1.059-.581 1.641-1.64 1.641h-2.237c-1.059 0-1.641-.582-1.641-1.641v-9.754l-9.978-17.182c-.656-1.133-.164-1.968 1.134-1.968h2.669Zm32.212 30.992c-6.711 0-10.977-4.728-10.977-11.812 0-7.099 4.266-11.842 10.977-11.842 6.712 0 10.978 4.743 10.978 11.842 0 7.084-4.266 11.812-10.978 11.812Zm-5.503-11.827c0 4.191 1.82 7.502 5.533 7.502 3.654 0 5.474-3.311 5.474-7.502s-1.82-7.547-5.474-7.547c-3.713 0-5.533 3.356-5.533 7.547Zm35.665-9.888c0-1.059.582-1.641 1.64-1.641h2.118c1.059 0 1.641.582 1.641 1.641v19.627c0 1.059-.582 1.641-1.641 1.641h-1.953c-1.059 0-1.641-.582-1.641-1.641v-2.431h-.239c-1.044 2.566-3.46 4.37-6.89 4.37-4.505 0-7.637-3.117-7.637-8.62v-12.946c0-1.059.582-1.641 1.641-1.641h2.118c1.059 0 1.64.582 1.64 1.641v12.11c0 2.909 1.731 4.743 4.326 4.743 2.386 0 4.877-1.73 4.877-5.22v-11.633Zm10.951 0c0-1.059.582-1.641 1.641-1.641h1.953c1.059 0 1.641.582 1.641 1.641v2.177h.239c.835-2.655 3.027-4.146 5.652-4.146h.388c1.029.045 1.551.686 1.551 1.715v1.641c0 1.118-.447 1.625-1.238 1.521a12.201 12.201 0 0 0-1.267-.075c-2.968 0-5.161 2.059-5.161 4.967v11.827c0 1.059-.581 1.641-1.64 1.641h-2.118c-1.059 0-1.641-.582-1.641-1.641v-19.627ZM710.561 339c-1.208 0-1.745-.746-1.342-1.879l9.635-27.339c.313-.91.909-1.327 1.864-1.327h4.027c.954 0 1.551.417 1.864 1.327l9.65 27.339c.403 1.133-.134 1.879-1.342 1.879h-2.491c-.955 0-1.566-.433-1.864-1.342l-2.088-6.19h-11.485l-2.073 6.19c-.298.909-.91 1.342-1.864 1.342h-2.491Zm7.92-11.977h8.501l-4.131-12.304h-.239l-4.131 12.304Zm27.618 10.336c0 1.059-.582 1.641-1.641 1.641h-2.117c-1.059 0-1.641-.582-1.641-1.641v-27.264c0-1.059.582-1.64 1.641-1.64h2.117c1.059 0 1.641.581 1.641 1.64v27.264Zm5.791-27.264c0-1.059.581-1.64 1.64-1.64h2.118c1.059 0 1.641.581 1.641 1.64v9.784h.224c.82-1.655 2.505-4.086 6.547-4.086 5.295 0 9.456 4.146 9.456 11.782 0 7.547-4.042 11.828-9.441 11.828-3.937 0-5.712-2.342-6.562-4.012h-.314v1.968c0 1.059-.581 1.641-1.64 1.641h-2.029c-1.059 0-1.64-.582-1.64-1.641v-27.264Zm5.294 17.45c0 4.445 1.939 7.428 5.385 7.428 3.564 0 5.444-3.132 5.444-7.428 0-4.265-1.85-7.323-5.444-7.323-3.475 0-5.385 2.879-5.385 7.323Zm23.499 20.046c-.686 0-1.343-.06-1.924-.149-1.059-.179-1.417-.985-1.119-2.014l.328-1.103c.299-1 .955-1.283 1.999-1.179 1.521.135 2.625-.432 3.385-2.431l.463-1.238-7.637-21.507c-.402-1.133.12-1.879 1.328-1.879h2.297c.954 0 1.566.447 1.849 1.372l4.862 15.929h.239l4.877-15.929c.284-.925.895-1.372 1.85-1.372h2.311c1.208 0 1.73.746 1.328 1.879l-8.502 23.804c-1.297 3.654-3.728 5.817-7.934 5.817ZM812.198 339c-1.208 0-1.745-.746-1.343-1.879l9.635-27.339c.313-.91.91-1.327 1.865-1.327h4.027c.954 0 1.551.417 1.864 1.327l9.65 27.339c.402 1.133-.134 1.879-1.343 1.879h-2.49c-.955 0-1.566-.433-1.865-1.342l-2.088-6.19h-11.484l-2.073 6.19c-.299.909-.91 1.342-1.865 1.342h-2.49Zm7.919-11.977h8.502l-4.132-12.304h-.238l-4.132 12.304Zm31.515 12.424c-6.846 0-10.977-4.877-10.977-11.812 0-6.995 4.236-11.842 10.947-11.842 4.892 0 8.487 2.505 9.546 6.458.298 1.103-.373 1.775-1.492 1.775h-1.953c-.955 0-1.432-.463-1.85-1.343-.731-1.506-2.148-2.535-4.176-2.535-3.326 0-5.548 2.774-5.548 7.397 0 4.684 2.177 7.503 5.548 7.503 1.894 0 3.401-.895 4.176-2.521.418-.895.91-1.357 1.865-1.357h1.938c1.134 0 1.775.581 1.552 1.536-.97 4.027-4.445 6.741-9.576 6.741Zm24.241 0c-6.846 0-10.978-4.877-10.978-11.812 0-6.995 4.236-11.842 10.948-11.842 4.892 0 8.486 2.505 9.545 6.458.298 1.103-.373 1.775-1.491 1.775h-1.954c-.955 0-1.432-.463-1.85-1.343-.73-1.506-2.147-2.535-4.176-2.535-3.326 0-5.548 2.774-5.548 7.397 0 4.684 2.178 7.503 5.548 7.503 1.894 0 3.401-.895 4.176-2.521.418-.895.91-1.357 1.865-1.357h1.939c1.133 0 1.775.581 1.551 1.536-.97 4.027-4.445 6.741-9.575 6.741Zm24.24 0c-6.712 0-10.978-4.728-10.978-11.812 0-7.099 4.266-11.842 10.978-11.842 6.711 0 10.977 4.743 10.977 11.842 0 7.084-4.266 11.812-10.977 11.812Zm-5.504-11.827c0 4.191 1.82 7.502 5.534 7.502 3.654 0 5.473-3.311 5.473-7.502s-1.819-7.547-5.473-7.547c-3.714 0-5.534 3.356-5.534 7.547Zm35.665-9.888c0-1.059.582-1.641 1.641-1.641h2.118c1.059 0 1.64.582 1.64 1.641v19.627c0 1.059-.581 1.641-1.64 1.641h-1.954c-1.059 0-1.641-.582-1.641-1.641v-2.431h-.238c-1.044 2.566-3.461 4.37-6.891 4.37-4.504 0-7.636-3.117-7.636-8.62v-12.946c0-1.059.581-1.641 1.64-1.641h2.118c1.059 0 1.641.582 1.641 1.641v12.11c0 2.909 1.73 4.743 4.325 4.743 2.386 0 4.877-1.73 4.877-5.22v-11.633Zm16.35 19.627c0 1.059-.581 1.641-1.64 1.641h-2.118c-1.059 0-1.641-.582-1.641-1.641v-19.627c0-1.059.582-1.641 1.641-1.641h1.879c1.059 0 1.641.582 1.641 1.641v2.252h.268c1.044-2.551 3.401-4.191 6.831-4.191 4.728 0 7.86 3.132 7.845 8.62v12.946c0 1.059-.581 1.641-1.64 1.641h-2.118c-1.059 0-1.641-.582-1.641-1.641v-12.11c0-3.058-1.67-4.892-4.459-4.892-2.849 0-4.848 1.909-4.848 5.22v11.782Zm31.635-18.733c0 1.059-.582 1.641-1.641 1.641h-2.878v11.842c0 2.178 1.088 2.655 2.446 2.655h.029c.522 0 1.656.313 1.88 1.328l.238 1.103c.224 1.029-.179 1.79-1.223 1.969-.462.075-.999.134-1.611.149-4.056.12-7.188-1.998-7.159-6.309v-12.737h-1.61c-1.059 0-1.641-.582-1.641-1.641v-.894c0-1.059.582-1.641 1.626-1.641h1.625v-3.848c0-1.059.582-1.641 1.641-1.641h2.118c1.059 0 1.641.582 1.641 1.641v3.848h2.878c1.059 0 1.641.582 1.641 1.641v.894Z" fill="#fff"/></g><defs><clipPath id="a"><path fill="#fff" transform="rotate(90 560.672 618.828)" d="M0 0h101.188v219.5H0z"/></clipPath><clipPath id="b"><path fill="#fff" transform="rotate(43.309 342.401 1464.604)" d="M0 0h174.446v160.173H0z"/></clipPath><clipPath id="c"><path fill="#fff" transform="scale(1 -1) rotate(-17.155 -851.77 -3437.379)" d="M0 0h222.944v81.814H0z"/></clipPath><clipPath id="d"><path fill="#fff" transform="rotate(49.023 63.716 1179.68)" d="M0 0h213.722v98.765H0z"/></clipPath><clipPath id="h"><path fill="#fff" transform="translate(910 560)" d="M0 0h178.19v139.5H0z"/></clipPath><clipPath id="j"><path fill="#fff" transform="translate(744 168)" d="M0 0h96v96H0z"/></clipPath><linearGradient id="e" x1="356.274" y1="351.42" x2="383.219" y2="224.684" gradientUnits="userSpaceOnUse"><stop stop-color="#F7D7B4" stop-opacity=".75"/><stop offset="1" stop-color="#F7D7B4" stop-opacity="0"/></linearGradient><linearGradient id="f" x1="210.507" y1="289.668" x2="196.778" y2="177.039" gradientUnits="userSpaceOnUse"><stop stop-color="#F7D7B4" stop-opacity=".75"/><stop offset="1" stop-color="#F7D7B4" stop-opacity="0"/></linearGradient><linearGradient id="g" x1="264.532" y1="246.836" x2="264.532" y2="450.985" gradientUnits="userSpaceOnUse"><stop offset=".669" stop-color="#FFDE6E"/><stop offset="1" stop-color="#F8C455"/></linearGradient><linearGradient id="k" x1="791.998" y1="167.992" x2="791.998" y2="263.992" gradientUnits="userSpaceOnUse"><stop stop-color="#fff"/><stop offset="1" stop-color="#F8C456"/></linearGradient><linearGradient id="l" x1="791.998" y1="185.07" x2="791.998" y2="252.758" gradientUnits="userSpaceOnUse"><stop stop-color="#fff"/><stop offset="1" stop-color="#F8C456"/></linearGradient><filter id="i" x="538" y="94" width="590" height="493" filterUnits="userSpaceOnUse" color-interpolation-filters="sRGB"><feFlood flood-opacity="0" result="BackgroundImageFix"/><feColorMatrix in="SourceAlpha" values="0 0 0 0 0 0 0 0 0 0 0 0 0 0 0 0 0 0 127 0" result="hardAlpha"/><feOffset dx="4" dy="8"/><feGaussianBlur stdDeviation="9"/><feColorMatrix values="0 0 0 0 0 0 0 0 0 0 0 0 0 0 0 0 0 0 0.1 0"/><feBlend in2="BackgroundImageFix" result="effect1_dropShadow_4049_140168"/><feColorMatrix in="SourceAlpha" values="0 0 0 0 0 0 0 0 0 0 0 0 0 0 0 0 0 0 127 0" result="hardAlpha"/><feOffset dx="12" dy="30"/><feGaussianBlur stdDeviation="16"/><feColorMatrix values="0 0 0 0 0 0 0 0 0 0 0 0 0 0 0 0 0 0 0.09 0"/><feBlend in2="effect1_dropShadow_4049_140168" result="effect2_dropShadow_4049_140168"/><feColorMatrix in="SourceAlpha" values="0 0 0 0 0 0 0 0 0 0 0 0 0 0 0 0 0 0 127 0" result="hardAlpha"/><feOffset dx="28" dy="68"/><feGaussianBlur stdDeviation="22"/><feColorMatrix values="0 0 0 0 0 0 0 0 0 0 0 0 0 0 0 0 0 0 0.05 0"/><feBlend in2="effect2_dropShadow_4049_140168" result="effect3_dropShadow_4049_140168"/><feColorMatrix in="SourceAlpha" values="0 0 0 0 0 0 0 0 0 0 0 0 0 0 0 0 0 0 127 0" result="hardAlpha"/><feOffset dx="50" dy="120"/><feGaussianBlur stdDeviation="26"/><feColorMatrix values="0 0 0 0 0 0 0 0 0 0 0 0 0 0 0 0 0 0 0.01 0"/><feBlend in2="effect3_dropShadow_4049_140168" result="effect4_dropShadow_4049_140168"/><feBlend in="SourceGraphic" in2="effect4_dropShadow_4049_140168" result="shape"/></filter></defs></svg>