<svg xmlns="http://www.w3.org/2000/svg" width="1435" height="632" fill="none"><path fill="url(#a)" d="M1417.04.73h24v167.469h-24z" transform="rotate(42.92 1417.04 .73)"/><path fill="#fff" fill-opacity=".5" fill-rule="evenodd" d="M1321.28 110.321a7.504 7.504 0 0 0 .38 10.6 7.503 7.503 0 0 0 10.22-10.984 7.5 7.5 0 0 0-10.6.384Zm-.64 11.698c-3.64-3.384-3.85-9.079-.46-12.719 3.38-3.64 9.08-3.847 12.72-.462 3.64 3.385 3.85 9.08.46 12.72-3.38 3.64-9.08 3.846-12.72.461Z" clip-rule="evenodd"/><path fill="#fff" fill-opacity=".5" fill-rule="evenodd" d="M1323.18 111.85a.746.746 0 0 1 1.03.237l.15.242.28-.177-.15-.242a.75.75 0 0 1 1.27-.796l.18.285a2.321 2.321 0 0 1 3.11 2.3c.68.079 1.32.454 1.71 1.08l.04.057a2.267 2.267 0 0 1-.72 3.127l-.02.012.15.242a.75.75 0 0 1-.23 1.034.757.757 0 0 1-1.04-.237l-.15-.242-.28.177.15.242c.22.351.12.813-.24 1.033a.746.746 0 0 1-1.03-.237l-.15-.242-.92.576a.747.747 0 0 1-1.03-.237.75.75 0 0 1 .23-1.034l.19-.117-2.55-4.078-.19.117a.757.757 0 0 1-1.04-.237.752.752 0 0 1 .24-1.034l.92-.575-.15-.242a.743.743 0 0 1 .24-1.034Zm1.25 2.209.87 1.39 1.87-1.173a.82.82 0 0 0-.87-1.391l-1.87 1.174Zm1.66 2.661.89 1.416 2.31-1.444c.36-.226.46-.7.24-1.059l-.04-.057a.832.832 0 0 0-1.15-.264l-2.25 1.408Z" clip-rule="evenodd"/><path fill="#000" fill-opacity=".5" fill-rule="evenodd" d="M1363.38 65.044c-2.82 3.033-2.64 7.779.39 10.6a7.5 7.5 0 0 0 10.6-.385 7.495 7.495 0 0 0-.39-10.6 7.5 7.5 0 0 0-10.6.385Zm-.63 11.698c-3.64-3.385-3.85-9.08-.46-12.72 3.38-3.64 9.07-3.846 12.71-.461 3.64 3.385 3.85 9.08.47 12.72-3.39 3.64-9.08 3.846-12.72.461Z" clip-rule="evenodd"/><path fill="#000" fill-opacity=".5" fill-rule="evenodd" d="M1365.28 66.573a.746.746 0 0 1 1.03.237l.16.242.28-.177-.15-.242a.749.749 0 1 1 1.27-.797l.18.286c1-.367 2.16.005 2.76.949.26.42.37.891.35 1.35.68.08 1.32.455 1.71 1.08l.04.058a2.275 2.275 0 0 1-.72 3.126l-.02.013.15.242c.22.35.11.814-.24 1.033a.746.746 0 0 1-1.03-.237l-.15-.242-.28.177.15.242c.22.351.11.814-.24 1.034a.746.746 0 0 1-1.03-.237l-.16-.242-.91.575a.758.758 0 0 1-1.04-.237.752.752 0 0 1 .24-1.034l.19-.117-2.56-4.077-.19.117a.746.746 0 0 1-1.03-.237.752.752 0 0 1 .24-1.034l.92-.575-.16-.242a.752.752 0 0 1 .24-1.034Zm1.25 2.208.87 1.39 1.87-1.172c.39-.24.51-.747.26-1.131a.818.818 0 0 0-1.13-.26l-1.87 1.173Zm1.67 2.662.89 1.416 2.3-1.445c.36-.225.47-.7.24-1.059l-.03-.057a.835.835 0 0 0-1.15-.264l-2.25 1.409Z" clip-rule="evenodd"/><path fill="url(#b)" d="M926.711 582.055h24v210.933h-24z" transform="rotate(136.874 926.711 582.055)"/><path fill="#fff" fill-opacity=".5" fill-rule="evenodd" d="M794.269 447.239a7.499 7.499 0 0 0-10.601-.347 7.5 7.5 0 1 0 10.601.347Zm-11.627-1.442c3.628-3.398 9.324-3.212 12.721.416a9 9 0 0 1-.416 12.721 9 9 0 0 1-12.305-13.137Z" clip-rule="evenodd"/><path fill="#fff" fill-opacity=".5" fill-rule="evenodd" d="M792.613 449.026a.75.75 0 0 1-.308 1.015l-.252.134.157.294.252-.134a.749.749 0 1 1 .707 1.323l-.297.158a2.32 2.32 0 0 1-2.509 2.945 2.33 2.33 0 0 1-1.195 1.634l-.06.032a2.269 2.269 0 0 1-3.069-.931l-.011-.021-.252.135a.75.75 0 0 1-.707-1.323l.252-.135-.158-.294-.251.135a.75.75 0 0 1-.708-1.323l.252-.135-.51-.955a.75.75 0 1 1 1.322-.707l.104.194 4.244-2.268-.104-.195a.75.75 0 0 1 1.323-.707l.511.955.252-.134a.75.75 0 0 1 1.015.308Zm-2.29 1.096-1.447.773 1.041 1.948a.82.82 0 0 0 1.448-.773l-1.042-1.948Zm-2.77 1.48-1.473.788 1.282 2.398c.2.375.665.516 1.039.316l.06-.032a.835.835 0 0 0 .342-1.13l-1.25-2.34Z" clip-rule="evenodd"/><path fill="#000" fill-opacity=".5" fill-rule="evenodd" d="M851.413 508.246a7.5 7.5 0 1 0-10.946 10.256 7.5 7.5 0 0 0 10.946-10.256Zm-11.626-1.441a9 9 0 0 1 12.721.416 9 9 0 0 1-.416 12.721 9 9 0 0 1-12.721-.416 9 9 0 0 1 .416-12.721Z" clip-rule="evenodd"/><path fill="#000" fill-opacity=".5" fill-rule="evenodd" d="M849.757 510.034a.75.75 0 0 1-.308 1.015l-.251.134.157.294.251-.134a.75.75 0 1 1 .708 1.322l-.297.159a2.323 2.323 0 0 1-2.509 2.944 2.332 2.332 0 0 1-1.196 1.635l-.059.032a2.27 2.27 0 0 1-3.07-.932l-.011-.02-.252.134a.75.75 0 1 1-.707-1.322l.252-.135-.157-.294-.252.135a.75.75 0 0 1-.707-1.323l.252-.135-.511-.955a.75.75 0 0 1 1.323-.707l.104.194 4.244-2.268-.104-.195a.75.75 0 1 1 1.323-.707l.51.955.252-.134a.749.749 0 0 1 1.015.308Zm-2.289 1.095-1.447.774 1.041 1.948a.82.82 0 1 0 1.447-.774l-1.041-1.948Zm-2.77 1.481-1.474.788 1.282 2.398a.77.77 0 0 0 1.04.316l.059-.032a.836.836 0 0 0 .343-1.131l-1.25-2.339Z" clip-rule="evenodd"/><path fill="url(#c)" d="M795 617.039h24v210.933h-24z" transform="rotate(-180 795 617.039)"/><path fill="#fff" fill-opacity=".5" fill-rule="evenodd" d="M790.5 428.105a7.5 7.5 0 1 0-15 0 7.5 7.5 0 0 0 15 0Zm-7.5-9a9 9 0 1 1 0 18 9 9 0 0 1 0-18Z" clip-rule="evenodd"/><path fill="#fff" fill-opacity=".5" fill-rule="evenodd" d="M788.07 428.278a.75.75 0 0 1-.919.53l-.276-.074-.086.322.276.074a.75.75 0 0 1-.388 1.449l-.326-.087a2.32 2.32 0 0 1-3.844.434 2.33 2.33 0 0 1-1.989.375l-.065-.017a2.268 2.268 0 0 1-1.604-2.778l.006-.023-.276-.074a.75.75 0 0 1 .388-1.449l.276.074.086-.322-.275-.074a.75.75 0 1 1 .388-1.449l.276.074.28-1.046a.75.75 0 1 1 1.449.388l-.057.213 4.648 1.246.057-.213a.75.75 0 1 1 1.449.388l-.28 1.046.275.074c.4.107.638.519.531.919Zm-2.42-.765-1.586-.425-.571 2.133a.82.82 0 1 0 1.585.425l.572-2.133Zm-3.035-.813-1.613-.433-.704 2.627c-.11.41.133.831.543.941l.065.017a.835.835 0 0 0 1.023-.59l.686-2.562Z" clip-rule="evenodd"/><path fill="#000" fill-opacity=".5" fill-rule="evenodd" d="M790.5 511.695a7.5 7.5 0 1 0-15 0 7.5 7.5 0 0 0 15 0Zm-7.5-9a9 9 0 1 1 0 18 9 9 0 0 1 0-18Z" clip-rule="evenodd"/><path fill="#000" fill-opacity=".5" fill-rule="evenodd" d="M788.07 511.868a.75.75 0 0 1-.919.53l-.276-.074-.086.322.276.074a.75.75 0 1 1-.388 1.449l-.326-.087a2.32 2.32 0 0 1-3.844.433 2.33 2.33 0 0 1-1.989.376l-.065-.017a2.269 2.269 0 0 1-1.604-2.778l.006-.023-.276-.074a.75.75 0 1 1 .388-1.449l.276.074.086-.322-.275-.074a.75.75 0 1 1 .388-1.449l.276.074.28-1.046a.75.75 0 1 1 1.449.388l-.057.213 4.648 1.246.057-.213a.75.75 0 1 1 1.449.388l-.28 1.046.275.074c.4.107.638.519.531.919Zm-2.42-.766-1.586-.424-.571 2.133a.82.82 0 1 0 1.585.425l.572-2.134Zm-3.035-.813-1.613-.432-.704 2.627c-.11.41.133.831.543.941l.065.017a.834.834 0 0 0 1.023-.591l.686-2.562Z" clip-rule="evenodd"/><path fill="url(#d)" d="M998.5 595.582h24v198.506h-24z" transform="rotate(-153.604 998.5 595.582)"/><path fill="#fff" fill-opacity=".5" fill-rule="evenodd" d="M1072.94 435.477c1.84-3.71.32-8.211-3.39-10.053a7.498 7.498 0 0 0-10.05 3.384c-1.84 3.71-.33 8.211 3.38 10.053 3.71 1.841 8.21.326 10.06-3.384Zm-2.72-11.396c4.45 2.21 6.27 7.61 4.06 12.063-2.21 4.452-7.61 6.27-12.06 4.06-4.46-2.21-6.27-7.61-4.06-12.063 2.21-4.452 7.61-6.27 12.06-4.06Z" clip-rule="evenodd"/><path fill="#fff" fill-opacity=".5" fill-rule="evenodd" d="M1070.68 434.551c-.27.31-.74.34-1.06.066l-.21-.188-.22.25.21.188c.31.274.34.748.07 1.059a.751.751 0 0 1-1.06.067l-.25-.223c-.86.638-2.08.612-2.92-.125a2.336 2.336 0 0 1-.72-1.195c-.67.118-1.39-.06-1.95-.549l-.05-.044a2.266 2.266 0 0 1-.2-3.201l.02-.018-.22-.189a.744.744 0 0 1-.06-1.058.75.75 0 0 1 1.06-.067l.21.189.22-.25-.21-.189a.746.746 0 0 1-.07-1.059c.27-.31.75-.34 1.06-.066l.21.188.72-.812a.751.751 0 0 1 1.06-.067c.31.274.34.748.06 1.059l-.14.165 3.61 3.182.14-.165a.752.752 0 0 1 1.13.992l-.72.812.22.189c.31.274.34.748.06 1.059Zm-1.82-1.762-1.24-1.085-1.46 1.657a.82.82 0 0 0 .08 1.158c.34.3.86.267 1.15-.073l1.47-1.657Zm-2.36-2.077-1.25-1.105-1.8 2.04a.768.768 0 0 0 .07 1.085l.05.044c.34.305.87.272 1.18-.074l1.75-1.99Z" clip-rule="evenodd"/><path fill="#000" fill-opacity=".5" fill-rule="evenodd" d="M1038.54 504.778a7.498 7.498 0 1 0-13.43-6.669c-1.85 3.71-.33 8.211 3.38 10.052a7.496 7.496 0 0 0 10.05-3.383Zm-2.71-11.396c4.45 2.209 6.27 7.61 4.06 12.062-2.21 4.453-7.62 6.271-12.07 4.061s-6.27-7.611-4.06-12.063c2.21-4.452 7.61-6.27 12.07-4.06Z" clip-rule="evenodd"/><path fill="#000" fill-opacity=".5" fill-rule="evenodd" d="M1036.29 503.851a.752.752 0 0 1-1.06.067l-.21-.189-.22.25.21.189c.31.274.34.748.07 1.059-.28.31-.75.34-1.06.066l-.26-.222a2.315 2.315 0 0 1-3.63-1.321 2.32 2.32 0 0 1-1.95-.548l-.05-.044a2.267 2.267 0 0 1-.2-3.202l.01-.017-.21-.189a.755.755 0 0 1-.07-1.059c.28-.31.75-.34 1.06-.066l.21.189.23-.251-.22-.188a.755.755 0 0 1-.07-1.059.752.752 0 0 1 1.06-.067l.22.189.71-.812a.752.752 0 0 1 1.13.991l-.15.166 3.61 3.182.15-.165a.751.751 0 0 1 1.06-.067c.31.274.34.748.06 1.058l-.71.813.21.189c.31.274.34.748.07 1.058Zm-1.83-1.761-1.23-1.085-1.46 1.657a.82.82 0 1 0 1.23 1.085l1.46-1.657Zm-2.36-2.077-1.25-1.105-1.8 2.04a.768.768 0 0 0 .07 1.085l.05.044c.35.305.88.272 1.18-.074l1.75-1.99Z" clip-rule="evenodd"/><path fill="url(#e)" d="M1362.61 617.488h24v198.506h-24z" transform="rotate(150.862 1362.61 617.488)"/><path fill="#fff" fill-opacity=".5" fill-rule="evenodd" d="M1272.74 465.509c-2.01-3.618-6.58-4.916-10.2-2.899-3.62 2.017-4.91 6.585-2.9 10.203 2.02 3.618 6.59 4.916 10.2 2.899a7.496 7.496 0 0 0 2.9-10.203Zm-10.93-4.209a8.996 8.996 0 0 1 12.24 3.479c2.42 4.342.87 9.823-3.47 12.243-4.35 2.421-9.83.863-12.25-3.479-2.42-4.341-.86-9.823 3.48-12.243Z" clip-rule="evenodd"/><path fill="#fff" fill-opacity=".5" fill-rule="evenodd" d="M1270.7 466.843c.11.402-.14.81-.54.911l-.28.069.09.324.27-.07a.75.75 0 0 1 .37 1.455l-.33.082a2.319 2.319 0 0 1-3.14 2.25 2.341 2.341 0 0 1-1.56 1.297l-.06.017a2.274 2.274 0 0 1-2.76-1.646v-.023l-.28.07a.75.75 0 0 1-.37-1.454l.28-.07-.08-.323-.28.069a.749.749 0 1 1-.36-1.454l.27-.07-.26-1.05a.75.75 0 0 1 .54-.911.75.75 0 0 1 .91.544l.06.214 4.66-1.175-.05-.214a.75.75 0 0 1 .54-.911.75.75 0 0 1 .91.544l.27 1.051.27-.07c.41-.101.81.143.91.544Zm-2.48.51-1.59.401.54 2.142c.11.44.55.706.99.595.44-.11.71-.556.6-.996l-.54-2.142Zm-3.05.767-1.62.409.67 2.637c.1.411.52.661.93.557l.06-.016a.839.839 0 0 0 .61-1.015l-.65-2.572Z" clip-rule="evenodd"/><path fill="#000" fill-opacity=".5" fill-rule="evenodd" d="M1310.42 533.088a7.51 7.51 0 0 0-10.21-2.9 7.514 7.514 0 0 0-2.9 10.203 7.509 7.509 0 0 0 10.21 2.899 7.513 7.513 0 0 0 2.9-10.202Zm-10.94-4.21c4.34-2.42 9.83-.862 12.25 3.479 2.42 4.342.86 9.823-3.48 12.243-4.34 2.421-9.83.863-12.25-3.478-2.42-4.342-.86-9.824 3.48-12.244Z" clip-rule="evenodd"/><path fill="#000" fill-opacity=".5" fill-rule="evenodd" d="M1308.38 534.421c.1.402-.15.81-.55.911l-.27.07.08.323.27-.07c.41-.101.81.143.91.544a.743.743 0 0 1-.54.911l-.33.082a2.318 2.318 0 0 1-3.14 2.25 2.341 2.341 0 0 1-1.56 1.297l-.06.017a2.274 2.274 0 0 1-2.76-1.646v-.022l-.28.069a.75.75 0 0 1-.37-1.454l.28-.07-.08-.323-.28.069a.749.749 0 0 1-.91-.544.756.756 0 0 1 .55-.91l.27-.07-.26-1.05a.75.75 0 0 1 .54-.911c.41-.101.81.143.91.544l.06.214 4.66-1.175-.05-.214a.75.75 0 0 1 .54-.911c.41-.101.81.143.91.545l.27 1.05.28-.07a.75.75 0 0 1 .91.544Zm-2.49.51-1.59.401.54 2.142c.11.44.56.706.99.595.44-.11.71-.556.6-.996l-.54-2.142Zm-3.05.768-1.62.408.67 2.637c.1.411.52.661.93.557l.07-.016a.832.832 0 0 0 .6-1.014l-.65-2.572Z" clip-rule="evenodd"/><path fill="url(#f)" d="M1383.5 302.105h24v198.506h-24z" transform="rotate(90 1383.5 302.105)"/><path fill="#fff" fill-opacity=".5" fill-rule="evenodd" d="M1207 306.605a7.5 7.5 0 1 0 7.5 7.5c0-4.142-3.36-7.5-7.5-7.5Zm-9 7.5a9 9 0 1 1 18.001.001 9 9 0 0 1-18.001-.001Z" clip-rule="evenodd"/><path fill="#fff" fill-opacity=".5" fill-rule="evenodd" d="M1207.17 309.036c.4.107.64.518.53.918l-.07.276.32.086.07-.275c.11-.4.52-.638.92-.531.4.108.64.519.53.919l-.08.325a2.323 2.323 0 0 1 .43 3.844c.41.552.57 1.277.38 1.99l-.02.065a2.273 2.273 0 0 1-2.78 1.604l-.02-.006-.08.275a.738.738 0 0 1-.91.531.762.762 0 0 1-.54-.919l.08-.276-.32-.086-.08.276c-.1.4-.52.637-.92.53a.755.755 0 0 1-.53-.918l.08-.276-1.05-.281a.747.747 0 0 1-.53-.918c.11-.4.52-.638.92-.53l.21.057 1.25-4.648-.21-.058a.761.761 0 0 1-.54-.918c.11-.4.52-.638.92-.53l1.05.28.07-.276c.11-.4.52-.637.92-.53Zm-.76 2.42-.43 1.585 2.14.572a.82.82 0 0 0 .42-1.586l-2.13-.571Zm-.82 3.034-.43 1.614 2.63.704c.41.11.83-.134.94-.543l.02-.065a.84.84 0 0 0-.59-1.024l-2.57-.686Z" clip-rule="evenodd"/><path fill="#000" fill-opacity=".5" fill-rule="evenodd" d="M1284.37 306.605a7.5 7.5 0 1 0 7.5 7.5c0-4.142-3.36-7.5-7.5-7.5Zm-9 7.5a9 9 0 1 1 18.001.001 9 9 0 0 1-18.001-.001Z" clip-rule="evenodd"/><path fill="#000" fill-opacity=".5" fill-rule="evenodd" d="M1284.54 309.036c.4.107.64.518.53.918l-.07.276.32.086.08-.275c.1-.4.51-.638.91-.531.4.108.64.519.53.919l-.08.325a2.323 2.323 0 0 1 .43 3.844c.41.552.57 1.277.38 1.99l-.02.065a2.269 2.269 0 0 1-2.78 1.604l-.02-.006-.08.275a.738.738 0 0 1-.91.531.748.748 0 0 1-.53-.919l.07-.276-.32-.086-.08.276c-.1.4-.51.637-.91.53a.747.747 0 0 1-.53-.918l.07-.276-1.05-.281a.755.755 0 0 1-.53-.918c.11-.4.52-.638.92-.53l.21.057 1.25-4.648-.21-.058a.747.747 0 0 1-.53-.918c.1-.4.51-.638.91-.53l1.05.28.07-.276c.11-.4.52-.637.92-.53Zm-.76 2.42-.43 1.585 2.14.572a.82.82 0 0 0 .42-1.586l-2.13-.571Zm-.81 3.034-.44 1.614 2.63.704c.41.11.83-.134.94-.543l.02-.065a.84.84 0 0 0-.59-1.024l-2.56-.686Z" clip-rule="evenodd"/><path fill="url(#g)" d="M1412.04 260.016h24v198.506h-24z" transform="rotate(150 1412.04 260.016)"/><path fill="#fff" fill-opacity=".5" fill-rule="evenodd" d="M1319.89 109.408a7.504 7.504 0 0 0-10.25-2.746 7.506 7.506 0 0 0-2.74 10.246c2.07 3.587 6.66 4.816 10.24 2.745a7.5 7.5 0 0 0 2.75-10.245Zm-11-4.045a9.007 9.007 0 0 1 12.3 3.295c2.48 4.304 1.01 9.808-3.3 12.294-4.3 2.485-9.81 1.01-12.29-3.294-2.49-4.305-1.01-9.809 3.29-12.295Z" clip-rule="evenodd"/><path fill="#fff" fill-opacity=".5" fill-rule="evenodd" d="M1317.87 110.772c.11.4-.13.811-.53.918l-.28.074.09.322.28-.074c.4-.107.81.131.91.531.11.4-.13.811-.53.918l-.32.087c.05 1.07-.64 2.07-1.72 2.359-.48.128-.96.097-1.39-.061a2.356 2.356 0 0 1-1.54 1.32l-.06.018a2.269 2.269 0 0 1-2.78-1.604l-.01-.023-.27.074a.753.753 0 0 1-.92-.53c-.11-.4.13-.812.53-.919l.27-.074-.08-.322-.28.074a.753.753 0 0 1-.92-.53c-.1-.4.13-.811.53-.919l.28-.074-.28-1.046c-.11-.4.13-.811.53-.919.4-.107.81.131.92.531l.06.213 4.64-1.246-.05-.213c-.11-.4.13-.811.53-.918.4-.107.81.13.92.53l.28 1.046.27-.073c.4-.108.81.13.92.53Zm-2.48.547-1.58.425.57 2.134a.82.82 0 0 0 1 .58c.44-.117.7-.567.58-1.005l-.57-2.134Zm-3.03.813-1.62.433.71 2.627c.11.409.53.653.94.543l.06-.018a.83.83 0 0 0 .59-1.023l-.68-2.562Z" clip-rule="evenodd"/><path fill="#000" fill-opacity=".5" fill-rule="evenodd" d="M1358.57 176.411c-2.07-3.587-6.66-4.816-10.24-2.745a7.5 7.5 0 1 0 10.24 2.745Zm-10.99-4.044c4.3-2.485 9.81-1.01 12.29 3.294 2.49 4.305 1.01 9.809-3.29 12.295a9.007 9.007 0 0 1-12.3-3.295c-2.48-4.304-1.01-9.809 3.3-12.294Z" clip-rule="evenodd"/><path fill="#000" fill-opacity=".5" fill-rule="evenodd" d="M1356.55 177.776c.11.4-.13.811-.53.918l-.27.074.08.322.28-.074c.4-.107.81.131.92.531.11.4-.13.811-.53.918l-.33.087c.06 1.07-.64 2.07-1.72 2.359-.47.128-.96.097-1.39-.061a2.312 2.312 0 0 1-1.54 1.32l-.06.018a2.273 2.273 0 0 1-2.78-1.604v-.023l-.28.074a.753.753 0 0 1-.92-.53c-.11-.4.13-.812.53-.919l.28-.074-.09-.322-.27.074a.748.748 0 0 1-.92-.53c-.11-.4.13-.812.53-.919l.27-.074-.28-1.046c-.1-.4.13-.811.53-.919.4-.107.81.131.92.531l.06.213 4.65-1.246-.06-.213c-.11-.4.13-.811.53-.918.4-.108.81.13.92.53l.28 1.046.27-.074c.41-.107.82.131.92.531Zm-2.47.547-1.59.425.57 2.133c.12.438.57.698 1.01.581a.833.833 0 0 0 .58-1.005l-.57-2.134Zm-3.04.813-1.61.433.7 2.626c.11.41.53.654.94.544l.07-.018a.838.838 0 0 0 .59-1.023l-.69-2.562Z" clip-rule="evenodd"/><path fill="#FAFAFA" fill-opacity=".5" d="m1204.91 282.543 16.97 16.97-151.904 151.905-16.97-16.97z"/><path fill="#fff" fill-opacity=".5" fill-rule="evenodd" d="M1049.11 444.705a7.497 7.497 0 0 0 0 10.606c2.93 2.929 7.68 2.929 10.6 0a7.497 7.497 0 0 0 0-10.606c-2.92-2.929-7.67-2.929-10.6 0Zm-1.06 11.667a8.99 8.99 0 0 1 0-12.728c3.51-3.515 9.21-3.515 12.73 0a9.009 9.009 0 0 1 0 12.728c-3.52 3.514-9.22 3.514-12.73 0Z" clip-rule="evenodd"/><path fill="#fff" fill-opacity=".5" fill-rule="evenodd" d="M1050.95 446.301a.743.743 0 0 1 1.02.275l.15.247.28-.167-.14-.247a.747.747 0 0 1 .28-1.024.746.746 0 0 1 1.02.274l.17.292a2.32 2.32 0 0 1 3.02 2.411c.68.103 1.31.502 1.68 1.141l.03.059a2.269 2.269 0 0 1-.83 3.098l-.02.012.14.247c.21.359.09.818-.27 1.025a.757.757 0 0 1-1.03-.275l-.14-.247-.29.166.14.248c.21.358.09.817-.27 1.024a.743.743 0 0 1-1.02-.274l-.15-.248-.94.542a.748.748 0 0 1-1.02-.274.754.754 0 0 1 .27-1.025l.2-.11-2.41-4.168-.19.111a.757.757 0 0 1-1.03-.275.756.756 0 0 1 .28-1.024l.94-.542-.15-.247a.757.757 0 0 1 .28-1.025Zm1.17 2.252.82 1.422 1.91-1.105a.82.82 0 1 0-.82-1.421l-1.91 1.104Zm1.57 2.721.83 1.447 2.36-1.36a.767.767 0 0 0 .28-1.049l-.03-.059a.834.834 0 0 0-1.14-.305l-2.3 1.326Z" clip-rule="evenodd"/><path fill="#000" fill-opacity=".5" fill-rule="evenodd" d="M1131.84 361.974a7.499 7.499 0 0 0 0 10.607 7.504 7.504 0 0 0 10.61 0 7.517 7.517 0 0 0 0-10.607 7.504 7.504 0 0 0-10.61 0Zm-1.06 11.667a8.99 8.99 0 0 1 0-12.728c3.51-3.514 9.21-3.514 12.73 0 3.51 3.515 3.51 9.214 0 12.728-3.52 3.515-9.22 3.515-12.73 0Z" clip-rule="evenodd"/><path fill="#000" fill-opacity=".5" fill-rule="evenodd" d="M1133.68 363.571a.743.743 0 0 1 1.02.274l.15.248.29-.167-.15-.247a.757.757 0 0 1 .28-1.025.745.745 0 0 1 1.02.275l.17.291a2.32 2.32 0 0 1 3.02 2.412c.68.103 1.31.501 1.68 1.141l.03.058a2.261 2.261 0 0 1-.83 3.099l-.02.011.14.248c.21.358.09.817-.27 1.024a.757.757 0 0 1-1.03-.274l-.14-.248-.29.167.15.247c.2.359.08.818-.28 1.025a.743.743 0 0 1-1.02-.275l-.15-.247-.93.542a.757.757 0 0 1-1.03-.275.747.747 0 0 1 .28-1.024l.19-.111-2.41-4.167-.19.11a.757.757 0 0 1-1.03-.274.757.757 0 0 1 .28-1.025l.94-.541-.15-.248a.756.756 0 0 1 .28-1.024Zm1.17 2.252.82 1.421 1.91-1.104c.4-.227.53-.729.3-1.121a.818.818 0 0 0-1.12-.3l-1.91 1.104Zm1.57 2.72.84 1.447 2.35-1.359a.768.768 0 0 0 .28-1.05l-.03-.058a.833.833 0 0 0-1.14-.306l-2.3 1.326Z" clip-rule="evenodd"/><path fill="#fff" fill-opacity=".5" fill-rule="evenodd" d="M1214.57 279.24a7.497 7.497 0 0 0 0 10.606 7.504 7.504 0 0 0 10.61 0 7.497 7.497 0 0 0 0-10.606 7.504 7.504 0 0 0-10.61 0Zm-1.06 11.667a9.009 9.009 0 0 1 0-12.728c3.52-3.515 9.22-3.515 12.73 0a8.99 8.99 0 0 1 0 12.728c-3.51 3.515-9.21 3.515-12.73 0Z" clip-rule="evenodd"/><path fill="#fff" fill-opacity=".5" fill-rule="evenodd" d="M1216.41 280.836a.757.757 0 0 1 1.03.275l.14.247.29-.167-.14-.247a.744.744 0 0 1 .27-1.024.756.756 0 0 1 1.03.274l.16.292c1.02-.33 2.17.083 2.73 1.049.24.428.34.904.3 1.362.68.103 1.3.502 1.67 1.142l.03.058a2.26 2.26 0 0 1-.83 3.098l-.02.012.15.247c.2.359.08.818-.28 1.025a.745.745 0 0 1-1.02-.275l-.14-.247-.29.167.14.247c.21.359.08.817-.27 1.024a.756.756 0 0 1-1.03-.274l-.14-.247-.94.541a.743.743 0 0 1-1.02-.274.745.745 0 0 1 .27-1.025l.19-.11-2.41-4.167-.19.11a.745.745 0 0 1-1.02-.275.745.745 0 0 1 .27-1.024l.94-.542-.14-.247a.745.745 0 0 1 .27-1.025Zm1.17 2.253.82 1.421 1.92-1.105a.827.827 0 0 0 .3-1.12.821.821 0 0 0-1.12-.301l-1.92 1.105Zm1.57 2.72.84 1.447 2.35-1.36a.77.77 0 0 0 .29-1.049l-.04-.058a.833.833 0 0 0-1.14-.306l-2.3 1.326Z" clip-rule="evenodd"/><path fill="#FAFAFA" fill-opacity=".5" d="m1306.57 116.832 21.138 11.366-101.737 189.208-21.138-11.366z"/><path fill="#fff" fill-opacity=".5" fill-rule="evenodd" d="M1204.06 316.979a7.49 7.49 0 0 0 3.05 10.157 7.502 7.502 0 0 0 10.16-3.053 7.502 7.502 0 0 0-3.06-10.158c-3.64-1.961-8.19-.594-10.15 3.054Zm2.34 11.479a9.004 9.004 0 0 1-3.67-12.189c2.36-4.378 7.82-6.019 12.19-3.665a9.003 9.003 0 0 1 3.67 12.189c-2.36 4.378-7.81 6.018-12.19 3.665Z" clip-rule="evenodd"/><path fill="#fff" fill-opacity=".5" fill-rule="evenodd" d="M1206.28 317.978a.75.75 0 0 1 1.06-.032l.21.196.22-.243-.2-.196a.755.755 0 0 1-.04-1.06.75.75 0 0 1 1.06-.032l.25.231a2.322 2.322 0 0 1 3.59 1.438c.68-.096 1.39.106 1.93.612l.05.046c.91.858.96 2.294.1 3.206l-.02.017.21.196c.3.284.32.758.03 1.06a.75.75 0 0 1-1.06.032l-.21-.196-.23.243.21.196c.3.284.32.758.03 1.06a.749.749 0 0 1-1.06.032l-.2-.196-.75.789a.749.749 0 1 1-1.09-1.028l.15-.16-3.5-3.299-.15.161a.75.75 0 1 1-1.09-1.028l.74-.789-.21-.196a.746.746 0 0 1-.03-1.06Zm1.77 1.82 1.19 1.125 1.52-1.608c.31-.33.29-.85-.04-1.16a.82.82 0 0 0-1.16.035l-1.51 1.608Zm2.28 2.153 1.22 1.145 1.87-1.98a.768.768 0 0 0-.04-1.086l-.05-.046a.835.835 0 0 0-1.18.036l-1.82 1.931Z" clip-rule="evenodd"/><path fill="#000" fill-opacity=".5" fill-rule="evenodd" d="M1259.47 213.932c-1.97 3.648-.6 8.196 3.05 10.158 3.65 1.961 8.2.594 10.16-3.054a7.503 7.503 0 0 0-3.06-10.158c-3.64-1.961-8.19-.594-10.15 3.054Zm2.34 11.479a8.991 8.991 0 0 1-3.66-12.189c2.35-4.378 7.81-6.019 12.18-3.665a9.003 9.003 0 0 1 3.67 12.189c-2.36 4.378-7.81 6.019-12.19 3.665Z" clip-rule="evenodd"/><path fill="#000" fill-opacity=".5" fill-rule="evenodd" d="M1261.69 214.931a.75.75 0 0 1 1.06-.032l.21.196.22-.243-.2-.196a.755.755 0 0 1-.04-1.06.762.762 0 0 1 1.07-.032l.24.231c.88-.609 2.1-.543 2.91.22.36.34.59.768.68 1.218.68-.096 1.39.106 1.93.612l.05.046c.91.859.96 2.294.1 3.206l-.02.017.21.196c.3.284.32.759.03 1.06a.75.75 0 0 1-1.06.032l-.21-.195-.23.242.21.196c.3.284.32.759.03 1.06a.749.749 0 0 1-1.06.032l-.2-.195-.75.788a.749.749 0 1 1-1.09-1.028l.15-.16-3.5-3.299-.15.161a.75.75 0 1 1-1.09-1.028l.74-.789-.21-.196a.746.746 0 0 1-.03-1.06Zm1.77 1.82 1.19 1.125 1.52-1.608c.31-.33.29-.85-.04-1.16a.82.82 0 0 0-1.16.035l-1.51 1.608Zm2.28 2.153 1.22 1.145 1.87-1.98a.768.768 0 0 0-.04-1.086l-.05-.046a.835.835 0 0 0-1.18.036l-1.82 1.931Z" clip-rule="evenodd"/><path fill="#fff" fill-opacity=".5" fill-rule="evenodd" d="M1314.87 110.885a7.503 7.503 0 0 0 3.06 10.158c3.64 1.961 8.19.594 10.15-3.054 1.97-3.648.6-8.196-3.05-10.158-3.65-1.961-8.2-.594-10.16 3.054Zm2.35 11.479a9.003 9.003 0 0 1-3.67-12.189c2.36-4.378 7.81-6.019 12.19-3.665a8.991 8.991 0 0 1 3.66 12.189c-2.35 4.378-7.81 6.019-12.18 3.665Z" clip-rule="evenodd"/><path fill="#fff" fill-opacity=".5" fill-rule="evenodd" d="M1317.09 111.884a.75.75 0 0 1 1.06-.032l.21.196.23-.243-.21-.195a.75.75 0 0 1 1.03-1.093l.25.231a2.324 2.324 0 0 1 2.91.221c.36.339.58.767.68 1.217.68-.096 1.39.106 1.93.612l.05.046c.91.859.95 2.294.09 3.206l-.01.017.21.196a.75.75 0 0 1-1.03 1.092l-.21-.195-.23.242.21.196c.3.284.32.759.03 1.06a.75.75 0 0 1-1.06.032l-.21-.195-.74.789a.751.751 0 0 1-1.06.032.747.747 0 0 1-.03-1.061l.15-.16-3.5-3.298-.16.16a.749.749 0 1 1-1.09-1.028l.74-.789-.2-.195a.747.747 0 0 1-.04-1.061Zm1.77 1.82 1.2 1.125 1.51-1.608c.31-.33.3-.85-.03-1.16a.82.82 0 0 0-1.16.035l-1.52 1.608Zm2.29 2.153 1.22 1.146 1.86-1.981a.768.768 0 0 0-.03-1.086l-.05-.046a.834.834 0 0 0-1.18.036l-1.82 1.931Z" clip-rule="evenodd"/><path fill="#FAFAFA" fill-opacity=".5" d="m1298.27 498.625-22.333 8.788-78.661-199.907 22.333-8.788z"/><path fill="#fff" fill-opacity=".5" fill-rule="evenodd" d="M1211.77 291.061a7.504 7.504 0 0 0-9.73-4.233c-3.85 1.517-5.75 5.871-4.23 9.725 1.52 3.855 5.87 5.75 9.72 4.233 3.86-1.516 5.75-5.871 4.24-9.725Zm-10.28-5.629a8.998 8.998 0 0 1 11.67 5.08 8.996 8.996 0 0 1-5.08 11.67c-4.62 1.82-9.85-.454-11.67-5.079-1.82-4.626.46-9.851 5.08-11.671Z" clip-rule="evenodd"/><path fill="#fff" fill-opacity=".5" fill-rule="evenodd" d="M1209.57 292.111a.748.748 0 0 1-.66.83l-.29.032.04.331.29-.032c.41-.047.78.249.83.661a.757.757 0 0 1-.67.83l-.33.038a2.316 2.316 0 0 1-2.05 2.077c-.49.056-.96-.046-1.37-.266-.36.58-.98.995-1.71 1.078l-.07.007a2.27 2.27 0 0 1-2.51-1.997v-.024l-.29.033a.738.738 0 0 1-.82-.661.741.741 0 0 1 .66-.83l.28-.032-.04-.331-.28.032a.747.747 0 0 1-.83-.661.747.747 0 0 1 .66-.829l.28-.033-.12-1.076a.748.748 0 0 1 .66-.83c.41-.047.78.249.83.661l.03.219 4.78-.543-.03-.219a.756.756 0 0 1 .66-.83c.41-.047.79.249.83.66l.12 1.077.29-.032c.41-.047.78.249.83.66Zm-2.53.174-1.63.185.24 2.195c.06.45.46.774.91.723a.827.827 0 0 0 .73-.908l-.25-2.195Zm-3.12.355-1.67.188.31 2.702a.77.77 0 0 0 .85.677l.07-.008a.824.824 0 0 0 .73-.924l-.29-2.635Z" clip-rule="evenodd"/><path fill="#000" fill-opacity=".5" fill-rule="evenodd" d="M1254.61 399.936a7.504 7.504 0 0 0-9.73-4.233c-3.85 1.517-5.75 5.871-4.23 9.725 1.52 3.855 5.87 5.75 9.72 4.233 3.86-1.516 5.75-5.871 4.24-9.725Zm-10.28-5.629a8.998 8.998 0 0 1 11.67 5.08 8.996 8.996 0 0 1-5.08 11.67c-4.62 1.82-9.85-.454-11.67-5.079-1.82-4.626.46-9.851 5.08-11.671Z" clip-rule="evenodd"/><path fill="#000" fill-opacity=".5" fill-rule="evenodd" d="M1252.41 400.986a.756.756 0 0 1-.66.83l-.29.032.04.331.29-.032c.41-.047.78.249.83.661a.757.757 0 0 1-.67.83l-.33.038a2.316 2.316 0 0 1-2.05 2.077c-.49.056-.96-.046-1.37-.266-.36.58-.98.995-1.71 1.078l-.07.007a2.27 2.27 0 0 1-2.51-1.997v-.024l-.29.033a.753.753 0 0 1-.83-.661.756.756 0 0 1 .67-.83l.28-.032-.04-.331-.28.032a.747.747 0 0 1-.83-.661.747.747 0 0 1 .66-.829l.28-.033-.12-1.076a.748.748 0 0 1 .66-.83c.41-.047.78.249.83.661l.03.219 4.78-.543-.03-.219a.756.756 0 0 1 .66-.83c.41-.047.79.249.83.66l.12 1.077.29-.032c.41-.047.78.249.83.66Zm-2.53.174-1.63.185.24 2.195c.06.45.46.774.91.723a.827.827 0 0 0 .73-.908l-.25-2.195Zm-3.13.355-1.66.188.31 2.702a.77.77 0 0 0 .85.677l.07-.008a.824.824 0 0 0 .73-.924l-.3-2.635Z" clip-rule="evenodd"/><path fill="#fff" fill-opacity=".5" fill-rule="evenodd" d="M1297.45 508.807a7.505 7.505 0 0 0-9.73-4.233c-3.85 1.517-5.75 5.871-4.23 9.725 1.51 3.855 5.87 5.75 9.72 4.233 3.86-1.516 5.75-5.871 4.24-9.725Zm-10.28-5.629a8.998 8.998 0 0 1 11.67 5.08 8.996 8.996 0 0 1-5.08 11.67c-4.62 1.82-9.85-.454-11.67-5.079-1.82-4.626.46-9.851 5.08-11.671Z" clip-rule="evenodd"/><path fill="#fff" fill-opacity=".5" fill-rule="evenodd" d="M1295.25 509.857a.756.756 0 0 1-.66.83l-.29.032.04.332.29-.033c.41-.046.78.249.82.661a.742.742 0 0 1-.66.83l-.33.038a2.316 2.316 0 0 1-2.05 2.077c-.49.056-.96-.046-1.37-.266-.36.58-.98.995-1.71 1.078l-.07.008a2.271 2.271 0 0 1-2.51-1.998v-.024l-.29.033a.753.753 0 0 1-.83-.661.757.757 0 0 1 .67-.83l.28-.032-.04-.331-.28.032a.747.747 0 0 1-.83-.661.747.747 0 0 1 .66-.829l.28-.033-.12-1.076a.748.748 0 0 1 .66-.83c.41-.047.78.249.83.661l.03.219 4.78-.543-.03-.219a.756.756 0 0 1 .66-.83c.41-.047.79.249.83.66l.12 1.077.29-.032c.41-.047.78.249.83.66Zm-2.53.174-1.63.186.24 2.194c.06.451.46.774.91.723a.827.827 0 0 0 .73-.908l-.25-2.195Zm-3.13.355-1.66.188.31 2.702a.77.77 0 0 0 .85.677l.07-.007a.825.825 0 0 0 .73-.925l-.3-2.635Z" clip-rule="evenodd"/><path fill="#FAFAFA" fill-opacity=".5" d="m1290.19 476.926-6.565 23.085-206.632-58.767 6.565-23.085z"/><path fill="#fff" fill-opacity=".5" fill-rule="evenodd" d="M1072.7 419.752a7.495 7.495 0 0 0-9.26 5.163c-1.14 3.984 1.18 8.132 5.16 9.265 3.98 1.133 8.13-1.178 9.27-5.162a7.503 7.503 0 0 0-5.17-9.266Zm-10.7 4.752c1.35-4.781 6.33-7.554 11.11-6.194 4.78 1.359 7.56 6.337 6.2 11.118a9.002 9.002 0 0 1-11.12 6.195c-4.78-1.36-7.55-6.338-6.19-11.119Z" clip-rule="evenodd"/><path fill="#fff" fill-opacity=".5" fill-rule="evenodd" d="M1072.2 422.137a.74.74 0 0 1 .26 1.029l-.14.245.28.171.15-.245a.75.75 0 0 1 1.03-.259c.35.213.47.673.26 1.029l-.18.289c.79.729.98 1.932.41 2.888-.25.425-.62.74-1.04.928.24.641.2 1.382-.18 2.016l-.04.058a2.266 2.266 0 0 1-3.11.783l-.02-.012-.15.245a.742.742 0 0 1-1.02.259.74.74 0 0 1-.26-1.029l.14-.245-.28-.171-.15.245a.751.751 0 0 1-1.03.259.758.758 0 0 1-.26-1.029l.15-.245-.93-.556a.75.75 0 1 1 .77-1.287l.19.113 2.47-4.13-.19-.113a.75.75 0 1 1 .77-1.288l.93.556.15-.245a.742.742 0 0 1 1.02-.259Zm-1.39 2.119-.85 1.408 1.9 1.134c.39.232.89.105 1.13-.283a.825.825 0 0 0-.29-1.126l-1.89-1.133Zm-1.62 2.696-.85 1.434 2.33 1.395a.76.76 0 0 0 1.05-.265l.04-.058a.829.829 0 0 0-.29-1.145l-2.28-1.361Z" clip-rule="evenodd"/><path fill="#000" fill-opacity=".5" fill-rule="evenodd" d="M1185.24 451.76a7.505 7.505 0 0 0-9.27 5.163 7.502 7.502 0 0 0 5.17 9.265 7.495 7.495 0 0 0 9.26-5.162c1.13-3.984-1.18-8.133-5.16-9.266Zm-10.71 4.752c1.36-4.781 6.34-7.554 11.12-6.195 4.78 1.36 7.55 6.338 6.19 11.119a8.997 8.997 0 0 1-11.12 6.195c-4.78-1.36-7.55-6.338-6.19-11.119Z" clip-rule="evenodd"/><path fill="#000" fill-opacity=".5" fill-rule="evenodd" d="M1184.74 454.145c.35.213.47.673.26 1.029l-.15.245.29.171.14-.245a.754.754 0 0 1 1.03-.259c.36.212.47.673.26 1.028l-.17.29c.78.729.98 1.932.41 2.888-.26.425-.63.74-1.05.927.24.642.2 1.383-.18 2.017l-.03.058a2.271 2.271 0 0 1-3.11.783l-.02-.013-.15.246a.75.75 0 0 1-1.03.258.757.757 0 0 1-.26-1.028l.15-.245-.29-.171-.14.245a.756.756 0 0 1-1.03.259.75.75 0 0 1-.26-1.029l.15-.245-.93-.556a.74.74 0 0 1-.26-1.029.75.75 0 0 1 1.03-.258l.18.113 2.47-4.13-.19-.114a.745.745 0 0 1-.25-1.028.74.74 0 0 1 1.02-.259l.93.556.15-.245a.75.75 0 0 1 1.03-.259Zm-1.4 2.118-.84 1.409 1.9 1.134a.82.82 0 0 0 .84-1.409l-1.9-1.134Zm-1.61 2.696-.86 1.435 2.34 1.395c.36.218.83.099 1.05-.265l.03-.058a.834.834 0 0 0-.28-1.145l-2.28-1.362Z" clip-rule="evenodd"/><path fill="#fff" fill-opacity=".5" fill-rule="evenodd" d="M1297.78 483.764a7.505 7.505 0 0 0-9.27 5.162c-1.13 3.985 1.18 8.133 5.16 9.266 3.99 1.133 8.14-1.178 9.27-5.162 1.13-3.984-1.18-8.133-5.16-9.266Zm-10.71 4.752c1.36-4.781 6.34-7.554 11.12-6.195 4.78 1.36 7.55 6.338 6.19 11.119-1.36 4.781-6.34 7.554-11.12 6.195-4.78-1.36-7.55-6.338-6.19-11.119Z" clip-rule="evenodd"/><path fill="#fff" fill-opacity=".5" fill-rule="evenodd" d="M1297.28 486.149c.35.212.47.673.26 1.029l-.15.245.29.171.14-.245a.754.754 0 0 1 1.03-.259c.36.212.47.673.26 1.028l-.17.289c.78.73.98 1.932.41 2.889-.26.425-.63.739-1.05.927.24.642.2 1.383-.18 2.017l-.03.058a2.27 2.27 0 0 1-3.11.782l-.02-.012-.15.245a.75.75 0 0 1-1.03.259.748.748 0 0 1-.26-1.028l.15-.245-.29-.171-.14.245a.754.754 0 0 1-1.03.258.748.748 0 0 1-.26-1.028l.14-.245-.93-.556a.746.746 0 0 1-.25-1.029.742.742 0 0 1 1.02-.259l.19.114 2.47-4.13-.19-.114a.745.745 0 0 1-.25-1.028.74.74 0 0 1 1.02-.259l.93.556.15-.245a.75.75 0 0 1 1.03-.259Zm-1.4 2.118-.84 1.409 1.89 1.133c.39.233.9.106 1.13-.283a.82.82 0 0 0-.28-1.125l-1.9-1.134Zm-1.61 2.696-.86 1.434 2.34 1.396c.36.218.83.099 1.05-.265l.03-.058a.836.836 0 0 0-.28-1.146l-2.28-1.361Z" clip-rule="evenodd"/><path fill="#FAFAFA" fill-opacity=".5" d="m944.57 292.395 2.458-23.874 276.538 28.472-2.458 23.874z"/><path fill="#fff" fill-opacity=".5" fill-rule="evenodd" d="M1199.69 314.137a7.49 7.49 0 0 0 8.22-6.693c.43-4.12-2.57-7.804-6.69-8.228-4.12-.424-7.8 2.572-8.23 6.692a7.502 7.502 0 0 0 6.7 8.229Zm9.72-6.539a9.002 9.002 0 0 1-9.88 8.031c-4.94-.509-8.54-4.93-8.03-9.874a9.002 9.002 0 0 1 9.88-8.031c4.94.509 8.54 4.93 8.03 9.874Z" clip-rule="evenodd"/><path fill="#fff" fill-opacity=".5" fill-rule="evenodd" d="M1199.76 311.702a.752.752 0 0 1-.43-.968l.1-.267-.31-.119-.1.267a.751.751 0 0 1-.97.433.744.744 0 0 1-.43-.968l.12-.314a2.333 2.333 0 0 1-.91-2.774c.18-.463.49-.837.87-1.094a2.334 2.334 0 0 1-.17-2.018l.02-.063a2.272 2.272 0 0 1 2.93-1.311l.02.008.1-.266a.755.755 0 0 1 .97-.434c.39.148.58.581.44.968l-.11.267.32.119.1-.267a.749.749 0 1 1 1.4.534l-.1.267 1.01.386c.39.148.58.581.43.968a.753.753 0 0 1-.97.434l-.2-.079-1.72 4.496.21.079c.39.148.58.581.43.968a.749.749 0 0 1-.97.434l-1.01-.387-.1.267a.753.753 0 0 1-.97.434Zm1.01-2.329.59-1.534-2.07-.787a.827.827 0 0 0-1.06.474.82.82 0 0 0 .48 1.06l2.06.787Zm1.12-2.935.6-1.561-2.54-.97a.78.78 0 0 0-1 .444l-.02.063a.84.84 0 0 0 .48 1.079l2.48.945Z" clip-rule="evenodd"/><path fill="#000" fill-opacity=".5" fill-rule="evenodd" d="M1083.3 302.156c4.12.425 7.81-2.572 8.23-6.692.43-4.12-2.57-7.804-6.69-8.229-4.12-.424-7.81 2.572-8.23 6.693-.42 4.12 2.57 7.804 6.69 8.228Zm9.72-6.538c-.51 4.944-4.93 8.54-9.87 8.031a8.995 8.995 0 0 1-8.03-9.875c.51-4.944 4.93-8.54 9.87-8.031a8.995 8.995 0 0 1 8.03 9.875Z" clip-rule="evenodd"/><path fill="#000" fill-opacity=".5" fill-rule="evenodd" d="M1083.38 299.721a.744.744 0 0 1-.43-.968l.1-.267-.31-.118-.1.266a.756.756 0 0 1-.97.434.757.757 0 0 1-.44-.968l.12-.315c-.9-.582-1.3-1.732-.9-2.774.18-.462.48-.836.87-1.094a2.3 2.3 0 0 1-.17-2.018l.02-.063a2.272 2.272 0 0 1 2.93-1.31l.02.008.1-.267a.751.751 0 0 1 .97-.433c.39.147.58.581.43.968l-.1.266.31.119.1-.267a.755.755 0 0 1 .97-.433c.39.148.58.581.44.968l-.11.267 1.02.386a.751.751 0 0 1-.54 1.401l-.2-.078-1.72 4.496.21.079a.752.752 0 0 1-.54 1.401l-1.01-.386-.1.267a.751.751 0 0 1-.97.433Zm1.01-2.329.58-1.533-2.06-.787a.82.82 0 1 0-.58 1.533l2.06.787Zm1.12-2.935.59-1.561-2.54-.969a.769.769 0 0 0-.99.444l-.02.063a.83.83 0 0 0 .48 1.078l2.48.945Z" clip-rule="evenodd"/><path fill="#fff" fill-opacity=".5" fill-rule="evenodd" d="M966.916 290.172a7.5 7.5 0 0 0 8.228-6.692 7.501 7.501 0 1 0-8.228 6.692Zm9.721-6.539a9 9 0 0 1-9.875 8.031 9 9 0 1 1 9.875-8.031Z" clip-rule="evenodd"/><path fill="#fff" fill-opacity=".5" fill-rule="evenodd" d="M966.993 287.737a.75.75 0 0 1-.433-.968l.102-.267-.312-.119-.102.267a.75.75 0 1 1-1.401-.535l.12-.314a2.322 2.322 0 0 1-.038-3.868 2.334 2.334 0 0 1-.17-2.018l.024-.063a2.27 2.27 0 0 1 2.928-1.311l.022.008.102-.266a.75.75 0 0 1 1.401.534l-.102.267.312.119.102-.267a.75.75 0 1 1 1.401.535l-.102.266 1.012.387a.75.75 0 1 1-.534 1.401l-.206-.079-1.715 4.497.206.078a.75.75 0 1 1-.535 1.402l-1.012-.386-.102.266a.75.75 0 0 1-.968.434Zm1.009-2.329.585-1.533-2.064-.788a.821.821 0 0 0-.584 1.534l2.063.787Zm1.12-2.935.595-1.561-2.541-.969a.767.767 0 0 0-.991.444l-.024.062a.836.836 0 0 0 .483 1.079l2.478.945Z" clip-rule="evenodd"/><path fill="#FAFAFA" fill-opacity=".5" d="m1052.82 104.352 19.83-13.518 156.586 229.706-19.83 13.518z"/><path fill="#fff" fill-opacity=".5" fill-rule="evenodd" d="M1200.73 313.347a7.498 7.498 0 0 0 10.42 1.973c3.42-2.333 4.31-6.999 1.97-10.421a7.498 7.498 0 1 0-12.39 8.448Zm11.27 3.213c-4.11 2.799-9.71 1.739-12.51-2.368a8.997 8.997 0 0 1 2.37-12.505c4.1-2.8 9.7-1.74 12.5 2.367 2.8 4.107 1.74 9.706-2.36 12.506Z" clip-rule="evenodd"/><path fill="#fff" fill-opacity=".5" fill-rule="evenodd" d="M1202.64 311.836a.747.747 0 0 1 .46-.955l.27-.095-.11-.314-.27.094a.756.756 0 0 1-.96-.46.757.757 0 0 1 .46-.956l.32-.111a2.331 2.331 0 0 1 1.54-2.48c.47-.164.95-.169 1.39-.044.23-.646.74-1.187 1.44-1.431l.06-.022c1.18-.414 2.48.21 2.89 1.392l.01.022.27-.094c.39-.137.82.069.95.46a.749.749 0 0 1-.46.956l-.27.094.11.315.27-.095c.39-.136.82.07.96.461a.747.747 0 0 1-.46.955l-.27.095.36 1.022a.757.757 0 0 1-.46.956.757.757 0 0 1-.96-.461l-.07-.208-4.54 1.589.07.208a.749.749 0 0 1-.46.956.756.756 0 0 1-.96-.46l-.36-1.023-.26.094a.752.752 0 0 1-.96-.46Zm2.43-.731 1.55-.542-.73-2.084a.824.824 0 0 0-1.05-.504.825.825 0 0 0-.5 1.045l.73 2.085Zm2.97-1.037 1.57-.552-.9-2.567a.76.76 0 0 0-.97-.471l-.07.022a.84.84 0 0 0-.51 1.065l.88 2.503Z" clip-rule="evenodd"/><path fill="#000" fill-opacity=".5" fill-rule="evenodd" d="M1134.83 216.672a7.499 7.499 0 0 0 10.42 1.972c3.42-2.333 4.3-6.999 1.97-10.421a7.498 7.498 0 0 0-10.42-1.973c-3.42 2.333-4.31 6.999-1.97 10.422Zm11.26 3.212c-4.1 2.8-9.7 1.74-12.5-2.367-2.8-4.107-1.74-9.707 2.36-12.506 4.11-2.8 9.71-1.74 12.51 2.367a8.998 8.998 0 0 1-2.37 12.506Z" clip-rule="evenodd"/><path fill="#000" fill-opacity=".5" fill-rule="evenodd" d="M1136.74 215.16a.747.747 0 0 1 .46-.955l.27-.094-.11-.315-.27.094a.756.756 0 0 1-.96-.46.757.757 0 0 1 .46-.956l.32-.111a2.32 2.32 0 0 1 2.93-2.523c.23-.647.74-1.188 1.43-1.432l.07-.022c1.18-.413 2.47.21 2.89 1.392l.01.022.27-.094c.39-.137.81.069.95.46a.749.749 0 0 1-.46.956l-.27.094.11.315.27-.094c.39-.137.82.069.96.46a.755.755 0 0 1-.46.955l-.27.095.35 1.022a.749.749 0 1 1-1.41.496l-.07-.209-4.55 1.589.08.209a.752.752 0 0 1-1.42.495l-.36-1.023-.27.095a.743.743 0 0 1-.95-.461Zm2.43-.73 1.55-.542-.73-2.085a.824.824 0 0 0-1.05-.504.817.817 0 0 0-.5 1.046l.73 2.085Zm2.96-1.038 1.58-.551-.9-2.567a.77.77 0 0 0-.98-.472l-.06.022a.825.825 0 0 0-.51 1.065l.87 2.503Z" clip-rule="evenodd"/><path fill="#fff" fill-opacity=".5" fill-rule="evenodd" d="M1068.92 119.996a7.51 7.51 0 0 0 10.43 1.973c3.42-2.333 4.3-6.999 1.97-10.422a7.498 7.498 0 0 0-10.42-1.973 7.498 7.498 0 0 0-1.98 10.422Zm11.27 3.212c-4.11 2.8-9.71 1.74-12.51-2.367a8.998 8.998 0 0 1 2.37-12.506c4.11-2.8 9.71-1.74 12.51 2.367a8.998 8.998 0 0 1-2.37 12.506Z" clip-rule="evenodd"/><path fill="#fff" fill-opacity=".5" fill-rule="evenodd" d="M1070.84 118.485a.74.74 0 0 1 .46-.956l.26-.094-.11-.315-.26.094a.752.752 0 0 1-.96-.46.747.747 0 0 1 .46-.955l.32-.112a2.313 2.313 0 0 1 2.93-2.523c.23-.646.74-1.187 1.43-1.431l.07-.022a2.271 2.271 0 0 1 2.89 1.392v.022l.27-.095c.39-.136.82.07.96.461a.747.747 0 0 1-.46.955l-.27.095.11.314.27-.094c.39-.137.82.069.95.46a.749.749 0 0 1-.46.956l-.27.094.36 1.023a.747.747 0 1 1-1.41.495l-.08-.208-4.54 1.589.07.208a.747.747 0 0 1-.46.955.741.741 0 0 1-.95-.46l-.36-1.022-.27.094a.741.741 0 0 1-.95-.46Zm2.43-.731 1.54-.542-.72-2.085a.825.825 0 0 0-1.05-.504.817.817 0 0 0-.5 1.046l.73 2.085Zm2.96-1.037 1.58-.552-.9-2.567a.77.77 0 0 0-.98-.472l-.06.023a.837.837 0 0 0-.52 1.064l.88 2.504Z" clip-rule="evenodd"/><path fill="#FAFAFA" fill-opacity=".5" d="M1061 93.106v24H783v-24z"/><path fill="#fff" fill-opacity=".5" fill-rule="evenodd" d="M805 97.606a7.5 7.5 0 1 0 0 14.999 7.5 7.5 0 0 0 0-15Zm-9 7.499a9 9 0 0 1 9-9 9 9 0 0 1 9 9 9 9 0 0 1-9 9 9 9 0 0 1-9-9Z" clip-rule="evenodd"/><path fill="#fff" fill-opacity=".5" fill-rule="evenodd" d="M805.172 100.036a.75.75 0 0 1 .531.918l-.074.276.322.086.074-.275a.75.75 0 1 1 1.449.388l-.088.325a2.323 2.323 0 0 1 .434 3.844c.406.552.567 1.277.376 1.99l-.018.065a2.268 2.268 0 0 1-2.778 1.604l-.022-.006-.074.275a.75.75 0 1 1-1.449-.388l.074-.276-.322-.086-.074.276a.75.75 0 0 1-1.449-.388l.074-.276-1.046-.281a.75.75 0 1 1 .388-1.448l.213.057 1.245-4.648-.213-.058a.75.75 0 1 1 .388-1.448l1.047.28.074-.276a.75.75 0 0 1 .918-.53Zm-.765 2.42-.425 1.585 2.134.572a.821.821 0 0 0 .425-1.586l-2.134-.571Zm-.813 3.034-.432 1.614 2.627.704a.768.768 0 0 0 .94-.543l.018-.065a.837.837 0 0 0-.591-1.024l-2.562-.686Z" clip-rule="evenodd"/><path fill="#000" fill-opacity=".5" fill-rule="evenodd" d="M922 97.606a7.5 7.5 0 1 0 0 14.999 7.5 7.5 0 0 0 0-15Zm-9 7.499a9 9 0 0 1 9-9 9 9 0 0 1 9 9 9 9 0 0 1-9 9 9 9 0 0 1-9-9Z" clip-rule="evenodd"/><path fill="#000" fill-opacity=".5" fill-rule="evenodd" d="M922.172 100.036a.75.75 0 0 1 .531.918l-.074.276.322.086.074-.275a.75.75 0 1 1 1.449.388l-.088.325a2.323 2.323 0 0 1 .434 3.844c.406.552.567 1.277.376 1.99l-.018.065a2.268 2.268 0 0 1-2.778 1.604l-.022-.006-.074.275a.75.75 0 1 1-1.449-.388l.074-.276-.322-.086-.074.276a.75.75 0 0 1-1.449-.388l.074-.276-1.046-.281a.75.75 0 1 1 .388-1.448l.213.057 1.245-4.648-.213-.058a.75.75 0 1 1 .388-1.448l1.047.28.074-.276a.75.75 0 0 1 .918-.53Zm-.765 2.42-.425 1.585 2.134.572a.821.821 0 0 0 .425-1.586l-2.134-.571Zm-.813 3.034-.432 1.614 2.627.704a.768.768 0 0 0 .94-.543l.018-.065a.837.837 0 0 0-.591-1.024l-2.562-.686Z" clip-rule="evenodd"/><path fill="#fff" fill-opacity=".5" fill-rule="evenodd" d="M1039 97.606c-4.14 0-7.5 3.357-7.5 7.499a7.5 7.5 0 0 0 15 0c0-4.142-3.36-7.5-7.5-7.5Zm-9 7.499a9 9 0 1 1 18 .002 9 9 0 0 1-18-.002Z" clip-rule="evenodd"/><path fill="#fff" fill-opacity=".5" fill-rule="evenodd" d="M1039.17 100.036c.4.107.64.518.53.918l-.07.276.32.086.07-.275c.11-.4.52-.638.92-.531.4.108.64.519.53.919l-.08.325a2.323 2.323 0 0 1 .43 3.844c.41.552.57 1.277.38 1.99l-.02.065a2.273 2.273 0 0 1-2.78 1.604l-.02-.006-.08.275a.738.738 0 0 1-.91.531.762.762 0 0 1-.54-.919l.08-.276-.32-.086-.08.276c-.1.4-.52.637-.92.53a.755.755 0 0 1-.53-.918l.08-.276-1.05-.281a.747.747 0 0 1-.53-.918c.11-.4.52-.638.92-.53l.21.057 1.25-4.648-.21-.058a.761.761 0 0 1-.54-.918c.11-.4.52-.638.92-.53l1.05.28.07-.276c.11-.4.52-.637.92-.53Zm-.76 2.42-.43 1.585 2.14.572a.82.82 0 0 0 .42-1.586l-2.13-.571Zm-.82 3.034-.43 1.614 2.63.704c.41.11.83-.134.94-.543l.02-.065a.84.84 0 0 0-.59-1.024l-2.57-.686Z" clip-rule="evenodd"/><path fill="#FAFAFA" fill-opacity=".5" d="m795.125 451.09-15.106 18.65-216.022-174.982 15.106-18.65z"/><path fill="#fff" fill-opacity=".5" fill-rule="evenodd" d="M593.37 293.452a7.5 7.5 0 0 0-10.549 1.107 7.5 7.5 0 0 0 1.107 10.548 7.5 7.5 0 0 0 9.442-11.655Zm-11.715.163a9 9 0 1 1 13.987 11.329 9 9 0 0 1-13.987-11.329Z" clip-rule="evenodd"/><path fill="#fff" fill-opacity=".5" fill-rule="evenodd" d="M591.974 295.449a.75.75 0 0 1-.166 1.047l-.231.168.196.27.231-.168a.749.749 0 1 1 .881 1.213l-.272.198a2.322 2.322 0 0 1-2.083 3.26 2.332 2.332 0 0 1-.96 1.783l-.055.039a2.267 2.267 0 0 1-3.168-.502l-.014-.019-.231.168a.75.75 0 1 1-.881-1.214l.231-.167-.196-.27-.231.168a.751.751 0 0 1-.882-1.214l.231-.168-.636-.876a.75.75 0 0 1 1.213-.882l.13.179 3.893-2.828-.129-.179a.749.749 0 1 1 1.214-.881l.636.876.231-.168a.75.75 0 0 1 1.048.167Zm-2.118 1.398-1.328.965 1.298 1.787a.82.82 0 0 0 1.328-.964l-1.298-1.788Zm-2.542 1.846-1.351.982 1.598 2.201a.769.769 0 0 0 1.073.17l.054-.04a.836.836 0 0 0 .185-1.167l-1.559-2.146Z" clip-rule="evenodd"/><path fill="#000" fill-opacity=".5" fill-rule="evenodd" d="M684.284 367.092a7.501 7.501 0 1 0-9.442 11.658 7.501 7.501 0 0 0 9.442-11.658Zm-11.715.163a9 9 0 1 1 13.987 11.332 9 9 0 0 1-13.987-11.332Z" clip-rule="evenodd"/><path fill="#000" fill-opacity=".5" fill-rule="evenodd" d="M682.888 369.089a.751.751 0 0 1-.166 1.048l-.231.168.196.269.231-.168a.75.75 0 1 1 .881 1.214l-.272.198a2.322 2.322 0 0 1-2.083 3.26 2.334 2.334 0 0 1-.96 1.783l-.055.039a2.269 2.269 0 0 1-3.168-.502l-.014-.019-.231.168a.75.75 0 1 1-.881-1.214l.231-.168-.196-.27-.231.168a.75.75 0 0 1-.882-1.213l.231-.168-.636-.877a.749.749 0 1 1 1.213-.881l.13.178 3.894-2.828-.13-.178a.751.751 0 0 1 1.214-.882l.636.877.231-.168a.751.751 0 0 1 1.048.166Zm-2.118 1.399-1.328.964 1.298 1.788a.82.82 0 0 0 1.328-.965l-1.298-1.787Zm-2.542 1.846-1.351.982 1.598 2.2a.767.767 0 0 0 1.073.17l.054-.039a.836.836 0 0 0 .185-1.167l-1.559-2.146Z" clip-rule="evenodd"/><path fill="#fff" fill-opacity=".5" fill-rule="evenodd" d="M775.202 440.737a7.5 7.5 0 1 0-9.442 11.656 7.5 7.5 0 0 0 9.442-11.656Zm-11.715.163a9 9 0 1 1 13.988 11.33 9 9 0 0 1-13.988-11.33Z" clip-rule="evenodd"/><path fill="#fff" fill-opacity=".5" fill-rule="evenodd" d="M773.806 442.734a.75.75 0 0 1-.166 1.047l-.231.168.196.27.231-.168a.75.75 0 1 1 .881 1.214l-.272.198a2.322 2.322 0 0 1-2.083 3.259 2.332 2.332 0 0 1-.96 1.783l-.055.04a2.268 2.268 0 0 1-3.168-.503l-.014-.019-.231.168a.749.749 0 1 1-.881-1.213l.231-.168-.196-.27-.231.168a.751.751 0 0 1-.882-1.214l.231-.168-.636-.876a.75.75 0 0 1 1.213-.882l.13.179 3.894-2.828-.13-.179a.749.749 0 1 1 1.214-.881l.636.876.231-.167a.75.75 0 0 1 1.048.166Zm-2.118 1.399-1.328.964 1.298 1.787a.82.82 0 0 0 1.328-.964l-1.298-1.787Zm-2.542 1.846-1.351.981 1.598 2.201a.769.769 0 0 0 1.073.17l.054-.04a.835.835 0 0 0 .185-1.166l-1.559-2.146Z" clip-rule="evenodd"/><path fill="#FAFAFA" fill-opacity=".5" d="m773.258 90.539 14.591 19.055-220.723 169.013-14.59-19.055z"/><path fill="#fff" fill-opacity=".5" fill-rule="evenodd" d="M572.737 249.751a7.5 7.5 0 1 0 9.12 11.91 7.5 7.5 0 0 0-9.12-11.91Zm-2.586 11.426a9 9 0 1 1 14.292-10.943 9 9 0 0 1-14.292 10.943Z" clip-rule="evenodd"/><path fill="#fff" fill-opacity=".5" fill-rule="evenodd" d="M574.352 251.575a.75.75 0 0 1 .979.407l.109.264.308-.127-.109-.264a.75.75 0 1 1 1.387-.573l.128.312a2.321 2.321 0 0 1 2.682 2.788 2.333 2.333 0 0 1 1.508 1.351l.025.063a2.269 2.269 0 0 1-1.23 2.962l-.022.009.109.264a.75.75 0 1 1-1.386.572l-.109-.264-.309.128.11.264a.75.75 0 0 1-1.387.572l-.109-.264-1.001.414a.75.75 0 0 1-.573-1.387l.204-.084-1.837-4.447-.204.084a.75.75 0 1 1-.572-1.387l1.001-.413-.109-.264a.75.75 0 0 1 .407-.98Zm.863 2.387.627 1.517 2.041-.843a.821.821 0 1 0-.626-1.517l-2.042.843Zm1.2 2.903.637 1.545 2.514-1.039a.768.768 0 0 0 .417-1.003l-.026-.062a.836.836 0 0 0-1.091-.453l-2.451 1.012Z" clip-rule="evenodd"/><path fill="#000" fill-opacity=".5" fill-rule="evenodd" d="M665.632 178.622a7.5 7.5 0 1 0 9.119 11.909 7.499 7.499 0 0 0 1.395-10.514 7.498 7.498 0 0 0-10.514-1.395Zm-2.586 11.426a9 9 0 0 1 1.674-12.617 9 9 0 0 1 12.617 1.674 9 9 0 0 1-1.674 12.617 9 9 0 0 1-12.617-1.674Z" clip-rule="evenodd"/><path fill="#000" fill-opacity=".5" fill-rule="evenodd" d="M667.246 180.447a.75.75 0 0 1 .98.406l.109.264.308-.127-.109-.264a.75.75 0 1 1 1.386-.572l.129.311a2.322 2.322 0 0 1 2.681 2.788 2.331 2.331 0 0 1 1.508 1.351l.026.063a2.268 2.268 0 0 1-1.231 2.962l-.021.009.109.264a.75.75 0 0 1-1.387.572l-.109-.263-.308.127.109.264a.75.75 0 1 1-1.386.572l-.109-.264-1.002.414a.75.75 0 1 1-.572-1.386l.204-.085-1.837-4.447-.204.084a.75.75 0 0 1-.573-1.386l1.001-.414-.109-.264a.75.75 0 0 1 .407-.979Zm.864 2.386.627 1.517 2.041-.843a.82.82 0 1 0-.627-1.517l-2.041.843Zm1.199 2.903.638 1.545 2.514-1.038a.769.769 0 0 0 .416-1.004l-.025-.062a.836.836 0 0 0-1.091-.453l-2.452 1.012Z" clip-rule="evenodd"/><path fill="#fff" fill-opacity=".5" fill-rule="evenodd" d="M758.526 107.489a7.5 7.5 0 1 0 9.121 11.91 7.5 7.5 0 0 0-9.121-11.91Zm-2.586 11.426a9 9 0 0 1 1.674-12.617 9 9 0 1 1-1.674 12.617Z" clip-rule="evenodd"/><path fill="#fff" fill-opacity=".5" fill-rule="evenodd" d="M760.141 109.314a.75.75 0 0 1 .979.407l.109.264.308-.128-.109-.264a.75.75 0 1 1 1.387-.572l.128.311a2.322 2.322 0 0 1 2.682 2.788 2.33 2.33 0 0 1 1.508 1.352l.025.062a2.268 2.268 0 0 1-1.23 2.962l-.022.009.109.264a.75.75 0 0 1-1.386.573l-.109-.264-.308.127.109.264a.75.75 0 1 1-1.387.573l-.109-.264-1.001.413a.75.75 0 0 1-.573-1.386l.204-.084-1.837-4.448-.204.084a.75.75 0 1 1-.572-1.386l1.001-.414-.109-.264a.75.75 0 0 1 .407-.979Zm.863 2.386.627 1.517 2.042-.843a.822.822 0 0 0-.627-1.517l-2.042.843Zm1.2 2.904.638 1.544 2.513-1.038a.769.769 0 0 0 .417-1.004l-.026-.062a.835.835 0 0 0-1.091-.453l-2.451 1.013Z" clip-rule="evenodd"/><path fill="#FAFAFA" fill-opacity=".5" d="m979.543 295.68-16.97 16.97-196.576-196.575 16.97-16.97z"/><path fill="#fff" fill-opacity=".5" fill-rule="evenodd" d="M795.342 117.843a7.5 7.5 0 0 0-10.606 0 7.5 7.5 0 0 0 0 10.606 7.5 7.5 0 0 0 10.606 0 7.5 7.5 0 0 0 0-10.606Zm-11.667-1.061a9 9 0 0 1 12.728 0 9 9 0 0 1 0 12.728 9 9 0 0 1-12.728 0 9 9 0 0 1 0-12.728Z" clip-rule="evenodd"/><path fill="#fff" fill-opacity=".5" fill-rule="evenodd" d="M793.746 119.683a.75.75 0 0 1-.275 1.024l-.247.143.167.289.247-.143a.75.75 0 0 1 .75 1.299l-.292.169a2.32 2.32 0 0 1-2.411 3.024 2.33 2.33 0 0 1-1.142 1.673l-.058.034a2.268 2.268 0 0 1-3.098-.831l-.012-.02-.247.143a.75.75 0 0 1-.75-1.299l.247-.143-.167-.289-.247.143a.75.75 0 0 1-.75-1.299l.247-.143-.541-.938a.75.75 0 0 1 1.299-.75l.11.191 4.167-2.406-.11-.191a.75.75 0 0 1 1.299-.75l.542.938.247-.143a.75.75 0 0 1 1.025.275Zm-2.253 1.17-1.421.821 1.105 1.913a.82.82 0 1 0 1.421-.821l-1.105-1.913Zm-2.72 1.571-1.447.835 1.36 2.355a.767.767 0 0 0 1.049.281l.058-.033a.835.835 0 0 0 .306-1.141l-1.326-2.297Z" clip-rule="evenodd"/><path fill="#000" fill-opacity=".5" fill-rule="evenodd" d="M878.073 200.573a7.5 7.5 0 1 0-10.607 10.607 7.5 7.5 0 0 0 10.607-10.607Zm-11.667-1.061a9 9 0 1 1 12.727 12.73 9 9 0 0 1-12.727-12.73Z" clip-rule="evenodd"/><path fill="#000" fill-opacity=".5" fill-rule="evenodd" d="M876.476 202.413a.751.751 0 0 1-.274 1.025l-.248.143.167.288.247-.142a.75.75 0 1 1 .75 1.299l-.291.168a2.321 2.321 0 0 1-2.412 3.025 2.33 2.33 0 0 1-1.141 1.672l-.058.034a2.27 2.27 0 0 1-3.099-.83l-.011-.021-.248.143a.75.75 0 0 1-.75-1.299l.248-.143-.167-.288-.247.143a.75.75 0 0 1-.75-1.3l.247-.142-.542-.938a.75.75 0 0 1 1.299-.75l.111.191 4.167-2.406-.11-.192a.75.75 0 1 1 1.299-.75l.541.939.248-.143a.75.75 0 0 1 1.024.274Zm-2.252 1.171-1.421.82 1.104 1.913a.82.82 0 1 0 1.421-.821l-1.104-1.912Zm-2.72 1.57-1.447.836 1.359 2.355a.77.77 0 0 0 1.05.281l.058-.034c.4-.23.536-.741.306-1.141l-1.326-2.297Z" clip-rule="evenodd"/><path fill="#fff" fill-opacity=".5" fill-rule="evenodd" d="M960.807 283.307a7.501 7.501 0 1 0-10.606 10.61 7.501 7.501 0 0 0 10.606-10.61Zm-11.667-1.06a9 9 0 0 1 12.728 0 9 9 0 0 1 0 12.728 9.001 9.001 0 0 1-12.728 0 9 9 0 0 1 0-12.728Z" clip-rule="evenodd"/><path fill="#fff" fill-opacity=".5" fill-rule="evenodd" d="M959.211 285.148a.75.75 0 0 1-.275 1.024l-.247.143.166.289.248-.143a.75.75 0 0 1 .75 1.299l-.292.168a2.32 2.32 0 0 1-2.411 3.025 2.331 2.331 0 0 1-1.142 1.673l-.058.033a2.267 2.267 0 0 1-3.098-.83l-.012-.02-.247.143a.75.75 0 0 1-.75-1.299l.247-.143-.167-.289-.247.143a.75.75 0 0 1-.75-1.299l.247-.143-.541-.938a.75.75 0 1 1 1.299-.75l.11.191 4.167-2.406-.11-.191a.75.75 0 0 1 1.299-.75l.542.938.247-.143a.75.75 0 0 1 1.025.275Zm-2.253 1.17-1.421.821 1.104 1.912a.821.821 0 0 0 1.422-.82l-1.105-1.913Zm-2.72 1.571-1.447.835 1.36 2.355a.767.767 0 0 0 1.049.281l.058-.033a.836.836 0 0 0 .306-1.142l-1.326-2.296Z" clip-rule="evenodd"/><path fill="#FAFAFA" fill-opacity=".5" d="m788.742 466.648-16.97-16.97 196.575-196.576 16.97 16.97z"/><path fill="#fff" fill-opacity=".5" fill-rule="evenodd" d="M966.579 282.448a7.5 7.5 0 1 0-10.607-10.607 7.5 7.5 0 0 0 10.607 10.607Zm1.061-11.667a8.998 8.998 0 0 1 0 12.727 9 9 0 0 1-12.728 0 8.998 8.998 0 0 1 0-12.727 9 9 0 0 1 12.728 0Z" clip-rule="evenodd"/><path fill="#fff" fill-opacity=".5" fill-rule="evenodd" d="M964.739 280.851a.751.751 0 0 1-1.025-.274l-.142-.248-.289.167.143.247a.75.75 0 0 1-1.299.75l-.169-.291a2.321 2.321 0 0 1-3.024-2.412 2.33 2.33 0 0 1-1.673-1.141l-.034-.058a2.27 2.27 0 0 1 .831-3.099l.02-.011-.143-.248a.75.75 0 0 1 1.299-.75l.143.248.289-.167-.143-.247a.751.751 0 0 1 1.299-.75l.143.247.938-.542a.75.75 0 0 1 .75 1.299l-.191.111 2.406 4.167.191-.11a.749.749 0 1 1 .75 1.299l-.938.541.142.248a.748.748 0 0 1-.274 1.024Zm-1.17-2.252-.821-1.421-1.913 1.104a.82.82 0 0 0 .821 1.421l1.913-1.104Zm-1.571-2.72-.835-1.447-2.355 1.359a.769.769 0 0 0-.282 1.05l.034.058c.231.4.742.536 1.141.306l2.297-1.326Z" clip-rule="evenodd"/><path fill="#000" fill-opacity=".5" fill-rule="evenodd" d="M883.849 365.178a7.5 7.5 0 1 0-10.607-10.605 7.5 7.5 0 0 0 10.607 10.605Zm1.06-11.667a9 9 0 0 1 0 12.728 8.998 8.998 0 0 1-12.727 0 9 9 0 0 1 0-12.728 8.998 8.998 0 0 1 12.727 0Z" clip-rule="evenodd"/><path fill="#000" fill-opacity=".5" fill-rule="evenodd" d="M882.008 363.582a.75.75 0 0 1-1.024-.275l-.143-.247-.289.166.143.248a.75.75 0 0 1-1.299.75l-.168-.292a2.322 2.322 0 0 1-3.025-2.411 2.333 2.333 0 0 1-1.673-1.142l-.033-.058a2.268 2.268 0 0 1 .83-3.098l.02-.012-.142-.247a.75.75 0 1 1 1.299-.75l.142.247.289-.167-.143-.247a.75.75 0 0 1 1.299-.75l.143.247.938-.541a.75.75 0 1 1 .75 1.299l-.191.11 2.406 4.167.191-.11a.75.75 0 0 1 .75 1.299l-.938.542.143.247a.75.75 0 0 1-.275 1.025Zm-1.17-2.253-.82-1.421-1.913 1.104a.821.821 0 0 0 .82 1.422l1.913-1.105Zm-1.57-2.72-.836-1.447-2.355 1.36a.768.768 0 0 0-.281 1.049l.034.058c.23.4.741.537 1.141.306l2.297-1.326Z" clip-rule="evenodd"/><path fill="#fff" fill-opacity=".5" fill-rule="evenodd" d="M801.114 447.913a7.5 7.5 0 1 0-10.607-10.607 7.5 7.5 0 0 0 10.607 10.607Zm1.061-11.668a9 9 0 0 1 0 12.728 9 9 0 0 1-12.728 0 9 9 0 0 1 0-12.728 9.001 9.001 0 0 1 12.728 0Z" clip-rule="evenodd"/><path fill="#fff" fill-opacity=".5" fill-rule="evenodd" d="M799.274 446.316a.75.75 0 0 1-1.024-.275l-.143-.247-.289.167.143.247a.75.75 0 0 1-1.299.75l-.169-.292a2.32 2.32 0 0 1-3.024-2.411 2.33 2.33 0 0 1-1.673-1.141l-.033-.058a2.268 2.268 0 0 1 .83-3.099l.02-.012-.143-.247a.75.75 0 0 1 1.299-.75l.143.247.289-.166-.143-.248a.75.75 0 0 1 1.299-.75l.143.248.938-.542a.75.75 0 0 1 .75 1.299l-.191.11 2.406 4.168.191-.111a.75.75 0 0 1 .75 1.3l-.938.541.143.247a.75.75 0 0 1-.275 1.025Zm-1.17-2.252-.821-1.422-1.913 1.105a.82.82 0 1 0 .821 1.421l1.913-1.104Zm-1.571-2.721-.835-1.447-2.355 1.36a.767.767 0 0 0-.281 1.05l.033.058a.837.837 0 0 0 1.141.306l2.297-1.327Z" clip-rule="evenodd"/><path fill="#FAFAFA" fill-opacity=".5" d="M795 428.105h-24v-278h24z"/><path fill="#000" fill-opacity=".5" fill-rule="evenodd" d="M790.5 172.105a7.5 7.5 0 1 0-15 0 7.5 7.5 0 0 0 15 0Zm-7.5-9a9 9 0 1 1 0 18 9 9 0 0 1 0-18Z" clip-rule="evenodd"/><path fill="#000" fill-opacity=".5" fill-rule="evenodd" d="M788.07 172.278a.75.75 0 0 1-.919.53l-.276-.074-.086.322.276.074a.75.75 0 0 1-.388 1.449l-.326-.087a2.32 2.32 0 0 1-3.844.434 2.33 2.33 0 0 1-1.989.375l-.065-.017a2.268 2.268 0 0 1-1.604-2.778l.006-.023-.276-.074a.75.75 0 0 1 .388-1.449l.276.074.086-.322-.275-.074a.75.75 0 1 1 .388-1.449l.276.074.28-1.046a.75.75 0 1 1 1.449.388l-.057.213 4.648 1.246.057-.213a.75.75 0 1 1 1.449.388l-.28 1.046.275.074c.4.107.638.519.531.919Zm-2.42-.765-1.586-.425-.571 2.133a.82.82 0 1 0 1.585.425l.572-2.133Zm-3.035-.813-1.613-.433-.704 2.627c-.11.41.133.831.543.941l.065.017a.835.835 0 0 0 1.023-.59l.686-2.562ZM790.5 289.105a7.5 7.5 0 1 0-15 0 7.5 7.5 0 0 0 15 0Zm-7.5-9a9 9 0 1 1 0 18 9 9 0 0 1 0-18Z" clip-rule="evenodd"/><path fill="#000" fill-opacity=".5" fill-rule="evenodd" d="M788.07 289.278a.75.75 0 0 1-.919.53l-.276-.074-.086.322.276.074a.75.75 0 0 1-.388 1.449l-.326-.087a2.32 2.32 0 0 1-3.844.434 2.33 2.33 0 0 1-1.989.375l-.065-.017a2.268 2.268 0 0 1-1.604-2.778l.006-.023-.276-.074a.75.75 0 0 1 .388-1.449l.276.074.086-.322-.275-.074a.75.75 0 1 1 .388-1.449l.276.074.28-1.046a.75.75 0 1 1 1.449.388l-.057.213 4.648 1.246.057-.213a.75.75 0 1 1 1.449.388l-.28 1.046.275.074c.4.107.638.519.531.919Zm-2.42-.765-1.586-.425-.571 2.133a.82.82 0 1 0 1.585.425l.572-2.133Zm-3.035-.813-1.613-.433-.704 2.627c-.11.41.133.831.543.941l.065.017a.835.835 0 0 0 1.023-.59l.686-2.562Z" clip-rule="evenodd"/><path fill="#fff" fill-opacity=".5" fill-rule="evenodd" d="M790.5 406.105a7.5 7.5 0 1 0-15 0 7.5 7.5 0 0 0 15 0Zm-7.5-9a9 9 0 1 1 0 18 9 9 0 0 1 0-18Z" clip-rule="evenodd"/><path fill="#fff" fill-opacity=".5" fill-rule="evenodd" d="M788.07 406.278a.75.75 0 0 1-.919.53l-.276-.074-.086.322.276.074a.75.75 0 0 1-.388 1.449l-.326-.087a2.32 2.32 0 0 1-3.844.434 2.33 2.33 0 0 1-1.989.375l-.065-.017a2.268 2.268 0 0 1-1.604-2.778l.006-.023-.276-.074a.75.75 0 0 1 .388-1.449l.276.074.086-.322-.275-.074a.75.75 0 1 1 .388-1.449l.276.074.28-1.046a.75.75 0 1 1 1.449.388l-.057.213 4.648 1.246.057-.213a.75.75 0 1 1 1.449.388l-.28 1.046.275.074c.4.107.638.519.531.919Zm-2.42-.765-1.586-.425-.571 2.133a.82.82 0 1 0 1.585.425l.572-2.133Zm-3.035-.813-1.613-.433-.704 2.627c-.11.41.133.831.543.941l.065.017a.835.835 0 0 0 1.023-.59l.686-2.562Z" clip-rule="evenodd"/><rect width="105.752" height="105.752" x="888.125" y="229.231" fill="#09090B" rx="52.876"/><rect width="105.752" height="105.752" x="888.125" y="229.231" stroke="#27272A" stroke-width="2.25" rx="52.876"/><path fill="#FAFAFA" fill-opacity=".5" fill-rule="evenodd" d="M969.803 275.344h-.004a2.332 2.332 0 0 0-1.164-2.07l-23.981-14.064a7.07 7.07 0 0 0-7.139-.009l-24.133 14.069a2.334 2.334 0 0 0-1.17 2.074h-.009v14.179h.01c.023.78.425 1.55 1.203 1.987l24.203 13.575a7.071 7.071 0 0 0 6.934-.008l24.049-13.57a2.335 2.335 0 0 0 1.198-1.984h.003v-14.179Zm-51.959 1.796a1.199 1.199 0 1 0-1.179 2.09l20.349 11.482a8.272 8.272 0 0 0 8.164-.02l20.089-11.464a1.2 1.2 0 0 0-1.189-2.085l-20.09 11.464a5.87 5.87 0 0 1-5.795.014l-20.349-11.481Z" clip-rule="evenodd"/><rect width="105.752" height="105.752" x="1015.13" y="55.23" fill="#09090B" rx="52.876"/><rect width="105.752" height="105.752" x="1015.13" y="55.23" stroke="#27272A" stroke-width="2.25" rx="52.876"/><path fill="#FAFAFA" fill-opacity=".5" fill-rule="evenodd" d="M1096.8 101.344a2.356 2.356 0 0 0-1.16-2.07l-23.99-14.064a7.055 7.055 0 0 0-7.13-.01l-24.14 14.07a2.347 2.347 0 0 0-1.17 2.074h-.01v14.179h.01c.03.78.43 1.55 1.21 1.987l24.2 13.575a7.064 7.064 0 0 0 6.93-.008l24.05-13.57a2.32 2.32 0 0 0 1.2-1.984v-14.179Zm-51.96 1.796a1.197 1.197 0 1 0-1.17 2.09l20.34 11.482a8.283 8.283 0 0 0 8.17-.02l20.09-11.464c.57-.329.77-1.062.44-1.637a1.191 1.191 0 0 0-1.63-.448l-20.09 11.464a5.88 5.88 0 0 1-5.8.014l-20.35-11.481Z" clip-rule="evenodd"/><rect width="105.752" height="105.752" x="1159.13" y="259.231" fill="#09090B" rx="52.876"/><rect width="105.752" height="105.752" x="1159.13" y="259.231" stroke="#27272A" stroke-width="2.25" rx="52.876"/><path fill="#FAFAFA" fill-opacity=".5" fill-rule="evenodd" d="M1240.8 305.344a2.355 2.355 0 0 0-1.16-2.07l-23.99-14.064a7.054 7.054 0 0 0-7.13-.009l-24.14 14.069a2.348 2.348 0 0 0-1.17 2.074h-.01v14.179h.01c.03.78.43 1.55 1.21 1.987l24.2 13.575a7.064 7.064 0 0 0 6.93-.008l24.05-13.57a2.32 2.32 0 0 0 1.2-1.984v-14.179Zm-51.96 1.796a1.197 1.197 0 1 0-1.17 2.09l20.34 11.482a8.283 8.283 0 0 0 8.17-.02l20.09-11.464c.57-.329.77-1.062.44-1.637a1.191 1.191 0 0 0-1.63-.448l-20.09 11.464a5.88 5.88 0 0 1-5.8.014l-20.35-11.481Z" clip-rule="evenodd"/><rect width="105.752" height="105.752" x="1224.13" y="431.231" fill="#09090B" rx="52.876"/><rect width="105.752" height="105.752" x="1224.13" y="431.231" stroke="#27272A" stroke-width="2.25" rx="52.876"/><path fill="#FAFAFA" fill-opacity=".5" fill-rule="evenodd" d="M1305.8 477.344a2.355 2.355 0 0 0-1.16-2.07l-23.99-14.064a7.054 7.054 0 0 0-7.13-.009l-24.14 14.069a2.348 2.348 0 0 0-1.17 2.074h-.01v14.179h.01c.03.78.43 1.55 1.21 1.987l24.2 13.575a7.064 7.064 0 0 0 6.93-.008l24.05-13.57a2.32 2.32 0 0 0 1.2-1.984v-14.179Zm-51.96 1.796a1.197 1.197 0 1 0-1.17 2.09l20.34 11.482a8.283 8.283 0 0 0 8.17-.02l20.09-11.464c.57-.329.77-1.062.44-1.637a1.191 1.191 0 0 0-1.63-.448l-20.09 11.464a5.88 5.88 0 0 1-5.8.014l-20.35-11.481Z" clip-rule="evenodd"/><rect width="105.752" height="105.752" x="1260.13" y="73.231" fill="#09090B" rx="52.876"/><rect width="105.752" height="105.752" x="1260.13" y="73.231" stroke="#27272A" stroke-width="2.25" rx="52.876"/><path fill="#FAFAFA" fill-opacity=".5" fill-rule="evenodd" d="M1341.8 119.344a2.355 2.355 0 0 0-1.16-2.07l-23.99-14.064a7.054 7.054 0 0 0-7.13-.009l-24.14 14.069a2.348 2.348 0 0 0-1.17 2.074h-.01v14.179h.01c.03.78.43 1.55 1.21 1.987l24.2 13.575a7.064 7.064 0 0 0 6.93-.008l24.05-13.57a2.32 2.32 0 0 0 1.2-1.984v-14.179Zm-51.96 1.796a1.197 1.197 0 1 0-1.17 2.09l20.34 11.482a8.283 8.283 0 0 0 8.17-.02l20.09-11.464c.57-.329.77-1.062.44-1.637a1.191 1.191 0 0 0-1.63-.448l-20.09 11.464a5.88 5.88 0 0 1-5.8.014l-20.35-11.481Z" clip-rule="evenodd"/><rect width="105.752" height="105.752" x="1015.13" y="377.231" fill="#09090B" rx="52.876"/><rect width="105.752" height="105.752" x="1015.13" y="377.231" stroke="#27272A" stroke-width="2.25" rx="52.876"/><path fill="#FAFAFA" fill-opacity=".5" fill-rule="evenodd" d="M1096.8 423.344a2.355 2.355 0 0 0-1.16-2.07l-23.99-14.064a7.054 7.054 0 0 0-7.13-.009l-24.14 14.069a2.348 2.348 0 0 0-1.17 2.074h-.01v14.179h.01c.03.78.43 1.55 1.21 1.987l24.2 13.575a7.064 7.064 0 0 0 6.93-.008l24.05-13.57a2.32 2.32 0 0 0 1.2-1.984v-14.179Zm-51.96 1.796a1.197 1.197 0 1 0-1.17 2.09l20.34 11.482a8.283 8.283 0 0 0 8.17-.02l20.09-11.464c.57-.329.77-1.062.44-1.637a1.191 1.191 0 0 0-1.63-.448l-20.09 11.464a5.88 5.88 0 0 1-5.8.014l-20.35-11.481Z" clip-rule="evenodd"/><rect width="105.752" height="105.752" x="730.125" y="52.23" fill="#09090B" rx="52.876"/><rect width="105.752" height="105.752" x="730.125" y="52.23" stroke="#27272A" stroke-width="2.25" rx="52.876"/><path fill="#FAFAFA" fill-opacity=".5" fill-rule="evenodd" d="M811.803 98.344h-.004a2.333 2.333 0 0 0-1.164-2.07L786.654 82.21a7.072 7.072 0 0 0-7.139-.01l-24.133 14.07a2.333 2.333 0 0 0-1.17 2.074h-.009v14.179h.01c.023.78.425 1.55 1.203 1.987l24.203 13.575a7.071 7.071 0 0 0 6.934-.008l24.049-13.57a2.335 2.335 0 0 0 1.198-1.984h.003V98.344Zm-51.959 1.796a1.199 1.199 0 1 0-1.179 2.09l20.349 11.482a8.272 8.272 0 0 0 8.164-.02l20.089-11.464a1.2 1.2 0 0 0-1.189-2.085l-20.09 11.464a5.87 5.87 0 0 1-5.795.014l-20.349-11.481Z" clip-rule="evenodd"/><rect width="105.752" height="105.752" x="730.125" y="389.231" fill="#09090B" rx="52.876"/><rect width="105.752" height="105.752" x="730.125" y="389.231" stroke="#27272A" stroke-width="2.25" rx="52.876"/><path fill="#FAFAFA" fill-opacity=".5" fill-rule="evenodd" d="M811.803 435.344h-.004a2.332 2.332 0 0 0-1.164-2.07l-23.981-14.064a7.07 7.07 0 0 0-7.139-.009l-24.133 14.069a2.334 2.334 0 0 0-1.17 2.074h-.009v14.179h.01c.023.78.425 1.55 1.203 1.987l24.203 13.575a7.071 7.071 0 0 0 6.934-.008l24.049-13.57a2.335 2.335 0 0 0 1.198-1.984h.003v-14.179Zm-51.959 1.796a1.199 1.199 0 1 0-1.179 2.09l20.349 11.482a8.272 8.272 0 0 0 8.164-.02l20.089-11.464a1.2 1.2 0 0 0-1.189-2.085l-20.09 11.464a5.87 5.87 0 0 1-5.795.014l-20.349-11.481Z" clip-rule="evenodd"/><path fill="#fff" fill-opacity=".05" d="M191 261.105h279.997v40H191z"/><path stroke="#FAFAFA" stroke-dasharray="6 12" stroke-linecap="round" stroke-linejoin="round" stroke-opacity=".5" stroke-width="4" d="M191 261.105h279.997v40H191z"/><g filter="url(#h)"><rect width="162" height="162" x="45" y="200.105" fill="#18181B" rx="81"/><rect width="158.625" height="158.625" x="46.688" y="201.793" stroke="#E4E4E7" stroke-width="3.375" rx="79.312"/><path fill="#fff" d="M151.158 275.337a25.054 25.054 0 0 0-1.75-5.11 25.834 25.834 0 0 0-7.473-9.441 25.776 25.776 0 0 0-10.195-4.872 25.272 25.272 0 0 0-5.756-.648c-1.976 0-3.909.216-5.756.648a91.867 91.867 0 0 0-.756 4.18 118.582 118.582 0 0 0-1.037 8.405 149.03 149.03 0 0 0-.529 12.606c0 2.766.076 5.38.205 7.886a151.294 151.294 0 0 0 15.768 0c1.62-.086 3.196-.194 4.708-.324 3.024-.27 5.821-.616 8.413-1.037 1.458-.238 2.851-.486 4.18-.756a25.93 25.93 0 0 0 .648-5.758c0-1.977-.216-3.91-.648-5.758l-.022-.021Zm-7.484-1.956c-.659.098-1.296.26-1.922.476a10.93 10.93 0 0 0-3.1 1.685c-2.343 1.782-4.028 4.461-4.514 7.346 0 .054-.054.075-.086.065-.033 0-.065-.033-.065-.065-.767-4.915-4.741-8.75-9.536-9.517-.087-.011-.087-.141 0-.152.335-.054.659-.118.983-.205 2.699-.68 5.043-2.355 6.609-4.58.507-.713.929-1.48 1.263-2.301.324-.789.562-1.62.692-2.474.01-.086.14-.086.151 0 .291 1.858 1.047 3.554 2.116 5.002a11.513 11.513 0 0 0 2.139 2.204 11.652 11.652 0 0 0 5.27 2.365c.086.011.086.141 0 .151Z"/><path fill="#fff" d="M179.963 279.239v3.705c0 5.509-5.929 10.522-16.686 14.108-3.79 1.264-8.056 2.312-12.646 3.133-.335.065-.669.119-1.004.184-1.253.205-2.516.399-3.823.572-1.275.173-2.57.324-3.877.465-1.534.162-3.078.302-4.655.421-1.577.108-3.164.205-4.784.27a162.85 162.85 0 0 1-13.024 0c-1.62-.076-3.208-.162-4.784-.27a123.574 123.574 0 0 1-4.644-.421 137.318 137.318 0 0 1-3.877-.465c-1.296-.173-2.57-.367-3.812-.572a27.799 27.799 0 0 1-1.016-.184c-4.59-.81-8.855-1.858-12.646-3.133C77.93 293.466 72 288.453 72 282.944v-3.705c0-5.509 5.929-10.522 16.685-14.108 3.79-1.264 8.057-2.312 12.646-3.133-.054.454-.108.897-.162 1.361-.28 2.366-.496 4.775-.648 7.238a85.968 85.968 0 0 0-3.445.745c-10.475 2.463-17.398 6.114-19.19 9.755 1.792 3.64 8.715 7.292 19.19 9.744 1.113.259 2.258.508 3.445.745.67.13 1.35.259 2.052.378.886.151 1.782.303 2.7.432 2.668.4 5.486.735 8.445.973 1.545.129 3.122.237 4.731.313a155.376 155.376 0 0 0 15.119 0c1.609-.076 3.186-.184 4.719-.313 2.959-.249 5.778-.573 8.446-.973.918-.14 1.825-.281 2.699-.432a111.7 111.7 0 0 0 2.052-.378 87.73 87.73 0 0 0 3.445-.734c10.476-2.463 17.398-6.115 19.191-9.755-1.793-3.641-8.715-7.292-19.191-9.744a30.167 30.167 0 0 0-5.27-9.517c.335.054.681.119 1.015.184 4.59.81 8.856 1.858 12.647 3.132 10.756 3.587 16.685 8.599 16.685 14.108l-.043-.021Z"/><path fill="#fff" d="M145.22 257.439a30.345 30.345 0 0 0-9.514-5.272c-2.452-10.478-6.102-17.403-9.741-19.196-3.64 1.793-7.29 8.718-9.742 19.196a87.912 87.912 0 0 0-1.123 5.499 96.113 96.113 0 0 0-.432 2.701 124.62 124.62 0 0 0-.972 8.447 128.844 128.844 0 0 0-.313 4.721 155.502 155.502 0 0 0 0 15.123c-3.024-.27-5.821-.615-8.402-1.037a162.924 162.924 0 0 1-.129-6.514c0-2.193.043-4.375.129-6.514.076-1.62.162-3.208.281-4.785.108-1.577.248-3.133.41-4.645.141-1.318.292-2.614.465-3.889.172-1.296.367-2.571.572-3.813.054-.335.119-.681.184-1.016.81-4.591 1.857-8.858 3.132-12.65 3.585-10.759 8.596-16.69 14.104-16.69h3.704c5.508 0 10.519 5.931 14.104 16.69 1.264 3.792 2.311 8.059 3.132 12.65.065.335.119.681.184 1.016l-.033-.022ZM145.036 305.762c-.81 4.591-1.858 8.858-3.132 12.65-3.586 10.759-8.597 16.689-14.104 16.689h-3.705c-5.507 0-10.518-5.93-14.104-16.689-1.263-3.792-2.311-8.059-3.132-12.65.454.054.897.108 1.361.162 2.365.281 4.773.497 7.236.648.237 1.188.475 2.333.745 3.446 2.451 10.478 6.102 17.403 9.741 19.196 3.64-1.793 7.29-8.718 9.752-19.196.259-1.113.508-2.258.734-3.446 2.463-.162 4.882-.378 7.236-.648.454-.043.907-.108 1.361-.162h.011Z"/></g><g filter="url(#i)"><rect width="162.003" height="162.003" x="454.996" y="200.105" fill="#09090B" rx="81.001"/><rect width="158.628" height="158.628" x="456.684" y="201.793" stroke="#27272A" stroke-width="3.375" rx="79.314"/><path fill="#FAFAFA" fill-rule="evenodd" d="M579.193 270.969h-.004a3.502 3.502 0 0 0-1.746-3.104l-35.972-21.095a10.606 10.606 0 0 0-10.708-.014l-36.2 21.105a3.501 3.501 0 0 0-1.755 3.108h-.015v21.269h.016a3.497 3.497 0 0 0 1.804 2.98l36.303 20.363a10.604 10.604 0 0 0 10.401-.013l36.074-20.354a3.502 3.502 0 0 0 1.797-2.976h.005v-21.269Zm-77.934 2.693a1.799 1.799 0 1 0-1.769 3.135l30.523 17.222a12.409 12.409 0 0 0 12.246-.03l30.134-17.196a1.8 1.8 0 1 0-1.784-3.127l-30.135 17.196a8.806 8.806 0 0 1-8.692.021l-30.523-17.221Z" clip-rule="evenodd"/></g><defs><linearGradient id="a" x1="1429.04" x2="1429.04" y1="185.688" y2="34.005" gradientUnits="userSpaceOnUse"><stop offset=".68" stop-color="#8B8B8D"/><stop offset="1" stop-color="#fff" stop-opacity="0"/></linearGradient><linearGradient id="b" x1="938.711" x2="938.711" y1="815.016" y2="623.966" gradientUnits="userSpaceOnUse"><stop offset=".68" stop-color="#8B8B8D"/><stop offset="1" stop-color="#fff" stop-opacity="0"/></linearGradient><linearGradient id="c" x1="807" x2="807" y1="850.001" y2="658.95" gradientUnits="userSpaceOnUse"><stop offset=".68" stop-color="#8B8B8D"/><stop offset="1" stop-color="#fff" stop-opacity="0"/></linearGradient><linearGradient id="d" x1="1010.5" x2="1010.5" y1="814.819" y2="635.024" gradientUnits="userSpaceOnUse"><stop offset=".68" stop-color="#8B8B8D"/><stop offset="1" stop-color="#fff" stop-opacity="0"/></linearGradient><linearGradient id="e" x1="1374.61" x2="1374.61" y1="836.725" y2="656.93" gradientUnits="userSpaceOnUse"><stop offset=".68" stop-color="#8B8B8D"/><stop offset="1" stop-color="#fff" stop-opacity="0"/></linearGradient><linearGradient id="f" x1="1395.5" x2="1395.5" y1="521.342" y2="341.547" gradientUnits="userSpaceOnUse"><stop offset=".68" stop-color="#8B8B8D"/><stop offset="1" stop-color="#fff" stop-opacity="0"/></linearGradient><linearGradient id="g" x1="1424.04" x2="1424.04" y1="479.252" y2="299.457" gradientUnits="userSpaceOnUse"><stop offset=".68" stop-color="#8B8B8D"/><stop offset="1" stop-color="#fff" stop-opacity="0"/></linearGradient><filter id="h" width="202" height="202" x="25" y="200.105" color-interpolation-filters="sRGB" filterUnits="userSpaceOnUse"><feFlood flood-opacity="0" result="BackgroundImageFix"/><feColorMatrix in="SourceAlpha" result="hardAlpha" values="0 0 0 0 0 0 0 0 0 0 0 0 0 0 0 0 0 0 127 0"/><feMorphology in="SourceAlpha" radius="5" result="effect1_dropShadow_4411_46361"/><feOffset dy="20"/><feGaussianBlur stdDeviation="12.5"/><feColorMatrix values="0 0 0 0 0 0 0 0 0 0 0 0 0 0 0 0 0 0 0.1 0"/><feBlend in2="BackgroundImageFix" result="effect1_dropShadow_4411_46361"/><feColorMatrix in="SourceAlpha" result="hardAlpha" values="0 0 0 0 0 0 0 0 0 0 0 0 0 0 0 0 0 0 127 0"/><feMorphology in="SourceAlpha" radius="6" result="effect2_dropShadow_4411_46361"/><feOffset dy="8"/><feGaussianBlur stdDeviation="5"/><feColorMatrix values="0 0 0 0 0 0 0 0 0 0 0 0 0 0 0 0 0 0 0.1 0"/><feBlend in2="effect1_dropShadow_4411_46361" result="effect2_dropShadow_4411_46361"/><feBlend in="SourceGraphic" in2="effect2_dropShadow_4411_46361" result="shape"/></filter><filter id="i" width="202.004" height="202.004" x="434.996" y="200.105" color-interpolation-filters="sRGB" filterUnits="userSpaceOnUse"><feFlood flood-opacity="0" result="BackgroundImageFix"/><feColorMatrix in="SourceAlpha" result="hardAlpha" values="0 0 0 0 0 0 0 0 0 0 0 0 0 0 0 0 0 0 127 0"/><feMorphology in="SourceAlpha" radius="5" result="effect1_dropShadow_4411_46361"/><feOffset dy="20"/><feGaussianBlur stdDeviation="12.5"/><feColorMatrix values="0 0 0 0 0 0 0 0 0 0 0 0 0 0 0 0 0 0 0.1 0"/><feBlend in2="BackgroundImageFix" result="effect1_dropShadow_4411_46361"/><feColorMatrix in="SourceAlpha" result="hardAlpha" values="0 0 0 0 0 0 0 0 0 0 0 0 0 0 0 0 0 0 127 0"/><feMorphology in="SourceAlpha" radius="6" result="effect2_dropShadow_4411_46361"/><feOffset dy="8"/><feGaussianBlur stdDeviation="5"/><feColorMatrix values="0 0 0 0 0 0 0 0 0 0 0 0 0 0 0 0 0 0 0.1 0"/><feBlend in2="effect1_dropShadow_4411_46361" result="effect2_dropShadow_4411_46361"/><feBlend in="SourceGraphic" in2="effect2_dropShadow_4411_46361" result="shape"/></filter></defs></svg>