<svg xmlns="http://www.w3.org/2000/svg" width="1435" height="632" fill="none"><path fill="url(#a)" d="M926.711 581.949h24v210.933h-24z" transform="rotate(136.874 926.711 581.949)"/><path fill="#fff" fill-opacity=".5" fill-rule="evenodd" d="M794.269 447.133a7.5 7.5 0 1 0-10.948 10.256 7.5 7.5 0 0 0 10.948-10.256Zm-11.627-1.441c3.628-3.398 9.324-3.212 12.721.416a9 9 0 0 1-.416 12.721 9 9 0 0 1-12.305-13.137Z" clip-rule="evenodd"/><path fill="#fff" fill-opacity=".5" fill-rule="evenodd" d="M792.613 448.92a.75.75 0 0 1-.308 1.015l-.252.135.157.294.252-.135a.75.75 0 0 1 .707 1.323l-.297.159a2.322 2.322 0 0 1-2.509 2.944 2.333 2.333 0 0 1-1.195 1.635l-.06.031a2.267 2.267 0 0 1-3.069-.931l-.011-.021-.252.135a.75.75 0 1 1-.707-1.323l.252-.134-.158-.294-.251.134a.75.75 0 0 1-.708-1.323l.252-.134-.51-.956a.75.75 0 1 1 1.322-.707l.104.195 4.244-2.269-.104-.194a.75.75 0 0 1 1.323-.707l.511.955.252-.135a.75.75 0 0 1 1.015.308Zm-2.29 1.096-1.447.774 1.041 1.948a.821.821 0 0 0 1.448-.774l-1.042-1.948Zm-2.77 1.481-1.473.788 1.282 2.398c.2.374.665.515 1.039.315l.06-.031a.836.836 0 0 0 .342-1.131l-1.25-2.339ZM851.413 508.141a7.5 7.5 0 1 0-10.948 10.256 7.5 7.5 0 0 0 10.948-10.256Zm-11.626-1.442a9 9 0 1 1 12.305 13.139 9 9 0 0 1-12.305-13.139Z" clip-rule="evenodd"/><path fill="#fff" fill-opacity=".5" fill-rule="evenodd" d="M849.757 509.928a.75.75 0 0 1-.308 1.015l-.251.135.157.294.251-.135a.75.75 0 0 1 .708 1.323l-.297.159a2.322 2.322 0 0 1-2.509 2.944 2.33 2.33 0 0 1-1.196 1.634l-.059.032a2.268 2.268 0 0 1-3.07-.931l-.011-.021-.252.135a.75.75 0 0 1-.707-1.323l.252-.135-.157-.294-.252.135a.75.75 0 1 1-.707-1.323l.252-.134-.511-.956a.75.75 0 0 1 1.323-.707l.104.195 4.244-2.269-.104-.194a.75.75 0 1 1 1.323-.708l.51.956.252-.135a.75.75 0 0 1 1.015.308Zm-2.289 1.096-1.447.774 1.041 1.948a.82.82 0 0 0 1.447-.774l-1.041-1.948Zm-2.77 1.481-1.474.787 1.282 2.399c.2.374.666.515 1.04.315l.059-.031a.836.836 0 0 0 .343-1.131l-1.25-2.339Z" clip-rule="evenodd"/><path fill="url(#b)" d="M795 616.934h24v210.933h-24z" transform="rotate(-180 795 616.934)"/><path fill="#fff" fill-opacity=".5" fill-rule="evenodd" d="M790.5 428a7.5 7.5 0 1 0-15 0 7.5 7.5 0 0 0 15 0Zm-7.5-9a9 9 0 0 1 9 9 9 9 0 0 1-9 9 9 9 0 0 1-9-9 9 9 0 0 1 9-9Z" clip-rule="evenodd"/><path fill="#fff" fill-opacity=".5" fill-rule="evenodd" d="M788.07 428.172a.752.752 0 0 1-.919.531l-.276-.074-.086.322.276.074a.75.75 0 1 1-.388 1.449l-.326-.088a2.322 2.322 0 0 1-3.844.434 2.33 2.33 0 0 1-1.989.376l-.065-.018a2.268 2.268 0 0 1-1.604-2.778l.006-.022-.276-.074a.75.75 0 1 1 .388-1.449l.276.074.086-.322-.275-.074a.75.75 0 1 1 .388-1.449l.276.074.28-1.046a.75.75 0 1 1 1.449.388l-.057.213 4.648 1.245.057-.213a.75.75 0 0 1 1.449.388l-.28 1.047.275.074a.75.75 0 0 1 .531.918Zm-2.42-.765-1.586-.425-.571 2.134a.82.82 0 1 0 1.585.425l.572-2.134Zm-3.035-.813-1.613-.432-.704 2.627a.767.767 0 0 0 .543.94l.065.018a.835.835 0 0 0 1.023-.591l.686-2.562ZM790.5 511.59a7.5 7.5 0 1 0-15 0 7.5 7.5 0 0 0 15 0Zm-7.5-9a9 9 0 1 1 0 18 9 9 0 0 1 0-18Z" clip-rule="evenodd"/><path fill="#fff" fill-opacity=".5" fill-rule="evenodd" d="M788.07 511.762a.75.75 0 0 1-.919.53l-.276-.073-.086.322.276.073a.75.75 0 0 1-.388 1.449l-.326-.087a2.322 2.322 0 0 1-3.844.434 2.33 2.33 0 0 1-1.989.376l-.065-.018a2.268 2.268 0 0 1-1.604-2.778l.006-.022-.276-.074a.75.75 0 0 1 .388-1.449l.276.074.086-.322-.275-.074a.75.75 0 1 1 .388-1.449l.276.074.28-1.047a.75.75 0 1 1 1.449.389l-.057.213 4.648 1.245.057-.213a.75.75 0 0 1 1.449.388l-.28 1.047.275.074a.75.75 0 0 1 .531.918Zm-2.42-.765-1.586-.425-.571 2.134a.82.82 0 1 0 1.585.425l.572-2.134Zm-3.035-.813-1.613-.432-.704 2.626c-.11.41.133.831.543.941l.065.018a.835.835 0 0 0 1.023-.591l.686-2.562Z" clip-rule="evenodd"/><path fill="url(#c)" d="M998.5 595.477h24v198.506h-24z" transform="rotate(-153.604 998.5 595.477)"/><path fill="#fff" fill-opacity=".5" fill-rule="evenodd" d="M1072.94 435.371c1.84-3.71.32-8.211-3.39-10.052a7.496 7.496 0 0 0-10.05 3.384c-1.84 3.71-.33 8.211 3.38 10.052 3.71 1.842 8.21.327 10.06-3.384Zm-2.72-11.396c4.45 2.21 6.27 7.611 4.06 12.063a8.998 8.998 0 0 1-12.06 4.061c-4.46-2.21-6.27-7.611-4.06-12.063a8.998 8.998 0 0 1 12.06-4.061Z" clip-rule="evenodd"/><path fill="#fff" fill-opacity=".5" fill-rule="evenodd" d="M1070.68 434.445a.75.75 0 0 1-1.06.067l-.21-.189-.22.25.21.189c.31.274.34.748.07 1.059-.27.31-.75.34-1.06.066l-.25-.223c-.86.638-2.08.612-2.92-.125a2.328 2.328 0 0 1-.72-1.195c-.67.119-1.39-.06-1.95-.548l-.05-.045a2.266 2.266 0 0 1-.2-3.201l.02-.018-.22-.188a.745.745 0 0 1-.06-1.059.752.752 0 0 1 1.06-.067l.21.189.22-.25-.21-.189a.745.745 0 0 1-.07-1.058.751.751 0 0 1 1.06-.067l.21.189.72-.813c.27-.31.75-.34 1.06-.066.31.274.34.747.06 1.058l-.14.166 3.61 3.182.14-.166a.753.753 0 0 1 1.13.992l-.72.813.22.189c.31.274.34.748.06 1.058Zm-1.82-1.761-1.24-1.085-1.46 1.657a.82.82 0 0 0 .08 1.158c.34.3.86.267 1.15-.073l1.47-1.657Zm-2.36-2.077-1.25-1.105-1.8 2.04a.767.767 0 0 0 .07 1.084l.05.045c.34.305.87.272 1.18-.075l1.75-1.989ZM1038.54 504.672a7.496 7.496 0 1 0-13.43-6.669c-1.85 3.711-.33 8.211 3.38 10.053a7.498 7.498 0 0 0 10.05-3.384Zm-2.71-11.396c4.45 2.21 6.27 7.611 4.06 12.063-2.21 4.452-7.62 6.27-12.07 4.06-4.45-2.209-6.27-7.61-4.06-12.062 2.21-4.453 7.61-6.271 12.07-4.061Z" clip-rule="evenodd"/><path fill="#fff" fill-opacity=".5" fill-rule="evenodd" d="M1036.29 503.746a.752.752 0 0 1-1.06.067l-.21-.189-.22.25.21.189c.31.274.34.748.07 1.058a.752.752 0 0 1-1.06.067l-.26-.223a2.315 2.315 0 0 1-3.63-1.32c-.68.118-1.4-.06-1.95-.548l-.05-.045a2.266 2.266 0 0 1-.2-3.201l.01-.018-.21-.189a.754.754 0 0 1-.07-1.058.752.752 0 0 1 1.06-.067l.21.189.23-.25-.22-.189a.754.754 0 0 1-.07-1.058.752.752 0 0 1 1.06-.067l.22.189.71-.813a.753.753 0 0 1 1.13.992l-.15.165 3.61 3.183.15-.166a.751.751 0 0 1 1.06-.067c.31.274.34.748.06 1.059l-.71.813.21.188c.31.274.34.748.07 1.059Zm-1.83-1.761-1.23-1.086-1.46 1.657a.821.821 0 1 0 1.23 1.086l1.46-1.657Zm-2.36-2.077-1.25-1.105-1.8 2.04a.767.767 0 0 0 .07 1.084l.05.044c.35.306.88.272 1.18-.074l1.75-1.989Z" clip-rule="evenodd"/><path fill="url(#d)" d="M1362.61 617.383h24v198.506h-24z" transform="rotate(150.862 1362.61 617.383)"/><path fill="#fff" fill-opacity=".5" fill-rule="evenodd" d="M1272.74 465.404c-2.01-3.618-6.58-4.916-10.2-2.899-3.62 2.017-4.91 6.585-2.9 10.203 2.02 3.618 6.59 4.915 10.2 2.899a7.496 7.496 0 0 0 2.9-10.203Zm-10.93-4.209c4.34-2.421 9.82-.863 12.24 3.479 2.42 4.341.87 9.823-3.47 12.243-4.35 2.42-9.83.862-12.25-3.479-2.42-4.342-.86-9.823 3.48-12.243Z" clip-rule="evenodd"/><path fill="#fff" fill-opacity=".5" fill-rule="evenodd" d="M1270.7 466.738a.742.742 0 0 1-.54.91l-.28.07.09.323.27-.069a.75.75 0 0 1 .37 1.454l-.33.082a2.318 2.318 0 0 1-3.14 2.251 2.346 2.346 0 0 1-1.56 1.297l-.06.016a2.275 2.275 0 0 1-2.76-1.645v-.023l-.28.07a.75.75 0 0 1-.37-1.455l.28-.07-.08-.323-.28.07a.75.75 0 1 1-.36-1.455l.27-.069-.26-1.051a.749.749 0 1 1 1.45-.366l.06.214 4.66-1.176-.05-.214a.75.75 0 0 1 .54-.91.75.75 0 0 1 .91.544l.27 1.05.27-.069c.41-.101.81.142.91.544Zm-2.48.51-1.59.401.54 2.142c.11.439.55.706.99.595a.824.824 0 0 0 .6-.996l-.54-2.142Zm-3.05.767-1.62.408.67 2.637c.1.412.52.661.93.558l.06-.017a.838.838 0 0 0 .61-1.014l-.65-2.572ZM1310.42 532.982a7.509 7.509 0 0 0-10.21-2.899 7.514 7.514 0 0 0-2.9 10.203 7.509 7.509 0 0 0 10.21 2.899 7.514 7.514 0 0 0 2.9-10.203Zm-10.94-4.209c4.34-2.42 9.83-.863 12.25 3.479 2.42 4.341.86 9.823-3.48 12.243s-9.83.863-12.25-3.479c-2.42-4.342-.86-9.823 3.48-12.243Z" clip-rule="evenodd"/><path fill="#fff" fill-opacity=".5" fill-rule="evenodd" d="M1308.38 534.316c.1.402-.15.809-.55.91l-.27.07.08.323.27-.069c.41-.102.81.142.91.544a.742.742 0 0 1-.54.91l-.33.082a2.32 2.32 0 0 1-3.14 2.251 2.344 2.344 0 0 1-1.56 1.297l-.06.016a2.274 2.274 0 0 1-2.76-1.645v-.023l-.28.07a.75.75 0 0 1-.37-1.455l.28-.07-.08-.323-.28.07a.75.75 0 0 1-.91-.544.757.757 0 0 1 .55-.911l.27-.069-.26-1.051a.749.749 0 1 1 1.45-.366l.06.214 4.66-1.176-.05-.214a.75.75 0 0 1 .54-.91c.41-.101.81.142.91.544l.27 1.051.28-.07a.75.75 0 0 1 .91.544Zm-2.49.51-1.59.401.54 2.142c.11.439.56.706.99.595a.824.824 0 0 0 .6-.996l-.54-2.142Zm-3.05.767-1.62.408.67 2.637c.1.412.52.661.93.558l.07-.017a.831.831 0 0 0 .6-1.014l-.65-2.572Z" clip-rule="evenodd"/><path fill="url(#e)" d="M1383.5 302h24v198.506h-24z" transform="rotate(90 1383.5 302)"/><path fill="#fff" fill-opacity=".5" fill-rule="evenodd" d="M1207 306.5c-4.14 0-7.5 3.358-7.5 7.5 0 4.142 3.36 7.5 7.5 7.5 4.14 0 7.5-3.358 7.5-7.5 0-4.142-3.36-7.5-7.5-7.5Zm-9 7.5a9 9 0 1 1 18 0 9 9 0 0 1-18 0Z" clip-rule="evenodd"/><path fill="#fff" fill-opacity=".5" fill-rule="evenodd" d="M1207.17 308.93c.4.108.64.519.53.919l-.07.276.32.086.07-.276c.11-.4.52-.637.92-.53.4.107.64.518.53.918l-.08.326a2.322 2.322 0 0 1 .43 3.844c.41.551.57 1.276.38 1.989l-.02.065a2.273 2.273 0 0 1-2.78 1.604l-.02-.006-.08.276c-.1.4-.51.638-.91.53a.761.761 0 0 1-.54-.918l.08-.276-.32-.086-.08.275a.748.748 0 0 1-.92.531.756.756 0 0 1-.53-.919l.08-.276-1.05-.28a.748.748 0 0 1-.53-.919c.11-.4.52-.637.92-.53l.21.057 1.25-4.648-.21-.057a.762.762 0 0 1-.54-.919c.11-.4.52-.637.92-.53l1.05.28.07-.275c.11-.4.52-.638.92-.531Zm-.76 2.42-.43 1.586 2.14.571a.82.82 0 0 0 .42-1.585l-2.13-.572Zm-.82 3.035-.43 1.613 2.63.704c.41.11.83-.133.94-.543l.02-.065a.838.838 0 0 0-.59-1.023l-2.57-.686ZM1284.37 306.5c-4.14 0-7.5 3.358-7.5 7.5 0 4.142 3.36 7.5 7.5 7.5 4.14 0 7.5-3.358 7.5-7.5 0-4.142-3.36-7.5-7.5-7.5Zm-9 7.5a9 9 0 1 1 18 0 9 9 0 0 1-18 0Z" clip-rule="evenodd"/><path fill="#fff" fill-opacity=".5" fill-rule="evenodd" d="M1284.54 308.93c.4.108.64.519.53.919l-.07.276.32.086.08-.276c.1-.4.51-.637.91-.53.4.107.64.518.53.918l-.08.326a2.322 2.322 0 0 1 .43 3.844c.41.551.57 1.276.38 1.989l-.02.065a2.269 2.269 0 0 1-2.78 1.604l-.02-.006-.08.276c-.1.4-.51.638-.91.53a.747.747 0 0 1-.53-.918l.07-.276-.32-.086-.08.275a.738.738 0 0 1-.91.531.748.748 0 0 1-.53-.919l.07-.276-1.05-.28a.756.756 0 0 1-.53-.919c.11-.4.52-.637.92-.53l.21.057 1.25-4.648-.21-.057a.748.748 0 0 1-.53-.919c.1-.4.51-.637.91-.53l1.05.28.07-.275c.11-.4.52-.638.92-.531Zm-.76 2.42-.43 1.586 2.14.571a.82.82 0 0 0 .42-1.585l-2.13-.572Zm-.81 3.035-.44 1.613 2.63.704c.41.11.83-.133.94-.543l.02-.065a.838.838 0 0 0-.59-1.023l-2.56-.686Z" clip-rule="evenodd"/><path fill="url(#f)" d="M1417.04.73h24v167.469h-24z" transform="rotate(42.92 1417.04 .73)"/><path fill="#fff" fill-opacity=".5" fill-rule="evenodd" d="M1321.28 110.321a7.504 7.504 0 0 0 .38 10.6 7.503 7.503 0 0 0 10.22-10.984 7.5 7.5 0 0 0-10.6.384Zm-.64 11.698c-3.64-3.384-3.85-9.079-.46-12.719 3.38-3.64 9.08-3.847 12.72-.462 3.64 3.385 3.85 9.08.46 12.72-3.38 3.64-9.08 3.846-12.72.461Z" clip-rule="evenodd"/><path fill="#fff" fill-opacity=".5" fill-rule="evenodd" d="M1323.18 111.85a.746.746 0 0 1 1.03.237l.15.242.28-.177-.15-.242a.75.75 0 0 1 1.27-.796l.18.285a2.321 2.321 0 0 1 3.11 2.3c.68.079 1.32.454 1.71 1.08l.04.057a2.267 2.267 0 0 1-.72 3.127l-.02.012.15.242a.75.75 0 0 1-.23 1.034.757.757 0 0 1-1.04-.237l-.15-.242-.28.177.15.242c.22.351.12.813-.24 1.033a.746.746 0 0 1-1.03-.237l-.15-.242-.92.576a.747.747 0 0 1-1.03-.237.75.75 0 0 1 .23-1.034l.19-.117-2.55-4.078-.19.117a.757.757 0 0 1-1.04-.237.752.752 0 0 1 .24-1.034l.92-.575-.15-.242a.743.743 0 0 1 .24-1.034Zm1.25 2.209.87 1.39 1.87-1.173a.82.82 0 0 0-.87-1.391l-1.87 1.174Zm1.66 2.661.89 1.416 2.31-1.444c.36-.226.46-.7.24-1.059l-.04-.057a.832.832 0 0 0-1.15-.264l-2.25 1.408ZM1363.38 65.044c-2.82 3.033-2.64 7.779.39 10.6a7.5 7.5 0 0 0 10.6-.385 7.495 7.495 0 0 0-.39-10.6 7.5 7.5 0 0 0-10.6.385Zm-.63 11.698c-3.64-3.385-3.85-9.08-.46-12.72 3.38-3.64 9.07-3.846 12.71-.461 3.64 3.385 3.85 9.08.47 12.72-3.39 3.64-9.08 3.846-12.72.461Z" clip-rule="evenodd"/><path fill="#fff" fill-opacity=".5" fill-rule="evenodd" d="M1365.28 66.573a.746.746 0 0 1 1.03.237l.16.242.28-.177-.15-.242a.749.749 0 1 1 1.27-.797l.18.286c1-.367 2.16.005 2.76.949.26.42.37.891.35 1.35.68.08 1.32.455 1.71 1.08l.04.058a2.275 2.275 0 0 1-.72 3.126l-.02.013.15.242c.22.35.11.814-.24 1.033a.746.746 0 0 1-1.03-.237l-.15-.242-.28.177.15.242c.22.351.11.814-.24 1.034a.746.746 0 0 1-1.03-.237l-.16-.242-.91.575a.758.758 0 0 1-1.04-.237.752.752 0 0 1 .24-1.034l.19-.117-2.56-4.077-.19.117a.746.746 0 0 1-1.03-.237.752.752 0 0 1 .24-1.034l.92-.575-.16-.242a.752.752 0 0 1 .24-1.034Zm1.25 2.208.87 1.39 1.87-1.172c.39-.24.51-.747.26-1.131a.818.818 0 0 0-1.13-.26l-1.87 1.173Zm1.67 2.662.89 1.416 2.3-1.445c.36-.225.47-.7.24-1.059l-.03-.057a.835.835 0 0 0-1.15-.264l-2.25 1.409Z" clip-rule="evenodd"/><path fill="url(#g)" d="M1412.04 259.91h24v198.506h-24z" transform="rotate(150 1412.04 259.91)"/><path fill="#fff" fill-opacity=".5" fill-rule="evenodd" d="M1319.89 109.302c-2.07-3.587-6.66-4.816-10.25-2.745a7.505 7.505 0 0 0-2.74 10.245c2.07 3.587 6.66 4.816 10.24 2.745a7.5 7.5 0 0 0 2.75-10.245Zm-11-4.044a9.006 9.006 0 0 1 12.3 3.294c2.48 4.305 1.01 9.809-3.3 12.294-4.3 2.486-9.81 1.011-12.29-3.294-2.49-4.305-1.01-9.809 3.29-12.294Z" clip-rule="evenodd"/><path fill="#fff" fill-opacity=".5" fill-rule="evenodd" d="M1317.87 110.666a.748.748 0 0 1-.53.919l-.28.074.09.322.28-.074c.4-.107.81.13.91.53.11.4-.13.812-.53.919l-.32.087a2.324 2.324 0 0 1-3.11 2.298 2.359 2.359 0 0 1-1.54 1.32l-.06.017a2.269 2.269 0 0 1-2.78-1.604l-.01-.022-.27.074a.753.753 0 0 1-.92-.531c-.11-.4.13-.811.53-.918l.27-.074-.08-.322-.28.074a.753.753 0 0 1-.92-.531c-.1-.4.13-.811.53-.918l.28-.074-.28-1.046a.748.748 0 0 1 .53-.919c.4-.107.81.13.92.53l.06.213 4.64-1.245-.05-.213c-.11-.4.13-.812.53-.919.4-.107.81.13.92.531l.28 1.046.27-.074c.4-.107.81.13.92.53Zm-2.48.548-1.58.425.57 2.133a.82.82 0 1 0 1.58-.425l-.57-2.133Zm-3.03.813-1.62.432.71 2.627c.11.41.53.653.94.543l.06-.017c.45-.12.71-.578.59-1.023l-.68-2.562ZM1358.57 176.306c-2.07-3.587-6.66-4.816-10.24-2.745a7.5 7.5 0 1 0 10.24 2.745Zm-10.99-4.044c4.3-2.486 9.81-1.011 12.29 3.294 2.49 4.305 1.01 9.809-3.29 12.294a9.006 9.006 0 0 1-12.3-3.294c-2.48-4.305-1.01-9.809 3.3-12.294Z" clip-rule="evenodd"/><path fill="#fff" fill-opacity=".5" fill-rule="evenodd" d="M1356.55 177.67c.11.4-.13.812-.53.919l-.27.074.08.322.28-.074c.4-.107.81.13.92.53.11.4-.13.812-.53.919l-.33.087c.06 1.07-.64 2.07-1.72 2.358-.47.128-.96.097-1.39-.061-.27.628-.82 1.13-1.54 1.321l-.06.017a2.273 2.273 0 0 1-2.78-1.604v-.022l-.28.073a.752.752 0 0 1-.92-.53c-.11-.4.13-.811.53-.918l.28-.074-.09-.322-.27.074a.749.749 0 0 1-.92-.531c-.11-.4.13-.811.53-.918l.27-.074-.28-1.047c-.1-.4.13-.811.53-.918.4-.107.81.13.92.53l.06.213 4.65-1.245-.06-.213c-.11-.4.13-.812.53-.919.4-.107.81.13.92.53l.28 1.047.27-.074c.41-.107.82.13.92.53Zm-2.47.548-1.59.424.57 2.134c.12.438.57.698 1.01.58a.832.832 0 0 0 .58-1.005l-.57-2.133Zm-3.04.813-1.61.432.7 2.627c.11.41.53.653.94.543l.07-.017a.84.84 0 0 0 .59-1.023l-.69-2.562Z" clip-rule="evenodd"/><path fill="#18181B" fill-opacity=".5" d="m1204.91 282.438 16.97 16.97-151.904 151.905-16.97-16.97z"/><path fill="#fff" fill-opacity=".5" fill-rule="evenodd" d="M1049.11 444.599a7.499 7.499 0 0 0 0 10.607c2.93 2.929 7.68 2.929 10.6 0a7.499 7.499 0 0 0 0-10.607c-2.92-2.929-7.67-2.929-10.6 0Zm-1.06 11.667a8.99 8.99 0 0 1 0-12.728c3.51-3.514 9.21-3.514 12.73 0 3.51 3.515 3.51 9.214 0 12.728-3.52 3.515-9.22 3.515-12.73 0Z" clip-rule="evenodd"/><path fill="#fff" fill-opacity=".5" fill-rule="evenodd" d="M1050.95 446.196a.743.743 0 0 1 1.02.274l.15.248.28-.167-.14-.247a.749.749 0 0 1 .28-1.025.747.747 0 0 1 1.02.275l.17.291a2.32 2.32 0 0 1 3.02 2.412c.68.103 1.31.501 1.68 1.141l.03.058a2.27 2.27 0 0 1-.83 3.099l-.02.011.14.248c.21.358.09.817-.27 1.024a.757.757 0 0 1-1.03-.274l-.14-.248-.29.167.14.247c.21.359.09.818-.27 1.025a.743.743 0 0 1-1.02-.275l-.15-.247-.94.542a.747.747 0 0 1-1.02-.275.753.753 0 0 1 .27-1.024l.2-.111-2.41-4.167-.19.11a.757.757 0 0 1-1.03-.274.757.757 0 0 1 .28-1.025l.94-.541-.15-.248a.756.756 0 0 1 .28-1.024Zm1.17 2.252.82 1.421 1.91-1.104a.82.82 0 1 0-.82-1.421l-1.91 1.104Zm1.57 2.72.83 1.447 2.36-1.359a.768.768 0 0 0 .28-1.05l-.03-.058a.833.833 0 0 0-1.14-.306l-2.3 1.326ZM1131.84 361.869a7.497 7.497 0 0 0 0 10.606 7.504 7.504 0 0 0 10.61 0 7.516 7.516 0 0 0 0-10.606 7.504 7.504 0 0 0-10.61 0Zm-1.06 11.667a8.99 8.99 0 0 1 0-12.728c3.51-3.515 9.21-3.515 12.73 0a9.009 9.009 0 0 1 0 12.728c-3.52 3.515-9.22 3.515-12.73 0Z" clip-rule="evenodd"/><path fill="#fff" fill-opacity=".5" fill-rule="evenodd" d="M1133.68 363.465a.743.743 0 0 1 1.02.275l.15.247.29-.167-.15-.247a.756.756 0 0 1 .28-1.024.744.744 0 0 1 1.02.274l.17.292a2.32 2.32 0 0 1 3.02 2.411c.68.103 1.31.502 1.68 1.141l.03.059a2.26 2.26 0 0 1-.83 3.098l-.02.012.14.247c.21.359.09.818-.27 1.025a.757.757 0 0 1-1.03-.275l-.14-.247-.29.167.15.247c.2.359.08.817-.28 1.024a.742.742 0 0 1-1.02-.274l-.15-.247-.93.541a.757.757 0 0 1-1.03-.274.749.749 0 0 1 .28-1.025l.19-.11-2.41-4.168-.19.111a.757.757 0 0 1-1.03-.275.756.756 0 0 1 .28-1.024l.94-.542-.15-.247a.757.757 0 0 1 .28-1.025Zm1.17 2.252.82 1.422 1.91-1.105a.81.81 0 0 0 .3-1.121.818.818 0 0 0-1.12-.3l-1.91 1.104Zm1.57 2.721.84 1.447 2.35-1.36a.767.767 0 0 0 .28-1.049l-.03-.059a.834.834 0 0 0-1.14-.305l-2.3 1.326ZM1214.57 279.134a7.499 7.499 0 0 0 0 10.607 7.504 7.504 0 0 0 10.61 0 7.499 7.499 0 0 0 0-10.607 7.504 7.504 0 0 0-10.61 0Zm-1.06 11.667c-3.51-3.514-3.51-9.213 0-12.727 3.52-3.515 9.22-3.515 12.73 0a8.99 8.99 0 0 1 0 12.727c-3.51 3.515-9.21 3.515-12.73 0Z" clip-rule="evenodd"/><path fill="#fff" fill-opacity=".5" fill-rule="evenodd" d="M1216.41 280.731a.757.757 0 0 1 1.03.274l.14.248.29-.167-.14-.247a.745.745 0 0 1 .27-1.025.757.757 0 0 1 1.03.275l.16.291c1.02-.33 2.17.084 2.73 1.049.24.429.34.904.3 1.363.68.103 1.3.502 1.67 1.141l.03.058a2.261 2.261 0 0 1-.83 3.099l-.02.011.15.248c.2.359.08.817-.28 1.024a.745.745 0 0 1-1.02-.274l-.14-.248-.29.167.14.247c.21.359.08.818-.27 1.025a.757.757 0 0 1-1.03-.275l-.14-.247-.94.542a.743.743 0 0 1-1.02-.275.745.745 0 0 1 .27-1.024l.19-.111-2.41-4.167-.19.11a.744.744 0 0 1-1.02-.274.745.745 0 0 1 .27-1.025l.94-.541-.14-.248a.745.745 0 0 1 .27-1.024Zm1.17 2.252.82 1.421 1.92-1.104a.829.829 0 0 0 .3-1.121.82.82 0 0 0-1.12-.3l-1.92 1.104Zm1.57 2.72.84 1.447 2.35-1.359c.37-.212.5-.682.29-1.05l-.04-.058a.835.835 0 0 0-1.14-.306l-2.3 1.326Z" clip-rule="evenodd"/><path fill="#18181B" fill-opacity=".5" d="m1306.57 116.727 21.138 11.366L1225.971 317.3l-21.138-11.366z"/><path fill="#fff" fill-opacity=".5" fill-rule="evenodd" d="M1204.06 316.873a7.49 7.49 0 0 0 3.05 10.158 7.502 7.502 0 0 0 10.16-3.054 7.501 7.501 0 0 0-3.06-10.157c-3.64-1.962-8.19-.595-10.15 3.053Zm2.34 11.479a9.003 9.003 0 0 1-3.67-12.189c2.36-4.378 7.82-6.018 12.19-3.664a9.003 9.003 0 0 1 3.67 12.189c-2.36 4.377-7.81 6.018-12.19 3.664Z" clip-rule="evenodd"/><path fill="#fff" fill-opacity=".5" fill-rule="evenodd" d="M1206.28 317.873a.75.75 0 0 1 1.06-.032l.21.195.22-.242-.2-.196a.755.755 0 0 1-.04-1.06.75.75 0 0 1 1.06-.032l.25.23a2.323 2.323 0 0 1 3.59 1.439c.68-.097 1.39.105 1.93.611l.05.046c.91.859.96 2.294.1 3.207l-.02.017.21.195a.75.75 0 0 1-1.03 1.093l-.21-.196-.23.243.21.195c.3.284.32.759.03 1.061a.75.75 0 0 1-1.06.032l-.2-.196-.75.789a.75.75 0 0 1-1.06.032.755.755 0 0 1-.03-1.06l.15-.161-3.5-3.298-.15.16a.75.75 0 0 1-1.06.033.747.747 0 0 1-.03-1.061l.74-.788-.21-.196a.746.746 0 0 1-.03-1.06Zm1.77 1.82 1.19 1.125 1.52-1.609a.821.821 0 0 0-1.2-1.125l-1.51 1.609Zm2.28 2.153 1.22 1.145 1.87-1.98a.768.768 0 0 0-.04-1.086l-.05-.046a.834.834 0 0 0-1.18.035l-1.82 1.932ZM1259.47 213.827c-1.97 3.648-.6 8.195 3.05 10.157a7.502 7.502 0 0 0 10.16-3.054 7.501 7.501 0 0 0-3.06-10.157c-3.64-1.962-8.19-.595-10.15 3.054Zm2.34 11.478a8.991 8.991 0 0 1-3.66-12.189c2.35-4.378 7.81-6.018 12.18-3.664a9.003 9.003 0 0 1 3.67 12.189c-2.36 4.377-7.81 6.018-12.19 3.664Z" clip-rule="evenodd"/><path fill="#fff" fill-opacity=".5" fill-rule="evenodd" d="M1261.69 214.826a.75.75 0 0 1 1.06-.032l.21.195.22-.242-.2-.196a.755.755 0 0 1-.04-1.06.761.761 0 0 1 1.07-.032l.24.231a2.322 2.322 0 0 1 3.59 1.438c.68-.096 1.39.105 1.93.611l.05.046c.91.859.96 2.295.1 3.207l-.02.017.21.196a.75.75 0 0 1-1.03 1.092l-.21-.196-.23.243.21.196c.3.283.32.758.03 1.06a.75.75 0 0 1-1.06.032l-.2-.196-.75.789a.749.749 0 1 1-1.09-1.028l.15-.161-3.5-3.298-.15.161a.75.75 0 0 1-1.06.032.746.746 0 0 1-.03-1.06l.74-.789-.21-.196a.746.746 0 0 1-.03-1.06Zm1.77 1.82 1.19 1.125 1.52-1.609a.821.821 0 0 0-1.2-1.125l-1.51 1.609Zm2.28 2.153 1.22 1.145 1.87-1.98a.768.768 0 0 0-.04-1.086l-.05-.046a.834.834 0 0 0-1.18.035l-1.82 1.932ZM1314.87 110.78a7.501 7.501 0 0 0 3.06 10.157c3.64 1.962 8.19.595 10.15-3.054 1.97-3.648.6-8.195-3.05-10.157a7.502 7.502 0 0 0-10.16 3.054Zm2.35 11.478a9.003 9.003 0 0 1-3.67-12.189c2.36-4.377 7.81-6.018 12.19-3.664a8.991 8.991 0 0 1 3.66 12.189c-2.35 4.378-7.81 6.018-12.18 3.664Z" clip-rule="evenodd"/><path fill="#fff" fill-opacity=".5" fill-rule="evenodd" d="M1317.09 111.779a.75.75 0 0 1 1.06-.032l.21.196.23-.243-.21-.196a.755.755 0 0 1-.03-1.06.75.75 0 0 1 1.06-.032l.25.231c.88-.61 2.09-.544 2.91.22.36.34.58.767.68 1.218a2.33 2.33 0 0 1 1.93.612l.05.046c.91.858.95 2.294.09 3.206l-.01.017.21.196a.75.75 0 0 1-1.03 1.092l-.21-.196-.23.243.21.196a.75.75 0 0 1-1.03 1.092l-.21-.196-.74.789a.75.75 0 1 1-1.09-1.028l.15-.161-3.5-3.298-.16.161a.75.75 0 0 1-1.06.032.755.755 0 0 1-.03-1.06l.74-.789-.2-.196a.746.746 0 0 1-.04-1.06Zm1.77 1.82 1.2 1.125 1.51-1.609c.31-.33.3-.849-.03-1.16a.821.821 0 0 0-1.16.035l-1.52 1.609Zm2.29 2.153 1.22 1.145 1.86-1.98a.768.768 0 0 0-.03-1.086l-.05-.046a.834.834 0 0 0-1.18.036l-1.82 1.931Z" clip-rule="evenodd"/><path fill="#18181B" fill-opacity=".5" d="m1298.27 498.52-22.333 8.788-78.661-199.907 22.333-8.788z"/><path fill="#fff" fill-opacity=".5" fill-rule="evenodd" d="M1211.77 290.955a7.504 7.504 0 0 0-9.73-4.232 7.499 7.499 0 0 0-4.23 9.725c1.52 3.854 5.87 5.749 9.72 4.233a7.505 7.505 0 0 0 4.24-9.726Zm-10.28-5.628a8.998 8.998 0 0 1 11.67 5.079c1.82 4.626-.45 9.851-5.08 11.671-4.62 1.82-9.85-.455-11.67-5.08-1.82-4.625.46-9.85 5.08-11.67Z" clip-rule="evenodd"/><path fill="#fff" fill-opacity=".5" fill-rule="evenodd" d="M1209.57 292.006a.749.749 0 0 1-.66.83l-.29.032.04.331.29-.032c.41-.047.78.249.83.66a.756.756 0 0 1-.67.83l-.33.038a2.322 2.322 0 0 1-3.42 1.811c-.36.58-.98.995-1.71 1.078l-.07.008a2.27 2.27 0 0 1-2.51-1.998v-.023l-.29.032a.738.738 0 0 1-.82-.66.74.74 0 0 1 .66-.83l.28-.033-.04-.331-.28.032a.747.747 0 0 1-.83-.66.748.748 0 0 1 .66-.83l.28-.032-.12-1.077a.747.747 0 0 1 .66-.829c.41-.047.78.249.83.66l.03.219 4.78-.543-.03-.219a.756.756 0 0 1 .66-.83c.41-.046.79.249.83.661l.12 1.076.29-.032c.41-.047.78.249.83.661Zm-2.53.174-1.63.185.24 2.195c.06.45.46.774.91.722a.827.827 0 0 0 .73-.908l-.25-2.194Zm-3.12.354-1.67.189.31 2.702c.05.421.43.724.85.677l.07-.008a.824.824 0 0 0 .73-.924l-.29-2.636ZM1254.61 399.83a7.504 7.504 0 0 0-9.73-4.232 7.499 7.499 0 0 0-4.23 9.725c1.52 3.854 5.87 5.749 9.72 4.233a7.505 7.505 0 0 0 4.24-9.726Zm-10.28-5.628a8.998 8.998 0 0 1 11.67 5.079c1.82 4.626-.45 9.851-5.08 11.671-4.62 1.82-9.85-.455-11.67-5.08-1.82-4.625.46-9.85 5.08-11.67Z" clip-rule="evenodd"/><path fill="#fff" fill-opacity=".5" fill-rule="evenodd" d="M1252.41 400.881a.756.756 0 0 1-.66.83l-.29.032.04.331.29-.032c.41-.047.78.249.83.66a.756.756 0 0 1-.67.83l-.33.038a2.322 2.322 0 0 1-3.42 1.811c-.36.58-.98.995-1.71 1.078l-.07.008a2.27 2.27 0 0 1-2.51-1.998v-.023l-.29.032a.753.753 0 0 1-.83-.66.755.755 0 0 1 .67-.83l.28-.033-.04-.331-.28.032a.747.747 0 0 1-.83-.66.748.748 0 0 1 .66-.83l.28-.032-.12-1.077a.747.747 0 0 1 .66-.829c.41-.047.78.249.83.66l.03.219 4.78-.543-.03-.219a.756.756 0 0 1 .66-.83c.41-.046.79.249.83.661l.12 1.076.29-.032c.41-.047.78.249.83.661Zm-2.53.174-1.63.185.24 2.195c.06.45.46.774.91.722a.827.827 0 0 0 .73-.908l-.25-2.194Zm-3.13.354-1.66.189.31 2.702c.05.421.43.724.85.677l.07-.008a.824.824 0 0 0 .73-.924l-.3-2.636ZM1297.45 508.702a7.504 7.504 0 0 0-9.73-4.233 7.499 7.499 0 0 0-4.23 9.725c1.51 3.854 5.87 5.75 9.72 4.233a7.504 7.504 0 0 0 4.24-9.725Zm-10.28-5.629a8.998 8.998 0 0 1 11.67 5.079c1.82 4.626-.45 9.851-5.08 11.671-4.62 1.82-9.85-.454-11.67-5.08-1.82-4.625.46-9.85 5.08-11.67Z" clip-rule="evenodd"/><path fill="#fff" fill-opacity=".5" fill-rule="evenodd" d="M1295.25 509.752a.756.756 0 0 1-.66.83l-.29.032.04.331.29-.032c.41-.047.78.249.82.66a.74.74 0 0 1-.66.83l-.33.038a2.322 2.322 0 0 1-3.42 1.811c-.36.58-.98.995-1.71 1.078l-.07.008a2.27 2.27 0 0 1-2.51-1.998v-.023l-.29.032a.753.753 0 0 1-.83-.66.756.756 0 0 1 .67-.83l.28-.032-.04-.332-.28.033a.748.748 0 0 1-.83-.661.748.748 0 0 1 .66-.83l.28-.032-.12-1.076a.748.748 0 0 1 .66-.83c.41-.047.78.249.83.66l.03.219 4.78-.543-.03-.219a.756.756 0 0 1 .66-.83c.41-.046.79.249.83.661l.12 1.076.29-.032c.41-.047.78.249.83.661Zm-2.53.174-1.63.185.24 2.195c.06.45.46.774.91.723a.828.828 0 0 0 .73-.908l-.25-2.195Zm-3.13.354-1.66.189.31 2.702a.77.77 0 0 0 .85.677l.07-.008a.824.824 0 0 0 .73-.924l-.3-2.636Z" clip-rule="evenodd"/><path fill="#18181B" fill-opacity=".5" d="m1290.19 476.82-6.565 23.085-206.632-58.767 6.565-23.085z"/><path fill="#fff" fill-opacity=".5" fill-rule="evenodd" d="M1072.7 419.647a7.495 7.495 0 0 0-9.26 5.162c-1.14 3.984 1.18 8.133 5.16 9.266 3.98 1.133 8.13-1.178 9.27-5.162a7.502 7.502 0 0 0-5.17-9.266Zm-10.7 4.752c1.35-4.781 6.33-7.555 11.11-6.195 4.78 1.36 7.56 6.338 6.2 11.119-1.36 4.781-6.34 7.554-11.12 6.195-4.78-1.36-7.55-6.338-6.19-11.119Z" clip-rule="evenodd"/><path fill="#fff" fill-opacity=".5" fill-rule="evenodd" d="M1072.2 422.032a.74.74 0 0 1 .26 1.028l-.14.245.28.171.15-.245a.75.75 0 0 1 1.03-.258c.35.212.47.673.26 1.028l-.18.289c.79.73.98 1.932.41 2.889-.25.425-.62.739-1.04.927.24.642.2 1.383-.18 2.017l-.04.057a2.265 2.265 0 0 1-3.11.783l-.02-.012-.15.245a.74.74 0 0 1-1.02.259.74.74 0 0 1-.26-1.028l.14-.246-.28-.171-.15.245a.75.75 0 0 1-1.03.259.757.757 0 0 1-.26-1.028l.15-.245-.93-.556a.75.75 0 1 1 .77-1.288l.19.113 2.47-4.13-.19-.113a.75.75 0 1 1 .77-1.287l.93.556.15-.245a.74.74 0 0 1 1.02-.259Zm-1.39 2.118-.85 1.409 1.9 1.133c.39.233.89.106 1.13-.283a.823.823 0 0 0-.29-1.125l-1.89-1.134Zm-1.62 2.696-.85 1.434 2.33 1.396a.76.76 0 0 0 1.05-.265l.04-.058a.83.83 0 0 0-.29-1.146l-2.28-1.361ZM1185.24 451.655a7.505 7.505 0 0 0-9.27 5.162 7.503 7.503 0 0 0 5.17 9.266 7.495 7.495 0 0 0 9.26-5.163c1.13-3.984-1.18-8.132-5.16-9.265Zm-10.71 4.752a9.002 9.002 0 0 1 11.12-6.195c4.78 1.36 7.55 6.338 6.19 11.119a8.997 8.997 0 0 1-11.12 6.194c-4.78-1.359-7.55-6.337-6.19-11.118Z" clip-rule="evenodd"/><path fill="#fff" fill-opacity=".5" fill-rule="evenodd" d="M1184.74 454.04c.35.212.47.673.26 1.028l-.15.245.29.171.14-.245a.756.756 0 0 1 1.03-.259.75.75 0 0 1 .26 1.029l-.17.289c.78.73.98 1.932.41 2.889-.26.425-.63.739-1.05.927.24.642.2 1.383-.18 2.017l-.03.057a2.27 2.27 0 0 1-3.11.783l-.02-.012-.15.245a.75.75 0 0 1-1.03.259.758.758 0 0 1-.26-1.029l.15-.245-.29-.171-.14.245a.754.754 0 0 1-1.03.259.748.748 0 0 1-.26-1.028l.15-.246-.93-.556a.74.74 0 0 1-.26-1.028.75.75 0 0 1 1.03-.259l.18.113 2.47-4.13-.19-.113a.746.746 0 0 1-.25-1.029.74.74 0 0 1 1.02-.258l.93.555.15-.245a.75.75 0 0 1 1.03-.258Zm-1.4 2.118-.84 1.409 1.9 1.133c.38.233.89.106 1.12-.283a.822.822 0 0 0-.28-1.126l-1.9-1.133Zm-1.61 2.696-.86 1.434 2.34 1.396c.36.217.83.099 1.05-.265l.03-.058a.836.836 0 0 0-.28-1.146l-2.28-1.361ZM1297.78 483.659a7.505 7.505 0 0 0-9.27 5.162 7.505 7.505 0 0 0 5.16 9.266c3.99 1.133 8.14-1.179 9.27-5.163 1.13-3.984-1.18-8.132-5.16-9.265Zm-10.71 4.752a9.002 9.002 0 0 1 11.12-6.195 9.001 9.001 0 0 1-4.93 17.313c-4.78-1.359-7.55-6.337-6.19-11.118Z" clip-rule="evenodd"/><path fill="#fff" fill-opacity=".5" fill-rule="evenodd" d="M1297.28 486.043c.35.213.47.674.26 1.029l-.15.245.29.171.14-.245a.756.756 0 0 1 1.03-.259.75.75 0 0 1 .26 1.029l-.17.289c.78.73.98 1.932.41 2.889-.26.425-.63.739-1.05.927.24.642.2 1.383-.18 2.017l-.03.057a2.27 2.27 0 0 1-3.11.783l-.02-.012-.15.245a.75.75 0 1 1-1.29-.77l.15-.245-.29-.171-.14.245a.754.754 0 0 1-1.03.259.75.75 0 0 1-.26-1.029l.14-.245-.93-.556a.745.745 0 0 1-.25-1.028.74.74 0 0 1 1.02-.259l.19.113 2.47-4.13-.19-.113a.746.746 0 0 1-.25-1.029.742.742 0 0 1 1.02-.259l.93.556.15-.245a.751.751 0 0 1 1.03-.259Zm-1.4 2.119-.84 1.408 1.89 1.134a.822.822 0 0 0 .85-1.409l-1.9-1.133Zm-1.61 2.696-.86 1.434 2.34 1.396c.36.217.83.099 1.05-.266l.03-.057a.836.836 0 0 0-.28-1.146l-2.28-1.361Z" clip-rule="evenodd"/><path fill="#18181B" fill-opacity=".5" d="m944.57 292.289 2.458-23.874 276.538 28.472-2.458 23.874z"/><path fill="#fff" fill-opacity=".5" fill-rule="evenodd" d="M1199.69 314.031a7.489 7.489 0 0 0 8.22-6.692c.43-4.12-2.57-7.804-6.69-8.229-4.12-.424-7.8 2.572-8.23 6.693a7.501 7.501 0 0 0 6.7 8.228Zm9.72-6.538a9.003 9.003 0 0 1-17.91-1.844 9.003 9.003 0 0 1 17.91 1.844Z" clip-rule="evenodd"/><path fill="#fff" fill-opacity=".5" fill-rule="evenodd" d="M1199.76 311.596a.752.752 0 0 1-.43-.968l.1-.267-.31-.118-.1.266a.753.753 0 0 1-.97.434.744.744 0 0 1-.43-.968l.12-.315a2.332 2.332 0 0 1-.91-2.774c.18-.462.49-.836.87-1.094a2.333 2.333 0 0 1-.17-2.018l.02-.063a2.272 2.272 0 0 1 2.93-1.31l.02.008.1-.267a.755.755 0 0 1 .97-.433c.39.147.58.581.44.968l-.11.266.32.119.1-.267a.748.748 0 0 1 .97-.433c.38.148.58.581.43.968l-.1.267 1.01.386a.751.751 0 0 1-.54 1.401l-.2-.078-1.72 4.496.21.079c.39.147.58.581.43.968a.748.748 0 0 1-.97.433l-1.01-.386-.1.267a.751.751 0 0 1-.97.433Zm1.01-2.329.59-1.533-2.07-.787a.826.826 0 0 0-1.06.474.82.82 0 0 0 .48 1.059l2.06.787Zm1.12-2.935.6-1.561-2.54-.969a.78.78 0 0 0-1 .444l-.02.063c-.16.431.05.914.48 1.078l2.48.945ZM1083.3 302.051c4.12.424 7.81-2.572 8.23-6.692.43-4.121-2.57-7.805-6.69-8.229-4.12-.424-7.81 2.572-8.23 6.692-.42 4.121 2.57 7.805 6.69 8.229Zm9.72-6.539c-.51 4.945-4.93 8.54-9.87 8.031a8.995 8.995 0 0 1-8.03-9.874c.51-4.945 4.93-8.54 9.87-8.031a8.995 8.995 0 0 1 8.03 9.874Z" clip-rule="evenodd"/><path fill="#fff" fill-opacity=".5" fill-rule="evenodd" d="M1083.38 299.616a.744.744 0 0 1-.43-.968l.1-.267-.31-.119-.1.267a.755.755 0 0 1-.97.433.757.757 0 0 1-.44-.968l.12-.314a2.316 2.316 0 0 1-.9-2.774c.18-.463.48-.836.87-1.094a2.3 2.3 0 0 1-.17-2.018l.02-.063a2.273 2.273 0 0 1 2.93-1.311l.02.008.1-.266a.752.752 0 0 1 .97-.434c.39.148.58.581.43.968l-.1.267.31.119.1-.267a.756.756 0 0 1 .97-.434c.39.148.58.582.44.969l-.11.266 1.02.386a.752.752 0 0 1-.54 1.402l-.2-.079-1.72 4.496.21.079a.752.752 0 0 1-.54 1.402l-1.01-.387-.1.267a.753.753 0 0 1-.97.434Zm1.01-2.329.58-1.534-2.06-.787a.82.82 0 1 0-.58 1.534l2.06.787Zm1.12-2.935.59-1.561-2.54-.969a.767.767 0 0 0-.99.444l-.02.062c-.17.431.05.914.48 1.079l2.48.945ZM966.916 290.067a7.5 7.5 0 1 0 1.534-14.922 7.5 7.5 0 0 0-1.534 14.922Zm9.721-6.539a9 9 0 1 1-17.906-1.844 9 9 0 0 1 17.906 1.844Z" clip-rule="evenodd"/><path fill="#fff" fill-opacity=".5" fill-rule="evenodd" d="M966.993 287.631a.75.75 0 0 1-.433-.968l.102-.266-.312-.119-.102.267a.75.75 0 1 1-1.401-.535l.12-.315a2.32 2.32 0 0 1-.038-3.868 2.333 2.333 0 0 1-.17-2.018l.024-.062a2.268 2.268 0 0 1 2.928-1.311l.022.008.102-.267a.75.75 0 1 1 1.401.535l-.102.267.312.118.102-.266a.75.75 0 1 1 1.401.534l-.102.267 1.012.386a.75.75 0 1 1-.534 1.402l-.206-.079-1.715 4.496.206.079a.75.75 0 1 1-.535 1.401l-1.012-.386-.102.267a.75.75 0 0 1-.968.433Zm1.009-2.329.585-1.533-2.064-.787a.82.82 0 1 0-.584 1.533l2.063.787Zm1.12-2.934.595-1.562-2.541-.969a.768.768 0 0 0-.991.444l-.024.063a.835.835 0 0 0 .483 1.078l2.478.946Z" clip-rule="evenodd"/><path fill="#18181B" fill-opacity=".5" d="m1052.82 104.246 19.83-13.518 156.586 229.706-19.83 13.518z"/><path fill="#fff" fill-opacity=".5" fill-rule="evenodd" d="M1200.73 313.242a7.498 7.498 0 0 0 10.42 1.973c3.42-2.333 4.31-6.999 1.97-10.422a7.499 7.499 0 0 0-10.42-1.973 7.505 7.505 0 0 0-1.97 10.422Zm11.27 3.212c-4.11 2.8-9.71 1.74-12.51-2.367a8.998 8.998 0 0 1 2.37-12.506c4.1-2.8 9.7-1.74 12.5 2.367 2.8 4.107 1.74 9.706-2.36 12.506Z" clip-rule="evenodd"/><path fill="#fff" fill-opacity=".5" fill-rule="evenodd" d="M1202.64 311.731a.749.749 0 0 1 .46-.956l.27-.094-.11-.315-.27.095a.757.757 0 0 1-.96-.461.755.755 0 0 1 .46-.955l.32-.112a2.331 2.331 0 0 1 1.54-2.479c.47-.164.95-.169 1.39-.044.23-.646.74-1.187 1.44-1.431l.06-.022a2.267 2.267 0 0 1 2.89 1.392l.01.022.27-.095c.39-.136.82.07.95.461a.747.747 0 0 1-.46.955l-.27.095.11.314.27-.094c.39-.137.82.069.96.46a.749.749 0 0 1-.46.956l-.27.094.36 1.023a.756.756 0 0 1-.46.955.756.756 0 0 1-.96-.46l-.07-.208-4.54 1.589.07.208a.749.749 0 0 1-.46.956.757.757 0 0 1-.96-.461l-.36-1.022-.26.094a.752.752 0 0 1-.96-.46Zm2.43-.731 1.55-.542-.73-2.085a.825.825 0 0 0-1.05-.504.825.825 0 0 0-.5 1.046l.73 2.085Zm2.97-1.037 1.57-.552-.9-2.567a.759.759 0 0 0-.97-.472l-.07.023a.84.84 0 0 0-.51 1.064l.88 2.504ZM1134.83 216.566a7.498 7.498 0 1 0 12.39-8.449 7.499 7.499 0 0 0-10.42-1.972c-3.42 2.333-4.31 6.999-1.97 10.421Zm11.26 3.212c-4.1 2.8-9.7 1.74-12.5-2.367-2.8-4.107-1.74-9.706 2.36-12.506 4.11-2.799 9.71-1.74 12.51 2.367a8.998 8.998 0 0 1-2.37 12.506Z" clip-rule="evenodd"/><path fill="#fff" fill-opacity=".5" fill-rule="evenodd" d="M1136.74 215.055a.749.749 0 0 1 .46-.956l.27-.094-.11-.315-.27.095a.757.757 0 0 1-.96-.461.756.756 0 0 1 .46-.955l.32-.111a2.32 2.32 0 0 1 2.93-2.524c.23-.646.74-1.187 1.43-1.431l.07-.022a2.271 2.271 0 0 1 2.89 1.392l.01.022.27-.094c.39-.137.81.069.95.46a.749.749 0 0 1-.46.956l-.27.094.11.314.27-.094c.39-.137.82.069.96.46a.757.757 0 0 1-.46.956l-.27.094.35 1.023a.747.747 0 1 1-1.41.495l-.07-.208-4.55 1.589.08.208a.757.757 0 0 1-.46.956.753.753 0 0 1-.96-.46l-.36-1.023-.27.094a.741.741 0 0 1-.95-.46Zm2.43-.731 1.55-.542-.73-2.085a.824.824 0 0 0-1.05-.503.816.816 0 0 0-.5 1.045l.73 2.085Zm2.96-1.037 1.58-.552-.9-2.567a.77.77 0 0 0-.98-.471l-.06.022a.824.824 0 0 0-.51 1.064l.87 2.504ZM1068.92 119.89a7.51 7.51 0 0 0 10.43 1.973c3.42-2.333 4.3-6.999 1.97-10.421a7.498 7.498 0 0 0-10.42-1.973 7.497 7.497 0 0 0-1.98 10.421Zm11.27 3.213c-4.11 2.799-9.71 1.739-12.51-2.368a8.998 8.998 0 0 1 2.37-12.506c4.11-2.799 9.71-1.739 12.51 2.368a8.998 8.998 0 0 1-2.37 12.506Z" clip-rule="evenodd"/><path fill="#fff" fill-opacity=".5" fill-rule="evenodd" d="M1070.84 118.379a.74.74 0 0 1 .46-.955l.26-.095-.11-.314-.26.094a.752.752 0 0 1-.96-.46.749.749 0 0 1 .46-.956l.32-.111a2.313 2.313 0 0 1 1.53-2.48c.47-.164.96-.169 1.4-.044.23-.646.74-1.187 1.43-1.431l.07-.022c1.18-.414 2.47.21 2.89 1.392v.022l.27-.094c.39-.137.82.069.96.46a.749.749 0 0 1-.46.956l-.27.094.11.315.27-.095c.39-.136.82.07.95.461a.747.747 0 0 1-.46.955l-.27.095.36 1.022a.749.749 0 0 1-.46.956.743.743 0 0 1-.95-.461l-.08-.208-4.54 1.589.07.208a.749.749 0 1 1-1.41.496l-.36-1.023-.27.094a.741.741 0 0 1-.95-.46Zm2.43-.731 1.54-.542-.72-2.085a.825.825 0 0 0-1.05-.503.816.816 0 0 0-.5 1.045l.73 2.085Zm2.96-1.037 1.58-.552-.9-2.567a.77.77 0 0 0-.98-.471l-.06.022a.838.838 0 0 0-.52 1.065l.88 2.503Z" clip-rule="evenodd"/><path fill="#18181B" fill-opacity=".5" d="M1061 93v24H783V93z"/><path fill="#fff" fill-opacity=".5" fill-rule="evenodd" d="M805 97.5a7.5 7.5 0 1 0 0 15 7.5 7.5 0 0 0 0-15Zm-9 7.5a9 9 0 0 1 9-9 9 9 0 0 1 9 9 9 9 0 0 1-9 9 9 9 0 0 1-9-9Z" clip-rule="evenodd"/><path fill="#fff" fill-opacity=".5" fill-rule="evenodd" d="M805.172 99.93c.4.108.638.519.531.919l-.074.276.322.086.074-.276a.75.75 0 1 1 1.449.388l-.088.326a2.322 2.322 0 0 1 .434 3.844 2.33 2.33 0 0 1 .376 1.989l-.018.065a2.268 2.268 0 0 1-2.778 1.604l-.022-.006-.074.276a.75.75 0 1 1-1.449-.388l.074-.276-.322-.086-.074.275a.75.75 0 1 1-1.449-.388l.074-.276-1.046-.28a.75.75 0 1 1 .388-1.449l.213.057 1.245-4.648-.213-.057a.75.75 0 0 1 .388-1.449l1.047.28.074-.275a.75.75 0 0 1 .918-.53Zm-.765 2.42-.425 1.586 2.134.571a.82.82 0 1 0 .425-1.585l-2.134-.572Zm-.813 3.035-.432 1.613 2.627.704a.767.767 0 0 0 .94-.543l.018-.065a.835.835 0 0 0-.591-1.023l-2.562-.686ZM922 97.5a7.5 7.5 0 1 0 0 15 7.5 7.5 0 0 0 0-15Zm-9 7.5a9 9 0 0 1 9-9 9 9 0 0 1 9 9 9 9 0 0 1-9 9 9 9 0 0 1-9-9Z" clip-rule="evenodd"/><path fill="#fff" fill-opacity=".5" fill-rule="evenodd" d="M922.172 99.93c.4.108.638.519.531.919l-.074.276.322.086.074-.276a.75.75 0 1 1 1.449.388l-.088.326a2.322 2.322 0 0 1 .434 3.844 2.33 2.33 0 0 1 .376 1.989l-.018.065a2.268 2.268 0 0 1-2.778 1.604l-.022-.006-.074.276a.75.75 0 1 1-1.449-.388l.074-.276-.322-.086-.074.275a.75.75 0 1 1-1.449-.388l.074-.276-1.046-.28a.75.75 0 1 1 .388-1.449l.213.057 1.245-4.648-.213-.057a.75.75 0 0 1 .388-1.449l1.047.28.074-.275a.75.75 0 0 1 .918-.53Zm-.765 2.42-.425 1.586 2.134.571a.82.82 0 1 0 .425-1.585l-2.134-.572Zm-.813 3.035-.432 1.613 2.627.704a.767.767 0 0 0 .94-.543l.018-.065a.835.835 0 0 0-.591-1.023l-2.562-.686ZM1039 97.5c-4.14 0-7.5 3.358-7.5 7.5 0 4.142 3.36 7.5 7.5 7.5 4.14 0 7.5-3.358 7.5-7.5 0-4.142-3.36-7.5-7.5-7.5Zm-9 7.5a9 9 0 1 1 18 0 9 9 0 0 1-18 0Z" clip-rule="evenodd"/><path fill="#fff" fill-opacity=".5" fill-rule="evenodd" d="M1039.17 99.93c.4.108.64.519.53.919l-.07.276.32.086.07-.276c.11-.4.52-.637.92-.53.4.107.64.518.53.918l-.08.326a2.322 2.322 0 0 1 .43 3.844c.41.551.57 1.276.38 1.989l-.02.065a2.273 2.273 0 0 1-2.78 1.604l-.02-.006-.08.276c-.1.4-.51.638-.91.53a.761.761 0 0 1-.54-.918l.08-.276-.32-.086-.08.275a.748.748 0 0 1-.92.531.756.756 0 0 1-.53-.919l.08-.276-1.05-.28a.748.748 0 0 1-.53-.919c.11-.4.52-.637.92-.53l.21.057 1.25-4.648-.21-.057a.762.762 0 0 1-.54-.919c.11-.4.52-.637.92-.53l1.05.28.07-.275c.11-.4.52-.638.92-.53Zm-.76 2.42-.43 1.586 2.14.571a.82.82 0 0 0 .42-1.585l-2.13-.572Zm-.82 3.035-.43 1.613 2.63.704c.41.11.83-.133.94-.543l.02-.065a.838.838 0 0 0-.59-1.023l-2.57-.686Z" clip-rule="evenodd"/><path fill="#18181B" fill-opacity=".5" d="m795.125 450.984-15.106 18.65-216.022-174.982 15.106-18.65z"/><path fill="#fff" fill-opacity=".5" fill-rule="evenodd" d="M593.37 293.346a7.501 7.501 0 0 0-9.442 11.656 7.501 7.501 0 0 0 9.442-11.656Zm-11.715.163a9 9 0 1 1 13.987 11.332 9 9 0 0 1-13.987-11.332Z" clip-rule="evenodd"/><path fill="#fff" fill-opacity=".5" fill-rule="evenodd" d="M591.974 295.343a.751.751 0 0 1-.166 1.048l-.231.167.196.27.231-.168a.75.75 0 1 1 .881 1.214l-.272.198a2.322 2.322 0 0 1-2.083 3.26 2.332 2.332 0 0 1-.96 1.782l-.055.04a2.269 2.269 0 0 1-3.168-.502l-.014-.019-.231.168a.75.75 0 1 1-.881-1.214l.231-.168-.196-.27-.231.168a.75.75 0 0 1-.882-1.213l.231-.168-.636-.877a.749.749 0 1 1 1.213-.881l.13.178 3.893-2.828-.129-.178a.75.75 0 1 1 1.214-.882l.636.877.231-.168a.751.751 0 0 1 1.048.166Zm-2.118 1.399-1.328.964 1.298 1.788a.82.82 0 0 0 1.328-.965l-1.298-1.787Zm-2.542 1.846-1.351.982 1.598 2.2a.768.768 0 0 0 1.073.17l.054-.039a.836.836 0 0 0 .185-1.167l-1.559-2.146ZM684.284 366.987a7.5 7.5 0 1 0-9.442 11.656 7.5 7.5 0 0 0 9.442-11.656Zm-11.715.163a9 9 0 1 1 13.988 11.33 9 9 0 0 1-13.988-11.33Z" clip-rule="evenodd"/><path fill="#fff" fill-opacity=".5" fill-rule="evenodd" d="M682.888 368.984a.75.75 0 0 1-.166 1.047l-.231.168.196.27.231-.168a.75.75 0 1 1 .881 1.214l-.272.198a2.322 2.322 0 0 1-2.083 3.259 2.332 2.332 0 0 1-.96 1.783l-.055.04a2.268 2.268 0 0 1-3.168-.503l-.014-.019-.231.168a.749.749 0 1 1-.881-1.213l.231-.168-.196-.27-.231.168a.751.751 0 0 1-.882-1.214l.231-.168-.636-.876a.75.75 0 0 1 1.213-.882l.13.179 3.894-2.828-.13-.179a.75.75 0 1 1 1.214-.881l.636.876.231-.167a.75.75 0 0 1 1.048.166Zm-2.118 1.399-1.328.964 1.298 1.787a.82.82 0 0 0 1.328-.964l-1.298-1.787Zm-2.542 1.846-1.351.981 1.598 2.201a.769.769 0 0 0 1.073.17l.054-.04a.835.835 0 0 0 .185-1.166l-1.559-2.146ZM775.202 440.631a7.501 7.501 0 1 0-9.442 11.658 7.501 7.501 0 0 0 9.442-11.658Zm-11.715.163a9 9 0 1 1 13.987 11.332 9 9 0 0 1-13.987-11.332Z" clip-rule="evenodd"/><path fill="#fff" fill-opacity=".5" fill-rule="evenodd" d="M773.806 442.628a.751.751 0 0 1-.166 1.048l-.231.168.196.269.231-.167a.749.749 0 1 1 .881 1.213l-.272.198a2.322 2.322 0 0 1-2.083 3.26 2.334 2.334 0 0 1-.96 1.783l-.055.039a2.269 2.269 0 0 1-3.168-.502l-.014-.019-.231.168a.75.75 0 1 1-.881-1.214l.231-.168-.196-.269-.231.167a.75.75 0 0 1-.882-1.213l.231-.168-.636-.877a.749.749 0 1 1 1.213-.881l.13.178 3.894-2.828-.13-.178a.75.75 0 1 1 1.214-.882l.636.877.231-.168a.751.751 0 0 1 1.048.166Zm-2.118 1.399-1.328.965 1.298 1.787a.82.82 0 0 0 1.328-.965l-1.298-1.787Zm-2.542 1.846-1.351.982 1.598 2.2a.767.767 0 0 0 1.073.17l.054-.039a.836.836 0 0 0 .185-1.167l-1.559-2.146Z" clip-rule="evenodd"/><path fill="#18181B" fill-opacity=".5" d="m773.258 90.434 14.59 19.055-220.722 169.013-14.591-19.055z"/><path fill="#fff" fill-opacity=".5" fill-rule="evenodd" d="M572.737 249.645a7.501 7.501 0 0 0 9.12 11.91 7.502 7.502 0 0 0-9.12-11.91Zm-2.586 11.426a9 9 0 1 1 14.292-10.943 9.001 9.001 0 0 1-14.292 10.943Z" clip-rule="evenodd"/><path fill="#fff" fill-opacity=".5" fill-rule="evenodd" d="M574.352 251.47a.75.75 0 0 1 .979.407l.109.264.308-.127-.109-.264a.75.75 0 0 1 1.387-.573l.128.311a2.322 2.322 0 0 1 2.682 2.788 2.335 2.335 0 0 1 1.508 1.352l.025.062a2.268 2.268 0 0 1-1.23 2.962l-.022.009.109.264a.75.75 0 0 1-1.386.573l-.109-.264-.309.127.11.264a.751.751 0 0 1-1.387.573l-.109-.264-1.001.413a.75.75 0 1 1-.573-1.386l.204-.084-1.837-4.448-.204.084a.75.75 0 1 1-.572-1.386l1.001-.414-.109-.264a.75.75 0 0 1 .407-.979Zm.863 2.387.627 1.516 2.041-.843a.821.821 0 1 0-.626-1.517l-2.042.844Zm1.2 2.903.637 1.544 2.514-1.038a.768.768 0 0 0 .417-1.003l-.026-.062a.835.835 0 0 0-1.091-.454l-2.451 1.013ZM665.632 178.516a7.5 7.5 0 1 0 9.12 11.91 7.5 7.5 0 0 0-9.12-11.91Zm-2.586 11.427a9 9 0 1 1 12.617 1.674 9 9 0 0 1-12.617-1.674Z" clip-rule="evenodd"/><path fill="#fff" fill-opacity=".5" fill-rule="evenodd" d="M667.246 180.341a.75.75 0 0 1 .98.407l.109.264.308-.127-.109-.264a.75.75 0 0 1 1.386-.573l.129.311a2.322 2.322 0 0 1 2.681 2.788 2.333 2.333 0 0 1 1.508 1.352l.026.062a2.268 2.268 0 0 1-1.231 2.962l-.021.009.109.264a.751.751 0 0 1-1.387.573l-.109-.264-.308.127.109.264a.75.75 0 0 1-1.386.573l-.109-.264-1.002.413a.749.749 0 1 1-.572-1.386l.204-.084-1.837-4.448-.204.084a.75.75 0 1 1-.573-1.386l1.001-.414-.109-.263a.75.75 0 0 1 .407-.98Zm.864 2.387.627 1.517 2.041-.844a.82.82 0 1 0-.627-1.517l-2.041.844Zm1.199 2.903.638 1.544 2.514-1.038a.768.768 0 0 0 .416-1.003l-.025-.062a.835.835 0 0 0-1.091-.454l-2.452 1.013ZM758.526 107.383a7.502 7.502 0 0 0 9.12 11.91 7.5 7.5 0 0 0-9.12-11.91Zm-2.586 11.427a9.001 9.001 0 1 1 14.294-10.944 9.001 9.001 0 0 1-14.294 10.944Z" clip-rule="evenodd"/><path fill="#fff" fill-opacity=".5" fill-rule="evenodd" d="M760.141 109.208a.75.75 0 0 1 .979.407l.109.264.308-.127-.109-.264a.75.75 0 0 1 1.387-.573l.128.312a2.32 2.32 0 0 1 2.682 2.788 2.331 2.331 0 0 1 1.508 1.351l.025.062a2.269 2.269 0 0 1-1.23 2.963l-.022.009.109.264a.75.75 0 0 1-1.386.572l-.109-.264-.308.127.109.264a.75.75 0 0 1-1.387.573l-.109-.264-1.001.414a.75.75 0 0 1-.573-1.387l.204-.084-1.837-4.448-.204.085a.75.75 0 1 1-.572-1.387l1.001-.413-.109-.264a.75.75 0 0 1 .407-.98Zm.863 2.387.627 1.517 2.042-.843a.822.822 0 0 0-.627-1.517l-2.042.843Zm1.2 2.903.638 1.544 2.513-1.038a.768.768 0 0 0 .417-1.003l-.026-.062a.834.834 0 0 0-1.091-.453l-2.451 1.012Z" clip-rule="evenodd"/><path fill="#18181B" fill-opacity=".5" d="m979.543 295.574-16.97 16.97L765.996 115.97l16.97-16.97z"/><path fill="#fff" fill-opacity=".5" fill-rule="evenodd" d="M795.342 117.737a7.5 7.5 0 1 0-10.605 10.607 7.5 7.5 0 0 0 10.605-10.607Zm-11.667-1.061a9.001 9.001 0 0 1 12.728 0 9 9 0 0 1 0 12.728 9 9 0 0 1-12.728 0 9 9 0 0 1 0-12.728Z" clip-rule="evenodd"/><path fill="#fff" fill-opacity=".5" fill-rule="evenodd" d="M793.746 119.577a.75.75 0 0 1-.275 1.025l-.247.143.167.288.247-.142a.749.749 0 1 1 .75 1.299l-.292.168a2.32 2.32 0 0 1-2.411 3.025 2.33 2.33 0 0 1-1.142 1.672l-.058.034a2.268 2.268 0 0 1-3.098-.83l-.012-.02-.247.142a.75.75 0 1 1-.75-1.299l.247-.143-.167-.288-.247.143a.75.75 0 0 1-.75-1.299l.247-.143-.541-.938a.751.751 0 0 1 1.299-.75l.11.191 4.167-2.406-.11-.191a.75.75 0 0 1 1.299-.75l.542.938.247-.143a.751.751 0 0 1 1.025.274Zm-2.253 1.171-1.421.82 1.105 1.913a.82.82 0 1 0 1.421-.821l-1.105-1.912Zm-2.72 1.57-1.447.836 1.36 2.355a.768.768 0 0 0 1.049.281l.058-.034c.4-.23.537-.741.306-1.141l-1.326-2.297ZM878.073 200.468a7.5 7.5 0 1 0-10.607 10.607 7.5 7.5 0 0 0 10.607-10.607Zm-11.667-1.061a8.998 8.998 0 0 1 12.727 0 9 9 0 0 1 0 12.728 8.998 8.998 0 0 1-12.727 0 9 9 0 0 1 0-12.728Z" clip-rule="evenodd"/><path fill="#fff" fill-opacity=".5" fill-rule="evenodd" d="M876.476 202.308a.75.75 0 0 1-.274 1.024l-.248.143.167.289.247-.143a.75.75 0 0 1 .75 1.299l-.291.169a2.321 2.321 0 0 1-2.412 3.024 2.33 2.33 0 0 1-1.141 1.673l-.058.034a2.27 2.27 0 0 1-3.099-.831l-.011-.02-.248.143a.75.75 0 0 1-.75-1.299l.248-.143-.167-.289-.247.143a.751.751 0 0 1-.75-1.299l.247-.143-.542-.938a.75.75 0 0 1 1.299-.75l.111.191 4.167-2.406-.11-.191a.75.75 0 1 1 1.299-.75l.541.938.248-.143a.75.75 0 0 1 1.024.275Zm-2.252 1.17-1.421.821 1.104 1.913a.82.82 0 0 0 1.421-.821l-1.104-1.913Zm-2.72 1.571-1.447.835 1.359 2.355a.767.767 0 0 0 1.05.281l.058-.033a.836.836 0 0 0 .306-1.141l-1.326-2.297ZM960.807 283.202a7.5 7.5 0 1 0-10.605 10.607 7.5 7.5 0 0 0 10.605-10.607Zm-11.667-1.061a9.001 9.001 0 0 1 12.728 0 9 9 0 0 1 0 12.728 9 9 0 0 1-12.728 0 9 9 0 0 1 0-12.728Z" clip-rule="evenodd"/><path fill="#fff" fill-opacity=".5" fill-rule="evenodd" d="M959.211 285.042a.75.75 0 0 1-.275 1.025l-.247.143.166.288.248-.142a.748.748 0 0 1 1.024.274.751.751 0 0 1-.274 1.025l-.292.168a2.32 2.32 0 0 1-2.411 3.025 2.33 2.33 0 0 1-1.142 1.672l-.058.034a2.268 2.268 0 0 1-3.098-.83l-.012-.021-.247.143a.751.751 0 0 1-.75-1.299l.247-.143-.167-.288-.247.142a.75.75 0 1 1-.75-1.299l.247-.142-.541-.939a.751.751 0 0 1 1.299-.75l.11.191 4.167-2.406-.11-.191a.75.75 0 0 1 1.299-.75l.542.939.247-.143a.751.751 0 0 1 1.025.274Zm-2.253 1.17-1.421.821 1.104 1.913a.82.82 0 0 0 1.422-.821l-1.105-1.913Zm-2.72 1.571-1.447.836 1.36 2.355a.768.768 0 0 0 1.049.281l.058-.034c.4-.23.537-.741.306-1.141l-1.326-2.297Z" clip-rule="evenodd"/><path fill="#18181B" fill-opacity=".5" d="m788.742 466.543-16.97-16.97 196.575-196.576 16.97 16.97z"/><path fill="#fff" fill-opacity=".5" fill-rule="evenodd" d="M966.579 282.342a7.5 7.5 0 0 0 0-10.606 7.5 7.5 0 0 0-10.606 0 7.5 7.5 0 0 0 0 10.606 7.5 7.5 0 0 0 10.606 0Zm1.061-11.667a9 9 0 0 1 0 12.728 9 9 0 0 1-12.728 0 9 9 0 0 1 0-12.728 9 9 0 0 1 12.728 0Z" clip-rule="evenodd"/><path fill="#fff" fill-opacity=".5" fill-rule="evenodd" d="M964.739 280.746a.75.75 0 0 1-1.025-.275l-.142-.247-.289.167.143.247a.75.75 0 0 1-1.299.75l-.169-.292a2.32 2.32 0 0 1-3.024-2.411 2.33 2.33 0 0 1-1.673-1.142l-.034-.058a2.268 2.268 0 0 1 .831-3.098l.02-.012-.143-.247a.75.75 0 0 1 1.299-.75l.143.247.289-.167-.143-.247a.75.75 0 0 1 1.299-.75l.143.247.938-.541a.75.75 0 0 1 .75 1.299l-.191.11 2.406 4.167.191-.11a.75.75 0 0 1 .75 1.299l-.938.542.142.247a.75.75 0 0 1-.274 1.025Zm-1.17-2.253-.821-1.421-1.913 1.105a.82.82 0 1 0 .821 1.421l1.913-1.105Zm-1.571-2.72-.835-1.447-2.355 1.36a.768.768 0 0 0-.282 1.049l.034.058c.231.4.742.537 1.141.306l2.297-1.326ZM883.849 365.073a7.5 7.5 0 1 0-10.607-10.607 7.5 7.5 0 0 0 10.607 10.607Zm1.06-11.667a8.998 8.998 0 0 1 0 12.727 8.998 8.998 0 0 1-12.727 0 8.998 8.998 0 0 1 0-12.727 8.998 8.998 0 0 1 12.727 0Z" clip-rule="evenodd"/><path fill="#fff" fill-opacity=".5" fill-rule="evenodd" d="M882.008 363.476a.75.75 0 0 1-1.024-.274l-.143-.248-.289.167.143.247a.751.751 0 0 1-1.299.75l-.168-.291a2.323 2.323 0 0 1-3.025-2.412 2.335 2.335 0 0 1-1.673-1.141l-.033-.058a2.27 2.27 0 0 1 .83-3.099l.02-.011-.142-.248a.75.75 0 1 1 1.299-.75l.142.248.289-.167-.143-.247a.75.75 0 0 1 1.299-.75l.143.247.938-.542a.75.75 0 0 1 .75 1.299l-.191.111 2.406 4.167.191-.11a.75.75 0 1 1 .75 1.299l-.938.541.143.248a.75.75 0 0 1-.275 1.024Zm-1.17-2.252-.82-1.421-1.913 1.104a.82.82 0 1 0 .82 1.421l1.913-1.104Zm-1.57-2.72-.836-1.447-2.355 1.359a.77.77 0 0 0-.281 1.05l.034.058c.23.4.741.536 1.141.306l2.297-1.326ZM801.114 447.807a7.5 7.5 0 0 0 0-10.606 7.5 7.5 0 0 0-10.606 0 7.5 7.5 0 0 0 0 10.606 7.5 7.5 0 0 0 10.606 0Zm1.061-11.667a9 9 0 0 1 0 12.728 9 9 0 0 1-12.728 0 9 9 0 0 1 0-12.728 9 9 0 0 1 12.728 0Z" clip-rule="evenodd"/><path fill="#fff" fill-opacity=".5" fill-rule="evenodd" d="M799.274 446.211a.75.75 0 0 1-1.024-.275l-.143-.247-.289.166.143.248a.75.75 0 0 1-1.299.75l-.169-.292a2.32 2.32 0 0 1-3.024-2.411 2.33 2.33 0 0 1-1.673-1.142l-.033-.058a2.267 2.267 0 0 1 .83-3.098l.02-.012-.143-.247a.75.75 0 0 1 1.299-.75l.143.247.289-.167-.143-.247a.75.75 0 1 1 1.299-.75l.143.247.938-.541a.75.75 0 1 1 .75 1.299l-.191.11 2.406 4.167.191-.11a.75.75 0 0 1 .75 1.299l-.938.542.143.247a.75.75 0 0 1-.275 1.025Zm-1.17-2.253-.821-1.421-1.913 1.104a.82.82 0 0 0 .821 1.422l1.913-1.105Zm-1.571-2.72-.835-1.447-2.355 1.36a.767.767 0 0 0-.281 1.049l.033.058c.231.4.742.537 1.141.306l2.297-1.326Z" clip-rule="evenodd"/><path fill="#18181B" fill-opacity=".5" d="M795 428h-24V150h24z"/><path fill="#fff" fill-opacity=".5" fill-rule="evenodd" d="M790.5 172a7.5 7.5 0 1 0-15 0 7.5 7.5 0 0 0 15 0Zm-7.5-9a9 9 0 0 1 9 9 9 9 0 0 1-9 9 9 9 0 0 1-9-9 9 9 0 0 1 9-9Z" clip-rule="evenodd"/><path fill="#fff" fill-opacity=".5" fill-rule="evenodd" d="M788.07 172.172a.752.752 0 0 1-.919.531l-.276-.074-.086.322.276.074a.75.75 0 1 1-.388 1.449l-.326-.088a2.322 2.322 0 0 1-3.844.434 2.33 2.33 0 0 1-1.989.376l-.065-.018a2.268 2.268 0 0 1-1.604-2.778l.006-.022-.276-.074a.75.75 0 1 1 .388-1.449l.276.074.086-.322-.275-.074a.75.75 0 1 1 .388-1.449l.276.074.28-1.046a.75.75 0 1 1 1.449.388l-.057.213 4.648 1.245.057-.213a.75.75 0 0 1 1.449.388l-.28 1.047.275.074a.75.75 0 0 1 .531.918Zm-2.42-.765-1.586-.425-.571 2.134a.82.82 0 1 0 1.585.425l.572-2.134Zm-3.035-.813-1.613-.432-.704 2.627a.767.767 0 0 0 .543.94l.065.018a.835.835 0 0 0 1.023-.591l.686-2.562ZM790.5 289a7.5 7.5 0 1 0-15 0 7.5 7.5 0 0 0 15 0Zm-7.5-9a9 9 0 0 1 9 9 9 9 0 0 1-9 9 9 9 0 0 1-9-9 9 9 0 0 1 9-9Z" clip-rule="evenodd"/><path fill="#fff" fill-opacity=".5" fill-rule="evenodd" d="M788.07 289.172a.752.752 0 0 1-.919.531l-.276-.074-.086.322.276.074a.75.75 0 1 1-.388 1.449l-.326-.088a2.322 2.322 0 0 1-3.844.434 2.33 2.33 0 0 1-1.989.376l-.065-.018a2.268 2.268 0 0 1-1.604-2.778l.006-.022-.276-.074a.75.75 0 1 1 .388-1.449l.276.074.086-.322-.275-.074a.75.75 0 1 1 .388-1.449l.276.074.28-1.046a.75.75 0 1 1 1.449.388l-.057.213 4.648 1.245.057-.213a.75.75 0 0 1 1.449.388l-.28 1.047.275.074a.75.75 0 0 1 .531.918Zm-2.42-.765-1.586-.425-.571 2.134a.82.82 0 1 0 1.585.425l.572-2.134Zm-3.035-.813-1.613-.432-.704 2.627a.767.767 0 0 0 .543.94l.065.018a.835.835 0 0 0 1.023-.591l.686-2.562ZM790.5 406a7.5 7.5 0 1 0-15 0 7.5 7.5 0 0 0 15 0Zm-7.5-9a9 9 0 0 1 9 9 9 9 0 0 1-9 9 9 9 0 0 1-9-9 9 9 0 0 1 9-9Z" clip-rule="evenodd"/><path fill="#fff" fill-opacity=".5" fill-rule="evenodd" d="M788.07 406.172a.752.752 0 0 1-.919.531l-.276-.074-.086.322.276.074a.75.75 0 1 1-.388 1.449l-.326-.088a2.322 2.322 0 0 1-3.844.434 2.33 2.33 0 0 1-1.989.376l-.065-.018a2.268 2.268 0 0 1-1.604-2.778l.006-.022-.276-.074a.75.75 0 1 1 .388-1.449l.276.074.086-.322-.275-.074a.75.75 0 1 1 .388-1.449l.276.074.28-1.046a.75.75 0 1 1 1.449.388l-.057.213 4.648 1.245.057-.213a.75.75 0 0 1 1.449.388l-.28 1.047.275.074a.75.75 0 0 1 .531.918Zm-2.42-.765-1.586-.425-.571 2.134a.82.82 0 1 0 1.585.425l.572-2.134Zm-3.035-.813-1.613-.432-.704 2.627a.767.767 0 0 0 .543.94l.065.018a.835.835 0 0 0 1.023-.591l.686-2.562Z" clip-rule="evenodd"/><rect width="105.752" height="105.752" x="888.125" y="229.125" fill="#fff" rx="52.876"/><rect width="105.752" height="105.752" x="888.125" y="229.125" stroke="#E4E4E7" stroke-width="2.25" rx="52.876"/><path fill="#18181B" fill-opacity=".5" fill-rule="evenodd" d="M969.803 275.239h-.004a2.334 2.334 0 0 0-1.164-2.071l-23.981-14.064a7.073 7.073 0 0 0-7.139-.009l-24.133 14.07a2.333 2.333 0 0 0-1.17 2.074h-.009v14.179h.01c.023.78.425 1.55 1.203 1.987l24.203 13.575a7.071 7.071 0 0 0 6.934-.009l24.049-13.569a2.337 2.337 0 0 0 1.198-1.984h.003v-14.179Zm-51.959 1.796a1.199 1.199 0 1 0-1.179 2.09l20.349 11.481a8.27 8.27 0 0 0 8.164-.02l20.089-11.464a1.2 1.2 0 1 0-1.189-2.084l-20.09 11.464a5.872 5.872 0 0 1-5.795.014l-20.349-11.481Z" clip-rule="evenodd"/><rect width="105.752" height="105.752" x="1015.13" y="55.125" fill="#fff" rx="52.876"/><rect width="105.752" height="105.752" x="1015.13" y="55.125" stroke="#E4E4E7" stroke-width="2.25" rx="52.876"/><path fill="#18181B" fill-opacity=".5" fill-rule="evenodd" d="M1096.8 101.239a2.357 2.357 0 0 0-1.16-2.07l-23.99-14.065a7.056 7.056 0 0 0-7.13-.009l-24.14 14.07a2.348 2.348 0 0 0-1.17 2.074h-.01v14.179h.01c.03.78.43 1.55 1.21 1.987l24.2 13.575a7.064 7.064 0 0 0 6.93-.009l24.05-13.569a2.322 2.322 0 0 0 1.2-1.984v-14.179Zm-51.96 1.796a1.197 1.197 0 1 0-1.17 2.09l20.34 11.481a8.28 8.28 0 0 0 8.17-.02l20.09-11.464c.57-.328.77-1.061.44-1.637a1.191 1.191 0 0 0-1.63-.447l-20.09 11.464a5.882 5.882 0 0 1-5.8.014l-20.35-11.481Z" clip-rule="evenodd"/><rect width="105.752" height="105.752" x="1159.13" y="259.125" fill="#fff" rx="52.876"/><rect width="105.752" height="105.752" x="1159.13" y="259.125" stroke="#E4E4E7" stroke-width="2.25" rx="52.876"/><path fill="#18181B" fill-opacity=".5" fill-rule="evenodd" d="M1240.8 305.239a2.357 2.357 0 0 0-1.16-2.071l-23.99-14.064a7.057 7.057 0 0 0-7.13-.009l-24.14 14.07a2.347 2.347 0 0 0-1.17 2.074h-.01v14.179h.01c.03.78.43 1.55 1.21 1.987l24.2 13.575a7.064 7.064 0 0 0 6.93-.009l24.05-13.569a2.322 2.322 0 0 0 1.2-1.984v-14.179Zm-51.96 1.796a1.197 1.197 0 1 0-1.17 2.09l20.34 11.481a8.28 8.28 0 0 0 8.17-.02l20.09-11.464c.57-.328.77-1.061.44-1.637a1.191 1.191 0 0 0-1.63-.447l-20.09 11.464a5.882 5.882 0 0 1-5.8.014l-20.35-11.481Z" clip-rule="evenodd"/><rect width="105.752" height="105.752" x="1224.13" y="431.125" fill="#fff" rx="52.876"/><rect width="105.752" height="105.752" x="1224.13" y="431.125" stroke="#E4E4E7" stroke-width="2.25" rx="52.876"/><path fill="#18181B" fill-opacity=".5" fill-rule="evenodd" d="M1305.8 477.239a2.357 2.357 0 0 0-1.16-2.071l-23.99-14.064a7.057 7.057 0 0 0-7.13-.009l-24.14 14.07a2.347 2.347 0 0 0-1.17 2.074h-.01v14.179h.01c.03.78.43 1.55 1.21 1.987l24.2 13.575a7.064 7.064 0 0 0 6.93-.009l24.05-13.569a2.322 2.322 0 0 0 1.2-1.984v-14.179Zm-51.96 1.796a1.197 1.197 0 1 0-1.17 2.09l20.34 11.481a8.28 8.28 0 0 0 8.17-.02l20.09-11.464c.57-.328.77-1.061.44-1.637a1.191 1.191 0 0 0-1.63-.447l-20.09 11.464a5.882 5.882 0 0 1-5.8.014l-20.35-11.481Z" clip-rule="evenodd"/><rect width="105.752" height="105.752" x="1260.13" y="73.125" fill="#fff" rx="52.876"/><rect width="105.752" height="105.752" x="1260.13" y="73.125" stroke="#E4E4E7" stroke-width="2.25" rx="52.876"/><path fill="#18181B" fill-opacity=".5" fill-rule="evenodd" d="M1341.8 119.239a2.357 2.357 0 0 0-1.16-2.071l-23.99-14.064a7.057 7.057 0 0 0-7.13-.009l-24.14 14.07a2.347 2.347 0 0 0-1.17 2.074h-.01v14.179h.01c.03.78.43 1.55 1.21 1.987l24.2 13.575a7.064 7.064 0 0 0 6.93-.009l24.05-13.569a2.322 2.322 0 0 0 1.2-1.984v-14.179Zm-51.96 1.796a1.197 1.197 0 1 0-1.17 2.09l20.34 11.481a8.28 8.28 0 0 0 8.17-.02l20.09-11.464c.57-.328.77-1.061.44-1.637a1.191 1.191 0 0 0-1.63-.447l-20.09 11.464a5.882 5.882 0 0 1-5.8.014l-20.35-11.481Z" clip-rule="evenodd"/><rect width="105.752" height="105.752" x="1015.13" y="377.125" fill="#fff" rx="52.876"/><rect width="105.752" height="105.752" x="1015.13" y="377.125" stroke="#E4E4E7" stroke-width="2.25" rx="52.876"/><path fill="#18181B" fill-opacity=".5" fill-rule="evenodd" d="M1096.8 423.239a2.357 2.357 0 0 0-1.16-2.071l-23.99-14.064a7.057 7.057 0 0 0-7.13-.009l-24.14 14.07a2.347 2.347 0 0 0-1.17 2.074h-.01v14.179h.01c.03.78.43 1.55 1.21 1.987l24.2 13.575a7.064 7.064 0 0 0 6.93-.009l24.05-13.569a2.322 2.322 0 0 0 1.2-1.984v-14.179Zm-51.96 1.796a1.197 1.197 0 1 0-1.17 2.09l20.34 11.481a8.28 8.28 0 0 0 8.17-.02l20.09-11.464c.57-.328.77-1.061.44-1.637a1.191 1.191 0 0 0-1.63-.447l-20.09 11.464a5.882 5.882 0 0 1-5.8.014l-20.35-11.481Z" clip-rule="evenodd"/><rect width="105.752" height="105.752" x="730.125" y="52.125" fill="#fff" rx="52.876"/><rect width="105.752" height="105.752" x="730.125" y="52.125" stroke="#E4E4E7" stroke-width="2.25" rx="52.876"/><path fill="#18181B" fill-opacity=".5" fill-rule="evenodd" d="M811.803 98.239h-.004a2.333 2.333 0 0 0-1.164-2.07l-23.981-14.065a7.072 7.072 0 0 0-7.139-.009l-24.133 14.07a2.333 2.333 0 0 0-1.17 2.073h-.009v14.18h.01c.023.78.425 1.55 1.203 1.987l24.203 13.575a7.071 7.071 0 0 0 6.934-.009l24.049-13.569a2.337 2.337 0 0 0 1.198-1.984h.003v-14.18Zm-51.959 1.796a1.199 1.199 0 1 0-1.179 2.09l20.349 11.481a8.27 8.27 0 0 0 8.164-.02l20.089-11.464a1.2 1.2 0 1 0-1.189-2.084l-20.09 11.464a5.872 5.872 0 0 1-5.795.014l-20.349-11.481Z" clip-rule="evenodd"/><rect width="105.752" height="105.752" x="730.125" y="389.125" fill="#fff" rx="52.876"/><rect width="105.752" height="105.752" x="730.125" y="389.125" stroke="#E4E4E7" stroke-width="2.25" rx="52.876"/><path fill="#18181B" fill-opacity=".5" fill-rule="evenodd" d="M811.803 435.239h-.004a2.334 2.334 0 0 0-1.164-2.071l-23.981-14.064a7.073 7.073 0 0 0-7.139-.009l-24.133 14.07a2.333 2.333 0 0 0-1.17 2.074h-.009v14.179h.01c.023.78.425 1.55 1.203 1.987l24.203 13.575a7.071 7.071 0 0 0 6.934-.009l24.049-13.569a2.337 2.337 0 0 0 1.198-1.984h.003v-14.179Zm-51.959 1.796a1.199 1.199 0 1 0-1.179 2.09l20.349 11.481a8.27 8.27 0 0 0 8.164-.02l20.089-11.464a1.2 1.2 0 1 0-1.189-2.084l-20.09 11.464a5.872 5.872 0 0 1-5.795.014l-20.349-11.481Z" clip-rule="evenodd"/><path fill="#18181B" fill-opacity=".05" d="M191 261h279.997v40H191z"/><path stroke="#09090B" stroke-dasharray="6 12" stroke-linecap="round" stroke-linejoin="round" stroke-opacity=".5" stroke-width="4" d="M191 261h279.997v40H191z"/><g filter="url(#h)"><rect width="162" height="162" x="45" y="200" fill="#18181B" rx="81"/><rect width="158.625" height="158.625" x="46.688" y="201.688" stroke="#E4E4E7" stroke-width="3.375" rx="79.312"/><path fill="#fff" d="M151.158 275.231a25.045 25.045 0 0 0-1.75-5.109 25.908 25.908 0 0 0-7.473-9.442 25.87 25.87 0 0 0-10.195-4.872 25.272 25.272 0 0 0-5.756-.648c-1.976 0-3.909.216-5.756.648a92.168 92.168 0 0 0-.756 4.181 118.55 118.55 0 0 0-1.037 8.404 149.303 149.303 0 0 0-.529 12.607c0 2.765.076 5.38.205 7.886a152.406 152.406 0 0 0 15.768 0c1.62-.087 3.196-.195 4.708-.324 3.024-.27 5.821-.616 8.413-1.037 1.458-.238 2.851-.487 4.18-.757.421-1.847.648-3.78.648-5.757 0-1.977-.216-3.911-.648-5.758l-.022-.022Zm-7.484-1.955c-.659.097-1.296.259-1.922.475-1.124.389-2.16.962-3.1 1.686-2.343 1.782-4.028 4.461-4.514 7.345 0 .054-.054.076-.086.065a.07.07 0 0 1-.065-.065c-.767-4.915-4.741-8.75-9.536-9.517-.087-.011-.087-.14 0-.151.335-.054.659-.119.983-.205 2.699-.681 5.043-2.355 6.609-4.581a11.31 11.31 0 0 0 1.263-2.3c.324-.789.562-1.621.692-2.474.01-.087.14-.087.151 0 .291 1.858 1.047 3.554 2.116 5.001a11.484 11.484 0 0 0 2.139 2.204 11.653 11.653 0 0 0 5.27 2.366c.086.011.086.14 0 .151Z"/><path fill="#fff" d="M179.963 279.133v3.706c0 5.509-5.929 10.521-16.686 14.108-3.79 1.264-8.056 2.312-12.646 3.133-.335.064-.669.118-1.004.183-1.253.205-2.516.4-3.823.573-1.275.173-2.57.324-3.877.464a155.92 155.92 0 0 1-4.655.422c-1.577.108-3.164.205-4.784.27a162.861 162.861 0 0 1-13.024 0c-1.62-.076-3.208-.162-4.784-.27a123.556 123.556 0 0 1-4.644-.422c-1.318-.14-2.603-.291-3.877-.464-1.296-.173-2.57-.368-3.812-.573-.346-.054-.681-.119-1.016-.183-4.59-.811-8.855-1.859-12.646-3.133C77.93 293.36 72 288.348 72 282.839v-3.706c0-5.509 5.929-10.521 16.685-14.108 3.79-1.264 8.057-2.311 12.646-3.132-.054.453-.108.896-.162 1.361-.28 2.365-.496 4.774-.648 7.237a87.725 87.725 0 0 0-3.445.746c-10.475 2.463-17.398 6.114-19.19 9.754 1.792 3.641 8.715 7.292 19.19 9.744 1.113.26 2.258.508 3.445.746.67.129 1.35.259 2.052.378.886.151 1.782.302 2.7.432 2.668.4 5.486.734 8.445.972 1.545.13 3.122.238 4.731.313a155.353 155.353 0 0 0 15.119 0c1.609-.075 3.186-.183 4.719-.313 2.959-.248 5.778-.572 8.446-.972.918-.141 1.825-.281 2.699-.432.692-.119 1.372-.249 2.052-.378a87.706 87.706 0 0 0 3.445-.735c10.476-2.463 17.398-6.114 19.191-9.755-1.793-3.64-8.715-7.291-19.191-9.743a30.158 30.158 0 0 0-5.27-9.518c.335.054.681.119 1.015.184 4.59.81 8.856 1.858 12.647 3.133 10.756 3.586 16.685 8.599 16.685 14.108l-.043-.022Z"/><path fill="#fff" d="M145.22 257.334a30.342 30.342 0 0 0-9.514-5.272c-2.452-10.479-6.102-17.403-9.741-19.196-3.64 1.793-7.29 8.717-9.742 19.196a87.912 87.912 0 0 0-1.123 5.498 96.702 96.702 0 0 0-.432 2.701 124.651 124.651 0 0 0-.972 8.448 128.936 128.936 0 0 0-.313 4.72 155.564 155.564 0 0 0 0 15.124c-3.024-.27-5.821-.616-8.402-1.037a162.962 162.962 0 0 1 0-13.028c.076-1.62.162-3.208.281-4.786.108-1.577.248-3.132.41-4.645.141-1.318.292-2.614.465-3.889.172-1.296.367-2.571.572-3.813.054-.335.119-.68.184-1.015.81-4.591 1.857-8.858 3.132-12.65 3.585-10.759 8.596-16.69 14.104-16.69h3.704c5.508 0 10.519 5.931 14.104 16.69 1.264 3.792 2.311 8.059 3.132 12.65.065.335.119.68.184 1.015l-.033-.021ZM145.036 305.656c-.81 4.591-1.858 8.858-3.132 12.65-3.586 10.759-8.597 16.69-14.104 16.69h-3.705c-5.507 0-10.518-5.931-14.104-16.69-1.263-3.792-2.311-8.059-3.132-12.65.454.054.897.108 1.361.162 2.365.281 4.773.497 7.236.648.237 1.189.475 2.334.745 3.446 2.451 10.479 6.102 17.403 9.741 19.197 3.64-1.794 7.29-8.718 9.752-19.197.259-1.112.508-2.257.734-3.446 2.463-.162 4.882-.378 7.236-.648.454-.043.907-.108 1.361-.162h.011Z"/></g><g filter="url(#i)"><rect width="162.003" height="162.003" x="454.996" y="200" fill="#fff" rx="81.001"/><rect width="158.628" height="158.628" x="456.684" y="201.688" stroke="#E4E4E7" stroke-width="3.375" rx="79.314"/><path fill="#18181B" fill-rule="evenodd" d="M579.193 270.864h-.004a3.5 3.5 0 0 0-1.746-3.104l-35.972-21.096a10.606 10.606 0 0 0-10.708-.013l-36.2 21.104a3.503 3.503 0 0 0-1.755 3.109h-.015v21.268h.016a3.499 3.499 0 0 0 1.804 2.981l36.303 20.363a10.61 10.61 0 0 0 10.401-.013l36.074-20.354a3.503 3.503 0 0 0 1.797-2.977h.005v-21.268Zm-77.934 2.692a1.8 1.8 0 1 0-1.769 3.135l30.523 17.222a12.406 12.406 0 0 0 12.246-.029l30.134-17.197a1.8 1.8 0 0 0-1.784-3.127l-30.135 17.197a8.806 8.806 0 0 1-8.692.021l-30.523-17.222Z" clip-rule="evenodd"/></g><defs><linearGradient id="a" x1="938.711" x2="938.711" y1="814.911" y2="623.86" gradientUnits="userSpaceOnUse"><stop offset=".68" stop-color="#8B8B8D"/><stop offset="1" stop-color="#fff" stop-opacity="0"/></linearGradient><linearGradient id="b" x1="807" x2="807" y1="849.895" y2="658.845" gradientUnits="userSpaceOnUse"><stop offset=".68" stop-color="#8B8B8D"/><stop offset="1" stop-color="#fff" stop-opacity="0"/></linearGradient><linearGradient id="c" x1="1010.5" x2="1010.5" y1="814.713" y2="634.918" gradientUnits="userSpaceOnUse"><stop offset=".68" stop-color="#8B8B8D"/><stop offset="1" stop-color="#fff" stop-opacity="0"/></linearGradient><linearGradient id="d" x1="1374.61" x2="1374.61" y1="836.619" y2="656.825" gradientUnits="userSpaceOnUse"><stop offset=".68" stop-color="#8B8B8D"/><stop offset="1" stop-color="#fff" stop-opacity="0"/></linearGradient><linearGradient id="e" x1="1395.5" x2="1395.5" y1="521.237" y2="341.442" gradientUnits="userSpaceOnUse"><stop offset=".68" stop-color="#8B8B8D"/><stop offset="1" stop-color="#fff" stop-opacity="0"/></linearGradient><linearGradient id="f" x1="1429.04" x2="1429.04" y1="185.688" y2="34.005" gradientUnits="userSpaceOnUse"><stop offset=".68" stop-color="#8B8B8D"/><stop offset="1" stop-color="#fff" stop-opacity="0"/></linearGradient><linearGradient id="g" x1="1424.04" x2="1424.04" y1="479.147" y2="299.352" gradientUnits="userSpaceOnUse"><stop offset=".68" stop-color="#8B8B8D"/><stop offset="1" stop-color="#fff" stop-opacity="0"/></linearGradient><filter id="h" width="202" height="202" x="25" y="200" color-interpolation-filters="sRGB" filterUnits="userSpaceOnUse"><feFlood flood-opacity="0" result="BackgroundImageFix"/><feColorMatrix in="SourceAlpha" result="hardAlpha" values="0 0 0 0 0 0 0 0 0 0 0 0 0 0 0 0 0 0 127 0"/><feMorphology in="SourceAlpha" radius="5" result="effect1_dropShadow_4411_46360"/><feOffset dy="20"/><feGaussianBlur stdDeviation="12.5"/><feColorMatrix values="0 0 0 0 0 0 0 0 0 0 0 0 0 0 0 0 0 0 0.1 0"/><feBlend in2="BackgroundImageFix" result="effect1_dropShadow_4411_46360"/><feColorMatrix in="SourceAlpha" result="hardAlpha" values="0 0 0 0 0 0 0 0 0 0 0 0 0 0 0 0 0 0 127 0"/><feMorphology in="SourceAlpha" radius="6" result="effect2_dropShadow_4411_46360"/><feOffset dy="8"/><feGaussianBlur stdDeviation="5"/><feColorMatrix values="0 0 0 0 0 0 0 0 0 0 0 0 0 0 0 0 0 0 0.1 0"/><feBlend in2="effect1_dropShadow_4411_46360" result="effect2_dropShadow_4411_46360"/><feBlend in="SourceGraphic" in2="effect2_dropShadow_4411_46360" result="shape"/></filter><filter id="i" width="202.004" height="202.004" x="434.996" y="200" color-interpolation-filters="sRGB" filterUnits="userSpaceOnUse"><feFlood flood-opacity="0" result="BackgroundImageFix"/><feColorMatrix in="SourceAlpha" result="hardAlpha" values="0 0 0 0 0 0 0 0 0 0 0 0 0 0 0 0 0 0 127 0"/><feMorphology in="SourceAlpha" radius="5" result="effect1_dropShadow_4411_46360"/><feOffset dy="20"/><feGaussianBlur stdDeviation="12.5"/><feColorMatrix values="0 0 0 0 0 0 0 0 0 0 0 0 0 0 0 0 0 0 0.1 0"/><feBlend in2="BackgroundImageFix" result="effect1_dropShadow_4411_46360"/><feColorMatrix in="SourceAlpha" result="hardAlpha" values="0 0 0 0 0 0 0 0 0 0 0 0 0 0 0 0 0 0 127 0"/><feMorphology in="SourceAlpha" radius="6" result="effect2_dropShadow_4411_46360"/><feOffset dy="8"/><feGaussianBlur stdDeviation="5"/><feColorMatrix values="0 0 0 0 0 0 0 0 0 0 0 0 0 0 0 0 0 0 0.1 0"/><feBlend in2="effect1_dropShadow_4411_46360" result="effect2_dropShadow_4411_46360"/><feBlend in="SourceGraphic" in2="effect2_dropShadow_4411_46360" result="shape"/></filter></defs></svg>