<svg width="961" height="712" viewBox="0 0 961 712" fill="none" xmlns="http://www.w3.org/2000/svg">
<rect x="2.25012" y="498.25" width="211.504" height="211.504" rx="105.752" fill="white"/>
<rect x="2.25012" y="498.25" width="211.504" height="211.504" rx="105.752" stroke="#E4E4E7" stroke-width="4.50024"/>
<path d="M134.669 614.669H134.722M81.3353 577.335H145.335C148.164 577.335 150.877 578.459 152.878 580.459C154.878 582.46 156.002 585.173 156.002 588.002V641.335C156.002 644.164 154.878 646.877 152.878 648.878C150.877 650.878 148.164 652.002 145.335 652.002H70.6686C67.8396 652.002 65.1265 650.878 63.1261 648.878C61.1258 646.877 60.002 644.164 60.002 641.335V566.669C60.002 563.84 61.1258 561.127 63.1261 559.126C65.1265 557.126 67.8396 556.002 70.6686 556.002H145.335" stroke="#18181B" stroke-width="8.53333" stroke-linecap="round" stroke-linejoin="round"/>
<rect x="374.254" y="498.25" width="211.504" height="211.504" rx="105.752" fill="white"/>
<rect x="374.254" y="498.25" width="211.504" height="211.504" rx="105.752" stroke="#E4E4E7" stroke-width="4.50024"/>
<path d="M506.673 614.669H506.726M453.339 577.335H517.339C520.168 577.335 522.881 578.459 524.882 580.459C526.882 582.46 528.006 585.173 528.006 588.002V641.335C528.006 644.164 526.882 646.877 524.882 648.878C522.881 650.878 520.168 652.002 517.339 652.002H442.673C439.844 652.002 437.13 650.878 435.13 648.878C433.13 646.877 432.006 644.164 432.006 641.335V566.669C432.006 563.84 433.13 561.127 435.13 559.126C437.13 557.126 439.844 556.002 442.673 556.002H517.339" stroke="#18181B" stroke-width="8.53333" stroke-linecap="round" stroke-linejoin="round"/>
<rect x="746.258" y="498.25" width="211.504" height="211.504" rx="105.752" fill="white"/>
<rect x="746.258" y="498.25" width="211.504" height="211.504" rx="105.752" stroke="#E4E4E7" stroke-width="4.50024"/>
<path d="M878.676 614.669H878.73M825.343 577.335H889.343C892.172 577.335 894.885 578.459 896.886 580.459C898.886 582.46 900.01 585.173 900.01 588.002V641.335C900.01 644.164 898.886 646.877 896.886 648.878C894.885 650.878 892.172 652.002 889.343 652.002H814.676C811.847 652.002 809.134 650.878 807.134 648.878C805.134 646.877 804.01 644.164 804.01 641.335V566.669C804.01 563.84 805.134 561.127 807.134 559.126C809.134 557.126 811.847 556.002 814.676 556.002H889.343" stroke="#18181B" stroke-width="8.53333" stroke-linecap="round" stroke-linejoin="round"/>
<g filter="url(#filter0_dd_7364_72069)">
<rect x="354" width="256" height="256" rx="128" fill="#18181B"/>
<rect x="356.667" y="2.66682" width="250.666" height="250.666" rx="125.333" stroke="#E4E4E7" stroke-width="5.33364"/>
<path d="M521.759 118.884C521.127 116.068 520.189 113.37 518.994 110.81C517.663 107.942 516.008 105.245 514.062 102.769C512.048 100.209 509.744 97.9043 507.184 95.89C504.71 93.9439 502.014 92.2881 499.146 90.9566C496.587 89.7616 493.89 88.8398 491.074 88.1911C488.156 87.5083 485.101 87.1669 481.978 87.1669C478.855 87.1669 475.8 87.5083 472.882 88.1911C472.455 90.2908 472.046 92.4929 471.687 94.7975C471.022 98.8944 470.476 103.316 470.049 108.078C469.844 110.468 469.674 112.961 469.537 115.538C469.332 119.482 469.213 123.63 469.213 128C469.213 132.37 469.332 136.501 469.537 140.462C473.479 140.666 477.626 140.786 481.995 140.786C486.364 140.786 490.494 140.666 494.453 140.462C497.013 140.325 499.505 140.154 501.894 139.949C506.673 139.523 511.093 138.976 515.188 138.311C517.492 137.935 519.694 137.542 521.793 137.116C522.458 134.197 522.817 131.141 522.817 128.017C522.817 124.893 522.476 121.837 521.793 118.918L521.759 118.884ZM509.932 115.794C508.891 115.948 507.884 116.204 506.894 116.546C505.12 117.16 503.481 118.065 501.996 119.209C498.293 122.025 495.631 126.259 494.863 130.817C494.863 130.902 494.778 130.936 494.726 130.919C494.675 130.919 494.624 130.868 494.624 130.817C493.412 123.049 487.132 116.989 479.555 115.777C479.418 115.76 479.418 115.555 479.555 115.538C480.084 115.453 480.596 115.351 481.108 115.214C485.374 114.139 489.078 111.493 491.552 107.976C492.354 106.849 493.02 105.637 493.549 104.34C494.061 103.094 494.436 101.779 494.641 100.431C494.658 100.294 494.863 100.294 494.88 100.431C495.341 103.367 496.535 106.047 498.225 108.335C499.198 109.649 500.324 110.81 501.604 111.817C503.993 113.712 506.843 115.026 509.932 115.555C510.069 115.573 510.069 115.777 509.932 115.794Z" fill="white"/>
<path d="M567.278 125.05V130.905C567.278 139.611 557.908 147.532 540.911 153.2C534.921 155.197 528.18 156.853 520.927 158.15C520.398 158.253 519.869 158.338 519.34 158.44C517.36 158.765 515.363 159.072 513.298 159.345C511.284 159.618 509.236 159.857 507.172 160.079C504.748 160.335 502.308 160.557 499.816 160.745C497.325 160.916 494.816 161.069 492.256 161.172C488.86 161.308 485.43 161.377 481.965 161.377C478.501 161.377 475.054 161.308 471.674 161.172C469.115 161.052 466.606 160.916 464.114 160.745C461.623 160.557 459.182 160.352 456.776 160.079C454.694 159.857 452.663 159.618 450.649 159.345C448.601 159.072 446.588 158.765 444.625 158.44C444.079 158.355 443.55 158.253 443.021 158.15C435.768 156.87 429.027 155.214 423.037 153.2C406.039 147.532 396.67 139.611 396.67 130.905V125.05C396.67 116.344 406.039 108.423 423.037 102.756C429.027 100.759 435.768 99.1027 443.021 97.8053C442.936 98.5223 442.85 99.2222 442.765 99.9562C442.321 103.695 441.98 107.501 441.741 111.394C439.864 111.769 438.055 112.145 436.297 112.571C419.743 116.464 408.804 122.233 405.971 127.986C408.804 133.739 419.743 139.509 436.297 143.384C438.055 143.794 439.864 144.186 441.741 144.562C442.799 144.767 443.874 144.972 444.983 145.159C446.383 145.398 447.799 145.637 449.25 145.842C453.465 146.474 457.919 147.003 462.595 147.379C465.036 147.583 467.527 147.754 470.07 147.874C473.927 148.061 477.921 148.164 482.016 148.164C486.112 148.164 490.089 148.061 493.963 147.874C496.505 147.754 498.997 147.583 501.42 147.379C506.096 146.986 510.551 146.474 514.766 145.842C516.216 145.62 517.65 145.398 519.032 145.159C520.125 144.972 521.2 144.767 522.275 144.562C524.152 144.203 525.961 143.811 527.719 143.401C544.273 139.509 555.212 133.739 558.045 127.986C555.212 122.233 544.273 116.464 527.719 112.589C526.183 108.031 523.998 103.797 521.251 99.9733C520.654 99.1368 520.039 98.3345 519.391 97.5493C519.92 97.6346 520.466 97.737 520.995 97.8395C528.248 99.1198 534.989 100.776 540.979 102.79C557.977 108.457 567.346 116.378 567.346 125.084L567.278 125.05Z" fill="white"/>
<path d="M512.38 90.6037C511.595 89.955 510.793 89.3405 509.957 88.743C506.134 85.9946 501.885 83.8096 497.345 82.2732C493.471 65.7146 487.703 54.7723 481.952 51.9386C476.2 54.7723 470.432 65.7146 466.558 82.2732C466.132 84.0315 465.756 85.841 465.381 87.7187C465.176 88.7771 464.971 89.8697 464.783 90.9622C464.544 92.362 464.306 93.7788 464.101 95.2298C463.469 99.4463 462.94 103.902 462.565 108.579C462.36 111.003 462.189 113.495 462.07 116.039C461.882 119.897 461.78 123.892 461.78 127.989C461.78 132.085 461.882 136.063 462.07 139.938C457.291 139.511 452.871 138.965 448.793 138.299C448.656 134.902 448.588 131.471 448.588 128.006C448.588 124.54 448.656 121.092 448.793 117.712C448.912 115.151 449.049 112.642 449.236 110.15C449.407 107.657 449.629 105.199 449.885 102.809C450.107 100.727 450.346 98.6781 450.619 96.6638C450.892 94.6153 451.199 92.601 451.523 90.6378C451.609 90.1086 451.711 89.5624 451.813 89.0332C453.093 81.7781 454.749 75.0352 456.762 69.0434C462.428 52.041 470.347 42.6692 479.05 42.6692H484.904C493.608 42.6692 501.526 52.041 507.192 69.0434C509.189 75.0352 510.844 81.7781 512.141 89.0332C512.244 89.5624 512.329 90.1086 512.431 90.6378L512.38 90.6037Z" fill="white"/>
<path d="M512.08 166.966C510.8 174.222 509.145 180.964 507.131 186.956C501.465 203.959 493.546 213.33 484.843 213.33H478.989C470.286 213.33 462.367 203.959 456.701 186.956C454.704 180.964 453.049 174.222 451.752 166.966C452.469 167.052 453.168 167.137 453.902 167.223C457.64 167.666 461.445 168.008 465.336 168.247C465.712 170.125 466.087 171.934 466.514 173.692C470.388 190.251 476.156 201.193 481.907 204.027C487.659 201.193 493.427 190.251 497.318 173.692C497.727 171.934 498.12 170.125 498.478 168.247C502.369 167.991 506.192 167.649 509.913 167.223C510.629 167.154 511.346 167.052 512.063 166.966H512.08Z" fill="white"/>
</g>
<g opacity="0.5">
<path d="M105.877 470.122C107.048 471.292 108.948 471.292 110.12 470.122L129.211 451.029C130.383 449.858 130.383 447.958 129.211 446.787C128.04 445.615 126.14 445.615 124.969 446.787L107.998 463.757L91.0276 446.787C89.856 445.615 87.9565 445.615 86.7849 446.787C85.6134 447.958 85.6134 449.858 86.7849 451.029L105.877 470.122ZM110.998 464.875C110.998 463.218 109.655 461.875 107.998 461.875C106.341 461.875 104.998 463.218 104.998 464.875H110.998ZM104.998 446.125C104.998 447.782 106.341 449.125 107.998 449.125C109.655 449.125 110.998 447.782 110.998 446.125H104.998ZM110.998 439.875C110.998 438.218 109.655 436.875 107.998 436.875C106.341 436.875 104.998 438.218 104.998 439.875H110.998ZM104.998 421.125C104.998 422.782 106.341 424.125 107.998 424.125C109.655 424.125 110.998 422.782 110.998 421.125H104.998ZM111.212 413.584C111.372 411.935 110.166 410.468 108.517 410.307C106.868 410.147 105.401 411.354 105.24 413.003L111.212 413.584ZM116.574 385.644C115.523 386.924 115.708 388.815 116.988 389.867C118.268 390.918 120.158 390.733 121.21 389.453L116.574 385.644ZM127.451 383.212C128.732 382.16 128.917 380.27 127.865 378.99C126.813 377.709 124.923 377.524 123.642 378.576L127.451 383.212ZM151.001 367.242C149.352 367.402 148.145 368.869 148.306 370.518C148.466 372.167 149.933 373.374 151.582 373.214L151.001 367.242ZM159.859 373C161.516 373 162.859 371.657 162.859 370C162.859 368.343 161.516 367 159.859 367V373ZM183.026 367C181.369 367 180.026 368.343 180.026 370C180.026 371.657 181.369 373 183.026 373V367ZM190.748 373C192.405 373 193.748 371.657 193.748 370C193.748 368.343 192.405 367 190.748 367V373ZM213.915 367C212.258 367 210.915 368.343 210.915 370C210.915 371.657 212.258 373 213.915 373V367ZM221.637 373C223.294 373 224.637 371.657 224.637 370C224.637 368.343 223.294 367 221.637 367V373ZM244.804 367C243.147 367 241.804 368.343 241.804 370C241.804 371.657 243.147 373 244.804 373V367ZM252.526 373C254.183 373 255.526 371.657 255.526 370C255.526 368.343 254.183 367 252.526 367V373ZM275.693 367C274.036 367 272.693 368.343 272.693 370C272.693 371.657 274.036 373 275.693 373V367ZM283.415 373C285.072 373 286.414 371.657 286.414 370C286.414 368.343 285.072 367 283.415 367V373ZM306.582 367C304.924 367 303.582 368.343 303.582 370C303.582 371.657 304.924 373 306.582 373V367ZM314.304 373C315.96 373 317.304 371.657 317.304 370C317.304 368.343 315.96 367 314.304 367V373ZM337.47 367C335.814 367 334.47 368.343 334.47 370C334.47 371.657 335.814 373 337.47 373V367ZM345.192 373C346.85 373 348.192 371.657 348.192 370C348.192 368.343 346.85 367 345.192 367V373ZM368.36 367C366.702 367 365.36 368.343 365.36 370C365.36 371.657 366.702 373 368.36 373V367ZM376.082 373C377.738 373 379.082 371.657 379.082 370C379.082 368.343 377.738 367 376.082 367V373ZM399.248 367C397.592 367 396.248 368.343 396.248 370C396.248 371.657 397.592 373 399.248 373V367ZM406.97 373C408.628 373 409.97 371.657 409.97 370C409.97 368.343 408.628 367 406.97 367V373ZM430.136 367C428.48 367 427.136 368.343 427.136 370C427.136 371.657 428.48 373 430.136 373V367ZM438.996 372.758C440.644 372.598 441.852 371.131 441.69 369.482C441.53 367.833 440.064 366.626 438.414 366.786L438.996 372.758ZM462.544 356.788C461.264 357.84 461.08 359.73 462.132 361.01C463.184 362.291 465.074 362.476 466.354 361.424L462.544 356.788ZM473.422 354.356C474.474 353.076 474.288 351.185 473.008 350.133C471.728 349.082 469.838 349.267 468.786 350.547L473.422 354.356ZM110.998 468V464.875H104.998V468H110.998ZM110.998 446.125V439.875H104.998V446.125H110.998ZM110.998 421.125V418H104.998V421.125H110.998ZM110.998 418C110.998 416.509 111.071 415.036 111.212 413.584L105.24 413.003C105.08 414.648 104.998 416.315 104.998 418H110.998ZM121.21 389.453C123.082 387.175 125.173 385.084 127.451 383.212L123.642 378.576C121.062 380.696 118.694 383.064 116.574 385.644L121.21 389.453ZM151.582 373.214C153.034 373.072 154.507 373 155.998 373V367C154.313 367 152.646 367.082 151.001 367.242L151.582 373.214ZM155.998 373H159.859V367H155.998V373ZM183.026 373H190.748V367H183.026V373ZM213.915 373H221.637V367H213.915V373ZM244.804 373H252.526V367H244.804V373ZM275.693 373H283.415V367H275.693V373ZM306.582 373H314.304V367H306.582V373ZM337.47 373H345.192V367H337.47V373ZM368.36 373H376.082V367H368.36V373ZM399.248 373H406.97V367H399.248V373ZM430.136 373H433.998V367H430.136V373ZM433.998 373C435.684 373 437.35 372.918 438.996 372.758L438.414 366.786C436.962 366.928 435.488 367 433.998 367V373ZM466.354 361.424C468.934 359.304 471.302 356.936 473.422 354.356L468.786 350.547C466.914 352.825 464.824 354.916 462.544 356.788L466.354 361.424Z" fill="#020617"/>
</g>
<g opacity="0.5">
<path d="M849.886 470.122C851.058 471.292 852.958 471.292 854.13 470.122L873.222 451.029C874.392 449.858 874.392 447.958 873.222 446.787C872.05 445.615 870.151 445.615 868.979 446.787L852.008 463.757L835.039 446.787C833.867 445.615 831.966 445.615 830.794 446.787C829.624 447.958 829.624 449.858 830.794 451.029L849.886 470.122ZM495.212 350.547C494.16 349.267 492.27 349.082 490.99 350.133C489.71 351.185 489.524 353.076 490.576 354.356L495.212 350.547ZM497.644 361.424C498.924 362.476 500.814 362.291 501.866 361.01C502.918 359.73 502.734 357.84 501.454 356.788L497.644 361.424ZM525.584 366.786C523.934 366.626 522.468 367.833 522.308 369.482C522.146 371.131 523.354 372.598 525.002 372.758L525.584 366.786ZM533.806 373C535.462 373 536.806 371.657 536.806 370C536.806 368.343 535.462 367 533.806 367V373ZM556.64 367C554.982 367 553.64 368.343 553.64 370C553.64 371.657 554.982 373 556.64 373V367ZM564.25 373C565.908 373 567.25 371.657 567.25 370C567.25 368.343 565.908 367 564.25 367V373ZM587.084 367C585.428 367 584.084 368.343 584.084 370C584.084 371.657 585.428 373 587.084 373V367ZM594.696 373C596.354 373 597.696 371.657 597.696 370C597.696 368.343 596.354 367 594.696 367V373ZM617.531 367C615.875 367 614.531 368.343 614.531 370C614.531 371.657 615.875 373 617.531 373V367ZM625.143 373C626.799 373 628.143 371.657 628.143 370C628.143 368.343 626.799 367 625.143 367V373ZM647.976 367C646.318 367 644.976 368.343 644.976 370C644.976 371.657 646.318 373 647.976 373V367ZM655.586 373C657.244 373 658.586 371.657 658.586 370C658.586 368.343 657.244 367 655.586 367V373ZM678.42 367C676.764 367 675.42 368.343 675.42 370C675.42 371.657 676.764 373 678.42 373V367ZM686.032 373C687.69 373 689.032 371.657 689.032 370C689.032 368.343 687.69 367 686.032 367V373ZM708.867 367C707.211 367 705.867 368.343 705.867 370C705.867 371.657 707.211 373 708.867 373V367ZM716.479 373C718.135 373 719.479 371.657 719.479 370C719.479 368.343 718.135 367 716.479 367V373ZM739.312 367C737.654 367 736.312 368.343 736.312 370C736.312 371.657 737.654 373 739.312 373V367ZM746.922 373C748.58 373 749.922 371.657 749.922 370C749.922 368.343 748.58 367 746.922 367V373ZM769.756 367C768.1 367 766.756 368.343 766.756 370C766.756 371.657 768.1 373 769.756 373V367ZM777.368 373C779.026 373 780.368 371.657 780.368 370C780.368 368.343 779.026 367 777.368 367V373ZM800.203 367C798.547 367 797.203 368.343 797.203 370C797.203 371.657 798.547 373 800.203 373V367ZM808.424 373.214C810.072 373.374 811.541 372.167 811.701 370.518C811.861 368.869 810.654 367.402 809.006 367.242L808.424 373.214ZM836.365 378.576C835.085 377.524 833.195 377.709 832.143 378.99C831.091 380.27 831.275 382.16 832.555 383.212L836.365 378.576ZM838.797 389.453C839.849 390.733 841.738 390.918 843.018 389.867C844.298 388.815 844.484 386.924 843.432 385.644L838.797 389.453ZM854.766 413.003C854.606 411.354 853.138 410.147 851.49 410.307C849.84 410.468 848.634 411.935 848.794 413.584L854.766 413.003ZM849.008 421.125C849.008 422.782 850.35 424.125 852.008 424.125C853.664 424.125 855.008 422.782 855.008 421.125H849.008ZM855.008 439.875C855.008 438.218 853.664 436.875 852.008 436.875C850.35 436.875 849.008 438.218 849.008 439.875H855.008ZM849.008 446.125C849.008 447.782 850.35 449.125 852.008 449.125C853.664 449.125 855.008 447.782 855.008 446.125H849.008ZM855.008 464.875C855.008 463.218 853.664 461.875 852.008 461.875C850.35 461.875 849.008 463.218 849.008 464.875H855.008ZM490.576 354.356C492.696 356.936 495.064 359.304 497.644 361.424L501.454 356.788C499.174 354.916 497.084 352.825 495.212 350.547L490.576 354.356ZM525.002 372.758C526.648 372.918 528.314 373 530 373V367C528.51 367 527.036 366.928 525.584 366.786L525.002 372.758ZM530 373H533.806V367H530V373ZM556.64 373H564.25V367H556.64V373ZM587.084 373H594.696V367H587.084V373ZM617.531 373H625.143V367H617.531V373ZM647.976 373H655.586V367H647.976V373ZM678.42 373H686.032V367H678.42V373ZM708.867 373H716.479V367H708.867V373ZM739.312 373H746.922V367H739.312V373ZM769.756 373H777.368V367H769.756V373ZM800.203 373H804.008V367H800.203V373ZM804.008 373C805.498 373 806.972 373.072 808.424 373.214L809.006 367.242C807.36 367.082 805.694 367 804.008 367V373ZM832.555 383.212C834.833 385.084 836.925 387.175 838.797 389.453L843.432 385.644C841.312 383.064 838.945 380.696 836.365 378.576L832.555 383.212ZM848.794 413.584C848.936 415.036 849.008 416.509 849.008 418H855.008C855.008 416.315 854.926 414.648 854.766 413.003L848.794 413.584ZM849.008 418V421.125H855.008V418H849.008ZM849.008 439.875V446.125H855.008V439.875H849.008ZM849.008 464.875V468H855.008V464.875H849.008Z" fill="#020617"/>
</g>
<g opacity="0.5">
<path d="M485.002 272C485.002 270.343 483.658 269 482.002 269C480.346 269 479.002 270.343 479.002 272H485.002ZM479.88 470.122C481.052 471.292 482.952 471.292 484.124 470.122L503.216 451.029C504.386 449.858 504.386 447.958 503.216 446.787C502.044 445.615 500.144 445.615 498.972 446.787L482.002 463.757L465.032 446.787C463.86 445.615 461.96 445.615 460.788 446.787C459.618 447.958 459.618 449.858 460.788 451.029L479.88 470.122ZM479.002 276.083C479.002 277.74 480.346 279.083 482.002 279.083C483.658 279.083 485.002 277.74 485.002 276.083H479.002ZM485.002 300.583C485.002 298.926 483.658 297.583 482.002 297.583C480.346 297.583 479.002 298.926 479.002 300.583H485.002ZM479.002 308.75C479.002 310.407 480.346 311.75 482.002 311.75C483.658 311.75 485.002 310.407 485.002 308.75H479.002ZM485.002 333.25C485.002 331.593 483.658 330.25 482.002 330.25C480.346 330.25 479.002 331.593 479.002 333.25H485.002ZM479.002 341.417C479.002 343.074 480.346 344.417 482.002 344.417C483.658 344.417 485.002 343.074 485.002 341.417H479.002ZM485.002 365.917C485.002 364.26 483.658 362.917 482.002 362.917C480.346 362.917 479.002 364.26 479.002 365.917H485.002ZM479.002 374.083C479.002 375.74 480.346 377.083 482.002 377.083C483.658 377.083 485.002 375.74 485.002 374.083H479.002ZM485.002 398.583C485.002 396.926 483.658 395.583 482.002 395.583C480.346 395.583 479.002 396.926 479.002 398.583H485.002ZM479.002 406.75C479.002 408.407 480.346 409.75 482.002 409.75C483.658 409.75 485.002 408.407 485.002 406.75H479.002ZM485.002 431.25C485.002 429.593 483.658 428.25 482.002 428.25C480.346 428.25 479.002 429.593 479.002 431.25H485.002ZM479.002 439.417C479.002 441.074 480.346 442.417 482.002 442.417C483.658 442.417 485.002 441.074 485.002 439.417H479.002ZM485.002 463.917C485.002 462.26 483.658 460.917 482.002 460.917C480.346 460.917 479.002 462.26 479.002 463.917H485.002ZM479.002 272V276.083H485.002V272H479.002ZM479.002 300.583V308.75H485.002V300.583H479.002ZM479.002 333.25V341.417H485.002V333.25H479.002ZM479.002 365.917V374.083H485.002V365.917H479.002ZM479.002 398.583V406.75H485.002V398.583H479.002ZM479.002 431.25V439.417H485.002V431.25H479.002ZM479.002 463.917V468H485.002V463.917H479.002Z" fill="#020617"/>
</g>
<defs>
<filter id="filter0_dd_7364_72069" x="322.395" y="0" width="319.21" height="319.21" filterUnits="userSpaceOnUse" color-interpolation-filters="sRGB">
<feFlood flood-opacity="0" result="BackgroundImageFix"/>
<feColorMatrix in="SourceAlpha" type="matrix" values="0 0 0 0 0 0 0 0 0 0 0 0 0 0 0 0 0 0 127 0" result="hardAlpha"/>
<feMorphology radius="7.90123" operator="erode" in="SourceAlpha" result="effect1_dropShadow_7364_72069"/>
<feOffset dy="31.6049"/>
<feGaussianBlur stdDeviation="19.7531"/>
<feColorMatrix type="matrix" values="0 0 0 0 0 0 0 0 0 0 0 0 0 0 0 0 0 0 0.1 0"/>
<feBlend mode="normal" in2="BackgroundImageFix" result="effect1_dropShadow_7364_72069"/>
<feColorMatrix in="SourceAlpha" type="matrix" values="0 0 0 0 0 0 0 0 0 0 0 0 0 0 0 0 0 0 127 0" result="hardAlpha"/>
<feMorphology radius="9.48148" operator="erode" in="SourceAlpha" result="effect2_dropShadow_7364_72069"/>
<feOffset dy="12.642"/>
<feGaussianBlur stdDeviation="7.90123"/>
<feColorMatrix type="matrix" values="0 0 0 0 0 0 0 0 0 0 0 0 0 0 0 0 0 0 0.1 0"/>
<feBlend mode="normal" in2="effect1_dropShadow_7364_72069" result="effect2_dropShadow_7364_72069"/>
<feBlend mode="normal" in="SourceGraphic" in2="effect2_dropShadow_7364_72069" result="shape"/>
</filter>
</defs>
</svg>
