<svg width="961" height="712" fill="none" xmlns="http://www.w3.org/2000/svg"><rect x="2.25" y="498.25" width="211.504" height="211.504" rx="105.752" fill="#fff"/><rect x="2.25" y="498.25" width="211.504" height="211.504" rx="105.752" stroke="#E4E4E7" stroke-width="4.5"/><path d="M134.669 614.669h.053m-53.387-37.334h64a10.67 10.67 0 0 1 7.543 3.124 10.67 10.67 0 0 1 3.124 7.543v53.333a10.67 10.67 0 0 1-3.124 7.543 10.67 10.67 0 0 1-7.543 3.124H70.669a10.668 10.668 0 0 1-10.667-10.667v-74.666a10.67 10.67 0 0 1 10.667-10.667h74.666" stroke="#18181B" stroke-width="8.533" stroke-linecap="round" stroke-linejoin="round"/><rect x="374.254" y="498.25" width="211.504" height="211.504" rx="105.752" fill="#fff"/><rect x="374.254" y="498.25" width="211.504" height="211.504" rx="105.752" stroke="#E4E4E7" stroke-width="4.5"/><path d="M506.673 614.669h.053m-53.387-37.334h64a10.67 10.67 0 0 1 7.543 3.124 10.67 10.67 0 0 1 3.124 7.543v53.333a10.67 10.67 0 0 1-3.124 7.543 10.67 10.67 0 0 1-7.543 3.124h-74.666a10.669 10.669 0 0 1-10.667-10.667v-74.666a10.669 10.669 0 0 1 10.667-10.667h74.666" stroke="#18181B" stroke-width="8.533" stroke-linecap="round" stroke-linejoin="round"/><rect x="746.258" y="498.25" width="211.504" height="211.504" rx="105.752" fill="#fff"/><rect x="746.258" y="498.25" width="211.504" height="211.504" rx="105.752" stroke="#E4E4E7" stroke-width="4.5"/><path d="M878.676 614.669h.054m-53.387-37.334h64a10.67 10.67 0 0 1 7.543 3.124 10.67 10.67 0 0 1 3.124 7.543v53.333a10.67 10.67 0 0 1-3.124 7.543 10.67 10.67 0 0 1-7.543 3.124h-74.667a10.666 10.666 0 0 1-10.666-10.667v-74.666a10.666 10.666 0 0 1 10.666-10.667h74.667" stroke="#18181B" stroke-width="8.533" stroke-linecap="round" stroke-linejoin="round"/><g filter="url(#a)"><rect x="354" width="256" height="256" rx="128" fill="#18181B"/><rect x="356.667" y="2.667" width="250.666" height="250.666" rx="125.333" stroke="#E4E4E7" stroke-width="5.334"/><path d="M521.759 118.884a39.554 39.554 0 0 0-2.765-8.074 40.813 40.813 0 0 0-11.81-14.92 40.757 40.757 0 0 0-8.038-4.933 40.551 40.551 0 0 0-8.072-2.766 39.943 39.943 0 0 0-9.096-1.024c-3.123 0-6.178.341-9.096 1.024-.427 2.1-.836 4.302-1.195 6.606-.665 4.097-1.211 8.519-1.638 13.281a231.05 231.05 0 0 0-.512 7.46 239.709 239.709 0 0 0 0 24.924c3.942.204 8.089.324 12.458.324s8.499-.12 12.458-.324c2.56-.137 5.052-.308 7.441-.513 4.779-.426 9.199-.973 13.294-1.638 2.304-.376 4.506-.769 6.605-1.195a40.996 40.996 0 0 0 1.024-9.099c0-3.124-.341-6.18-1.024-9.099l-.034-.034Zm-11.827-3.09c-1.041.154-2.048.41-3.038.752a17.276 17.276 0 0 0-4.898 2.663c-3.703 2.816-6.365 7.05-7.133 11.608 0 .085-.085.119-.137.102a.11.11 0 0 1-.102-.102c-1.212-7.768-7.492-13.828-15.069-15.04-.137-.017-.137-.222 0-.239a15.438 15.438 0 0 0 1.553-.324c4.266-1.075 7.97-3.721 10.444-7.238a17.923 17.923 0 0 0 1.997-3.636 17.054 17.054 0 0 0 1.092-3.909c.017-.137.222-.137.239 0 .461 2.936 1.655 5.616 3.345 7.904a18.158 18.158 0 0 0 3.379 3.482 18.407 18.407 0 0 0 8.328 3.738c.137.018.137.222 0 .239Z" fill="#fff"/><path d="M567.278 125.05v5.855c0 8.706-9.37 16.627-26.367 22.295-5.99 1.997-12.731 3.653-19.984 4.95-.529.103-1.058.188-1.587.29-1.98.325-3.977.632-6.042.905-2.014.273-4.062.512-6.126.734-2.424.256-4.864.478-7.356.666-2.491.171-5 .324-7.56.427a257.146 257.146 0 0 1-20.582 0c-2.559-.12-5.068-.256-7.56-.427-2.491-.188-4.932-.393-7.338-.666a216.136 216.136 0 0 1-6.127-.734 193.11 193.11 0 0 1-6.024-.905 42.71 42.71 0 0 1-1.604-.29c-7.253-1.28-13.994-2.936-19.984-4.95-16.998-5.668-26.367-13.589-26.367-22.295v-5.855c0-8.706 9.369-16.627 26.367-22.294 5.99-1.997 12.731-3.653 19.984-4.95-.085.716-.171 1.416-.256 2.15a201.726 201.726 0 0 0-1.024 11.438c-1.877.375-3.686.751-5.444 1.177-16.554 3.893-27.493 9.662-30.326 15.415 2.833 5.753 13.772 11.523 30.326 15.398 1.758.41 3.567.802 5.444 1.178 1.058.205 2.133.41 3.242.597 1.4.239 2.816.478 4.267.683 4.215.632 8.669 1.161 13.345 1.537 2.441.204 4.932.375 7.475.495a246.957 246.957 0 0 0 23.893 0 203.02 203.02 0 0 0 7.457-.495c4.676-.393 9.131-.905 13.346-1.537 1.45-.222 2.884-.444 4.266-.683 1.093-.187 2.168-.392 3.243-.597 1.877-.359 3.686-.751 5.444-1.161 16.554-3.892 27.493-9.662 30.326-15.415-2.833-5.753-13.772-11.522-30.326-15.397a47.69 47.69 0 0 0-6.468-12.616 43.42 43.42 0 0 0-1.86-2.424c.529.086 1.075.188 1.604.29 7.253 1.28 13.994 2.937 19.984 4.951 16.998 5.667 26.367 13.588 26.367 22.294l-.068-.034Z" fill="#fff"/><path d="M512.38 90.604a47.909 47.909 0 0 0-15.035-8.33c-3.874-16.56-9.642-27.502-15.393-30.335-5.752 2.833-11.52 13.776-15.394 30.334a137.8 137.8 0 0 0-1.177 5.446c-.205 1.058-.41 2.15-.598 3.243-.239 1.4-.477 2.817-.682 4.268a195.387 195.387 0 0 0-1.536 13.349 198.722 198.722 0 0 0-.495 7.46 245.819 245.819 0 0 0 0 23.899c-4.779-.427-9.199-.973-13.277-1.639a255.425 255.425 0 0 1-.205-10.293c0-3.466.068-6.914.205-10.294.119-2.561.256-5.07.443-7.562.171-2.493.393-4.951.649-7.341.222-2.082.461-4.13.734-6.145.273-2.049.58-4.063.904-6.026.086-.53.188-1.076.29-1.605 1.28-7.255 2.936-13.998 4.949-19.99 5.666-17.002 13.585-26.374 22.288-26.374h5.854c8.704 0 16.622 9.372 22.288 26.374 1.997 5.992 3.652 12.735 4.949 19.99.103.53.188 1.076.29 1.605l-.051-.034ZM512.08 166.966c-1.28 7.256-2.935 13.998-4.949 19.99-5.666 17.003-13.585 26.374-22.288 26.374h-5.854c-8.703 0-16.622-9.371-22.288-26.374-1.997-5.992-3.652-12.734-4.949-19.99.717.086 1.416.171 2.15.257 3.738.443 7.543.785 11.434 1.024.376 1.878.751 3.687 1.178 5.445 3.874 16.559 9.642 27.501 15.393 30.335 5.752-2.834 11.52-13.776 15.411-30.335.409-1.758.802-3.567 1.16-5.445 3.891-.256 7.714-.598 11.435-1.024.716-.069 1.433-.171 2.15-.257h.017Z" fill="#fff"/></g><path d="M105.877 470.122a3.003 3.003 0 0 0 4.243 0l19.091-19.093a2.998 2.998 0 0 0 0-4.242 2.998 2.998 0 0 0-4.242 0l-16.971 16.97-16.97-16.97a3 3 0 1 0-4.243 4.242l19.092 19.093Zm5.121-5.247a3 3 0 1 0-6 0h6Zm-6-18.75a3 3 0 1 0 6 0h-6Zm6-6.25a3 3 0 1 0-6 0h6Zm-6-18.75a3 3 0 1 0 6 0h-6Zm6.214-7.541a3.001 3.001 0 0 0-5.972-.581l5.972.581Zm5.362-27.94a3 3 0 0 0 4.636 3.809l-4.636-3.809Zm10.877-2.432a3 3 0 1 0-3.809-4.636l3.809 4.636Zm23.55-15.97a3 3 0 0 0 .581 5.972l-.581-5.972Zm8.858 5.758a3 3 0 1 0 0-6v6Zm23.167-6a3 3 0 1 0 0 6v-6Zm7.722 6a3 3 0 1 0 0-6v6Zm23.167-6a3 3 0 1 0 0 6v-6Zm7.722 6a3 3 0 1 0 0-6v6Zm23.167-6a3 3 0 1 0 0 6v-6Zm7.722 6a3 3 0 1 0 0-6v6Zm23.167-6a3 3 0 1 0 0 6v-6Zm7.722 6a2.999 2.999 0 0 0 2.999-3c0-1.657-1.342-3-2.999-3v6Zm23.167-6a3 3 0 1 0 0 6v-6Zm7.722 6a3 3 0 0 0 0-6v6Zm23.166-6a3 3 0 0 0 0 6v-6Zm7.722 6a3 3 0 1 0 0-6v6Zm23.168-6a3 3 0 1 0 0 6v-6Zm7.722 6a3 3 0 0 0 0-6v6Zm23.166-6a3 3 0 0 0 0 6v-6Zm7.722 6a3 3 0 1 0 0-6v6Zm23.166-6a3 3 0 0 0 0 6v-6Zm8.86 5.758a3 3 0 0 0-.582-5.972l.582 5.972Zm23.548-15.97a3 3 0 0 0-.412 4.222 2.999 2.999 0 0 0 4.222.414l-3.81-4.636Zm10.878-2.432a3 3 0 0 0-4.636-3.809l4.636 3.809ZM110.998 468v-3.125h-6V468h6Zm0-21.875v-6.25h-6v6.25h6Zm0-25V418h-6v3.125h6Zm0-3.125c0-1.491.073-2.964.214-4.416l-5.972-.581a51.609 51.609 0 0 0-.242 4.997h6Zm10.212-28.547a45.332 45.332 0 0 1 6.241-6.241l-3.809-4.636a51.317 51.317 0 0 0-7.068 7.068l4.636 3.809Zm30.372-16.239a45.36 45.36 0 0 1 4.416-.214v-6c-1.685 0-3.352.082-4.997.242l.581 5.972Zm4.416-.214h3.861v-6h-3.861v6Zm27.028 0h7.722v-6h-7.722v6Zm30.889 0h7.722v-6h-7.722v6Zm30.889 0h7.722v-6h-7.722v6Zm30.889 0h7.722v-6h-7.722v6Zm30.889 0h7.722v-6h-7.722v6Zm30.888 0h7.722v-6h-7.722v6Zm30.89 0h7.722v-6h-7.722v6Zm30.888 0h7.722v-6h-7.722v6Zm30.888 0h3.862v-6h-3.862v6Zm3.862 0a51.63 51.63 0 0 0 4.998-.242l-.582-5.972a45.376 45.376 0 0 1-4.416.214v6Zm32.356-11.576a51.317 51.317 0 0 0 7.068-7.068l-4.636-3.809a45.229 45.229 0 0 1-6.242 6.241l3.81 4.636ZM849.886 470.122a3.004 3.004 0 0 0 4.244 0l19.092-19.093a3 3 0 1 0-4.243-4.242l-16.971 16.97-16.969-16.97a3.002 3.002 0 0 0-4.245 0 3.002 3.002 0 0 0 0 4.242l19.092 19.093ZM495.212 350.547a3 3 0 0 0-4.636 3.809l4.636-3.809Zm2.432 10.877a2.999 2.999 0 0 0 4.222-.414 3 3 0 0 0-.412-4.222l-3.81 4.636Zm27.94 5.362a3 3 0 0 0-.582 5.972l.582-5.972Zm8.222 6.214a3 3 0 0 0 0-6v6Zm22.834-6a3 3 0 1 0 0 6v-6Zm7.61 6a3 3 0 1 0 0-6v6Zm22.834-6a3 3 0 0 0 0 6v-6Zm7.612 6a3 3 0 1 0 0-6v6Zm22.835-6a3 3 0 0 0 0 6v-6Zm7.612 6a3 3 0 0 0 0-6v6Zm22.833-6a3 3 0 1 0 0 6v-6Zm7.61 6a3 3 0 1 0 0-6v6Zm22.834-6a3 3 0 0 0 0 6v-6Zm7.612 6a3 3 0 1 0 0-6v6Zm22.835-6a3 3 0 0 0 0 6v-6Zm7.612 6a3 3 0 0 0 0-6v6Zm22.833-6a3 3 0 1 0 0 6v-6Zm7.61 6a3 3 0 1 0 0-6v6Zm22.834-6a3 3 0 0 0 0 6v-6Zm7.612 6a3 3 0 1 0 0-6v6Zm22.835-6a3 3 0 0 0 0 6v-6Zm8.221 6.214a3 3 0 0 0 .582-5.972l-.582 5.972Zm27.941 5.362a2.999 2.999 0 0 0-4.222.414 3 3 0 0 0 .412 4.222l3.81-4.636Zm2.432 10.877a3 3 0 1 0 4.635-3.809l-4.635 3.809Zm15.969 23.55a3 3 0 0 0-5.972.581l5.972-.581Zm-5.758 8.122a3 3 0 1 0 6 0h-6Zm6 18.75a3 3 0 0 0-6 0h6Zm-6 6.25a3 3 0 1 0 6 0h-6Zm6 18.75a3 3 0 0 0-6 0h6ZM490.576 354.356a51.317 51.317 0 0 0 7.068 7.068l3.81-4.636a45.229 45.229 0 0 1-6.242-6.241l-4.636 3.809Zm34.426 18.402A51.63 51.63 0 0 0 530 373v-6c-1.49 0-2.964-.072-4.416-.214l-.582 5.972ZM530 373h3.806v-6H530v6Zm26.64 0h7.61v-6h-7.61v6Zm30.444 0h7.612v-6h-7.612v6Zm30.447 0h7.612v-6h-7.612v6Zm30.445 0h7.61v-6h-7.61v6Zm30.444 0h7.612v-6h-7.612v6Zm30.447 0h7.612v-6h-7.612v6Zm30.445 0h7.61v-6h-7.61v6Zm30.444 0h7.612v-6h-7.612v6Zm30.447 0h3.805v-6h-3.805v6Zm3.805 0c1.49 0 2.964.072 4.416.214l.582-5.972a51.63 51.63 0 0 0-4.998-.242v6Zm28.547 10.212a45.34 45.34 0 0 1 6.242 6.241l4.635-3.809a51.31 51.31 0 0 0-7.067-7.068l-3.81 4.636Zm16.239 30.372a45.36 45.36 0 0 1 .214 4.416h6c0-1.685-.082-3.352-.242-4.997l-5.972.581Zm.214 4.416v3.125h6V418h-6Zm0 21.875v6.25h6v-6.25h-6Zm0 25V468h6v-3.125h-6ZM485.002 272a3 3 0 0 0-6 0h6Zm-5.122 198.122a3.004 3.004 0 0 0 4.244 0l19.092-19.093a3 3 0 0 0-4.244-4.242l-16.97 16.97-16.97-16.97a3 3 0 0 0-4.244 4.242l19.092 19.093Zm-.878-194.039a3 3 0 0 0 6 0h-6Zm6 24.5a3 3 0 0 0-6 0h6Zm-6 8.167a3 3 0 0 0 6 0h-6Zm6 24.5a3 3 0 0 0-6 0h6Zm-6 8.167a3 3 0 0 0 6 0h-6Zm6 24.5a3 3 0 0 0-6 0h6Zm-6 8.166a3 3 0 0 0 6 0h-6Zm6 24.5a3 3 0 0 0-6 0h6Zm-6 8.167a3 3 0 0 0 6 0h-6Zm6 24.5a3 3 0 0 0-6 0h6Zm-6 8.167a3 3 0 0 0 6 0h-6Zm6 24.5a3 3 0 0 0-6 0h6Zm-6-191.917v4.083h6V272h-6Zm0 28.583v8.167h6v-8.167h-6Zm0 32.667v8.167h6v-8.167h-6Zm0 32.667v8.166h6v-8.166h-6Zm0 32.666v8.167h6v-8.167h-6Zm0 32.667v8.167h6v-8.167h-6Zm0 32.667V468h6v-4.083h-6Z" fill="#020617" opacity=".5"/><defs><filter id="a" x="322.395" y="0" width="319.21" height="319.21" filterUnits="userSpaceOnUse" color-interpolation-filters="sRGB"><feFlood flood-opacity="0" result="BackgroundImageFix"/><feColorMatrix in="SourceAlpha" values="0 0 0 0 0 0 0 0 0 0 0 0 0 0 0 0 0 0 127 0" result="hardAlpha"/><feMorphology radius="7.901" in="SourceAlpha" result="effect1_dropShadow_7364_72069"/><feOffset dy="31.605"/><feGaussianBlur stdDeviation="19.753"/><feColorMatrix values="0 0 0 0 0 0 0 0 0 0 0 0 0 0 0 0 0 0 0.1 0"/><feBlend in2="BackgroundImageFix" result="effect1_dropShadow_7364_72069"/><feColorMatrix in="SourceAlpha" values="0 0 0 0 0 0 0 0 0 0 0 0 0 0 0 0 0 0 127 0" result="hardAlpha"/><feMorphology radius="9.481" in="SourceAlpha" result="effect2_dropShadow_7364_72069"/><feOffset dy="12.642"/><feGaussianBlur stdDeviation="7.901"/><feColorMatrix values="0 0 0 0 0 0 0 0 0 0 0 0 0 0 0 0 0 0 0.1 0"/><feBlend in2="effect1_dropShadow_7364_72069" result="effect2_dropShadow_7364_72069"/><feBlend in="SourceGraphic" in2="effect2_dropShadow_7364_72069" result="shape"/></filter></defs></svg>