<svg width="256" height="190" viewBox="0 0 256 190" fill="none" xmlns="http://www.w3.org/2000/svg">
<rect x="0.600025" y="132.865" width="56.4003" height="56.4003" rx="28.2001" fill="white"/>
<rect x="0.600025" y="132.865" width="56.4003" height="56.4003" rx="28.2001" stroke="#E4E4E7" stroke-width="1.20005"/>
<path d="M35.9109 163.909H35.9251M21.6888 153.954H38.7553C39.5097 153.954 40.2331 154.254 40.7666 154.787C41.3 155.32 41.5997 156.044 41.5997 156.798V171.02C41.5997 171.775 41.3 172.498 40.7666 173.032C40.2331 173.565 39.5097 173.865 38.7553 173.865H18.8444C18.09 173.865 17.3665 173.565 16.8331 173.032C16.2997 172.498 16 171.775 16 171.02V151.11C16 150.355 16.2997 149.632 16.8331 149.098C17.3665 148.565 18.09 148.265 18.8444 148.265H38.7553" stroke="#18181B" stroke-width="2.27553" stroke-linecap="round" stroke-linejoin="round"/>
<rect x="99.8002" y="132.865" width="56.4003" height="56.4003" rx="28.2001" fill="white"/>
<rect x="99.8002" y="132.865" width="56.4003" height="56.4003" rx="28.2001" stroke="#E4E4E7" stroke-width="1.20005"/>
<path d="M135.111 163.909H135.125M120.889 153.954H137.955C138.71 153.954 139.433 154.254 139.967 154.787C140.5 155.32 140.8 156.044 140.8 156.798V171.02C140.8 171.775 140.5 172.498 139.967 173.032C139.433 173.565 138.71 173.865 137.955 173.865H118.045C117.29 173.865 116.567 173.565 116.033 173.032C115.5 172.498 115.2 171.775 115.2 171.02V151.11C115.2 150.355 115.5 149.632 116.033 149.098C116.567 148.565 117.29 148.265 118.045 148.265H137.955" stroke="#18181B" stroke-width="2.27553" stroke-linecap="round" stroke-linejoin="round"/>
<rect x="198.999" y="132.865" width="56.4003" height="56.4003" rx="28.2001" fill="white"/>
<rect x="198.999" y="132.865" width="56.4003" height="56.4003" rx="28.2001" stroke="#E4E4E7" stroke-width="1.20005"/>
<path d="M234.31 163.909H234.325M220.088 153.954H237.155C237.909 153.954 238.633 154.254 239.166 154.787C239.699 155.32 239.999 156.044 239.999 156.798V171.02C239.999 171.775 239.699 172.498 239.166 173.032C238.633 173.565 237.909 173.865 237.155 173.865H217.244C216.489 173.865 215.766 173.565 215.233 173.032C214.699 172.498 214.399 171.775 214.399 171.02V151.11C214.399 150.355 214.699 149.632 215.233 149.098C215.766 148.565 216.489 148.265 217.244 148.265H237.155" stroke="#18181B" stroke-width="2.27553" stroke-linecap="round" stroke-linejoin="round"/>
<g filter="url(#filter0_dd_7629_10579)">
<rect x="94.3984" width="68.2658" height="68.2658" rx="34.1329" fill="#18181B"/>
<rect x="95.1096" y="0.711144" width="66.8435" height="66.8435" rx="33.4218" stroke="#E4E4E7" stroke-width="1.42229"/>
<path d="M139.132 31.7026C138.964 30.9515 138.713 30.2322 138.395 29.5494C138.04 28.7846 137.599 28.0654 137.08 27.4053C136.543 26.7225 135.928 26.108 135.246 25.5708C134.586 25.0519 133.867 24.6103 133.102 24.2553C132.42 23.9366 131.701 23.6908 130.95 23.5178C130.172 23.3357 129.357 23.2447 128.524 23.2447C127.691 23.2447 126.877 23.3357 126.099 23.5178C125.985 24.0777 125.876 24.665 125.78 25.2795C125.603 26.372 125.457 27.551 125.343 28.8211C125.288 29.4584 125.243 30.123 125.207 30.8103C125.152 31.8619 125.12 32.9681 125.12 34.1334C125.12 35.2987 125.152 36.4004 125.207 37.4565C126.258 37.5111 127.364 37.5429 128.529 37.5429C129.694 37.5429 130.795 37.5111 131.851 37.4565C132.533 37.42 133.198 37.3745 133.835 37.3199C135.109 37.2061 136.288 37.0604 137.38 36.8829C137.994 36.7827 138.582 36.678 139.141 36.5642C139.319 35.7858 139.414 34.971 139.414 34.1379C139.414 33.3049 139.323 32.4901 139.141 31.7117L139.132 31.7026ZM135.978 30.8786C135.701 30.9196 135.432 30.9879 135.168 31.0789C134.695 31.2428 134.258 31.4841 133.862 31.789C132.875 32.5402 132.165 33.6691 131.96 34.8845C131.96 34.9073 131.937 34.9164 131.924 34.9118C131.91 34.9118 131.896 34.8982 131.896 34.8845C131.573 32.8133 129.899 31.1973 127.878 30.8741C127.842 30.8695 127.842 30.8149 127.878 30.8103C128.019 30.7876 128.156 30.7603 128.292 30.7239C129.43 30.4371 130.417 29.7315 131.077 28.7937C131.291 28.4933 131.469 28.1701 131.61 27.8241C131.746 27.4918 131.846 27.1413 131.901 26.7817C131.905 26.7453 131.96 26.7453 131.965 26.7817C132.087 27.5647 132.406 28.2794 132.857 28.8893C133.116 29.2399 133.416 29.5494 133.758 29.818C134.395 30.3233 135.155 30.6738 135.978 30.8149C136.015 30.8194 136.015 30.8741 135.978 30.8786Z" fill="white"/>
<path d="M151.271 33.3465V34.9079C151.271 37.2295 148.773 39.3417 144.24 40.853C142.643 41.3856 140.845 41.8271 138.911 42.1731C138.77 42.2004 138.629 42.2232 138.488 42.2505C137.96 42.337 137.428 42.4189 136.877 42.4917C136.34 42.5646 135.794 42.6283 135.243 42.6875C134.597 42.7558 133.946 42.8149 133.282 42.865C132.617 42.9105 131.948 42.9515 131.266 42.9788C130.36 43.0152 129.445 43.0334 128.521 43.0334C127.598 43.0334 126.678 43.0152 125.777 42.9788C125.095 42.9469 124.426 42.9105 123.761 42.865C123.097 42.8149 122.446 42.7603 121.804 42.6875C121.249 42.6283 120.708 42.5646 120.171 42.4917C119.625 42.4189 119.088 42.337 118.564 42.2505C118.419 42.2277 118.278 42.2004 118.136 42.1731C116.202 41.8317 114.405 41.3901 112.807 40.853C108.275 39.3417 105.776 37.2295 105.776 34.9079V33.3465C105.776 31.0249 108.275 28.9127 112.807 27.4014C114.405 26.8688 116.202 26.4273 118.136 26.0813C118.114 26.2725 118.091 26.4591 118.068 26.6549C117.95 27.6518 117.859 28.6669 117.795 29.7048C117.295 29.8049 116.812 29.9051 116.343 30.0189C111.929 31.0568 109.012 32.5954 108.257 34.1295C109.012 35.6635 111.929 37.2022 116.343 38.2355C116.812 38.3447 117.295 38.4494 117.795 38.5496C118.077 38.6042 118.364 38.6588 118.66 38.7089C119.033 38.7726 119.411 38.8364 119.798 38.891C120.922 39.0594 122.109 39.2005 123.356 39.3007C124.007 39.3553 124.671 39.4008 125.35 39.4327C126.378 39.4828 127.443 39.5101 128.535 39.5101C129.627 39.5101 130.688 39.4828 131.721 39.4327C132.399 39.4008 133.063 39.3553 133.709 39.3007C134.956 39.196 136.144 39.0594 137.268 38.891C137.655 38.8318 138.037 38.7726 138.406 38.7089C138.697 38.6588 138.984 38.6042 139.271 38.5496C139.771 38.454 140.254 38.3493 140.722 38.24C145.137 37.2022 148.054 35.6635 148.809 34.1295C148.054 32.5954 145.137 31.0568 140.722 30.0234C140.313 28.808 139.73 27.6791 138.998 26.6594C138.838 26.4364 138.674 26.2224 138.502 26.013C138.643 26.0358 138.788 26.0631 138.929 26.0904C140.863 26.4318 142.661 26.8734 144.258 27.4105C148.791 28.9218 151.289 31.034 151.289 33.3556L151.271 33.3465Z" fill="white"/>
<path d="M136.631 24.1607C136.422 23.9877 136.208 23.8238 135.985 23.6645C134.966 22.9316 133.832 22.3489 132.622 21.9392C131.589 17.5237 130.051 14.6058 128.517 13.8501C126.983 14.6058 125.445 17.5237 124.412 21.9392C124.298 22.4081 124.198 22.8906 124.098 23.3914C124.044 23.6736 123.989 23.9649 123.939 24.2563C123.875 24.6295 123.811 25.0074 123.757 25.3943C123.588 26.5187 123.447 27.7068 123.347 28.9541C123.293 29.6005 123.247 30.2651 123.215 30.9434C123.165 31.9721 123.138 33.0373 123.138 34.1298C123.138 35.2224 123.165 36.283 123.215 37.3163C121.941 37.2025 120.762 37.0569 119.675 36.8793C119.638 35.9735 119.62 35.0585 119.62 34.1344C119.62 33.2103 119.638 32.2908 119.675 31.3895C119.707 30.7066 119.743 30.0375 119.793 29.3729C119.839 28.7083 119.898 28.0527 119.966 27.4155C120.025 26.8601 120.089 26.3138 120.162 25.7767C120.234 25.2304 120.316 24.6933 120.403 24.1698C120.426 24.0287 120.453 23.883 120.48 23.7419C120.822 21.8072 121.263 20.0091 121.8 18.4113C123.311 13.8774 125.422 11.3783 127.743 11.3783H129.304C131.625 11.3783 133.737 13.8774 135.248 18.4113C135.78 20.0091 136.222 21.8072 136.567 23.7419C136.595 23.883 136.618 24.0287 136.645 24.1698L136.631 24.1607Z" fill="white"/>
<path d="M136.552 44.5237C136.211 46.4584 135.769 48.2565 135.232 49.8543C133.721 54.3882 131.61 56.8873 129.289 56.8873H127.728C125.407 56.8873 123.295 54.3882 121.785 49.8543C121.252 48.2565 120.811 46.4584 120.465 44.5237C120.656 44.5465 120.843 44.5693 121.038 44.592C122.035 44.7104 123.05 44.8014 124.087 44.8651C124.187 45.3659 124.288 45.8484 124.401 46.3173C125.434 50.7328 126.973 53.6508 128.506 54.4064C130.04 53.6508 131.578 50.7328 132.616 46.3173C132.725 45.8484 132.829 45.3659 132.925 44.8651C133.963 44.7969 134.982 44.7058 135.974 44.592C136.165 44.5738 136.356 44.5465 136.548 44.5237H136.552Z" fill="white"/>
</g>
<g clip-path="url(#clip0_7629_10579)">
<g opacity="0.5">
<path d="M28.2336 125.365C28.546 125.677 29.0526 125.677 29.365 125.365L34.4561 120.273C34.7685 119.961 34.7685 119.454 34.4561 119.142C34.1437 118.83 33.6372 118.83 33.3247 119.142L28.7993 123.667L24.2739 119.142C23.9615 118.83 23.4549 118.83 23.1425 119.142C22.8301 119.454 22.8301 119.961 23.1425 120.273L28.2336 125.365ZM29.5993 123.965C29.5993 123.524 29.2411 123.165 28.7993 123.165C28.3575 123.165 27.9993 123.524 27.9993 123.965H29.5993ZM27.9993 118.965C27.9993 119.407 28.3575 119.765 28.7993 119.765C29.2411 119.765 29.5993 119.407 29.5993 118.965H27.9993ZM29.5993 117.299C29.5993 116.857 29.2411 116.499 28.7993 116.499C28.3575 116.499 27.9993 116.857 27.9993 117.299H29.5993ZM27.9993 112.299C27.9993 112.741 28.3575 113.099 28.7993 113.099C29.2411 113.099 29.5993 112.741 29.5993 112.299H27.9993ZM29.6563 110.288C29.6991 109.848 29.3773 109.457 28.9375 109.414C28.4978 109.371 28.1066 109.693 28.0638 110.133L29.6563 110.288ZM31.0863 102.837C30.8058 103.179 30.8551 103.683 31.1965 103.963C31.5379 104.244 32.042 104.195 32.3225 103.853L31.0863 102.837ZM33.9868 102.189C34.3281 101.908 34.3775 101.404 34.097 101.063C33.8165 100.722 33.3124 100.672 32.971 100.953L33.9868 102.189ZM40.2666 97.9302C39.8268 97.973 39.505 98.3642 39.5478 98.8039C39.5906 99.2437 39.9818 99.5655 40.4216 99.5227L40.2666 97.9302ZM42.6288 99.4657C43.0706 99.4657 43.4288 99.1075 43.4288 98.6657C43.4288 98.2239 43.0706 97.8657 42.6288 97.8657V99.4657ZM48.8065 97.8657C48.3647 97.8657 48.0065 98.2239 48.0065 98.6657C48.0065 99.1075 48.3647 99.4657 48.8065 99.4657V97.8657ZM50.8657 99.4657C51.3075 99.4657 51.6657 99.1075 51.6657 98.6657C51.6657 98.2239 51.3075 97.8657 50.8657 97.8657V99.4657ZM57.0434 97.8657C56.6016 97.8657 56.2434 98.2239 56.2434 98.6657C56.2434 99.1075 56.6016 99.4657 57.0434 99.4657V97.8657ZM59.1026 99.4657C59.5445 99.4657 59.9026 99.1075 59.9026 98.6657C59.9026 98.2239 59.5445 97.8657 59.1026 97.8657V99.4657ZM65.2803 97.8657C64.8385 97.8657 64.4804 98.2239 64.4804 98.6657C64.4804 99.1075 64.8385 99.4657 65.2803 99.4657V97.8657ZM67.3396 99.4657C67.7814 99.4657 68.1396 99.1075 68.1396 98.6657C68.1396 98.2239 67.7814 97.8657 67.3396 97.8657V99.4657ZM73.5173 97.8657C73.0755 97.8657 72.7173 98.2239 72.7173 98.6657C72.7173 99.1075 73.0755 99.4657 73.5173 99.4657V97.8657ZM75.5765 99.4657C76.0185 99.4657 76.3763 99.1075 76.3763 98.6657C76.3763 98.2239 76.0185 97.8657 75.5765 97.8657V99.4657ZM81.7544 97.8657C81.3123 97.8657 80.9544 98.2239 80.9544 98.6657C80.9544 99.1075 81.3123 99.4657 81.7544 99.4657V97.8657ZM83.8136 99.4657C84.2552 99.4657 84.6136 99.1075 84.6136 98.6657C84.6136 98.2239 84.2552 97.8657 83.8136 97.8657V99.4657ZM89.9911 97.8657C89.5495 97.8657 89.1911 98.2239 89.1911 98.6657C89.1911 99.1075 89.5495 99.4657 89.9911 99.4657V97.8657ZM92.0503 99.4657C92.4924 99.4657 92.8503 99.1075 92.8503 98.6657C92.8503 98.2239 92.4924 97.8657 92.0503 97.8657V99.4657ZM98.2283 97.8657C97.7862 97.8657 97.4283 98.2239 97.4283 98.6657C97.4283 99.1075 97.7862 99.4657 98.2283 99.4657V97.8657ZM100.287 99.4657C100.729 99.4657 101.087 99.1075 101.087 98.6657C101.087 98.2239 100.729 97.8657 100.287 97.8657V99.4657ZM106.465 97.8657C106.023 97.8657 105.665 98.2239 105.665 98.6657C105.665 99.1075 106.023 99.4657 106.465 99.4657V97.8657ZM108.524 99.4657C108.966 99.4657 109.324 99.1075 109.324 98.6657C109.324 98.2239 108.966 97.8657 108.524 97.8657V99.4657ZM114.702 97.8657C114.26 97.8657 113.902 98.2239 113.902 98.6657C113.902 99.1075 114.26 99.4657 114.702 99.4657V97.8657ZM117.064 99.4012C117.504 99.3584 117.826 98.9672 117.783 98.5275C117.74 98.0877 117.349 97.7659 116.909 97.8087L117.064 99.4012ZM123.344 95.1425C123.002 95.423 122.953 95.9271 123.234 96.2685C123.514 96.6099 124.018 96.6592 124.36 96.3787L123.344 95.1425ZM126.245 94.494C126.525 94.1526 126.475 93.6485 126.134 93.368C125.793 93.0875 125.289 93.1369 125.008 93.4782L126.245 94.494ZM29.5993 124.799V123.965H27.9993V124.799H29.5993ZM29.5993 118.965V117.299H27.9993V118.965H29.5993ZM29.5993 112.299V111.466H27.9993V112.299H29.5993ZM29.5993 111.466C29.5993 111.068 29.6186 110.675 29.6563 110.288L28.0638 110.133C28.0211 110.572 27.9993 111.016 27.9993 111.466H29.5993ZM32.3225 103.853C32.8216 103.246 33.3792 102.688 33.9868 102.189L32.971 100.953C32.283 101.518 31.6515 102.149 31.0863 102.837L32.3225 103.853ZM40.4216 99.5227C40.8088 99.485 41.2016 99.4657 41.5991 99.4657V97.8657C41.1498 97.8657 40.7052 97.8875 40.2666 97.9302L40.4216 99.5227ZM41.5991 99.4657H42.6288V97.8657H41.5991V99.4657ZM48.8065 99.4657H50.8657V97.8657H48.8065V99.4657ZM57.0434 99.4657H59.1026V97.8657H57.0434V99.4657ZM65.2803 99.4657H67.3396V97.8657H65.2803V99.4657ZM73.5173 99.4657H75.5765V97.8657H73.5173V99.4657ZM81.7544 99.4657H83.8136V97.8657H81.7544V99.4657ZM89.9911 99.4657H92.0503V97.8657H89.9911V99.4657ZM98.2283 99.4657H100.287V97.8657H98.2283V99.4657ZM106.465 99.4657H108.524V97.8657H106.465V99.4657ZM114.702 99.4657H115.732V97.8657H114.702V99.4657ZM115.732 99.4657C116.181 99.4657 116.625 99.4439 117.064 99.4012L116.909 97.8087C116.522 97.8464 116.129 97.8657 115.732 97.8657V99.4657ZM124.36 96.3787C125.048 95.8135 125.679 95.182 126.245 94.494L125.008 93.4782C124.509 94.0858 123.952 94.6434 123.344 95.1425L124.36 96.3787Z" fill="#18181B"/>
</g>
<g opacity="0.5">
<path d="M226.633 125.365C226.946 125.677 227.453 125.677 227.765 125.365L232.856 120.273C233.168 119.961 233.168 119.454 232.856 119.142C232.544 118.83 232.037 118.83 231.725 119.142L227.199 123.667L222.674 119.142C222.361 118.83 221.855 118.83 221.542 119.142C221.23 119.454 221.23 119.961 221.542 120.273L226.633 125.365ZM132.055 93.4782C131.774 93.1369 131.27 93.0875 130.929 93.368C130.588 93.6485 130.538 94.1526 130.819 94.494L132.055 93.4782ZM132.703 96.3787C133.045 96.6593 133.549 96.6099 133.829 96.2685C134.11 95.9271 134.061 95.423 133.719 95.1425L132.703 96.3787ZM140.154 97.8087C139.714 97.7659 139.323 98.0877 139.28 98.5275C139.237 98.9672 139.559 99.3584 139.999 99.4012L140.154 97.8087ZM142.346 99.4657C142.788 99.4657 143.146 99.1075 143.146 98.6657C143.146 98.2239 142.788 97.8657 142.346 97.8657V99.4657ZM148.435 97.8657C147.993 97.8657 147.635 98.2239 147.635 98.6657C147.635 99.1075 147.993 99.4657 148.435 99.4657V97.8657ZM150.465 99.4657C150.907 99.4657 151.265 99.1075 151.265 98.6657C151.265 98.2239 150.907 97.8657 150.465 97.8657V99.4657ZM156.554 97.8657C156.112 97.8657 155.754 98.2239 155.754 98.6657C155.754 99.1075 156.112 99.4657 156.554 99.4657V97.8657ZM158.584 99.4657C159.026 99.4657 159.384 99.1075 159.384 98.6657C159.384 98.2239 159.026 97.8657 158.584 97.8657V99.4657ZM164.673 97.8657C164.231 97.8657 163.873 98.2239 163.873 98.6657C163.873 99.1075 164.231 99.4657 164.673 99.4657V97.8657ZM166.702 99.4657C167.144 99.4657 167.502 99.1075 167.502 98.6657C167.502 98.2239 167.144 97.8657 166.702 97.8657V99.4657ZM172.791 97.8657C172.349 97.8657 171.991 98.2239 171.991 98.6657C171.991 99.1075 172.349 99.4657 172.791 99.4657V97.8657ZM174.821 99.4657C175.263 99.4657 175.621 99.1075 175.621 98.6657C175.621 98.2239 175.263 97.8657 174.821 97.8657V99.4657ZM180.91 97.8657C180.468 97.8657 180.11 98.2239 180.11 98.6657C180.11 99.1075 180.468 99.4657 180.91 99.4657V97.8657ZM182.94 99.4657C183.382 99.4657 183.74 99.1075 183.74 98.6657C183.74 98.2239 183.382 97.8657 182.94 97.8657V99.4657ZM189.029 97.8657C188.587 97.8657 188.229 98.2239 188.229 98.6657C188.229 99.1075 188.587 99.4657 189.029 99.4657V97.8657ZM191.058 99.4657C191.5 99.4657 191.858 99.1075 191.858 98.6657C191.858 98.2239 191.5 97.8657 191.058 97.8657V99.4657ZM197.147 97.8657C196.705 97.8657 196.347 98.2239 196.347 98.6657C196.347 99.1075 196.705 99.4657 197.147 99.4657V97.8657ZM199.177 99.4657C199.619 99.4657 199.977 99.1075 199.977 98.6657C199.977 98.2239 199.619 97.8657 199.177 97.8657V99.4657ZM205.266 97.8657C204.824 97.8657 204.466 98.2239 204.466 98.6657C204.466 99.1075 204.824 99.4657 205.266 99.4657V97.8657ZM207.295 99.4657C207.738 99.4657 208.095 99.1075 208.095 98.6657C208.095 98.2239 207.738 97.8657 207.295 97.8657V99.4657ZM213.384 97.8657C212.943 97.8657 212.585 98.2239 212.585 98.6657C212.585 99.1075 212.943 99.4657 213.384 99.4657V97.8657ZM215.577 99.5227C216.016 99.5655 216.408 99.2437 216.451 98.8039C216.493 98.3642 216.172 97.973 215.732 97.9302L215.577 99.5227ZM223.028 100.953C222.686 100.672 222.182 100.722 221.902 101.063C221.621 101.404 221.67 101.908 222.012 102.189L223.028 100.953ZM223.676 103.853C223.957 104.195 224.461 104.244 224.802 103.963C225.143 103.683 225.193 103.179 224.912 102.837L223.676 103.853ZM227.935 110.133C227.892 109.693 227.501 109.371 227.061 109.414C226.621 109.457 226.3 109.848 226.342 110.288L227.935 110.133ZM226.399 112.299C226.399 112.741 226.757 113.099 227.199 113.099C227.641 113.099 227.999 112.741 227.999 112.299H226.399ZM227.999 117.299C227.999 116.857 227.641 116.499 227.199 116.499C226.757 116.499 226.399 116.857 226.399 117.299H227.999ZM226.399 118.965C226.399 119.407 226.757 119.765 227.199 119.765C227.641 119.765 227.999 119.407 227.999 118.965H226.399ZM227.999 123.965C227.999 123.524 227.641 123.165 227.199 123.165C226.757 123.165 226.399 123.524 226.399 123.965H227.999ZM130.819 94.494C131.384 95.182 132.015 95.8135 132.703 96.3787L133.719 95.1425C133.111 94.6434 132.554 94.0858 132.055 93.4782L130.819 94.494ZM139.999 99.4012C140.438 99.4439 140.882 99.4657 141.332 99.4657V97.8657C140.934 97.8657 140.541 97.8464 140.154 97.8087L139.999 99.4012ZM141.332 99.4657H142.346V97.8657H141.332V99.4657ZM148.435 99.4657H150.465V97.8657H148.435V99.4657ZM156.554 99.4657H158.584V97.8657H156.554V99.4657ZM164.673 99.4657H166.702V97.8657H164.673V99.4657ZM172.791 99.4657H174.821V97.8657H172.791V99.4657ZM180.91 99.4657H182.94V97.8657H180.91V99.4657ZM189.029 99.4657H191.058V97.8657H189.029V99.4657ZM197.147 99.4657H199.177V97.8657H197.147V99.4657ZM205.266 99.4657H207.295V97.8657H205.266V99.4657ZM213.384 99.4657H214.399V97.8657H213.384V99.4657ZM214.399 99.4657C214.797 99.4657 215.19 99.485 215.577 99.5227L215.732 97.9302C215.293 97.8875 214.849 97.8657 214.399 97.8657V99.4657ZM222.012 102.189C222.619 102.688 223.177 103.246 223.676 103.853L224.912 102.837C224.347 102.149 223.716 101.518 223.028 100.953L222.012 102.189ZM226.342 110.288C226.38 110.675 226.399 111.068 226.399 111.466H227.999C227.999 111.016 227.977 110.572 227.935 110.133L226.342 110.288ZM226.399 111.466V112.299H227.999V111.466H226.399ZM226.399 117.299V118.965H227.999V117.299H226.399ZM226.399 123.965V124.799H227.999V123.965H226.399Z" fill="#18181B"/>
</g>
<g opacity="0.5">
<path d="M129.332 72.5324C129.332 72.0906 128.973 71.7325 128.532 71.7325C128.09 71.7325 127.732 72.0906 127.732 72.5324H129.332ZM127.966 125.364C128.278 125.676 128.785 125.676 129.097 125.364L134.189 120.273C134.501 119.961 134.501 119.454 134.189 119.142C133.876 118.829 133.369 118.829 133.057 119.142L128.532 123.667L124.006 119.142C123.694 118.829 123.187 118.829 122.875 119.142C122.563 119.454 122.563 119.961 122.875 120.273L127.966 125.364ZM127.732 73.6213C127.732 74.0631 128.09 74.4213 128.532 74.4213C128.973 74.4213 129.332 74.0631 129.332 73.6213H127.732ZM129.332 80.1546C129.332 79.7127 128.973 79.3546 128.532 79.3546C128.09 79.3546 127.732 79.7127 127.732 80.1546H129.332ZM127.732 82.3323C127.732 82.7741 128.09 83.1323 128.532 83.1323C128.973 83.1323 129.332 82.7741 129.332 82.3323H127.732ZM129.332 88.8656C129.332 88.4238 128.973 88.0656 128.532 88.0656C128.09 88.0656 127.732 88.4238 127.732 88.8656H129.332ZM127.732 91.0433C127.732 91.4852 128.09 91.8433 128.532 91.8433C128.973 91.8433 129.332 91.4852 129.332 91.0433H127.732ZM129.332 97.5766C129.332 97.1348 128.973 96.7766 128.532 96.7766C128.09 96.7766 127.732 97.1348 127.732 97.5766H129.332ZM127.732 99.7544C127.732 100.196 128.09 100.554 128.532 100.554C128.973 100.554 129.332 100.196 129.332 99.7544H127.732ZM129.332 106.288C129.332 105.846 128.973 105.488 128.532 105.488C128.09 105.488 127.732 105.846 127.732 106.288H129.332ZM127.732 108.465C127.732 108.907 128.09 109.265 128.532 109.265C128.973 109.265 129.332 108.907 129.332 108.465H127.732ZM129.332 114.999C129.332 114.557 128.973 114.199 128.532 114.199C128.09 114.199 127.732 114.557 127.732 114.999H129.332ZM127.732 117.176C127.732 117.618 128.09 117.976 128.532 117.976C128.973 117.976 129.332 117.618 129.332 117.176H127.732ZM129.332 123.71C129.332 123.268 128.973 122.91 128.532 122.91C128.09 122.91 127.732 123.268 127.732 123.71H129.332ZM127.732 72.5324V73.6213H129.332V72.5324H127.732ZM127.732 80.1546V82.3323H129.332V80.1546H127.732ZM127.732 88.8656V91.0433H129.332V88.8656H127.732ZM127.732 97.5766V99.7544H129.332V97.5766H127.732ZM127.732 106.288V108.465H129.332V106.288H127.732ZM127.732 114.999V117.176H129.332V114.999H127.732ZM127.732 123.71V124.798H129.332V123.71H127.732Z" fill="#18181B"/>
</g>
</g>
<defs>
<filter id="filter0_dd_7629_10579" x="85.9706" y="0" width="85.1214" height="85.1216" filterUnits="userSpaceOnUse" color-interpolation-filters="sRGB">
<feFlood flood-opacity="0" result="BackgroundImageFix"/>
<feColorMatrix in="SourceAlpha" type="matrix" values="0 0 0 0 0 0 0 0 0 0 0 0 0 0 0 0 0 0 127 0" result="hardAlpha"/>
<feMorphology radius="2.10697" operator="erode" in="SourceAlpha" result="effect1_dropShadow_7629_10579"/>
<feOffset dy="8.42788"/>
<feGaussianBlur stdDeviation="5.26743"/>
<feColorMatrix type="matrix" values="0 0 0 0 0 0 0 0 0 0 0 0 0 0 0 0 0 0 0.1 0"/>
<feBlend mode="normal" in2="BackgroundImageFix" result="effect1_dropShadow_7629_10579"/>
<feColorMatrix in="SourceAlpha" type="matrix" values="0 0 0 0 0 0 0 0 0 0 0 0 0 0 0 0 0 0 127 0" result="hardAlpha"/>
<feMorphology radius="2.52836" operator="erode" in="SourceAlpha" result="effect2_dropShadow_7629_10579"/>
<feOffset dy="3.37115"/>
<feGaussianBlur stdDeviation="2.10697"/>
<feColorMatrix type="matrix" values="0 0 0 0 0 0 0 0 0 0 0 0 0 0 0 0 0 0 0.1 0"/>
<feBlend mode="normal" in2="effect1_dropShadow_7629_10579" result="effect2_dropShadow_7629_10579"/>
<feBlend mode="normal" in="SourceGraphic" in2="effect2_dropShadow_7629_10579" result="shape"/>
</filter>
<clipPath id="clip0_7629_10579">
<rect width="211.197" height="54.3993" fill="white" transform="translate(22.3994 71.4658)"/>
</clipPath>
</defs>
</svg>
