<svg xmlns="http://www.w3.org/2000/svg" viewBox="0 0 3541.155 800.4">
    <path
        fill="currentColor"
        d="M1135.517 608.608c-42.832 0-76.026-9.515-99.583-28.555-23.558-19.028-35.337-45.92-35.337-80.666 0-37.12 12.493-65.43 37.478-84.949 24.985-19.508 59.842-29.268 104.58-29.268h95.658v61.392h-69.959c-31.89 0-54.253 4.406-67.103 13.206-12.849 8.812-19.273 21.304-19.273 37.478 0 13.809 5.587 24.628 16.775 32.48 11.177 7.853 26.77 11.78 46.758 11.78 18.08 0 33.785-4.039 47.114-12.136 13.318-8.087 23.67-18.795 31.054-32.124 7.372-13.318 11.064-28.31 11.064-44.973h23.558c0 48.542-9.76 86.734-29.269 114.574-19.52 27.84-50.683 41.761-93.515 41.761Zm102.796-8.566-3.57-67.103v-116.36c0-24.27-2.498-44.615-7.495-61.034-4.997-16.419-13.095-29.023-24.271-37.835-11.188-8.8-26.056-13.206-44.617-13.206-17.132 0-32.123 3.569-44.973 10.708s-23.803 18.326-32.837 33.551l-69.959-25.699c7.608-15.705 17.724-30.339 30.34-43.902 12.604-13.564 28.554-24.383 47.828-32.48 19.274-8.088 42.475-12.136 69.601-12.136 34.734 0 63.768 6.781 87.091 20.345 23.312 13.563 40.568 32.96 51.755 58.179 11.176 25.23 16.776 55.681 16.776 91.374l-2.142 195.598h-73.527ZM1376.792 600.042V100.34h79.952v499.702h-79.952ZM1527.411 600.042V100.34h79.952v433.313l-4.283 66.389h-75.669Zm192.742 8.566c-29.982 0-55.803-7.741-77.453-23.2-21.662-15.46-38.192-37.233-49.614-65.318-11.421-28.075-17.132-60.913-17.132-98.513 0-38.069 5.71-71.03 17.132-98.87 11.422-27.84 27.952-49.49 49.614-64.961 21.65-15.46 47.47-23.2 77.453-23.2 32.358 0 60.556 7.74 84.593 23.2 24.026 15.47 42.831 37.12 56.395 64.961 13.563 27.84 20.344 60.801 20.344 98.87 0 37.6-6.781 70.438-20.344 98.513-13.564 28.085-32.37 49.858-56.395 65.317-24.037 15.46-52.235 23.201-84.593 23.201Zm-19.988-72.814c19.029 0 35.927-4.874 50.684-14.634 14.746-9.748 26.525-23.2 35.336-40.333 8.8-17.132 13.207-36.875 13.207-59.25 0-22.364-4.172-42.118-12.493-59.25-8.332-17.133-19.877-30.451-34.622-39.977-14.757-9.514-31.89-14.277-51.398-14.277-18.092 0-34.265 4.763-48.543 14.277-14.276 9.526-25.341 22.844-33.194 39.976-7.852 17.133-11.779 36.887-11.779 59.25 0 22.376 3.927 42.119 11.78 59.251 7.852 17.133 18.794 30.585 32.836 40.333 14.032 9.76 30.094 14.634 48.186 14.634ZM2038.533 600.042l-159.905-356.93h87.091l124.212 300.535 25.699 56.395h-77.097ZM1975 751.38c-11.422 0-24.16-2.142-38.192-6.425a238.959 238.959 0 0 1-40.333-16.419l29.982-64.96c9.035 4.283 17.367 7.729 24.985 10.35 7.607 2.61 13.798 3.926 18.56 3.926 11.422 0 21.059-2.978 28.912-8.923 7.852-5.956 14.154-14.634 18.917-26.056l42.118-98.512 120.642-301.249h87.09l-165.615 394.764c-9.994 22.844-20.11 42.832-30.338 59.965-10.24 17.132-22.967 30.338-38.192 39.619-15.237 9.28-34.745 13.92-58.536 13.92ZM2417.378 600.042V100.34h79.952v499.702h-79.952Zm241.998-182.748c0-28.555-3.334-50.562-9.994-66.033-6.67-15.459-15.827-26.29-27.483-32.48-11.668-6.18-25.108-9.28-40.334-9.28-27.126-.469-47.95 8.332-62.462 26.413-14.522 18.092-21.773 44.025-21.773 77.81h-30.696c0-37.589 5.589-69.835 16.776-96.728 11.176-26.881 27.004-47.349 47.472-61.391 20.456-14.033 44.727-21.06 72.813-21.06 28.075 0 52.347 5.712 72.814 17.133 20.456 11.422 36.05 29.157 46.758 53.183 10.708 24.037 16.062 55.324 16.062 93.872v18.56h-79.953Zm0 182.748V417.294h79.953v182.748h-79.953ZM2794.286 425.86V243.112h79.952V425.86h-79.952Zm79.952 0c0 28.086 3.325 49.97 9.994 65.675 6.66 15.705 15.817 26.658 27.484 32.838 11.656 6.19 25.097 9.28 40.333 9.28 27.127.48 48.063-8.321 62.82-26.413 14.746-18.08 22.13-44.014 22.13-77.81h29.981c0 37.6-5.599 69.846-16.775 96.727-11.187 26.893-26.892 47.36-47.115 61.392-20.233 14.032-44.616 21.06-73.17 21.06-28.087 0-52.235-5.712-72.457-17.134-20.234-11.422-35.816-29.268-46.758-53.54-10.953-24.27-16.419-55.435-16.419-93.515v-18.56h79.952Zm167.044 174.182-4.283-65.676V243.112h79.238v356.93h-74.955ZM3186.906 600.042V100.34h79.952v433.313l-4.283 66.389h-75.67Zm192.742 8.566c-29.982 0-55.804-7.741-77.454-23.2-21.661-15.46-38.192-37.233-49.613-65.318-11.422-28.075-17.133-60.913-17.133-98.513 0-38.069 5.711-71.03 17.133-98.87 11.421-27.84 27.952-49.49 49.613-64.961 21.65-15.46 47.472-23.2 77.454-23.2 32.358 0 60.555 7.74 84.592 23.2 24.026 15.47 42.832 37.12 56.395 64.961 13.563 27.84 20.345 60.801 20.345 98.87 0 37.6-6.782 70.438-20.345 98.513-13.563 28.085-32.369 49.858-56.395 65.317-24.037 15.46-52.234 23.201-84.592 23.201Zm-19.988-72.814c19.028 0 35.927-4.874 50.684-14.634 14.745-9.748 26.524-23.2 35.336-40.333 8.8-17.132 13.206-36.875 13.206-59.25 0-22.364-4.171-42.118-12.492-59.25-8.332-17.133-19.877-30.451-34.623-39.977-14.756-9.514-31.889-14.277-51.397-14.277-18.092 0-34.266 4.763-48.543 14.277-14.277 9.526-25.342 22.844-33.194 39.976-7.853 17.133-11.78 36.887-11.78 59.25 0 22.376 3.927 42.119 11.78 59.251 7.852 17.133 18.794 30.585 32.837 40.333 14.032 9.76 30.094 14.634 48.186 14.634ZM141 240.775c.02.04.041.08.064.12l-.064-.12Zm-.657-1.22a.017.017 0 0 1 .002.006.03.03 0 0 1 .005.007l-.007-.012Zm655.885 401.526c-7.53-45.382-34.13-105.169-63.176-153.684-21.758 28.041-44.37 54.313-69.566 79.678 15.196 27.223 38.152 83.134 37.178 113.108-.335 10.313-8.46 18.638-18.748 19.303-32.37 2.093-76.115-16.98-112.697-35.201-27.408 25.037-53.973 47.897-81.502 69.02 57.085 33.857 130.554 66.975 190.446 66.809 87.278 4.626 137.869-77.62 118.065-159.033Zm-270.806-72.424c110.19-110.102 235.303-252.732 270.81-409.057C821.627 32.22 720.199-27.4 606.718 12.633c21.165 27.823 36.422 58.934 45.773 91.499 8.68-2.02 19.693-3.481 29-3.15 10.333.367 18.693 8.638 19.16 18.977 1.396 30.907-23.574 90.28-40.214 119.384v.003l-.006.008c-62.445 114.31-159.19 220.842-260.03 307.707l-.023-.02c-26.364 22.646-52.616 43.398-80.424 62.657l.12.104c-50.932 35.305-141.947 92.534-201.214 89.345-10.382-.559-18.623-9.019-18.867-19.423-.698-29.753 21.564-84.371 36.383-111.111a1362.495 1362.495 0 0 1-68.631-81.439C-55.09 677.207-9.54 878.294 245.04 768.66c100.495-45.463 196.8-120.805 280.382-200.003ZM253.327 400.339c-46.817-55.12-80.689-102.089-112.516-159.914h-.001l-.003-.008h-.001c0-.003-.004-.005-.004-.009h-.001c-.147-.27-.308-.573-.456-.847a.03.03 0 0 1 .005.007c-16.501-28.724-41.565-88.263-40.354-119.347.408-10.467 8.813-18.831 19.272-19.204 9.211-.329 20.07 1.047 28.663 3.062 9.358-32.57 24.627-63.686 45.806-91.51C80.272-27.284-20.913 32.226 4.438 159.599c20.876 112.625 114.056 235.415 186.53 320.621-.124.177.124-.177 0 0 17.793 20.268 36.318 40.652 55.818 60.408 26.73-19.15 53.082-39.61 79.51-61.774-25.91-25.747-50.373-52.064-72.969-78.515ZM142.565 243.687Zm3.681 6.84.274.507c-.09-.164-.181-.334-.274-.507Zm-5.44-10.11-.002-.004a.008.008 0 0 1 .002.004.057.057 0 0 1 .004.007l-.003-.007Zm.194.358c.02.04.041.08.064.12l-.064-.12Z" />
    <path
        fill="currentColor"
        d="M276.762 299.044c-68.342-68.342-68.342-179.146 0-247.488 68.342-68.342 179.146-68.342 247.488 0 68.34 68.342 68.34 179.146 0 247.488L400.506 422.788 276.762 299.044Z" />
</svg>