 <svg
      xmlns="http://www.w3.org/2000/svg"
      width="139"
      height="40"
      fill="none"
      viewBox="0 0 1775 500"
    >
      <path
        fill="currentColor"
        d="M366.601 223.349c-1.85-8.25-4.6-16.15-8.1-23.65-3.9-8.4-8.75-16.3-14.45-23.55a120.05 120.05 0 0 0-20.15-20.15c-7.25-5.7-15.15-10.55-23.55-14.45-7.5-3.5-15.4-6.2-23.65-8.1-8.55-2-17.5-3-26.65-3-9.15 0-18.1 1-26.65 3-1.25 6.15-2.45 12.6-3.5 19.35-1.95 12-3.55 24.95-4.8 38.9-.6 7-1.1 14.3-1.5 21.85-.6 11.55-.95 23.7-.95 36.5s.35 24.9.95 36.5c11.55.6 23.7.95 36.5.95s24.9-.35 36.5-.95c7.5-.4 14.8-.9 21.8-1.5 14-1.25 26.95-2.85 38.95-4.8 6.75-1.1 13.2-2.25 19.35-3.5 1.95-8.55 3-17.5 3-26.65 0-9.15-1-18.1-3-26.65l-.1-.1Zm-34.65-9.05c-3.05.45-6 1.2-8.9 2.2-5.2 1.8-10 4.45-14.35 7.8-10.85 8.25-18.65 20.65-20.9 34 0 .25-.25.35-.4.3-.15 0-.3-.15-.3-.3-3.55-22.75-21.95-40.5-44.15-44.05-.4-.05-.4-.65 0-.7 1.55-.25 3.05-.55 4.55-.95 12.5-3.15 23.35-10.9 30.6-21.2 2.35-3.3 4.3-6.85 5.85-10.65 1.5-3.65 2.6-7.5 3.2-11.45.05-.4.65-.4.7 0 1.35 8.6 4.85 16.45 9.8 23.15a53.16 53.16 0 0 0 9.9 10.2c7 5.55 15.35 9.4 24.4 10.95.4.05.4.65 0 .7Z"
      />
      <path
        fill="currentColor"
        d="M500.001 241.448v17.15c0 25.5-27.45 48.7-77.25 65.3-17.55 5.85-37.3 10.7-58.55 14.5-1.55.3-3.1.55-4.65.85-5.8.95-11.65 1.85-17.7 2.65-5.9.8-11.9 1.5-17.95 2.15-7.1.75-14.25 1.4-21.55 1.95-7.3.5-14.65.95-22.15 1.25-9.95.4-20 .6-30.15.6-10.15 0-20.25-.2-30.15-.6-7.5-.35-14.85-.75-22.15-1.25-7.3-.55-14.45-1.15-21.5-1.95-6.1-.65-12.05-1.35-17.95-2.15-6-.8-11.9-1.7-17.65-2.65-1.6-.25-3.15-.55-4.7-.85-21.25-3.75-41-8.6-58.55-14.5-49.8-16.6-77.25-39.8-77.25-65.3v-17.15c0-25.5 27.45-48.7 77.25-65.3 17.55-5.85 37.3-10.7 58.55-14.5-.25 2.1-.5 4.15-.75 6.3-1.3 10.95-2.3 22.1-3 33.5-5.5 1.1-10.8 2.2-15.95 3.45-48.5 11.4-80.55 28.3-88.85 45.15 8.3 16.85 40.35 33.75 88.85 45.1 5.15 1.2 10.45 2.35 15.95 3.45 3.1.6 6.25 1.2 9.5 1.75 4.1.7 8.25 1.4 12.5 2 12.35 1.85 25.4 3.4 39.1 4.5 7.15.6 14.45 1.1 21.9 1.45a720.752 720.752 0 0 0 70 0c7.45-.35 14.75-.85 21.85-1.45 13.7-1.15 26.75-2.65 39.1-4.5 4.25-.65 8.45-1.3 12.5-2 3.2-.55 6.35-1.15 9.5-1.75 5.5-1.05 10.8-2.2 15.95-3.4 48.5-11.4 80.55-28.3 88.85-45.15-8.3-16.85-40.35-33.75-88.85-45.1-4.5-13.35-10.9-25.75-18.95-36.95-1.75-2.45-3.55-4.8-5.45-7.1 1.55.25 3.15.55 4.7.85 21.25 3.75 41 8.6 58.55 14.5 49.8 16.6 77.25 39.8 77.25 65.3l-.2-.1Z"
      />
      <path
        fill="currentColor"
        d="M339.151 140.498c-2.3-1.9-4.65-3.7-7.1-5.45-11.2-8.05-23.65-14.45-36.95-18.95-11.35-48.5-28.25-80.55-45.1-88.85-16.85 8.3-33.75 40.35-45.1 88.85-1.25 5.15-2.35 10.45-3.45 15.95-.6 3.1-1.2 6.3-1.75 9.5-.7 4.1-1.4 8.25-2 12.5-1.85 12.35-3.4 25.4-4.5 39.1-.6 7.1-1.1 14.4-1.45 21.85a720.752 720.752 0 0 0 0 70c-14-1.25-26.95-2.85-38.9-4.8-.4-9.95-.6-20-.6-30.15 0-10.15.2-20.25.6-30.15.35-7.5.75-14.85 1.3-22.15.5-7.3 1.15-14.5 1.9-21.5.65-6.1 1.35-12.1 2.15-18 .8-6 1.7-11.9 2.65-17.65.25-1.55.55-3.15.85-4.7 3.75-21.25 8.6-41 14.5-58.55 16.6-49.8 39.8-77.25 65.3-77.25h17.15c25.5 0 48.7 27.45 65.3 77.25 5.85 17.55 10.7 37.3 14.5 58.55.3 1.55.55 3.15.85 4.7l-.15-.1ZM338.352 364.199c-3.75 21.25-8.6 41-14.5 58.55-16.6 49.8-39.8 77.25-65.3 77.25h-17.15c-25.5 0-48.7-27.45-65.3-77.25-5.85-17.55-10.7-37.3-14.5-58.55 2.1.25 4.15.5 6.3.75 10.95 1.3 22.1 2.3 33.5 3 1.1 5.5 2.2 10.8 3.45 15.95 11.35 48.5 28.25 80.55 45.1 88.85 16.85-8.3 33.75-40.35 45.15-88.85 1.2-5.15 2.35-10.45 3.4-15.95 11.4-.75 22.6-1.75 33.5-3 2.1-.2 4.2-.5 6.3-.75h.05Z"
      />
      <mask
        id="a"
        width="101"
        height="53"
        x="262"
        y="85"
        maskUnits="userSpaceOnUse"
      >
        <path
          fill="currentColor"
          d="M362.801 137.188c-.5-2.85-.95-5.75-1.45-8.55l-.7-1.2c-26.95-24.35-60.25-38.85-96.35-41.95l-2.25 2.9c3.3 9.2 7.45 22.6 11.3 40.3 31.05 1 61.4 3.85 89.4 8.55l.05-.05Z"
        />
      </mask>
      <g mask="url(#a)">
        <path
          fill="currentColor"
          d="M366.601 223.349c-1.85-8.25-4.6-16.15-8.1-23.65-3.9-8.4-8.75-16.3-14.45-23.55a120.05 120.05 0 0 0-20.15-20.15c-7.25-5.7-15.15-10.55-23.55-14.45-7.5-3.5-15.4-6.2-23.65-8.1-8.55-2-17.5-3-26.65-3-9.15 0-18.1 1-26.65 3-1.25 6.15-2.45 12.6-3.5 19.35-1.95 12-3.55 24.95-4.8 38.9-.6 7-1.1 14.3-1.5 21.85-.6 11.55-.95 23.7-.95 36.5s.35 24.9.95 36.5c11.55.6 23.7.95 36.5.95s24.9-.35 36.5-.95c7.5-.4 14.8-.9 21.8-1.5 14-1.25 26.95-2.85 38.95-4.8 6.75-1.1 13.2-2.25 19.35-3.5 1.95-8.55 3-17.5 3-26.65 0-9.15-1-18.1-3-26.65l-.1-.1Zm-34.65-9.05c-3.05.45-6 1.2-8.9 2.2-5.2 1.8-10 4.45-14.35 7.8-10.85 8.25-18.65 20.65-20.9 34 0 .25-.25.35-.4.3-.15 0-.3-.15-.3-.3-3.55-22.75-21.95-40.5-44.15-44.05-.4-.05-.4-.65 0-.7 1.55-.25 3.05-.55 4.55-.95 12.5-3.15 23.35-10.9 30.6-21.2 2.35-3.3 4.3-6.85 5.85-10.65 1.5-3.65 2.6-7.5 3.2-11.45.05-.4.65-.4.7 0 1.35 8.6 4.85 16.45 9.8 23.15a53.16 53.16 0 0 0 9.9 10.2c7 5.55 15.35 9.4 24.4 10.95.4.05.4.65 0 .7Z"
        />
      </g>
      <mask
        id="b"
        width="110"
        height="200"
        x="262"
        y="215"
        maskUnits="userSpaceOnUse"
      >
        <path
          fill="currentColor"
          d="M284.4 215.605c.55 10.85.85 22.25.85 34.4 0 84.5-14.5 137.55-23.15 161.65l2.25 2.9c36.1-3.1 69.4-17.65 96.35-41.95l.7-1.2c6.8-37.15 10.4-79.1 10.4-121.35 0-7.8-.15-15.6-.4-23.4-22.15-4.85-51.05-9.2-86.95-11l-.05-.05Z"
        />
      </mask>
      <g mask="url(#b)">
        <path
          fill="currentColor"
          d="M339.151 140.498c-2.3-1.9-4.65-3.7-7.1-5.45-11.2-8.05-23.65-14.45-36.95-18.95-11.35-48.5-28.25-80.55-45.1-88.85-16.85 8.3-33.75 40.35-45.1 88.85-1.25 5.15-2.35 10.45-3.45 15.95-.6 3.1-1.2 6.3-1.75 9.5-.7 4.1-1.4 8.25-2 12.5-1.85 12.35-3.4 25.4-4.5 39.1-.6 7.1-1.1 14.4-1.45 21.85a720.752 720.752 0 0 0 0 70c-14-1.25-26.95-2.85-38.9-4.8-.4-9.95-.6-20-.6-30.15 0-10.15.2-20.25.6-30.15.35-7.5.75-14.85 1.3-22.15.5-7.3 1.15-14.5 1.9-21.5.65-6.1 1.35-12.1 2.15-18 .8-6 1.7-11.9 2.65-17.65.25-1.55.55-3.15.85-4.7 3.75-21.25 8.6-41 14.5-58.55 16.6-49.8 39.8-77.25 65.3-77.25h17.15c25.5 0 48.7 27.45 65.3 77.25 5.85 17.55 10.7 37.3 14.5 58.55.3 1.55.55 3.15.85 4.7l-.15-.1Z"
        />
      </g>
      <path
        fill="currentColor"
        d="M1715.14 350.251c-21.07 0-36.73-10.248-46.41-28.183v25.336H1636V145h33.59v83.979c9.68-17.08 25.05-26.759 45.55-26.759 33.02 0 59.78 25.336 59.78 74.016 0 48.679-26.76 74.015-59.78 74.015Zm-45.55-67.753c0 25.621 12.81 41.563 35.01 41.563 21.92 0 35.87-15.372 35.87-44.409v-7.117c0-28.183-13.95-42.986-35.87-42.986-22.2 0-35.01 15.657-35.01 40.139v12.81ZM1517.82 350.243c-27.04 0-46.97-18.219-46.97-53.803v-91.381h33.59v87.964c0 19.074 9.4 29.037 27.05 29.037 18.21 0 31.59-10.817 31.59-36.723v-80.278h33.6v142.337h-33.03v-25.905c-9.11 15.942-23.05 28.752-45.83 28.752ZM1271.57 347.408v-193.58h33.59v78.855h93.09v-78.855h33.59v193.58h-33.59v-83.695h-93.09v83.695h-33.59ZM1088.15 404.332l18.22-59.782h-21.07l-44.98-139.491h35.02l27.04 87.11 9.68 33.592h.57l9.68-33.592 26.19-87.11h34.73l-61.21 199.273h-33.87ZM962.909 350.251c-21.066 0-36.723-10.248-46.402-28.183v25.336H883.77V145h33.591v83.979c9.679-17.08 25.052-26.759 45.548-26.759 33.023 0 59.781 25.336 59.781 74.016 0 48.679-26.758 74.015-59.781 74.015Zm-45.548-67.753c0 25.621 12.811 41.563 35.015 41.563 21.92 0 35.87-15.372 35.87-44.409v-7.117c0-28.183-13.95-42.986-35.87-42.986-22.204 0-35.015 15.657-35.015 40.139v12.81ZM806.777 347.404V145h33.592v174.506h12.81v27.898h-46.402ZM713.14 153.828l63.768 193.58h-35.3l-17.081-53.235h-77.431L630.3 347.408H595l64.052-193.58h54.088Zm-56.365 109.6h58.073l-18.788-58.643-9.964-33.307h-.569l-9.964 33.307-18.788 58.643Z"
      />
    </svg>
