<svg xmlns="http://www.w3.org/2000/svg" width="667" height="800" fill="none"><path fill="gray" fill-opacity=".08" d="M159.007 704.167c-.043 1.497-5.54 45.85-6.442 75.381-.504 16.495 0 20.452 0 20.452h187.573c-.722-3.019 6.258-24.57-3.176-100.374-.458-1.644-1.455-3.147-1.81-4.803-1.12-5.171-1.854-10.438-3.12-15.572-.961-3.887-.508-7.052 2.263-10.114 3.23-3.577 3.105-3.755.302-7.731l-.081-.116c-.704-.996-1.579-1.888-2.142-2.958-.501-.953-1.058-2.126-.936-3.122.527-4.315 1.456-8.587 1.927-12.907.655-6.038 1.732-12.149 1.359-18.151-.52-8.488-2.27-16.897-3.334-25.361-.221-1.742-.086-3.691.483-5.341a66.917 66.917 0 0 1 3.97-9.241c4.649-8.909 6.282-18.646 7.911-28.356l.084-.501c1.144-6.814 1.707-13.72 2.558-20.582.391-3.178 1.835-4.321 4.422-2.622 5.108 3.367 10.926 2.542 16.407 3.471 7.372 1.247 14.86 1.803 22.292 2.726.753.091 1.548.537 2.141 1.039 4.093 3.452 6.638 3.623 11.275 1.203 3.419-1.79 6.295-4.736 10.644-4.662 4.931.085 8.901-2.097 12.474-5.513 1.241-1.191 3.639-1.265 5.554-1.638 2.233-.427 4.723-.146 6.729-1.02 4.735-2.072 9.17-4.816 13.875-6.973 6.453-2.958 12.816-6.777 19.63-8.091 7.194-1.388 13.96-3.117 20.445-6.49 6.576-3.417 12.143-7.707 15.734-14.343 1.486-2.757 3.432-5.067 7.188-4.431.838.14 1.823-.183 2.649-.507 4.349-1.711 8.631-3.624 13.024-5.219 3.199-1.161 6.619-1.73 9.794-2.952 2.437-.942 4.708-2.366 6.94-3.767l.211-.132c.422-.269.587-1.485.391-2.108-.636-2.005.19-2.524 2.037-2.604 7.323-.311 14.248-1.851 20.182-6.545.893-.703 2.202-.953 3.364-1.234 3.946-.966 7.341-5.678 7.25-9.656-.031-1.302.575-3.007 1.504-3.862 1.83-1.687 2.521-3.496 1.64-5.702-.795-2.011-.294-3.331 1.156-4.852 2.637-2.763 1.921-7.102-1.291-9.21-.679-.446-1.45-.752-2.129-1.198-3.401-2.243-3.334-4.473.294-6.203 4.319-2.059 8.675-4.045 13.085-5.885 2.233-.929 4.178-1.815 3.585-4.748-.63-3.111-2.869-5.299-5.842-4.449-6.693 1.906-13.33 4.143-19.741 6.838-4.735 1.992-8.834 5.702-13.66 7.211-4.616 1.443-8.588 3.684-12.681 5.995l-.154.086c-7.157 4.04-12.528 10.713-20.523 13.543-3.818 1.35-7.354 3.471-11.116 5.011-9.237 3.777-18.523 7.443-27.816 11.092-2.171.849-4.704 1.057-6.594 2.291-4.356 2.842-8.773 3.123-13.654 1.84-3.108-.819-6.393-.147-8.418 2.365-2.453 3.049-5.414 3.648-8.901 3.312-2.019-.195-4.043-.397-6.044-.709-3.921-.611-7.622-.464-11.182 1.73-1.218.751-3.175 1.075-4.515.666-2.612-.801-4.784-.306-7.005.929-2.581 1.436-5.126 2.945-7.781 4.217-3.517 1.686-6.576.495-8.362-2.922-.392-.751-1.077-1.766-1.756-1.876-3.53-.58-7.102-1.974-10.553.697-.819.635-2.844.709-3.713.134-4.056-2.695-8.038-5.549-11.782-8.665-3.389-2.824-7.096-4.095-11.452-4.235-1.376-.049-2.845-1.125-4.044-2.023-1.933-1.449-3.438-3.899-5.554-4.59-7.298-2.371-13.899-5.537-18.542-11.917-.343-.476-.942-.77-1.419-1.149-2.239-1.784-3.542-4.009-4.032-6.918-.281-1.705-1.04-3.782-2.306-4.772-3.658-2.86-6.858-5.971-9.164-10.047-.538-.954-1.884-1.491-2.918-2.115-7.696-4.644-16.339-6.3-25.057-7.015-4.845-.398-8.466-1.87-11.543-5.549-1.628-1.956-2.013-3.362-.52-5.592 6.686-9.998 10.607-20.974 11.439-33.044.312-4.528 1.273-9.008 1.621-13.536.196-2.573-.055-5.231-.477-7.786-.324-1.931-1.431-3.721-1.847-5.646-.728-3.374-1.114-6.827-1.793-10.212-.459-2.286-2.348-10.856-4.628-17.287-2.627-7.405-5.496-11.002-8.695-16.991-2.246-4.199-7.666-7.45-12.382-9.442-15.636-6.594-30.856-3.019-45.691 3.447a3.868 3.868 0 0 0-1.23.88c-3.884 4.076-8.301 7.792-11.458 12.375-3.181 4.614-6.49 9.534-6.282 15.706.073 1.998-.324 4.009-.465 6.019-.331 4.792-.863 9.589-.844 14.38.006 2.102-.178 3.355-2.203 4.364-5.089 2.53-7.445 10.431-4.159 14.954 3.988 5.481 8.558 10.542 12.76 15.877.747.947 1.285 2.328 1.303 3.514.019 1.228-.715 2.469-1.26 4.125-1.187.916-3.303 1.974-4.521 3.666-1.254 1.742-1.4 4.242-2.446 6.185-2.686 4.968-2.435 11.306-10.259 13.53-8.051 2.286-15.276 7.45-22.861 11.349-5.653 2.903-10.901 6.649-16.432 9.527-11.402 5.934-21.117 13.732-30.006 22.71-4.832 4.882-7.426 11.073-8.362 17.918-.226 1.686-.379 3.428-.93 5.023-4.771 13.836-9.66 27.629-14.437 41.459-2.319 6.716-4.447 13.499-6.699 20.24-2.862 8.568-5.866 17.099-8.619 25.704-1.7 5.317-3.071 10.743-4.564 16.121-1.064 3.82-2.967 7.658-2.918 11.465.068 5.567-1.162 10.511-3.003 15.657-.777 2.169.924 5.219 1.498 7.865 4.02.104 4.772 3.893 6.95 6.093 1.56 1.564 3.205 3.098 5.016 4.345 3.016 2.072 6.118 4.046 9.323 5.806 2.478 1.362 5.084 2.994 7.782 3.336 5.175.66 9.469 2.604 13.152 6.179.477.464 1.168.794 1.823.99 6.27 1.894 12.51 3.948 18.86 5.531 4.741 1.179 9.604 2.041 14.498.177.973-.373 2.57-.135 3.444.458 3.395 2.322 4.301 8.959 2.019 12.473-.557.862-1.034 2.053-.93 3.025.563 5.292 4.717 7.291 8.919 8.947 1.799.709 2.808 1.589 2.68 3.459-.245 3.538-.618 7.064-.912 10.597-.067.776-.373 1.98 0 2.279 2.772 2.237 1.56 4.963.679 7.26-2.312 6.032-3.811 12.168-3.994 18.64Z"/></svg>