<svg xmlns="http://www.w3.org/2000/svg" width="667" height="800" fill="none">
  <path fill="gray"
    d="M339.694 196.592c-.614 1.01-1.55 2.559-2.451 4.041-2.493-.438-4.667-.817-6.84-1.196l-.455 1.053c4.549 2.609 9.098 5.211 13.647 7.821.353-.337.716-.674 1.069-1.019l-2.114-5.354c.379-.177.758-.354 1.129-.531.615 1.221 1.39 2.383 1.819 3.671 1.205 3.544 3.37 5.11 7.211 4.175 2.889-.707 5.046-.774 7.076 2.736 1.727 2.989 5.93 4.446 8.702 6.946 3.883 3.51 7.421 7.24 9.19 12.544.868 2.584 3.715 4.462 5.467 6.81 1.171 1.575 4.178 2.694 1.803 5.599-.194.236 1.171 1.709 1.794 2.626 2.552 3.764 6.107 7.283 3.993 12.46-1.82 4.454.303 8.099 1.937 11.938.868 2.037 1.432 4.201 2.174 6.297 1.095 3.106 2.215 6.204 3.234 9.042l-2.788-.809c3.959 4.269 8.373 4.706 12.72 5.994-1.676 2.139-3.235 4.513-5.189 6.5-1.879 1.902-1.348 2.913.514 4.31 1.086.817 2.358 2.214 2.443 3.426.48 7.266 4.338 13.201 7.362 19.439 1.887 3.89 4.776 7.316 6.419 11.281.716 1.718-.64 4.26-.944 6.44-.353 2.526-.657 5.069-.842 7.611-.177 2.425-.522 4.916-.143 7.274.497 3.098 1.617 6.095 2.232 8.275-2.148-1.515-4.793-3.376-8.129-5.724-.438 5.699-4.725 10.456.674 15.549 1.575 1.49 1.643 4.58 2.595 7.518-1.441-.396-2.148-.581-3.462-.943 2.956 8.873-1.491 16.383-3.825 24.212-1.044 3.485-2.78 6.92-4.869 9.909-2.906 4.15-6.966 6.154-12.416 6.558-5.678.421-11.246 2.5-16.831 3.982-.665.177-1.415 1.052-1.617 1.759-3.075 10.574-6.158 21.157-8.98 31.798-.421 1.582.177 3.62.8 5.27 4.06 10.734 9.881 20.743 18.061 28.514 5.458 5.186 13.191 8.242 20.292 11.399 16.216 7.206 32.752 13.68 49.001 20.819 18.962 8.343 37.789 17.006 56.608 25.677a4497.647 4497.647 0 0 1 51.646 24.221c5.517 2.626 11.406 5 16.081 8.78 6.89 5.565 13.444 11.786 19.08 18.614 18.068 21.897 28.227 48.163 39.498 73.756 4.094 9.294 8.441 18.664 10.909 28.447 3.951 15.684 6.301 31.772 9.57 47.641 2.729 13.259 5.829 26.443 8.693 39.669.438 2.02.488 4.125.758 6.583H4c2.35-7.686 4.583-15.01 6.832-22.326.859-2.812 1.524-5.7 2.662-8.394 5.542-13.124 3.184-26.594 2.257-40.089-.64-9.337-.615-18.766-.168-28.119.202-4.218 2.063-8.385 3.344-12.518 4.886-15.769 8.668-32.008 15.154-47.094 4.65-10.827 11.945-20.963 19.804-29.887 20.891-23.724 45-43.474 74.845-55.403 12.088-4.832 23.873-10.422 35.801-15.65 11.659-5.102 23.3-10.229 35.001-15.221 3.201-1.364 4.877-3.418 6.048-6.836 2.359-6.861 5.568-13.428 8.407-20.121.977-2.307 2.097-4.588 2.78-6.987.295-1.019.017-2.989-.657-3.376-5.459-3.124-6.133-9.395-9.401-13.95-10.917-15.196-17.597-32.361-21.961-50.478-.126-.539-.48-1.095-.421-1.608.708-6.255-2.552-10.709-6.874-14.48-4.987-4.344-7.253-9.791-7.615-16.232-.042-.673-.337-1.33-.505-1.961-6.284-.295-13.739-7.661-14.548-13.984-.329-2.601-.783-5.345-1.963-7.627-.817-1.591-2.94-3.46-4.523-3.51-3.976-.127-6.293-2.097-7.952-5.212-1.752-3.291-3.749-4.824-7.759-3.207-1.465.589-4.523-.219-5.408-1.44-.884-1.22-.716-4.361.295-5.59 3.909-4.756 8.028-9.378 15.39-8.486 1.525.185 3.715-1.835 4.979-3.35 2.518-3.04 4.726-6.356 6.815-9.707 1.954-3.132 3.824-6.365 5.323-9.732 2.991-6.718 5.804-13.529 8.483-20.382 1.053-2.685 1.365-5.657 2.359-8.376.901-2.45 2.426-4.664 3.42-7.089.926-2.273 1.963-4.647 2.165-7.038.362-4.394 2.03-7.998 4.768-11.357 2.872-3.519 5.593-7.181 8.069-10.978.725-1.111 1.003-3.199.447-4.327-3.774-7.652 1.221-12.695 5.155-17.974 1.744-2.34 3.808-4.083 7.059-5.059 2.191-.657 3.564-4.555 4.945-7.181.741-1.415.969-3.225.986-4.858.05-4.293 2.796-5.565 6.343-5.834 6.343-.48 11.035-3.889 14.733-8.596 3.159-4.015 7.303-5.968 11.962-7.197.994-.261 2.468-.287 3.192.269 4.153 3.165 9.014 2.458 13.68 2.854.969.084 1.946.143 2.915.261 6.309.774 12.627 1.515 18.928 2.365 3.681.497 7.346 1.701 11.001 1.634 3.943-.084 7.868-1.28 11.794-1.996 2.83-.513 5.652-1.372 8.499-1.481 7.632-.295 15.273-.371 22.913-.295 1.735.017 3.454 1.027 5.854 1.793l.042.009Z" />
</svg>