<svg xmlns="http://www.w3.org/2000/svg" width="667" height="800" fill="none"><path fill="gray" fill-opacity=".08" d="M363.958 435.396c-4.748.846-5.768 2.87-6.665 6.687-1.083 4.584-4.786 8.579-7.516 12.713-2.095 3.181-4.446 6.19-6.688 9.27-.603.83-1.083 1.792-1.833 2.451-8.621 7.656-13.887 17.663-19.168 27.631-4.043 7.625-7.685 15.444-6.031 24.504.743 4.026 1.748 8.006 2.529 12.031.788 4.073 2.033 8.169 2.033 12.249 0 6.415 1.222 12.357 3.325 18.407 1.276 3.677.897 8.029.827 12.07-.154 8.215-.626 16.43-.881 24.644-.023.667.433 1.621.967 2.002 3.873 2.753 3.371 6.779 3.564 10.79.572 11.922.51 23.984 2.474 35.682 1.137 6.795 1.709 13.621 2.776 20.401 1.237 7.873-2.435 14.769-9.704 18.089-3.263 1.497-6.711 2.591-9.982 4.081-1.755.798-3.193 2.342-4.979 3.017-2.057.776-4.547 1.776-6.48 1.264-5.76-1.528-10.593.031-15.897 2.234-5.567 2.312-11.776 3.755-17.792 4.127-8.412.528-16.987.256-25.33-.853-2.521-.334-5.15-4.282-6.58-7.152-1.555-3.118.943-5.74 3.549-7.292 9.008-5.344 18.317-10.192 27.139-15.824 4.531-2.893 8.274-7.036 12.349-10.635.371-.326.533-1.086.912-1.194 5.459-1.529 4.539-5.322 4.005-9.619-.904-7.269-.719-14.669-1.623-21.929-.789-6.315-2.513-12.505-3.712-18.765-.843-4.39-1.353-8.858-2.296-13.225-1.469-6.827-3.279-13.583-4.717-20.417-.51-2.428-.448-4.995-.526-7.509-.294-9.58-.641-19.152-.773-28.732-.124-9.029-.982-18.205.309-27.041 1.021-6.973-.038-13.815.851-20.657.781-6.066 1.856-12.108 2.35-18.19.256-3.149-.479-6.384-.734-9.58-.139-1.738-.518-3.522-.263-5.205 1.925-12.644 3.905-25.28 6.008-37.893 2.057-12.318 8.961-22.131 16.284-31.788 2.18-2.878 5.405-5.865 3.255-10.317 4.075-5.996-1.098-10.767-2.204-16.049-.618-2.948.031-4.988 2.498-6.633 1.709-1.14 3.255-2.513 4.894-3.762 4.585-3.506 4.06-8.618-1.16-11.193-1.152-.567-2.381-1.055-3.402-1.808-2.342-1.714-2.049-4.095.464-5.499 1.941-1.086 5.127-2.087 5.405-3.569.665-3.545.479-7.493-.371-11.022-.851-3.522-1.763-6.989-4.206-10.325-2.111-2.886-1.067-8.098-1.408-12.217-7.415-1.598-11.397 5.476-17.428 7.958-8.784 3.615-16.987 8.673-25.462 13.055-.997.512-2.405.396-3.224 1.063-1.964 1.621-5.057 3.374-5.273 5.353-.828 7.338-5.637 11.907-10.13 16.724-2.861 3.064-3.317 4.313-.247 6.865 2.513 2.094 1.948 4.46.843 6.485-1.005 1.838-2.83 4.165-4.601 4.468-6.108 1.031-11.428-1.792-15.379-6.066-5.768-6.253-6.248-13.459-2.482-21.324 1.407-2.948 1.013-6.765 1.368-9.627 1.547-1.288 3.627-2.18 4.106-3.607.967-2.886-.572-5.135-3.325-6.578-1.221-.644-2.543-1.544-3.208-2.692-.689-1.186-.944-2.846-.774-4.219.07-.543 1.779-1.218 2.768-1.249 4.106-.148 8.305-.598 12.318.023 8.389 1.303 14.312-2.909 19.74-8.168 10.253-9.921 19.794-20.487 28.114-32.145 2.745-3.848 6.294-7.168 8.73-11.186 2.706-4.468 3.858-9.324.278-14.32-1.438-2.009-1.655-4.863-2.714-7.198-3.34-7.354-5.034-15.072-4.322-23.093.75-8.439 2.111-16.817 3.201-25.226.448-3.436.734-6.903 1.361-10.301 1.044-5.686 2.219-6.609 7.848-6.873 6.07-.279 12.023-5.872 11.985-12.116-.016-1.994-2.328-3.979-3.627-5.95-1.26-1.916-2.42-3.917-3.874-5.678-2.76-3.343-5.265-7.136-8.667-9.665-5.722-4.251-6.642-10.736-8.931-16.569-1.082-2.754-.758-6.105-4.887-6.601-.765-.094-1.345-1.459-2.087-2.157-1.871-1.768-3.789-3.483-5.219-4.786-1.918-4.204-4.091-8.005-5.328-12.093-.649-2.164.224-4.848.642-7.26.317-1.847 1.616-3.693 1.423-5.423-.913-8.13 3.92-12.939 9.394-17.484.773-.644 2.289-1.373 2.219-1.885-.58-4.073 2.745-5.275 4.81-7.594 1.971-2.227 3.696-4.174 6.843-4.275.587-.015 1.244-.372 1.716-.752 3.047-2.459 5.993-5.057 9.124-7.392.812-.605 2.196-.404 3.302-.667 1.593-.38 3.363-.52 4.709-1.335 3.054-1.846 5.891-1.388 9.185-.582 6.789 1.66 13.702 2.956 20.637 3.786 2.846.341 3.983.923 3.689 3.8-.294 2.824.379 5.105 2.992 6.936 2.227 1.567 3.062 3.777-.046 5.84-3.31 2.196-1.469 4.399.433 6.323 2.304 2.335 4.747 4.53 7.082 6.74-3.835 4.678-1.763 10.891 3.364 12.218.85.225 1.848 1 2.227 1.792 2.08 4.36 4.19 8.742 3.046 13.862-.789 3.521-.827 7.345-2.273 10.549-2.181 4.817-5.111 9.34-8.111 13.715-1.539 2.249-1.469 3.917.564 5.22 2.56 1.645 5.413 2.816 8.08 4.29a110.386 110.386 0 0 1 6.325 3.793c5.575 3.576 11.165 7.129 16.655 10.844 3.673 2.49 7.183 5.228 10.74 7.881.495.373 1.23.931 1.222 1.404-.031 5.314 3.881 5.624 7.655 6.827 2.49.799 5.281 2.715 6.533 4.933 2.274 4.01 6.735 7.199 5.653 12.822-.186.955.711 2.157 1.198 3.204 2.49 5.267 4.98 10.534 7.531 15.77 1.121 2.296 2.165 4.678 3.665 6.718 1.856 2.521 2.614 5.174 3.031 8.253.41 3.033 2.026 5.888 2.853 8.89 4.725 17.12 11.181 33.82 13.145 51.623.572 5.158.812 10.309-4.121 14.591-4.686 4.057-8.861 9.052-12.101 14.343-2.706 4.421-5.296 8.532-9.132 12.132-1.09 1.023.743 5.546 1.678 8.307 1.369 4.065 3.48 7.889 4.663 12 2.381 8.277 4.716 16.593 6.386 25.032 1.995 10.061 3.248 20.262 4.864 30.4.394 2.506 1.415 5.003 1.307 7.47-.194 4.344-1.315 8.649-1.547 12.993-.301 5.748-1.268 11.256-2.605 16.887-1.4 5.888-.704 12.318-.619 18.516.139 9.689 8.83 14.715 17.451 10.364 4.532-2.289 9.209-4.267 13.81-6.415.688-.318 1.531-.644 1.918-1.226 4.933-7.478 11.691-12.923 19.137-17.655.734-.465 1.276-1.458 1.608-2.319 2.861-7.455 5.969-14.366 13.152-19.253 3.866-2.622 7.122-4.561 11.838-4.903 4.802-.349 7.763 2.118 10.763 4.926 2.15 2.009 4.137 4.204 6.055 6.438 1.407 1.637 2.915 3.32 3.812 5.244 5.126 11.038 10.067 22.162 15.124 33.231.642 1.397 1.446 2.777 2.42 3.949 2.822 3.374 2.428 7.493 2.544 11.371.17 5.648-.016 11.326-.41 16.965-.263 3.809-.634 7.765-1.894 11.318-1.423 4.01-3.882 7.617-8.745 8.377-5.39.838-9.225-1.66-11.954-5.934-3.998-6.252-7.624-12.737-11.637-18.974-1.052-1.636-2.714-3.374-4.469-3.979-5.189-1.784-10.547-3.087-15.867-4.46-4.113-1.063-7.523.256-9.897 3.886-6.193 9.44-12.147 19.043-18.542 28.352-1.917 2.792-4.933 4.833-7.477 7.183-5.072 4.685-10.028 9.526-15.309 13.978-4.64 3.91-9.611 7.431-14.506 11.031-4.809 3.537-10.508 6.252-14.335 10.634-4.245 4.849-9.271 5.461-14.722 5.989-5.158.496-6.704-.784-8.993-5.376-1.005-2.017-2.907-3.777-4.77-5.135-5.057-3.684-9.41-8.199-10.88-14.187-2.567-10.472-4.183-21.169-6.185-31.781-.139-.76-.186-1.536-.271-2.296-1.268-11.465-2.613-22.93-3.765-34.41-.48-4.732-.426-9.51-.859-14.242-.232-2.583-.958-5.12-1.461-7.641l-.031-.062Z"/></svg>