<svg xmlns="http://www.w3.org/2000/svg" width="667" height="800" fill="none"><path fill="gray" fill-opacity=".08" d="M513.714 730.146S521.5 683 512.5 648c-1.458-5.668-8.3-10.776-13.011-12.436-1.894-.669-3.855-1.449-5.433-2.64-1.554-1.172-2.568-3.032-3.994-4.405-1.927-1.86-2.817-4.075-3.348-6.667-.755-3.688-1.951-7.237-5.682-9.198-4.835-2.539-9.522-5.39-14.473-7.676-4.754-2.191-9.699-4.037-14.683-5.654-4.974-1.607-9.279-3.816-12.388-8.279-1.985-2.845-4.744-5.141-6.921-7.872-2.109-2.64-4.223-5.362-5.811-8.327-4.089-7.629-7.404-15.645-12.497-22.767-1.717-2.401-2.545-5.639-3.124-8.623-1.525-7.887-3.74-15.506-8.264-22.193-3.152-4.658-6.711-9.049-10.236-13.44-.798-.994-2.109-1.774-3.338-2.19-4.63-1.564-5.62-3.205-4.678-7.959 1.096-5.514 1.98-11.125-1.325-16.195-2.463-3.773-5.132-7.47-8.135-10.818-2.033-2.263-3.291-4.472-2.703-7.466 1.512-7.663-1.583-13.058-7.992-17.051-3.941-2.459-6.691-5.563-6.16-10.896.296-2.989-.211-6.275-1.21-9.126-1.784-5.084-4.257-9.919-6.371-14.893-3.008-7.079-6.988-13.292-13.689-17.573-5.361-3.424-10.551-7.083-16.84-8.657-2.535-.636-5.28-.846-7.567-1.985-4.763-2.362-9.427-4.993-13.87-7.91-6.265-4.114-12.416-8.471-19.547-10.881-7.476-2.531-14.244-6.237-20.691-10.657-3.253-2.228-5.61-5.108-6.835-8.905-.928-2.88-2.009-5.706-2.951-8.576-.842-2.568-2.635-4.065-5.189-4.572-4.578-.914-8.265-2.995-9.662-7.696-.373-1.253-.062-3.056.617-4.209 2.21-3.745 4.716-7.318 7.155-10.924.608-.904 1.225-1.975 2.114-2.487 9.451-5.419 17.133-12.914 23.939-21.198 7.471-9.102 12.584-19.653 16.424-30.778 2.741-7.949 5.347-15.946 8.016-23.919 3.267-9.742 5.701-19.61 5.869-30.007.057-3.597.225-7.844 4.764-9.528.038-.014.033-.143.057-.234-2.258-1.971-3.272-4.544-3.291-7.471-.052-6.591.22-13.143 1.765-19.619 1.354-5.678 1.191-11.46.971-17.291-.239-6.452-.206-12.885-2.583-18.992-1.535-3.951-2.965-8.016-5.127-11.623-2.186-3.654-4.123-7.064-2.831-11.488.138-.474-.488-1.172-.727-1.703.392-.689 1.033-1.339 1.114-2.052.488-4.137 1.253-8.178.354-12.473-1.119-5.348-2.664-9.934-7.485-13.33-4.73-3.33-9.451-6.38-15.066-7.916-.617-.167-1.315-.507-1.693-.99-3.97-5.065-9.102-8.265-15.511-8.614-2.076-.115-4.573 1.124-6.294 2.478-2.181 1.717-4.779 1.76-6.39-.65-.416-.623-1.062-1.25-1.741-1.498-1.856-.674-3.793-1.124-5.687-1.703-4.745-1.458-9.451-3.056-14.234-4.366-2.2-.603-4.525-2.382-6.868-.106-.239.235-.904-.01-1.359.058-1.674.244-3.414.31-4.998.837-2.616.875-5.141 2.037-7.686 3.113-1.745.742-3.549 1.402-5.175 2.349-2.927 1.707-5.701 3.673-8.618 5.395-1.828 1.076-3.769 1.975-5.721 2.812-2.214.947-4.52 1.684-6.744 2.617-1.234.516-2.434 1.085-2.353 2.893.024.483-1.114 1.44-1.746 1.468-3.931.177-5.246 3.564-6.978 6.012-1.114 1.574-2.042 2.995-3.716 4.032-1.88 1.163-3.563 2.65-5.333 3.994-.502.378-.976.799-1.511 1.124-3.53 2.148-6.993 4.424-10.637 6.357-2.731 1.449-3.822 4.266-5.926 6.203-.086.081-.048.296-.067.426.621.239 1.238.468 1.894.722-.66 2.018-1.124 3.874-1.875 5.61-.813 1.87-2.291 2.707-4.429 2.167-2.377-.598-3.726 1.109-5.783 2.377l4.381.995c-2.52 3.453-6.15 5.524-7.695 9.465-.66 1.684-1.406 3.138-1.492 5.041-.201 4.238 1.999 8.389.387 12.665-.091.239.397.77.708 1.067.837.779 1.97 1.353 2.544 2.281.952 1.545 1.851 2.664 3.927 2.186.469-.11 1.134.617 1.708.961-.417.598-.713 1.373-1.273 1.751-.693.464-1.607.593-2.41.861.846 5.562.688 7.174-1.134 13.047-.119.383.019.909.191 1.301.967 2.153.67 2.76-1.678 3.473-1.976.598-4.008 1.09-5.883 1.922-2.258 1.005-3.769 2.641-4.228 5.333-1.273 7.404-.866 14.722.406 22.073.966 5.591 1.756 11.269 4.879 16.114 2.482 3.855 5.624 7.279 8.284 11.024 2.535 3.573 5.715 5.878 10.13 6.457.669.086 1.659.923 1.755 1.531.268 1.698.407 3.506.125 5.189-.684 4.056-1.78 8.045-2.445 12.101-.669 4.094-3.238 7.265-6.633 8.222-4.267 1.205-6.749 3.764-8.724 7.112-3.755 6.37-8.375 11.957-14.052 16.668-1.832 1.516-3.827 2.836-5.735 4.266-4.592 3.434-8.36 7.839-14.19 9.729-16.253 5.275-32.285 11.239-48.57 16.405-11.135 3.53-22.48 6.356-33.261 10.977-2.08.889-2.774 1.946-2.774 4.213.057 156.936.052 313.866.052 470.802v3.008h453.173c.717 0 1.506.182 2.128-.062.584-.229 1.459-.961 1.411-1.382-.407-3.501 1.497-6.466 2.057-9.709.574-3.32 1.712-6.079 4.175-8.49 4.171-4.084 7.571-8.934 12.809-11.943 1.784-1.023 3.07-2.917 4.706-4.539.813-.21 2.047-.454 3.224-.865.813-.282 1.516-.885 2.324-1.196 6.72-2.578 6.892-5.496 6.103-10.709-.497-3.305 1.019-4.443 3.181-5.672 4.027-2.287 8.637-3.669 11.866-7.194 2.324-2.535 6.514-8.021 6.514-8.021l-.009-.004Z"/></svg>