<svg xmlns="http://www.w3.org/2000/svg" width="667" height="800" fill="none"><path fill="gray" fill-opacity=".08" d="M619 799.996H0V701.7c1.028-.407 2.117-.705 3.07-1.244 2.28-1.292 4.472-2.735 6.736-4.05 2.795-1.621 5.643-3.15 8.438-4.767 2.645-1.526 5.236-3.15 7.881-4.672 6.72-3.866 13.513-7.608 20.166-11.587 3.488-2.083 7.146-3.817 10.487-6.262 5.123-3.749 10.82-6.711 16.29-9.982.802-.478 1.736-.727 2.538-1.209 6.793-4.081 13.607-8.12 20.328-12.318 3.017-1.884 6.05-3.847 8.687-6.206 5.063-4.525 10.57-8.131 17.076-10.189 2.373-.749 4.98-1.315 6.935-2.724 3.839-2.758 7.301-6.04 10.906-9.119 2.709-2.313 5.368-4.683 8.103-6.967 1.73-1.443 3.489-2.871 5.354-4.126a194.608 194.608 0 0 1 9.135-5.787c3.315-1.971 7.165-3.075 9.681-6.297a620.036 620.036 0 0 1 8.872-11.138c1.062-1.3 2.313-2.449 3.515-3.625 3.303-3.233 6.517-6.567 9.967-9.635 4.532-4.031 9.531-7.573 13.822-11.835 4.151-4.122 7.538-9.002 11.486-13.342 3.161-3.478 6.837-6.316 11.49-7.759 1.857-.576 3.582-1.741 5.214-2.86 1.329-.915 2.343-2.283 3.65-3.244 3.112-2.295 4.739-5.516 5.59-9.1 1.255-5.283 2.445-10.603 3.236-15.969.464-3.142 1.436-6.665-1.736-9.258-.437-.354-.822-.772-1.213-1.179-1.232-1.27-1.507-2.736-1.27-4.499.2-1.481-.113-3.026-.098-4.541.008-.802.045-1.684.377-2.385 2.366-4.981 2.916-7.053-1.82-9.966-.425-.264-.862-.509-1.288-.776-3.888-2.419-7.738-4.782-10.292-8.859-2.821-4.503-5.699-8.855-5.432-14.518.06-1.308-.309-2.845-1.006-3.942-4.826-7.588-6.25-16.142-7.368-24.816a492.108 492.108 0 0 0-1.831-12.834c-.821-5.313-2.724-10.565-1.891-15.991.844-5.498-1.567-9.043-5.659-12.129-1.375-1.04-2.621-2.536-3.348-4.096-1.843-3.964-3.365-8.075-4.992-12.137-.697-1.741-1.273-3.534-2-5.264-.769-1.835-1.684-3.61-2.475-5.437-.66-1.526-1.439-3.045-1.778-4.65-.411-1.944-.042-4.099-.667-5.938-1.887-5.585-1.854-11.142-.505-16.779.9-3.765 1.665-7.57 2.739-11.286 1.718-5.945 3.767-11.797 5.413-17.762.754-2.736 1.251-5.656 1.168-8.47-.057-1.907.305-3.252 1.567-4.511.26-.256.667-.618.629-.878-.301-2.106 1.247-2.928 2.573-3.956.396-.305.682-.803.9-1.266.272-.581.317-1.281.641-1.824a79.896 79.896 0 0 1 2.961-4.627 140.513 140.513 0 0 1 3.722-5.117c1.232-1.624 2.641-3.124 3.748-4.827 1.206-1.854 2.144-3.877 3.213-5.818.08-.143.268-.252.426-.328 3.632-1.725 6.423-4.514 9.158-7.347.961-.995 1.725-2.178 2.716-3.452 2.893-2.027 6.069-4.246 9.248-6.469a58.77 58.77 0 0 0-.248-.607l-4.133 1.266c-.128-.249-.26-.494-.388-.742 5.195-1.165 9.799-3.128 11.946-8.437-.354-.275-.87-.674-1.68-1.304 1.096-.655 1.97-1.19 2.859-1.703 1.601-.919 3.688-1.036 4.392-3.35.309-1.017 1.424-1.857 2.306-2.626 2.012-1.752 4.4-3.157 6.11-5.158 3.699-4.33 8.118-7.461 13.362-9.594 2.366-.961 4.611-2.227 6.883-3.402.478-.245.84-.712 1.269-1.055.558-.449 1.089-.946 1.703-1.296 1.115-.641 2.362-1.074 3.402-1.805 1.092-.765 1.88-2.009 3.021-2.649 3.858-2.167 7.817-4.153 11.727-6.225 2.984-1.583 5.975-3.161 8.917-4.823 1.239-.697 2.294-1.737 3.548-2.389 2.362-1.225 4.796-2.31 7.226-3.403 2.388-1.073 4.807-2.079 7.21-3.116 1.887-.814 3.718-1.801 5.666-2.415 2.904-.916 5.888-1.571 8.838-2.336l-.095.075c1.255-.335 2.521-.625 3.76-1.013 4.257-1.342 8.525-2.653 12.737-4.126 1.036-.362 2.23-1.101 2.708-2.005.659-1.236 1.285-1.861 2.871-1.492-.471.893-2.637.034-2.147 2.121.444-.056.832-.034 1.164-.158 2.203-.833 4.219-2.344 6.826-1.628.403.11.979-.448 1.488-.678.621-.283 1.231-.641 1.883-.791 1.872-.422 3.869-.486 5.628-1.176 4.551-1.786 8.635-.836 12.616 1.549.588.35 1.27.542 1.907.806.079-.169.162-.339.241-.509l-5.38-2.758c.057-.173.113-.346.174-.516 4.595.143 9.338-.75 13.516 2.623.128-1.918-.565-2.759-1.925-3.407-.964-.459-1.684-1.428-2.513-2.17l.26-.46 10.465 3.052c.125-.248.245-.497.366-.75-1.515-.987-2.909-2.313-4.566-2.875-2.189-.742-4.585-.885-6.89-1.277-.983-.169-1.974-.316-2.961-.471 2.332-.396 4.618-.362 6.898-.422.459-.011.907-.384 1.446-.629 1.153.267 2.55.595 3.948.923l-.015-.362c-5.014-4.503-10.024-9.009-15.038-13.512.135-.185.271-.365.41-.55 2.562 1.579 5.139 3.127 7.678 4.74 2.629 1.669 5.048 3.832 7.88 4.985 3.542 1.44 5.873 4.164 8.627 6.474.739.618 1.575 1.123 2.471 1.756.554.659 1.172 1.593 1.978 2.317 1.386 1.24 2.893 2.344 4.344 3.516.52.418 1.017.859 1.525 1.288.347-.475.694-.946 1.131-1.545.267.43.41.886.719 1.116 1.514 1.123 1.409 4.544 4.63 3.293.169-.064.569.256.753.482 1.225 1.522 2.694 1.293 4.299.765-.102-.305-.2-.478-.211-.659-.046-.652-.061-1.308-.087-1.96.509.46 1.077.867 1.518 1.387.836.987 1.45 2.219 2.426 3.022 1.616 1.326 3.462 2.374 5.18 3.583.983.694 1.902 1.47 3.179 2.468-.301-1.062-.437-1.718-.67-2.34-.69-1.861-1.432-3.704-2.117-5.569-.117-.312-.174-.946-.061-.994 1.888-.852-.214-1.263-.177-2.163.535.184 1.255.233 1.364.512.433 1.119.693 2.31.976 3.486.113.467-.03 1.04.188 1.428.957 1.707 2.483 3.244 2.927 5.056 1.206 4.921 6.212 5.554 9.034 8.588.158.173.629.011.9.132 2.298 1.009 4.818 1.081 7.154 2.302 4.622 2.423 9.542 4.292 14.394 6.251 1.876.757 3.877 1.383 5.877 1.624 1.819.218 3.296.769 4.618 2.001.377.354 1.025.441 1.567.591 2.355.652 4.724 1.263 7.075 1.937.399.113.75.445 1.085.724 1.955 1.601 4.238 1.884 6.593 1.428 2.053-.4 2.84-.031 3.488 1.967.753 2.324 1.978 4.261 4.43 5.181.392.147.757.685.893 1.122.546 1.734 1.277 3.475 1.416 5.253.196 2.457.833 4.232 3.911 4.314-1.839 1.037-2.14 3.539-.705 4.394 1.13.674 2.483.972 3.715 1.488.768.321 1.499.735 2.738 1.357-2.237 1.153-3.857 1.989-5.116 2.634.701 1.077 1.718 2.204 1.545 2.441-1.616 2.178-.252 3.821.735 5.566.169.301.267.644.455 1.104-.557-.053-.938-.087-1.329-.125l.211 1.338c-1.526-.637-2.415.004-2.449 1.236-.064 2.581.151 5.075 2.377 7.024 1.364 1.19 2.577 2.69 2.279 4.845-.071.52.343 1.191.705 1.666.791 1.043 1.657 2.031 2.546 2.992 3.986 4.299 8.137 8.455 11.938 12.909 2.897 3.395 5.361 7.163 8.171 10.972-2.2.396-1.755 1.255-.927 1.937 2.935 2.408 3.994 5.999 5.47 9.194 2.279 4.929 3.847 10.185 5.719 15.302.245-.045.49-.087.731-.132v-4.326l.843.034-.384 6.824c.2.03.4.06.599.094.317-1.104.637-2.204.953-3.308.14.008.279.015.418.026l.577 5.434.682.056 1.085-3.184c.35.588.625.912.753 1.285 1.081 3.248 2.219 6.481 3.176 9.767.836 2.871.892 6.116 2.294 8.64 2.464 4.428 1.914 9.164 2.347 13.765.452 4.789.237 9.65.181 14.476a57.588 57.588 0 0 1-.562 7.243c-.282 2.031-.892 4.016-1.307 6.032-.486 2.374-2.042 4.665-.392 7.205-2.516.908-3.032 3.044-3.835 5.011-.802 1.967-1.733 3.885-2.648 5.912-.215-.354-.441-.735-.81-1.349-.218.972-.377 1.684-.539 2.397.174-.053.351-.106.524-.155.301.844 1.017 1.786.844 2.517-1.138 4.755-2.113 9.646-6.513 12.759-.193.135-.268.425-.441.599-1.017 1.021-2.049 2.031-3.078 3.044-.267-.229-.535-.459-.806-.689 1.288-1.926 2.332-4.096 3.933-5.709 1.774-1.786 3.16-3.587 3.808-6.055.362-1.383.064-2.121-1.352-2.807-.252.644-.332 1.322-.708 1.714-1.793 1.881-3.406 4.126-5.576 5.407-2.757 1.628-5.993 2.442-9.011 3.637-.327.131-.629.414-.859.697-2.29 2.777-6.11 2.788-8.781 4.879-.12.094-.384.091-.546.03-1.631-.599-2.027.422-2.14 1.681-.128 1.424-.73 2.314-2.298 2.408l.385-3.128c-2.396 2.853-3.056 6.526-6.389 7.506-.569-.527-1.18-1.213-1.27-1.153-.716.498-1.33 1.134-1.963 1.718 1.91 2.182 2.182 5.863-.523 7.156-.238-2.212-.46-4.262-.678-6.312-.234-.041-.467-.086-.701-.128-.821 1.538-1.804 3.018-2.407 4.639-.475 1.281-.482 2.739-.69 4.122-.09.618-.267 1.247-.214 1.858.15 1.684.03 3.214-1.323 4.487-.38.362-.406 1.112-.568 1.692-.4 1.417-.415 3.131-1.259 4.19-1.507 1.884-2.041 4.021-2.426 6.217-.263 1.5-.049 3.083-.049 4.707-.463-.174-.998-.377-1.586-.596-.03 3.15-.666 5.008-1.91 5.573 1.187 1.07.603 1.903-.109 3.022-.764 1.206-1.028 2.751-1.428 4.171-.478 1.7-.504 3.667-1.412 5.072-.814 1.259-1.194 2.302-1.13 3.753.06 1.398.022 2.917-.464 4.201-1.514 4.021-3.258 7.955-4.927 11.919-.143.339-.328.768-.618.919-2.366 1.24-2.701 3.666-3.39 5.837-3.097 9.721-5.726 19.616-9.324 29.149-2.547 6.749-5.907 13.305-9.742 19.421-4.829 7.698-10.985 14.439-17.653 20.69-3.431 3.221-6.969 6.24-9.5 10.516-5.576 9.428-11.837 18.452-17.894 27.59-3.044 4.589-6.329 9.024-9.339 13.636-.557.856-.685 2.325-.399 3.335a97.14 97.14 0 0 0 3.277 9.608c.637 1.59 1.688 3.03 2.679 4.45a36.496 36.496 0 0 0 3.051 3.799c1.97 2.151 3.718 4.717 6.118 6.217 3.307 2.072 7.101 3.391 10.747 4.891 3.184 1.311 6.442 2.445 9.682 3.625 4.295 1.559 8.548 3.27 12.917 4.578 4.419 1.322 8.981 2.159 13.442 3.349 1.789.479 3.428 1.47 3.816 3.516.429 2.272.791 4.563.99 6.865.347 3.976 1.568 7.363 5.485 9.145 2.332 1.063 4.728 1.986 7.026 3.109 3.828 1.869 7.666 3.723 11.377 5.806 4.633 2.604 9.222 5.31 13.682 8.203 2.822 1.828 5.376 4.066 8.043 6.135 3.458 2.683 7.003 5.264 10.333 8.097 4.423 3.768 8.695 7.71 12.985 11.628 2.773 2.533 5.749 4.921 8.134 7.789 5.507 6.628 11.569 12.8 16.195 20.178 2.848 4.54 6.498 8.572 9.485 13.037 2.532 3.791 4.777 7.792 6.875 11.843 2.419 4.665 4.494 9.503 6.807 14.228.569 1.161 1.507 2.129 2.2 3.233 1.854 2.954 3.666 5.935 5.497 8.9l.011-.004ZM352.193 170.914c3.413-.871 6.822-1.745 10.235-2.615-3.563.286-7.108.644-10.235 2.615Z"/></svg>