<svg xmlns="http://www.w3.org/2000/svg" width="667" height="800" fill="none"><path fill="gray" fill-opacity=".08" d="M507.606 800H193.992c.279-1.447.67-2.882.811-4.342.196-2.046 1.149-4.117-.108-6.167-.204-.333-.137-.89-.067-1.319.442-2.586.841-5.182 1.403-7.739.866-3.947 1.877-7.864 2.78-11.803 1.003-4.375 2.181-8.733 2.843-13.162a52.246 52.246 0 0 1 2.735-10.58 4.44 4.44 0 0 0 .278-1.107c.425-4.599.837-9.203 1.245-13.807.112-1.26.191-2.52.295-3.947-1.14-.178-2.135-.361-3.142-.494-1.527-.2-3.088-.238-4.582-.566-4.262-.944-8.554-1.809-12.728-3.057-6.947-2.079-14.064-2.957-21.235-3.464-4.986-.354-9.998-.387-14.996-.562-2.314-.079-2.664-.332-2.972-2.586-.254-1.851-.878-3.361-2.489-4.533-1.623-1.182-2.722-2.895-3.459-4.787-1.756-4.504-2.959-9.17-3.679-13.936-.845-5.581-1.465-11.2-2.268-16.789-.953-6.638-2.456-13.134-5.548-19.147-1.22-2.371-1.299-4.796-.879-7.312.492-2.911.92-5.834 1.574-8.708 1.207-5.315 2.555-10.597 3.85-15.895 1.036-4.238 2.131-8.463 3.121-12.709 1.149-4.937 2.123-9.915 3.347-14.835.899-3.61 2.26-7.103 3.075-10.725 1.141-5.057 3.234-9.574 6.531-13.558.362-.437.674-.957.845-1.493 1.003-3.182 1.964-6.376 2.93-9.569 1.19-3.926 2.201-7.915 4.166-11.57.87-1.618 1.207-3.373.911-5.215-.224-1.394-.378-2.803-.678-4.18-.62-2.853-.166-5.481 1.465-7.906 1.149-1.705 2.214-3.468 3.459-5.099 1.402-1.838 3.109-3.256 5.698-2.753.162.034.354-.095.628-.179.441-2.021.754-3.959-.87-5.743-.832-.915-1.298-2.125-.903-3.402.396-1.272.758-2.62 1.469-3.718 1.116-1.717 1.57-3.506 1.316-5.477-.317-2.458.166-4.72 1.394-6.849 2.185-3.781 3.33-7.894 3.979-12.186.529-3.497 1.261-6.953 3.163-10.022 1.249-2.017 2.485-4.047 3.796-6.026 1.403-2.117 2.069-4.405 1.819-6.929-.429-4.317.366-8.409 2.122-12.352.417-.935.854-1.884 1.124-2.865 1.54-5.535 4.275-10.58 6.543-15.812.849-1.959 1.827-3.992 3.663-5.34.666-.49 1.54-.765 2.068-1.36 1.732-1.938 3.925-2.329 6.368-2.391 2.223-.054 4.241-.778 5.781-2.553.446-.516 1.099-.886 1.711-1.219 2.772-1.485 5.631-2.82 8.328-4.429 2.781-1.659 6.073-1.93 8.837-3.676 2.085-1.319 4.491-2.13 6.763-3.145 2.089-.935 4.15-1.975 6.301-2.748 5.178-1.859 10.406-3.573 15.6-5.382 1.869-.649 3.704-1.389 5.544-2.117 1.773-.699 3.563-1.368 5.294-2.162 2.552-1.173 5.107-2.367 7.575-3.706 2.356-1.281 4.591-2.782 6.909-4.138a85.395 85.395 0 0 1 4.383-2.362c2.223-1.131 4.524-2.113 6.684-3.348 2.556-1.46 4.878-3.377 7.53-4.608 1.956-.911 2.909-2.32 3.725-4.067.324-.699.686-1.377 1.044-2.059.591-1.127 1.137-2.312 2.756-2.237 0-1.173-.054-2.196.008-3.215.266-4.217.104-8.488 1.507-12.576.199-.582.32-1.277.199-1.863-.944-4.646-1.91-9.287-2.959-13.907-.782-3.431-1.352-6.921-2.755-10.194-.579-1.343-1.141-2.711-1.494-4.125-.983-3.918-1.728-7.902-2.797-11.794-.862-3.136-2.031-6.185-3.138-9.25-.171-.47-.77-1.135-1.12-1.102-.516.042-1.061.562-1.457.998-.857.94-1.556 2.034-2.46 2.92-.466.457-1.236.815-1.881.844-3.313.133-5.398-1.701-5.943-4.995-.146-.877-.354-1.771-.712-2.578-.708-1.576-1.586-3.078-2.31-4.65-1.523-3.298-2.019-6.882-2.88-10.367-.891-3.61-1.748-7.245-2.989-10.739-.649-1.829-.924-3.53-.77-5.423.2-2.42.179-4.857.333-7.282.063-1.014.183-2.071.529-3.015.608-1.651 1.785-2.986 3.608-3.057 1.778-.066 3.068-.698 3.984-2.066.57.208 1.023.37 1.552.561.608-1.688 1.399-3.202.412-4.887.445-2.025-.237-4.005-.22-6.005.012-1.464.503-2.932.457-4.387-.083-2.608 1.091-4.966 1.241-7.511.012-.25.158-.487.233-.732.549-1.805.628-3.643.391-5.502.333-.266.662-.524.966-.77-.25-.486-.433-.848-.812-1.584.733.52 1.095.773 1.827 1.289-.295-.773-.379-1.148-.566-1.455-.791-1.281-.707-2.404.5-3.386.424-.345.387-.769.387-1.331 0-1.073-.529-2.304.678-3.231 1.282-.981 1.823-2.262 1.253-3.955-.221-.661-.05-1.543 1.115-1.335-.803-1.634-.249-3.057.737-4.313.404-.515 1.161-.74 1.677-1.189.458-.399.799-.936 1.203-1.402.108-.124.254-.216.379-.32l-.558-1.318c1.74-2.042 3.459-4.059 5.186-6.08l1.965.116c-.092-1.543.72-2.329 1.918-2.807.408-.112.404.861 1.178.245 1.124-.894 2.327-1.755 3.884-2.058 1.119-.221 1.344-.978 1.207-2.175.466-.275 1.269-.121 1.315-1.019.012-.279.27-.599.503-.799 1.724-1.484 3.438-2.977 5.224-4.379.416-.324 1.09-.32 1.885-.528.416-.495.579-1.809 2.015-1.422.033-.121.025-.279.104-.362.682-.724 1.323-1.955 2.081-2.03 1.248-.129 2.264-.811 2.926-1.422 1.594-1.468 3.617-1.684 5.415-2.508.557-.258 1.211-.299 1.918-.466.529.2-.212 1.568 1.112 1.34l-.263-1.327 2.227-.903c.258.458.537.953.837 1.489 1.402-1.002 2.418-2.162 3.65-2.487 1.332-.353 2.872.067 4.383.154.437-.362.245-1.484 1.223-1.331 1.045.163 2.273-.336 2.847.591 1.012-.096 1.807-.196 2.602-.237.632-.033 1.265.012 1.902.021 1.556.025 3.109.054 4.665.066 2.76.025 5.365 1.406 8.191.915.362-.062.812-.008 1.132.162 1.607.849 3.484.953 5.049 1.926.375.233.949.116 1.403.254.716.216 1.444.44 2.102.781.882.458 1.673 1.102 2.568 1.535.557.27 1.007.462 1.082 1.173.037.337.312.649.587 1.173.328-.524.545-.874.786-1.256.25.262.496.515.766.802 1.182-.69 2.173-.711 3.009.52.337.499.945.811 1.428 1.206 1.09-.632 1.149-.611 2.788.923-.357.134-.67.25-.986.366.795 1.048 1.915 1.086 3.155.999l-.699 1.389c1.228.457 2.372.885 3.721 1.393.095.528.491 1.081 1.423 1.143.416.03.937.237 1.199.545 1.352 1.576 2.992 2.907 3.933 4.849.35.72.949 1.381 2.002 1.531 1.215.174 2.439.574 3.292 1.518-.22.374-.391.665-.633 1.073 1.145.387 2.211.732 1.869 2 .491.092.978.038 1.145.241.587.724 1.024 1.568 1.594 2.308.928 1.207 1.785 2.508 2.913 3.498.77.674 1.191 1.456 1.199 2.283.013 1.593.737 2.791 1.603 3.997.208.291.332.665.407 1.019a5.43 5.43 0 0 0 .775 1.859c.778 1.206 1.207 2.649 1.694 4.025.124.354-.105.82-.117 1.24-.037 1.189-.724 2.483.849 3.377.4.228.52 1.26.475 1.9-.117 1.626-.546 3.236-.562 4.858-.009.782-.404 1.035-.849 1.38l2.509 2.155c-.229.545-.482.998-.595 1.48a3.23 3.23 0 0 0-.021 1.281c.325 1.813.695 3.614 1.033 5.423.016.083-.134.2-.246.354-.104-.167-.196-.308-.287-.449-.034-.05-.063-.1-.096-.146l-.2.15c-.241 1.014 1.228 2.216-.216 3.181-.017.013.058.262.137.3.982.465.6 1.202.204 1.717-.72.948-.899 1.947-.716 2.708-.607.827-1.019 1.476-1.519 2.046-.72.819-.533 1.518.183 2.171.828.757 1.261 1.642 1.399 2.782.1.823.57 1.597.928 2.533.911-1.152-.512-2.417.666-3.402.245 1.197.416 2.233.682 3.248.263.994 1.137 1.426 2.044.935.533-.291.982-.811 1.348-1.31.779-1.064 1.199-1.256 2.377-.811 1.099.416 1.711 1.152 1.99 2.367.77 3.364.77 6.833 1.785 10.189.733 2.424.379 5.04-.504 7.552-1.19 3.386-2.168 6.85-3.204 10.289a23.63 23.63 0 0 0-.691 3.003c-.533 3.252-1.944 6.08-4.017 8.604-.736.894-1.615 1.809-1.394 3.057.312 1.747-.233 3.252-.882 4.803-.467 1.111-1.207 1.689-2.369 2.005-1.735.474-3.109-.362-4.391-.944-.836.395-1.519.715-2.36 1.115-.249 1.072-.486 2.262-.799 3.426-1.494 5.573-2.942 11.163-4.528 16.71-1.544 5.39-3.796 10.493-6.813 15.23-1.332 2.096-1.278 4.425.27 6.504 2.26-.025 2.993.167 3.459 1.664.716 2.296 2.106 4.213 3.142 6.325a16.22 16.22 0 0 0 2.452 3.631c1.319 1.476 2.872 2.745 4.274 4.155 2.577 2.591 5.111 5.223 7.667 7.839 1.007 1.031 2.16 1.805 3.604 2.1 1.449.295 2.885.641 4.333.928 4.636.923 9.086 2.42 13.131 4.853 3.455 2.079 7.159 3.439 10.988 4.579 1.719.511 3.451 1.052 5.066 1.813 7.271 3.419 14.609 6.646 22.333 8.937 1.449.429 2.864.666 4.342.574 3.849-.237 7.529.329 11.075 1.942 5.219 2.375 10.239 5.087 14.871 8.468 2.901 2.116 5.819 4.225 8.249 6.92.483.532 1.287.778 1.948 1.148 1.057.594 2.298.998 3.13 1.817 1.632 1.61 3.076 3.419 4.533 5.199 2.593 3.164 4.595 6.641 5.564 10.663.924 3.834 1.287 7.698 1.199 11.649-.066 3.06.258 6.13.408 9.191v.769c-.142 1.131-.354 2.258-.412 3.393-.175 3.423-1.074 6.53-3.351 9.229-1.344 1.593-2.821 3.244-2.534 5.635.037.299-.113.628-.212.936-.417 1.285-.209 2.545.187 3.78.528 1.643.97 3.335 1.71 4.883 1.253 2.632.741 5.518 1.391 8.23.145.611-.304 1.356-.442 2.046-.216 1.065-.408 2.138-.603 3.206-.208 1.123-.42 2.242-.608 3.369-.216 1.318-.474 2.637-.595 3.967a56.646 56.646 0 0 0-.216 4.766 7.947 7.947 0 0 0 .308 2.263 48.393 48.393 0 0 0 3.3 8.38c1.436 2.853 1.116 4.828-1.232 6.679-2.281 1.797-2.955 4.105-2.805 6.8.187 3.318.404 6.641.682 9.956.146 1.717.458 3.418.671 5.127.062.504.141 1.044.033 1.527-.729 3.269-.387 6.596-.429 9.881-.037 2.841.52 5.693.912 8.526.145 1.043.249 2.012-.296 2.973-.145.258-.15.624-.141.936.037 1.792.137 3.581.141 5.373.004 1.664.017 3.34-.15 4.991-.304 2.994-.749 5.976-1.115 8.962-.137 1.127.191 2.574-.391 3.335-1.324 1.726-1.607 3.756-2.256 5.664-1.436 4.255-2.822 8.538-2.485 13.138.017.254-.037.512-.067.765-.632 5.685-1.519 11.321-3.221 16.794-1.773 5.693-3.509 11.399-5.498 17.017-1.003 2.833-2.435 5.502-3.143 8.464-.278 1.168-.89 2.266-1.427 3.356-.966 1.954-2.065 3.847-2.968 5.83-.791 1.735-1.448 3.539-2.064 5.344-.745 2.18-1.216 4.463-2.106 6.571-1.99 4.725-3.992 9.462-7.779 13.159-.853.831-1.769 1.921-1.981 3.023-.433 2.263-1.844 3.893-2.935 5.748-.541.915-1.073 1.863-1.419 2.861-.658 1.892-.187 3.809.137 5.702.358 2.083 1.083 4.163 1.066 6.242-.042 5.51-.366 11.017-.641 16.523-.112 2.296-.495 4.583-.541 6.874-.033 1.589.295 3.186.466 4.779.604 5.618.999 11.245.737 16.901a7.596 7.596 0 0 0 .349 2.645c.733 2.242 1.112 4.612 2.344 6.683.516.87 1.061 1.73 1.461 2.654 2.518 5.801 3.671 12.014 5.323 18.07 1.095 4.009 1.648 8.163 2.443 12.256l.008.008Zm-218.81-564.466c.125.025.254.05.379.079l.087-1.085c-.116-.013-.229-.021-.345-.033-.042.345-.083.694-.121 1.039Z"/></svg>