<svg xmlns="http://www.w3.org/2000/svg" width="667" height="800" fill="none">
  <path fill="gray"
    d="M293.477 199.938c5.139 1.535 6.92 6.766 6.675 12.16-.652 14.496-4.337 29.196 1.373 43.488 6.621 16.561-3.63 32.171-20.76 37.837-13.16 4.347-24.947 13.219-36.843 20.867-5.615 3.601-9.775 9.375-15.078 13.559-4.88 3.859-10.264 7.16-15.702 10.23-6.077 3.437-12.494 6.25-18.68 9.497-1.319.693-2.529 1.943-3.345 3.22-5.084 7.975-12.874 36.301-12.956 46.572 8.212 3.587 9.367 5.747 7.369 14.564-1.142 5.054-2.869 9.999-3.793 15.094-1.115 6.154-1.632 12.404-2.434 18.613-.258 2.01-.19 4.17-.952 5.977-10.264 24.672-12.154 51.273-17.415 77.059-2.176 10.625-1.577 22.077-.639 33.014 1.794 21.072 4.241 42.13 7.396 63.038 1.577 10.475 5.506 20.583 7.871 30.976.367 1.631-1.563 5.258-3.004 5.611-10.265 2.527-20.665 4.565-31.066 6.535-9.856 1.875-19.808 3.247-29.624 5.271-15.39 3.193-30.698 6.712-46.034 10.163-16.26 3.654-32.48 7.472-48.74 11.059-3.262.72-6.661.828-10.006 1.1-4.69.38-7.246 2.038-7.083 7.554.381 13.287.123 26.587.123 41.124 4.364-.38 8.02-.543 11.637-1.06 6.703-.951 13.392-2.078 20.067-3.206 1.047-.176 2.04-.747 3.045-1.168 3.48-1.468 6.852-3.383 10.469-4.375 14.764-4.062 29.556-8.016 44.43-11.67 18.353-4.497 36.829-8.505 55.169-13.015 13.066-3.22 25.981-7.065 39.046-10.339 4.895-1.223 9.816-2.948 14.792.964 4.391 3.438 9.082 1.332 14.017-.312 7.722-2.581 14.669-5.421 20.937-11.208 3.507-3.234 10.441-2.636 15.77-4.008 2.638-.68 5.044-2.405 7.682-2.813 5.941-.923 11.95-1.48 17.946-1.874 1.944-.136 3.956.692 4.554.815 2.842 2.282 5.112 3.614 6.757 5.502 3.372 3.858 7.219 7.594 9.449 12.091 6.702 13.518 12.181 27.661 19.169 41.016 7.6 14.564 16.355 28.517 24.608 42.741 2.23 3.845 5.288 7.473 6.485 11.616 1.523 5.285 4.323 6.223 9.286 6.182 25.314-.245 50.642-.109 75.957-.109h8.252c-2.107-8.464-4.106-15.773-5.683-23.164-.87-4.048-2.406-7.309 2.488-11.629 13.976-12.323 31.365-17.553 47.543-25.161 22.215-10.461 45.613-18.531 67.406-29.781 16.056-8.287 31.664-18.802 36.898-38.257.68-2.5 1.101-5.734.095-7.921-6.023-13.07-11.135-26.914-23.996-35.282-11.352-7.378-22.731-14.741-34.41-21.588-18.081-10.597-37.074-19.781-54.354-31.506-8.021-5.434-16.722-3.872-24.553-7.486-6.227-2.866-13.799-1.997-18.177-9.768-1.55-2.758-8.66-2.989-13.296-3.247-6.254-.367-10.809-2.527-13.569-8.26-.571-1.196-1.359-2.541-2.42-3.193-5.995-3.587-4.921-8.668-3.711-14.211.775-3.559.34-7.377.449-11.072.271-9.66 1.454-19.414.543-28.965-.951-9.932-3.888-19.686-6.063-29.495-2.787-12.622-4.215-24.822 1.767-37.389 3.766-7.893 4.813-17.091 7.002-25.718.381-1.494.122-3.138.489-4.632 3.277-13.274-.503-24.102-10.822-32.987-1.944-1.671-3.195-4.415-4.173-6.888-4.976-12.54-13.745-22.023-23.561-30.921-3.535-3.22-6.091-7.731-8.321-12.065-.87-1.684-.299-4.918.816-6.67 3.671-5.801 8.375-10.978 11.76-16.915 3.29-5.746 4.731-12.607 8.266-18.164 8.633-13.627 10.55-28.612 10.7-44.154.095-9.945.34-19.903.285-29.848-.013-3.356-8.823-12.662-12.086-13.722-4.147-1.345-8.443-1.848-10.863-6.942-1.21-2.541-5.859-3.804-9.204-4.878-8.524-2.744-17.103-6.521-25.817-6.996-5.642-.299-11.815 4.035-17.239 7.173-3.168 1.834-5.738 5.122-7.831 8.26-2.379 3.56-6.308 5.896-6.064 11.684.163 3.818-4.106 7.812-6.43 11.793l-.041.013Zm106.057 469.039c19.822 4.578 37.659 8.708 57.4 13.273-7.246 5.774-13.378 10.774-19.673 15.542-.856.639-2.787.571-3.874.068-9.354-4.347-17.837-3.355-25.913 5-2.76-11.766-5.261-22.444-7.94-33.883Z" />
</svg>