<svg xmlns="http://www.w3.org/2000/svg" width="667" height="800" fill="none">
  <path fill="gray"
    d="M332.385 799.829H184.303c-38.005 0-76.002.07-114.007-.024-21.788-.055-43.584-.329-65.371-.65-1.695-.023-4.512-.885-4.794-1.903-.447-1.628.306-4.103 1.428-5.543a2196.072 2196.072 0 0 1 27.24-34.25c8.615-10.626 17.41-21.095 26.072-31.682.683-.838 1.255-2.012 1.334-3.069.95-13.469 5.837-25.293 15.77-34.47 5.476-5.058 12.906-6.89 20.227-7.47 11.556-.916 23.168-1.174 34.756-1.66 1.271-.055 2.935-.156 3.759.54 3.091 2.608 5.837.995 8.677-.234 10.859-4.714 21.662-9.561 32.584-14.126 10.639-4.456 22.046-5.168 33.344-5.889 8.819-.571 17.332-2.051 25.46-5.473 1.357-.572 2.77-1.559 3.609-2.741 7.132-9.952 13.887-20.179 21.27-29.935 3.978-5.254 8.607-10.148 13.597-14.455 3.554-3.07 3.844-5.654 2.354-9.154-2.44-5.716-4.967-11.401-7.744-16.952-3.248-6.484-3.986-13.218-3.24-20.32.439-4.236.792-8.582.282-12.779-.259-2.115-2.377-4.096-3.907-5.928-1.052-1.253-3.131-1.879-3.758-3.234-3.963-8.605-8.246-17.148-11.196-26.106-1.562-4.738-.95-10.297-.777-15.473.329-10.031 1.012-20.046 1.6-30.069.102-1.808.055-3.758.707-5.387 1.263-3.163 1.553-5.896-.981-8.637-.557-.603-.322-2.239-.039-3.281 3.303-11.949 7.037-23.788 9.893-35.839 1.389-5.873 1.656-12.137 1.585-18.213-.118-10.149 4.621-18.652 7.987-27.72 1.436-3.876 2.165-7.901 4.998-11.15 2.205-2.529 5.343-5.004 6.002-7.956 1.742-7.775 8.348-10.728 13.526-14.901 4.166-3.359 9.572-5.145 14.028-8.214 3.696-2.545 6.748-6.006 10.216-8.919 1.153-.963 2.699-1.464 4.056-2.185 3.648-1.918 7.406-3.656 10.906-5.817 4.958-3.054 9.626-6.578 14.608-9.577 1.813-1.088 4.151-1.464 6.301-1.777 4.213-.627 8.465-1.026 12.71-1.457 5.547-.556 11.102-1.026 16.657-1.566 3.993-.384 8.073-1.558 11.949-1.065 6.598.838 13.236 2.208 19.551 4.268 6.363 2.075 12.397 5.199 18.524 7.979 2.582 1.166 5.053 2.607 7.548 3.954.447.243.769.893 1.2.948 8.121.994 11.808 8.167 17.544 12.465.91.682 1.647 1.668 2.636 2.162 5.547 2.764 9.234 7.313 12.608 12.325 2.73 4.056 5.9 7.83 8.984 11.635 1.467 1.801 3.726 3.133 4.684 5.129 1.42 2.952 2.024 6.296 2.902 9.491.267.971.071 2.09.448 2.991 2.299 5.497 4.935 10.853 7.022 16.428 5.139 13.734 6.661 28.087 6.174 42.621-.164 5.011-2.275 9.983-2.244 14.963.04 5.623-3.036 9.914-4.44 14.87-2.448 8.645-4.3 17.454-6.465 26.185-.526 2.13-.753 4.635-2.048 6.217-3.586 4.393-4.386 9.819-4.637 14.815-.235 4.714-2.605 8.269-3.648 12.419-2.111 8.379-3.523 16.937-5.218 25.417-.18.893-.204 1.825-.463 2.694-2.628 8.848-6.002 17.556-7.712 26.576-1.498 7.862-3.797 15.277-7.155 22.434-2.739 5.834-5.751 11.542-8.482 17.384-1.2 2.56-3.06 5.473-2.691 7.932.455 3.022 2.425 6.24 4.629 8.511 12.452 12.795 24.738 25.66 34.624 40.679 3.35 5.097 8.913 7.76 15.213 8.269 9.729.791 19.575.861 29.147 2.537 10.27 1.801 19.269 7.055 27.233 13.875 1.059.908 2.259 1.966 3.546 2.24 7.979 1.73 14.735 5.716 21.027 10.727 1.302 1.034 2.887 1.778 4.441 2.435 6.057 2.569 10.733 6.813 14.554 12.012 9.634 13.116 18.586 26.796 29.013 39.246 6.787 8.096 15.708 14.408 23.616 21.58 2.699 2.443 4.841 5.842 7.94 7.408 3.154 1.589 5.594 3.523 7.611 6.217.69.924 1.341 1.966 1.639 3.054.487 1.809-.062 2.983-2.314 2.968-4.441-.047-8.882.101-13.322.117-41.638.165-83.276.36-124.913.454-55.109.126-110.218.173-165.319.243-9.533.016-19.066 0-28.598 0v-.164h.015Z" />
</svg>