<svg xmlns="http://www.w3.org/2000/svg" width="667" height="800" fill="none"><path fill="gray" fill-opacity=".08" d="M625.46 800H390.138c-.267-2.069-.793-4.144-.747-6.206.128-5.822.615-11.638.725-17.461.118-5.989-.067-11.982-.071-17.975 0-4.886.114-9.771.096-14.657-.021-6.174-.128-12.352-.199-18.525-.042-3.708.011-7.416-.149-11.121-.153-3.548-.537-7.089-.796-10.634-.089-1.213 0-2.451-.202-3.647a204.391 204.391 0 0 0-1.738-9.002c-.11-.507-.583-.961-.952-1.384-.231-.266-.754-.369-.853-.649-.821-2.317-1.73-4.63-1.126-7.182.188-.787.639-1.809.326-2.359-.803-1.405-.426-2.764-.369-4.162.021-.497.032-1.011-.068-1.494-.241-1.174-.671-2.324-.81-3.509-.408-3.435-.543-6.912-1.123-10.315-.412-2.43-.625-5.003-2.345-7.061-.835-1-1.638-2.075-2.192-3.243-.554-1.167-.81-2.483-1.148-3.75-1.023-3.843-2.011-7.689-3.034-11.532-.409-1.543-.995-3.055-1.272-4.62-.54-3.051-.867-6.142-1.382-9.2-.508-3.012-1.869-3.79-4.787-3.871-1.197-.032-2.419.461-3.602.369-1.649-.128-3.266-.674-4.915-.877a90.393 90.393 0 0 0-6.783-.567c-1.087-.05-2.185.191-3.279.266-1.112.074-2.363.443-2.811-1.146-.028-.1-.202-.202-.323-.224-1.823-.312-3.664-.936-5.469-.841-3.549.185-6.904 1.182-9.544 3.811-.689.685-1.773 1.16-2.11 1.969-.65 1.551-1.827 1.948-3.23 2.126-3.006.376-5.678 1.586-7.735 3.725-1.848 1.92-3.984 3.485-6.208 4.727-2.587 1.447-5.589 2.164-8.432 3.143-1.83.632-3.883.752-5.13 2.59-.235.348-.875.462-1.354.597-1.102.312-2.225.546-3.326.865-.37.107-.846.284-1.009.575-.658 1.171-1.635 1.26-2.715.873-1.069-.383-1.812-.181-2.473.781-.238.344-.867.489-1.347.581-.906.174-1.837.224-2.75.362-.884.135-1.791.543-2.633.43-2.061-.284-3.869.241-5.621 1.213-.547.302-1.066.689-1.645.891-2.111.724-4.25.706-6.492.564-3.922-.245-7.877-.021-11.818.025-.259 0-.529.135-.778.245-2.078.887-3.191.564-4.623-1.274-.287-.373-.7-.827-1.108-.894-1.89-.305-3.799-.515-5.707-.703-3.812-.372-7.65-.571-11.441-1.103-2.743-.387-5.404-1.363-8.151-1.757-2.114-.305-4.299-.064-6.449-.17-.736-.035-1.919-.185-2.107-.621-.917-2.115-3.152-2.604-4.655-3.953-1.13-1.011-3.027-1.163-4.58-1.703-2.04-.706-4.402-.688-5.948-2.508-.984-1.161-1.933-2.285-3.546-2.612-.306-.064-.512-.599-.768-.912-1.592-1.934-3.148-3.892-4.793-5.78-.746-.858-1.649-1.582-2.498-2.345-1.634-1.462-3.109-3.201-4.967-4.286-2.196-1.285-3.507-2.913-4.058-5.326-.103-.458-.572-1.107-.959-1.178-2.267-.412-2.999-3.211-5.384-3.371-.056-.004-.085-.174-.156-.213-.643-.351-1.272-.933-1.94-.99-1.841-.149-3.699-.053-5.547-.099-1.368-.036-2.86.184-4.072-.288-2.547-.997-5.258-1.774-7.213-3.963-.867-.969-1.982-1.749-3.087-2.466-1.329-.859-2.779-1.526-4.14-2.338-.398-.238-.678-.685-.991-1.058-1.141-1.351-2.224-2.753-3.418-4.055-1.379-1.501-2.907-2.871-4.261-4.393-.614-.692-.98-1.607-1.439-2.437-.312-.565-.746-1.125-.845-1.732-.345-2.118-1.539-3.715-3.642-3.924-3.532-.348-7.071-1.2-10.646-.252-.835.22-1.698.387-2.555.465-3.07.273-6.143.503-9.217.738-2.309.177-5.202-1.345-5.727-3.219a79.297 79.297 0 0 1-1.674-7.337c-.803-4.45-1.421-8.931-2.231-13.377-.945-5.202-2.068-10.371-3.013-15.573-1.145-6.291-2.3-12.582-3.23-18.905-.615-4.18-2.274-8.104-2.513-12.394-.177-3.2-1.144-6.358-1.765-9.534a8264.72 8264.72 0 0 0-3.202-16.261c-1.162-5.858-2.33-11.713-3.5-17.571-.614-3.09-1.009-4.613-5.227-4.694-2.725-.053-5.347.372-8.016.514-2.387.128-4.786.895-7.138.728-3.681-.256-7.433-.149-10.962-1.845-2.512-1.207-4.836-2.505-6.69-4.606-1.113-1.259-2.353-2.406-3.483-3.651-1.428-1.575-2.963-3.087-4.15-4.833a22.441 22.441 0 0 1-2.668-5.347c-1.127-3.317-2.217-6.685-2.86-10.119-.502-2.668-.477-5.475-.36-8.207.125-2.938.235-5.979 1.056-8.768 1.737-5.908 4.9-11.056 9.37-15.41a34.843 34.843 0 0 1 12.326-7.784c3.407-1.257 7.138-1.43 10.851-.973 5.526.682 11.065 1.217 16.605 1.771 3.052.305 6.118.507 9.174.766 5.753.49 11.498 1.047 17.254 1.459 4.207.301 8.425.507 12.639.571 1.311.021 2.722-.373 3.923-.93 1.514-.702 2.825-1.834 4.292-2.661 1.016-.571 2.136-.979 3.23-1.394 1.571-.593 3.525-.731 4.662-1.774 1.855-1.707 3.937-2.704 6.179-3.648 1.94-.816 3.912-1.086 5.92-.834 7.952.987 15.904 1.994 23.835 3.133 6.019.866 11.562 3.03 16.497 6.653 1.549 1.139 3.258 2.094 4.665 3.382 2.96 2.714 5.782 5.581 8.642 8.402 2.903 2.863 5.806 5.734 8.677 8.629 2.249 2.267 4.36 4.684 6.715 6.837 1.738 1.59 3.788 2.839 5.664 4.283 1.912 1.476 3.987 2.817 5.618 4.567 2.139 2.292 3.884 4.946 5.863 7.394.504.628 1.236 1.075 1.869 1.6 1.432 1.196 2.864 2.388 4.299 3.58.235.196.448.458.718.55 1.897.628 3.798 1.253 5.717 1.806 1.005.291 2.054.568 3.088.593.629.014 1.432-.309 1.869-.759.639-.653 1.172-1.239 2.181-1.139.281.028.647-.135.871-.33 1.222-1.083 2.384-2.232 3.617-3.3 1.944-1.689 3.997-3.296 6.744-3.169 4.566.213 8.681 1.696 12.099 4.826 1.751 1.604 3.006 3.52 3.557 5.876.184.787.373 1.717.898 2.256 1.997 2.058 3.333 4.46 4.207 7.15.377 1.16 1.177 1.82 2.267 2.388 3.635 1.891 7.025 4.134 9.281 7.696.484.766.725 1.689 1.24 2.427 2.52 3.601 4.378 7.455 4.975 11.865a13.18 13.18 0 0 0 .92 3.296c.949 2.246 2.015 4.446 3.052 6.653.349.742.921 1.412 1.127 2.186.885 3.296 2.423 6.277 4.15 9.186.661 1.114 1.464 1.675 2.803 1.409.757-.149 1.546-.178 2.321-.188 1.979-.025 3.343-.72 4.022-2.778 1.148-3.485 3.61-6.022 6.701-7.842 1.432-.844 2.985-1.387 3.639-3.098.067-.173.359-.266.547-.393 1.084-.746 2.185-1.466 3.244-2.243 2.583-1.898 5.113-3.882 8.425-4.389.952-.145 1.382-.749 1.524-1.682.078-.518.238-1.089.551-1.49 1.009-1.299 2.093-2.544 3.169-3.79 1.599-1.848 3.337-3.594 4.801-5.545 1.801-2.41 3.688-4.62 6.509-5.912.555-.255 1.173-1.075 1.194-1.65.043-1.344-.544-2.54-1.801-3.388-.235.369-.42.66-.729 1.149-.185-.73-.366-1.206-.423-1.696-.323-2.76-1.289-5.283-2.526-7.77-2.189-4.418-4.161-8.945-6.261-13.409-2-4.254-4.331-8.377-6.005-12.752-1.609-4.212-3.564-8.2-5.788-12.089-.266-.465-.654-.866-1.002-1.284-1.322-1.586-2.75-3.094-3.933-4.776-.711-1.011-.999-2.31-1.535-3.449-.562-1.185-1.311-2.292-1.77-3.509-.654-1.735-1.105-3.545-1.666-5.315-.725-2.289-1.755-4.524-2.15-6.87-.679-4.048-1.055-8.153-1.4-12.248a244.15 244.15 0 0 1-.725-12.685c-.11-3.544-.117-7.107.064-10.648.135-2.65.167-5.34 1.02-7.923.679-2.062 1.201-4.176 1.862-6.245.345-1.079.824-2.115 1.261-3.161.647-1.558 1.176-3.187 1.997-4.649a135.758 135.758 0 0 1 4.95-8.136c1.29-1.962 2.405-4.037 4.484-5.453 1.588-1.082 2.992-2.537 4.189-4.056 2.104-2.672 4.84-4.51 7.608-6.344 1.474-.976 2.917-2.001 4.441-2.895 2.359-1.384 4.328-3.375 6.922-4.404.959-.379 1.84-.965 2.786-1.387 1.581-.706 3.158-1.426 4.786-2.005 1.542-.55 3.183-.819 4.711-1.401 3.188-1.21 6.396-2.243 9.85-2.321.615-.014 1.215-.308 1.833-.433a8.97 8.97 0 0 1 1.464-.188c1.045-.035 2.093-.017 3.138-.042 3.688-.089 7.419-.965 11.015.649.259.117.675-.16 1.016-.149.38.011.934.011 1.105.241.881 1.193.956 1.224 1.951.217 1.847.408 3.61.798 5.464 1.206-.103-.305-.195-.564-.383-1.114.916.248 1.624.376 2.277.632.803.315 1.539.819 2.353 1.107 3.83 1.355 7.614 2.902 11.54 3.885 1.898.475 2.768 2.072 4.46 2.725 1.716.663 3.478 1.668 4.494 3.438a.24.24 0 0 0 .111.082c2.217.876 3.237 3.065 4.935 4.517.586.503.835 1.394 1.258 2.097.114.184.274.401.462.475 1.073.412 2.114.813 2 2.278-.007.11.366.227.519.383.206.206.426.43.551.685.479.994.877 2.026 1.396 2.998.508.951 1.375 1.781 1.635 2.782.369 1.416 1.432 2.434 1.755 3.924.224 1.029.437 2.587 1.912 3.087.106.036.17.316.188.49.306 2.881 1.489 5.51 2.349 8.232.145.465.287.936.454 1.394.175.483.334.98.587 1.423.231.408.703.706.852 1.132.427 1.203 1.159 2.501.999 3.658-.188 1.37 1.62 2.026.792 3.612-.288.547.945 1.881 1.471 2.86.196.369.43.745.512 1.146.256 1.277.423 2.573.668 3.85.11.575.529 1.164.451 1.692-.359 2.434.093 4.68 1.191 6.859.398.791.451 1.781.927 2.505.59.898 1.45 1.622 2.221 2.395.142.142.419.146.632.217.643.205 1.279.443 1.933.606.38.096.928.256 1.162.078 1.446-1.114 2.04.167 2.306 1.019.828 2.657 1.905 5.368 2.001 8.09.177 5.013-.089 10.062-.519 15.069-.483 5.638-1.333 11.244-2.065 16.857-.124.962.054 1.381 1.116 1.537 1.532.223 3.081.56 4.53 1.1 2.356.876 4.332 2.327 5.714 4.502 1.595 2.509 3.177 5.028 4.857 7.48 2.217 3.236 4.52 6.419 6.808 9.605a8.383 8.383 0 0 0 1.382 1.49 118.749 118.749 0 0 0 4.385 3.509c.483.369 1.077.792 1.642.827 1.954.117 3.915.075 5.873.096 1.112.01 2.168.479 2.37 1.522.338 1.735 1.45 1.98 2.878 2.2 3.34.521 6.652 1.238 9.995 1.756 4.477.699 8.645 2.044 12.017 5.237 1.663 1.576 1.592 1.484 3.504.206 2.59-1.724 5.259-3.463 8.624-2.757 1.968.412 3.936.905 5.841 1.544 1.279.429 2.569 1.025 3.631 1.834 1.411 1.075 2.9 1.842 4.634 1.781 3.201-.11 5.951 1.168 8.694 2.52 2.243 1.107 4.446 2.299 6.702 3.377 2.722 1.303 5.532 2.445 7.522 4.872.195.241.501.394.76.578 1.297.93 2.633 1.814 3.888 2.796 2.323 1.821 4.601 3.698 6.893 5.561.281.227.526.503.774.769 3.127 3.336 6.091 6.841 9.434 9.946 2.111 1.962 2.747 4.073 2.392 6.717a15.711 15.711 0 0 1-.359 1.746c-.562 2.231-.444 4.3.462 6.532 1.179 2.899 1.851 6.01 2.64 9.058.408 1.583.408 3.29.934 4.822.736 2.151 1.841 4.173 2.693 6.288 2.047 5.084 3.298 10.314 3.152 15.867-.153 5.933-1.286 11.614-3.542 17.099-.676 1.639-1.461 3.339-1.628 5.067-.536 5.588-1.752 10.989-3.716 16.237-1.329 3.544-2.829 7.032-3.937 10.641-1.66 5.382-3.06 10.846-3.895 16.431-.16 1.079-.682 1.551-1.723 1.781-.597.132-1.276.54-1.631 1.029a261.324 261.324 0 0 0-5.532 7.984c-.412.614-.565 1.394-.917 2.051-.355.663-.675 1.621-1.244 1.841-2.16.838-2.86 2.885-4.331 4.404l1.24.386c-2.516.408-4.516 2.573-4.143 5.167.59 4.112 1.119 8.231 1.734 12.337.096.649.423 1.323.814 1.859 1.538 2.093 3.166 4.123 4.715 6.209.455.611.803 1.313 1.115 2.012 1.013 2.264 1.681 4.613 3.34 6.66 1.468 1.81 2.491 4.18 3.049 6.465.505 2.058 1.493 3.725 2.487 5.485.978 1.732 1.837 3.534 2.626 5.358.519 1.203.91 2.477 1.191 3.758.17.791.298 1.795-.047 2.441-.49.915-.469 1.508.071 2.345.91 1.412.743 2.012-.565 3.098-2.366 1.966-2.81 5.354-.98 7.806.931 1.245 1.954 2.423 2.906 3.651 1.386 1.785 1.805 3.672.921 5.886-.459 1.15-.818 2.548-.597 3.715.554 2.96-.764 4.702-3.156 6.011-1.396.767-1.751 1.945-.948 3.332.735 1.267 1.645 2.43 2.334 3.718.544 1.022.928 2.143 1.272 3.258.348 1.121.515 2.299.857 3.424.373 1.224.845 2.416 1.289 3.619 1.166 3.168 1.93 6.546 4.126 9.214 2.981 3.627 5.152 7.544 5.312 12.359.007.22.113.436.167.656.38 1.625.764 3.247 1.126 4.872.188.844.217 1.753.54 2.54 1.023 2.488 2.125 4.947 3.248 7.391 1.311 2.864 2.789 5.656 3.994 8.562 2.039 4.922 1.133 9.779-.69 14.548-.206.536-.614 1.015-1.012 1.447-1.002 1.086-1.489 2.328-1.137 3.779.689 2.839 1.453 5.66 2.16 8.491.163.653.213 1.334.316 2.001l-.014.011ZM202.084 550.146c1.918-1.114 3.67-2.118 5.408-3.151.266-.159.465-.436.675-.674 2.704-3.09 5.372-6.213 8.115-9.268 1.304-1.451 2.982-2.622 4.051-4.215 1.013-1.508 2.018-2.987 3.248-4.322.177-.191.227-.496.383-.713.846-1.185 1.592-2.466 2.587-3.512 2.409-2.537 4.918-4.982 7.43-7.42 1.105-1.071 2.21-2.189 3.486-3.03a251.92 251.92 0 0 1 10.311-6.458c2.299-1.362 3.042-3.299 2.921-5.858-.135-2.806-.053-5.62-.075-8.43-.014-1.792-.448-2.207-2.238-2.211-.32 0-.64-.032-.96-.049-4.519-.245-8.84.376-12.823 2.732-.601.354-1.482.429-2.2.351-1.204-.135-2.373-.593-3.578-.749-1.485-.195-3.027-.472-4.48-.266-3.39.486-6.737 1.274-10.113 1.888-5.216.947-10.45 1.799-15.655 2.803-2.559.493-3.237 1.412-2.996 4.041.256 2.814.779 5.599 1.12 8.406.263 2.171.266 4.382.664 6.522.728 3.899 1.734 7.745 2.498 11.638.942 4.8 1.73 9.629 2.633 14.437.409 2.182.739 4.329-.284 6.444-.142.294-.086.688-.125 1.071l-.003-.007Zm-20.708 11.968c-.047-.191-.089-.383-.135-.574-.544.046-1.091.063-1.631.138-2.537.351-5.039 1.189-7.65.177-.526-.205-1.55.153-1.987.6-.685.703-.401 1.597.288 2.31.867.894 1.851.571 2.807.266a337.45 337.45 0 0 0 6.357-2.101c.664-.227 1.3-.539 1.947-.812l.004-.004Z"/></svg>