<svg width="82" height="32" viewBox="0 0 82 32" fill="none" xmlns="http://www.w3.org/2000/svg">
<circle cx="2.4" cy="2.4" r="2.4" transform="matrix(-1 0 0 1 8.56055 6.64062)" fill="black"/>
<path d="M5.76023 8.67969L10.2402 13.1597" stroke="black" stroke-width="1.2"/>
<circle cx="25.7604" cy="9.04062" r="2.4" fill="black"/>
<path d="M26.2007 8.67969L21.7207 13.1597" stroke="black" stroke-width="1.2"/>
<path fill-rule="evenodd" clip-rule="evenodd" d="M6.84062 23.3648C5.5471 22.749 4.79429 21.3661 5.04646 19.9559C6.1288 13.9031 10.6394 9.36328 16.0394 9.36328C21.4525 9.36328 25.9718 13.9251 27.0401 19.9999C27.2886 21.4127 26.5296 22.7949 25.2317 23.4057C22.4543 24.7127 19.3522 25.4433 16.0794 25.4433C12.7726 25.4433 9.63998 24.6974 6.84062 23.3648Z" fill="#FFDF6F"/>
<path d="M27.0401 19.9999L26.4492 20.1038L27.0401 19.9999ZM25.2317 23.4057L24.9762 22.8628L25.2317 23.4057ZM6.84062 23.3648L6.58272 23.9065L6.84062 23.3648ZM5.63709 20.0615C6.68292 14.2129 11.006 9.96328 16.0394 9.96328V8.76328C10.2728 8.76328 5.57467 13.5933 4.45583 19.8503L5.63709 20.0615ZM16.0394 9.96328C21.0849 9.96328 25.4169 14.2336 26.4492 20.1038L27.631 19.896C26.5268 13.6166 21.82 8.76328 16.0394 8.76328V9.96328ZM24.9762 22.8628C22.2771 24.133 19.262 24.8433 16.0794 24.8433V26.0433C19.4423 26.0433 22.6316 25.2924 25.4872 23.9486L24.9762 22.8628ZM16.0794 24.8433C12.8637 24.8433 9.81902 24.1181 7.09852 22.823L6.58272 23.9065C9.46093 25.2767 12.6815 26.0433 16.0794 26.0433V24.8433ZM26.4492 20.1038C26.6484 21.2365 26.0419 22.3613 24.9762 22.8628L25.4872 23.9486C27.0174 23.2285 27.9288 21.5889 27.631 19.896L26.4492 20.1038ZM4.45583 19.8503C4.15366 21.5402 5.05776 23.1806 6.58272 23.9065L7.09852 22.823C6.03644 22.3174 5.43492 21.1921 5.63709 20.0615L4.45583 19.8503Z" fill="black"/>
<path fill-rule="evenodd" clip-rule="evenodd" d="M9.1487 21.8583C8.10748 21.4342 7.48984 20.3264 7.85063 19.2616C8.96327 15.9779 12.2089 13.6016 16.0395 13.6016C19.8701 13.6016 23.1157 15.9779 24.2284 19.2616C24.5892 20.3264 23.9715 21.4342 22.9303 21.8583C20.8037 22.7244 18.4773 23.2016 16.0395 23.2016C13.6017 23.2016 11.2753 22.7244 9.1487 21.8583Z" fill="black"/>
<ellipse cx="18.7998" cy="18.7211" rx="2" ry="1.6" fill="white"/>
<ellipse cx="13.0742" cy="18.7211" rx="2" ry="1.6" fill="white"/>
<path d="M39.9682 23H37.0753L42.3424 8.03896H45.6882L50.9625 23H48.0697L44.0737 11.1071H43.9568L39.9682 23ZM40.0632 17.1339H47.9528V19.3109H40.0632V17.1339ZM55.4607 8.03896V23H52.8162V8.03896H55.4607ZM58.2969 23V8.03896H60.9414V13.6347H61.051C61.1874 13.362 61.3797 13.0722 61.6281 12.7654C61.8765 12.4537 62.2125 12.1883 62.6362 11.9692C63.0599 11.7451 63.6005 11.6331 64.258 11.6331C65.1249 11.6331 65.9065 11.8547 66.6029 12.2979C67.3042 12.7362 67.8594 13.3864 68.2685 14.2484C68.6825 15.1055 68.8895 16.1575 68.8895 17.4042C68.8895 18.6364 68.6874 19.6834 68.2831 20.5455C67.8789 21.4075 67.3286 22.0649 66.6322 22.5179C65.9357 22.9708 65.1468 23.1972 64.2653 23.1972C63.6224 23.1972 63.0891 23.0901 62.6654 22.8758C62.2417 22.6615 61.9008 22.4034 61.6427 22.1015C61.3895 21.7946 61.1922 21.5049 61.051 21.2321H60.8976V23H58.2969ZM60.8903 17.3896C60.8903 18.1153 60.9926 18.7508 61.1971 19.2963C61.4065 19.8417 61.706 20.2679 62.0956 20.5747C62.4901 20.8766 62.9674 21.0276 63.5275 21.0276C64.1119 21.0276 64.6013 20.8718 64.9958 20.5601C65.3903 20.2435 65.6874 19.8125 65.887 19.267C66.0916 18.7167 66.1939 18.0909 66.1939 17.3896C66.1939 16.6932 66.094 16.0747 65.8943 15.5341C65.6947 14.9935 65.3976 14.5698 65.0031 14.263C64.6086 13.9562 64.1167 13.8028 63.5275 13.8028C62.9625 13.8028 62.4828 13.9513 62.0883 14.2484C61.6939 14.5455 61.3943 14.9619 61.1898 15.4976C60.9901 16.0333 60.8903 16.664 60.8903 17.3896ZM72.3996 27.2078C72.0392 27.2078 71.7056 27.1786 71.3988 27.1201C71.0969 27.0666 70.8558 27.0032 70.6756 26.9302L71.2892 24.8701C71.674 24.9821 72.0173 25.0357 72.3193 25.0308C72.6212 25.026 72.8866 24.931 73.1155 24.7459C73.3493 24.5657 73.5465 24.2638 73.7072 23.8401L73.9337 23.2338L69.8647 11.7792H72.6699L75.2559 20.2532H75.3728L77.9662 11.7792H80.7787L76.286 24.3588C76.0766 24.9529 75.799 25.4619 75.4532 25.8856C75.1074 26.3141 74.6837 26.6404 74.1821 26.8644C73.6853 27.0933 73.0912 27.2078 72.3996 27.2078Z" fill="black"/>
</svg>
