<svg xmlns="http://www.w3.org/2000/svg" width="32" height="32" fill="none"><g clip-path="url(#a)"><g clip-path="url(#b)"><path fill="#fff" stroke="#fff" stroke-width="1.517" d="M4.2 11.557a3.719 3.719 0 0 0 1.57-.173l.012.01.019.019c-2.075 2.359-3.538 5.411-4.142 8.789-.428 2.39.855 4.69 2.979 5.7a26.503 26.503 0 0 0 11.418 2.57c4.083 0 7.876-.903 11.31-2.518 2.133-1.004 3.425-3.301 3.003-5.696-.597-3.396-2.091-6.444-4.146-8.838-2.595-3.025.008-.013.008-.013s.892.194 1.37.16a3.721 3.721 0 0 0 3.44-3.485 3.707 3.707 0 0 0-3.915-3.912 3.72 3.72 0 0 0-3.478 3.376 3.72 3.72 0 0 0 .215 1.608l-.03.03-.017.018c-2.239-1.651-4.91-2.625-7.805-2.625-2.896 0-5.585.98-7.83 2.643l-.017-.017-.028-.028-.054-.054a3.712 3.712 0 0 0 .2-1.595 3.72 3.72 0 0 0-3.475-3.355A3.708 3.708 0 0 0 .889 8.087a3.717 3.717 0 0 0 3.31 3.471v-.001z"/><path fill="#FFDF6F" fill-rule="evenodd" d="M5.332 24.445c-1.502-.714-2.375-2.32-2.083-3.957.611-3.419 2.166-6.422 4.322-8.603.329-.334.673-.647 1.028-.941 2.105-1.734 4.657-2.75 7.408-2.75 2.75 0 5.284 1.009 7.384 2.731.356.292.7.606 1.03.939 2.179 2.194 3.746 5.225 4.352 8.676.289 1.64-.593 3.245-2.099 3.954a24.889 24.889 0 0 1-10.621 2.364c-3.798 0-7.474-.865-10.723-2.413h.002z" clip-rule="evenodd"/><path fill="#000" d="m4.618 6.961-.985.985 2.342 2.343c.409-.235.753-.57.997-.973L4.618 6.96z"/><path fill="#000" fill-rule="evenodd" d="M27.387 5.087c-1.508-.025-2.82 1.25-2.834 2.757-.006.551.15 1.067.42 1.501l2.384-2.382.984.984-2.36 2.36c.468.26 1.018.39 1.6.34a2.795 2.795 0 0 0 2.533-2.543 2.786 2.786 0 0 0-2.727-3.017zm-2.413 4.258-1.086 1.085c.356.295.7.61 1.028.941l1.066-1.065a2.792 2.792 0 0 1-1.008-.96zM29.46 20.42c-.627-3.569-2.258-6.74-4.545-9.049l-.492.493c-.33-.333-.674-.646-1.031-.938l.495-.496c-2.219-1.84-4.93-2.93-7.88-2.93-2.951 0-5.68 1.096-7.902 2.95l.494.495c-.356.293-.7.607-1.028.94l-.493-.492c-2.265 2.295-3.883 5.438-4.515 8.975-.35 1.96.7 3.864 2.469 4.707a25.578 25.578 0 0 0 11.022 2.48c3.944 0 7.604-.872 10.918-2.431 1.776-.836 2.834-2.74 2.488-4.703zm-3.081 3.443a24.167 24.167 0 0 1-10.325 2.299c-3.693 0-7.266-.841-10.424-2.345-1.232-.587-1.93-1.893-1.696-3.204.59-3.302 2.081-6.166 4.13-8.236l1.031-.937c1.984-1.614 4.37-2.548 6.912-2.548 2.541 0 4.909.926 6.89 2.529l1.033.935c2.07 2.082 3.573 4.972 4.159 8.305.23 1.315-.473 2.62-1.71 3.202zM6.972 9.317a2.804 2.804 0 0 1-.996.973l1.103 1.103c.33-.333.671-.647 1.027-.943L6.972 9.317zm0 0c.265-.436.413-.95.403-1.498a2.806 2.806 0 0 0-2.842-2.732 2.786 2.786 0 0 0-2.72 3.017 2.796 2.796 0 0 0 2.552 2.545 2.798 2.798 0 0 0 1.611-.359L3.634 7.947l.984-.984 2.354 2.354z" clip-rule="evenodd"/><path fill="#000" fill-rule="evenodd" d="m28.341 7.948-2.36 2.358a2.792 2.792 0 0 1-1.007-.96l2.383-2.383.985.985zm-3.425 3.424-.492.492a13.75 13.75 0 0 0-1.03-.938l.494-.495c.356.294.7.61 1.028.94zM8.6 10.945c-.356.293-.699.607-1.028.94l-.492-.492c.329-.333.67-.647 1.026-.943l.495.495zM6.973 9.317a2.803 2.803 0 0 1-.997.973L3.634 7.948l.985-.985 2.354 2.354z" clip-rule="evenodd"/><path fill="#000" fill-rule="evenodd" d="m28.341 7.946-2.36 2.359a2.792 2.792 0 0 1-1.007-.96l2.383-2.384.985.985z" clip-rule="evenodd"/><path fill="#000" d="m23.888 10.43-.496.495c.357.292.7.606 1.03.939l.493-.493a14.124 14.124 0 0 0-1.027-.94v-.002zm-15.783.019c-.356.296-.698.61-1.027.943l.493.493c.329-.334.673-.647 1.028-.941l-.494-.495z"/><path fill="#000" fill-rule="evenodd" d="M8.058 22.747c-1.208-.492-1.925-1.778-1.506-3.013 1.291-3.81 5.058-6.57 9.504-6.57 4.445 0 8.212 2.758 9.504 6.57.42 1.235-.298 2.522-1.506 3.013a21.147 21.147 0 0 1-7.997 1.559c-2.83 0-5.53-.553-7.998-1.56z" clip-rule="evenodd"/><path fill="#fff" d="M19.26 20.964c1.283 0 2.322-.832 2.322-1.857 0-1.026-1.04-1.857-2.322-1.857s-2.322.831-2.322 1.857c0 1.025 1.04 1.857 2.322 1.857zm-6.645.001c1.282 0 2.322-.831 2.322-1.857s-1.04-1.857-2.322-1.857c-1.283 0-2.322.831-2.322 1.857s1.04 1.857 2.322 1.857z"/></g></g><defs><clipPath id="a"><path fill="#fff" d="M0 0h32v32H0z"/></clipPath><clipPath id="b"><path fill="#fff" d="M-.036 3.245h32v26.15h-32z"/></clipPath></defs></svg>
