<svg viewBox="0 0 8000 8000" xmlns="http://www.w3.org/2000/svg"><path d="m1402.8 2403.6c0 .2.2.4.3.6l.3.6c-.2-.4-.4-.8-.6-1.2zm-6.6-12.2s0 0 0 0 0 0 0-.1zm6568.7 4017.6c-70.3-392-243.1-830.2-493.9-1292.6-44-81.2-90.3-163-138.8-245.2-217.9 280.6-444.4 543.4-696.7 797.3 189.7 361.6 300.9 662 345.7 898.2v.3s.1.3.1.3c51 267.3 5.1 364.8-9.2 385.8-3.8 5.5-8.9 11.7-26.9 19.5-22.6 9.8-70.5 23.3-156.7 23.3h-22.7c-189.6-5.8-461-71.7-819.2-232.2l-.4-.2-.4-.2c-82.8-36.9-167.7-77.7-254.3-122.2-274.5 250.5-540.5 479.3-816.2 690.6 227.8 134.1 451.8 251.1 669.4 348.9h.2s10.5 4.8 10.5 4.8c437.7 195.3 856 313.3 1227.2 314.8 384.4 1.5 766.1-126.6 1006.1-472.7 226.4-326.6 245.2-734.4 176.3-1118.5zm-2712.1-724.7 10.6-10.1c288.9-276.9 562.9-563.2 818.2-852.7 422.7-488.7 821.5-1025.1 1222.7-1645.4 58.7-98.1 114.3-195.6 166.7-292.2 250.9-462.4 423.7-900.6 493.9-1292.6 68.9-384.1 50.1-792-176.3-1118.5-240-346.2-621.8-474.2-1006.1-472.8-223.4.9-464 44-715.5 120.8 212 278.4 364.8 589.7 458.4 915.5 91.2-19.8 171.2-29.9 240.4-32h22.7c86.2 0 134.1 13.6 156.7 23.3 18 7.8 23.1 14 26.9 19.5 14.3 20.9 60.2 118.5 9.2 385.8v.3s-.1.3-.1.3c-46.9 247.9-167.1 566.4-374.3 952.2-.4.7-.8 1.5-1.2 2.2l-.4.7c0 .2-.2.4-.3.6v.2c-.2.4-.4.7-.6 1.1l-.4.8s0 0 0 0c0 .1-.1.2-.2.4v.2c-.2.3-.4.7-.6 1.1-.4.8-.8 1.6-1.3 2.3-.3.6-.7 1.3-1 1.9-.3.5-.6 1.1-.9 1.6-.3.6-.7 1.2-1 1.9v.1s0 .1-.1.2c-.1.3-.3.5-.4.8 0 .1-.1.3-.2.4 0 0 0 .2-.1.3 0 .1-.1.3-.2.4-.2.3-.4.7-.5 1-.1.2-.2.5-.4.7-.2.4-.5.9-.7 1.3-.1.3-.3.5-.4.8-137.6 254.5-304.5 520.4-496.7 791.5-193.7 273.1-350.7 479.3-626.5 801.8-195.6 228.8-405.2 456.5-626 680.5-90.5 91.8-183 183-277.1 273.3h-.1c0 .1-.1.3-.1.3-40.1 38.5-80.2 76.6-120.4 114.3-.2.1-.3.3-.5.4-148.4 139-298 272.4-447.3 399.3l-.2-.2c-264 226.6-526.9 434.2-805.4 626.9.4.3.8.7 1.2 1.1-307.2 216.4-603.8 398.8-882.2 542.3-88.5 45.6-175.1 87.4-259.7 125l-.9.4c-358.2 160.4-629.5 226.4-819.2 232.2h-22.7c-86.2 0-134.1-13.6-156.7-23.3-18-7.8-23.1-14-26.9-19.5-14.2-20.9-60.2-118.5-9.2-385.8v-.3s.1-.3.1-.3c44.1-232.9 152.8-528.1 337.6-882.8-237.4-260.1-465.4-530-687.3-814.9-49 83-95.7 165.5-140.1 247.4-250.9 462.4-423.7 900.6-493.9 1292.6-68.8 384.1-50.1 792 176.3 1118.5 240 346.1 621.7 474.2 1006.1 472.7 371.2-1.4 789.5-119.5 1227.2-314.8l10.5-4.7h.2c387.7-174.4 795.7-409.6 1209.4-693.7 445.5-310.6 878.1-655.1 1318.4-1051.3 90.2-81.9 180.1-165.8 269.6-251.5zm-2725.1-1684.2c-275.8-322.6-432.8-528.7-626.5-801.8-192.1-270.9-358.9-536.6-496.4-790.9-.3-.6-.6-1.2-.9-1.8-.2-.3-.3-.6-.5-.9-.1-.2-.2-.4-.3-.6-.2-.4-.4-.8-.6-1.1s-.3-.6-.5-.9c0-.1-.1-.3-.2-.4 0 0 0-.1 0-.2s-.2-.3-.2-.4l-.2-.3s0 0 0 0c0-.1-.2-.3-.2-.4s0 0 0 0 0 0 0-.1-.1-.3-.2-.4c-.2-.4-.5-.9-.9-1.6-.4-.6-.7-1.3-1-1.9 0-.1-.1-.3-.2-.4-.7-1.2-1.3-2.4-1.9-3.6s0 0 0-.1 0 0 0-.1c0 0 0-.2-.1-.3 0 0-.1-.2-.2-.3-.2-.3-.4-.7-.5-1-.2-.3-.3-.6-.5-.9 0-.1-.2-.3-.2-.4-.1-.2-.2-.5-.4-.7-.5-.9-1.1-2-1.7-3.2-.2-.3-.4-.7-.6-1.1s-.4-.8-.6-1.1c0 0 0-.2-.1-.2-206-384.1-325.6-701.4-372.4-948.5v-.3s-.1-.3-.1-.3c-51-267.3-5.1-364.8 9.2-385.8 3.8-5.5 8.9-11.7 26.9-19.5 22.6-9.8 70.5-23.3 156.7-23.3h22.7c68.6 2.1 147.8 12 237.9 31.5 93.7-325.9 246.6-637.2 458.7-915.6-251.6-77.5-491.4-120.3-714.2-121.2-384.3-1.4-766.1 126.6-1006.1 472.7-226.4 326.6-245.1 734.5-176.3 1118.6 70.3 392 243.1 830.2 493.9 1292.6 45.8 84.6 94.2 169.9 144.9 255.6 396.1 620.9 797.2 1159.8 1231.1 1657.3-1.3 1.8-2.5 3.5-3.7 5.3 178.2 202.8 365.6 404.1 560.9 601.8 267.7-191.6 531.6-396.3 796.3-618.1-259.5-257.6-504.5-520.9-730.8-785.6zm-1109.2-1567.4c.9 1.6 1.7 3.2 2.6 4.8-.9-1.6-1.7-3.2-2.6-4.8zm36.8 68.4c.9 1.7 1.8 3.4 2.7 5.1-.9-1.7-1.8-3.4-2.7-5.1zm-54.4-101.1s0 0 0 0zm1.9 3.6c0 .2.2.4.3.6l.3.6c-.2-.4-.4-.8-.6-1.2z" fill="#ffc800"/><path d="m2762.6 2987.4c-683.4-683.4-683.4-1791.5 0-2474.9s1791.5-683.4 2474.9 0 683.4 1791.5 0 2474.9l-1237.4 1237.4-1237.4-1237.4z" fill="#202020"/></svg>