<svg width="49" height="48" viewBox="0 0 49 48" fill="none" xmlns="http://www.w3.org/2000/svg">
<path d="M21.2853 5.82497C19.3665 3.91344 16.2503 3.9339 14.3383 5.8522L1.9682 18.2656C0.0559666 20.1842 0.0802965 23.2456 1.9986 25.1574L22.2805 45.4393C24.1993 47.3506 27.3093 47.3347 29.2213 45.4164L35.2498 39.3879C33.4916 41.1461 32.0448 39.8819 30.3302 38.1746L26.9678 34.8122C24.415 35.8226 21.4316 35.3206 19.3635 33.2564L16.8011 30.694C16.7149 30.6086 16.6483 30.5193 16.6016 30.4073C16.5549 30.2953 16.5307 30.1751 16.5306 30.0537C16.5305 29.9323 16.5544 29.8121 16.601 29.7C16.6475 29.5879 16.7205 29.493 16.8066 29.4074L18.2566 27.9573L15.1 24.8007C14.6059 24.3076 14.5252 23.5113 14.9671 22.9734C15.4722 22.3557 16.388 22.323 16.9421 22.8759L20.1414 26.0726L22.3082 23.9057L19.1442 20.7494C18.6499 20.2561 18.5694 19.46 19.015 18.9183C19.1332 18.7744 19.2802 18.6569 19.4466 18.5731C19.6129 18.4894 19.7949 18.4414 19.9809 18.4323C20.1669 18.4231 20.3528 18.4529 20.5266 18.5198C20.7003 18.5867 20.8582 18.6892 20.99 18.8208L24.2023 22.0116L25.5636 20.6503C25.6491 20.5642 25.7333 20.4866 25.8453 20.4399C25.9573 20.3932 26.0775 20.369 26.1989 20.3689C26.3202 20.3688 26.4405 20.3927 26.5526 20.4392C26.6647 20.4857 26.7665 20.5539 26.8522 20.6399L29.4186 23.2013C31.461 25.2396 31.9949 28.2062 31.0402 30.7398L34.4033 34.103C36.1179 35.8102 37.5525 37.0852 39.3107 35.327L46.9179 27.7198C45.0894 29.5483 43.5872 28.1396 41.7801 26.3341L21.2853 5.82497Z" fill="url(#paint0_linear_234_1786)"/>
<path d="M35.6671 2.44261L29.2007 8.90387L43.5685 23.2717C44.9437 24.6411 46.1389 25.7324 47.4655 25.2033C48.2321 24.8975 48.7584 24.0658 48.4645 23.2945C41.5895 5.25474 41.5867 5.25446 40.6747 3.28256C39.7626 1.31065 37.1977 0.892529 35.6671 2.44261Z" fill="#897FFF"/>
<path d="M35.6671 2.44261L29.2007 8.90387L43.5685 23.2717C44.9437 24.6411 46.1389 25.7324 47.4655 25.2033C48.2321 24.8975 48.7584 24.0658 48.4645 23.2945C41.5895 5.25474 41.5867 5.25446 40.6747 3.28256C39.7626 1.31065 37.1977 0.892529 35.6671 2.44261Z" fill="#897FFF"/>
<path d="M35.6671 2.44261L29.2007 8.90387L43.5685 23.2717C44.9437 24.6411 46.1389 25.7324 47.4655 25.2033C48.2321 24.8975 48.7584 24.0658 48.4645 23.2945C41.5895 5.25474 41.5867 5.25446 40.6747 3.28256C39.7626 1.31065 37.1977 0.892529 35.6671 2.44261Z" fill="#897FFF"/>
<path d="M35.6671 2.44261L29.2007 8.90387L43.5685 23.2717C44.9437 24.6411 46.1389 25.7324 47.4655 25.2033C48.2321 24.8975 48.7584 24.0658 48.4645 23.2945C41.5895 5.25474 41.5867 5.25446 40.6747 3.28256C39.7626 1.31065 37.1977 0.892529 35.6671 2.44261Z" fill="#897FFF"/>
<path d="M35.6671 2.44261L29.2007 8.90387L43.5685 23.2717C44.9437 24.6411 46.1389 25.7324 47.4655 25.2033C48.2321 24.8975 48.7584 24.0658 48.4645 23.2945C41.5895 5.25474 41.5867 5.25446 40.6747 3.28256C39.7626 1.31065 37.1977 0.892529 35.6671 2.44261Z" fill="#897FFF"/>
<defs>
<linearGradient id="paint0_linear_234_1786" x1="23.7324" y1="1.95768" x2="23.7324" y2="46.864" gradientUnits="userSpaceOnUse">
<stop stop-color="#FFCA4A"/>
<stop offset="1" stop-color="#F7931A"/>
</linearGradient>
</defs>
</svg>
